<?xml version="1.0" encoding="utf-8"?>
<!-- Generator: Adobe Illustrator 25.0.0, SVG Export Plug-In . SVG Version: 6.00 Build 0)  -->
<svg version="1.1" id="Layer_1" xmlns="http://www.w3.org/2000/svg" xmlns:xlink="http://www.w3.org/1999/xlink" x="0px" y="0px"
	 viewBox="0 0 2417 2518.9" style="enable-background:new 0 0 2417 2518.9;" xml:space="preserve">
<style type="text/css">
	.st0{opacity:0.85;}
	.st1{fill:#F7931D;}
	.st2{fill:#FFFFFF;}
	.st3{opacity:0.3;}
	.st4{fill:#102770;}
	.st5{fill:#686779;}
	.st6{fill:#FEFFFF;}
	.st7{opacity:0.35;}
	.st8{fill:#575B5A;stroke:#102770;stroke-width:5;stroke-miterlimit:10;}
	.st9{fill:none;}
	.st10{fill:#4FA1FF;}
	.st11{clip-path:url(#SVGID_2_);}
	.st12{fill:#77E236;}
	.st13{clip-path:url(#SVGID_4_);}
	.st14{fill:#54A520;}
	.st15{opacity:0.45;}
	.st16{fill:#6BD6F0;stroke:#102770;stroke-width:5;stroke-miterlimit:10;}
</style>
<g>
	<g>
		<g class="st0">
			<g>
				<g>
					<g>
						<ellipse class="st1" cx="1217" cy="2361.3" rx="1200" ry="115.9"/>
					</g>
				</g>
			</g>
		</g>
		<g>
			<g>
				<g>
					<g>
						<path class="st2" d="M1556.7,1105.6c0,0,523.5-118.2,632.8,39.5c95.3,137.5,142.5,726.6,104.9,808.9
							c-76.1,166.8-444,151.8-444,151.8"/>
					</g>
				</g>
			</g>
		</g>
		<g class="st3">
			<g>
				<g>
					<g>
						<path class="st4" d="M1877.2,2108.9c0,0,382.3-54.9,415.2-139.2c30.6-78.5,0.2-606.2-83.5-789.6
							c42.9,238.8,57,525.8,37.9,585.4c-53.8,168.1-396.3,148.5-396.3,148.5L1877.2,2108.9z"/>
					</g>
				</g>
			</g>
		</g>
		<g>
			<g>
				<g>
					<g>
						<path class="st4" d="M1886.8,2120.2c-1.7,0-2.8,0-3.4,0c-8.4-0.1-15.1-6.9-15-15.3c0.1-8.4,7.1-15,15.3-15
							c3.7,0,368.8,1.8,407.6-172.2c19.8-88.6-26.7-627.9-114.5-764.3c-73.7-114.5-388.2-64.2-391.4-63.7
							c-8.2,1.4-16.1-4.2-17.4-12.5c-1.4-8.3,4.2-16.1,12.5-17.4c13.7-2.3,337.4-54,421.8,77.2c93.6,145.3,139.4,694.2,118.6,787.3
							C2278.5,2114.6,1928,2120.2,1886.8,2120.2z"/>
					</g>
				</g>
			</g>
		</g>
		<g>
			<g>
				<g>
					<g>
						<path class="st4" d="M1792.5,1205.9c-6.5,0-12.5-4.2-14.5-10.7c-2.5-8,2-16.5,10-19c7.3-2.3,180-55.1,326.1-51.8
							c78,1.8,87.8,9.3,92.6,18.8c2.7,5.4,2.3,11.8-1.1,16.7c-4.8,6.8-14.3,8.5-21.1,3.7c-1.2-0.8-2.3-1.9-3.1-3
							c-5.5-1.6-22.1-4.8-68-5.9c-141.1-3.3-314.7,49.9-316.4,50.4C1795.5,1205.7,1794,1205.9,1792.5,1205.9z"/>
					</g>
				</g>
			</g>
		</g>
		<g>
			<g>
				<g>
					<g>
						<path class="st2" d="M2075.6,1853.7c-7.4,53.4-156.8,70.2-156.8,70.2s-17.4-16.7-34.4,2.4c-13,14.5-30.9,33.2-53.6,54
							c-68.8,63.2-181.8,145.9-336.6,190.5c-9.8,2.8-19.8,5.5-30,8c-60,14.8-125.8,23.7-197.3,23.7c-26.9,0-65.2-5.8-110.8-15.5
							l57.8,22.5c-5.1-1.1-170.7-33.9-289.8-37.5c-13.6-0.4-53.4-0.3-98.5,4.4c-29.2,3-60.7,8-88.5,16.1
							c-24,6.9-45.2,16.2-59.9,28.5c-55.2,46.1-85,101.9-200.4,95.7c-112.5-6.1-171.1-141.2-171.7-271.4c0-13.1,0.5-26.3,1.7-39.2
							c9-101.8,55-191.9,140.2-202.7c7.7-39.4,42.1-41.1,57.8-61.3c68-88.2,144.7-29,144.7-29l54.5-5.5l0.1-0.2l61.2-144.1
							c12.1-5.1,7.6-22.3,2.2-35.2l5.6-16.1l0.3-1.1l12.5-42.1l-20.7,9.8l65.2-211.8l3-9.7c194.4,101.8,354.5,10.2,598.5-36.9
							c165.5-31.9,308.6-56.1,369.5-104.4c28.9-22.8,36.7-38.4,36.7-38.4c3.6,1.1,29.2,40.6,57.6,91c24.3,43.4,50.6,94.8,66.6,137.1
							c0,0,2.7,15.9,6.1,34.9c4.5,25,10.2,55.3,12.4,61.3C1982.5,1406.7,2080.7,1816.6,2075.6,1853.7z"/>
					</g>
				</g>
			</g>
		</g>
		<g class="st3">
			<g>
				<g>
					<g>
						<path class="st4" d="M1867.5,1911.1c-8.5,24.2-21.1,47.2-36.7,69.2c-68.8,63.2-181.8,145.9-336.6,190.5
							c-9.8,2.8-19.8,5.5-30,8c9.1-163.8,43.5-659.7,43.5-659.7l353.5-91.8C1861.1,1427.3,1932,1727.2,1867.5,1911.1z"/>
					</g>
				</g>
			</g>
		</g>
		<g>
			<g>
				<g>
					<g>
						<path class="st5" d="M765.2,1563.1L704,1707.2l63.3-179.3C772.8,1540.8,777.3,1558,765.2,1563.1z"/>
					</g>
				</g>
			</g>
			<g>
				<g>
					<g>
						<path class="st4" d="M706.3,1708.2l-4.7-1.8l65.5-185.4l2.5,5.9c3.5,8.3,5.4,15.5,5.7,21.4c0.4,10-4,14.6-8.3,16.7
							L706.3,1708.2z M767.5,1535.1l-34.2,96.7l30-70.6l0.9-0.4c4.4-1.9,6.4-5.9,6.2-12.3C770.2,1544.7,769.2,1540.2,767.5,1535.1z"
							/>
					</g>
				</g>
			</g>
		</g>
		<g>
			<g>
				<g>
					<g>
						<path class="st6" d="M759.7,1512.8c0,0,4.8-0.8,13.6-2l-0.3,1.1l-5.7,16.1C763.8,1519.4,759.7,1512.8,759.7,1512.8z"/>
					</g>
				</g>
			</g>
			<g>
				<g>
					<g>
						<path class="st4" d="M767.6,1534.8l-2.5-5.9c-3.5-8.2-7.4-14.7-7.5-14.8l-1.9-3.2l3.7-0.6c0,0,4.8-0.8,13.7-2.1l3.9-0.6
							l-1.5,4.9L767.6,1534.8z M763.7,1514.7c0.9,1.7,2.1,3.9,3.4,6.5l2.6-7.4C767.2,1514.2,765.2,1514.5,763.7,1514.7z"/>
					</g>
				</g>
			</g>
		</g>
		<g class="st7">
			<g>
				<g>
					<g>
						<path d="M694,2117.7c2.8-0.9,5.7-2,8.5-3.2C699.5,2116,696.6,2117,694,2117.7z"/>
					</g>
				</g>
			</g>
			<g>
				<g>
					<g>
						<path class="st4" d="M694.6,2120.1l-1.4-4.8c2.7-0.9,5.6-2,8.4-3.1l2,4.6C700.5,2118.2,697.5,2119.4,694.6,2120.1z"/>
					</g>
				</g>
			</g>
		</g>
		<g class="st7">
			<g>
				<g>
					<g>
						<path d="M1190.6,2039c0,0,0,1.4-1.4,3.7C1189.7,2041.3,1190.1,2040.1,1190.6,2039z"/>
					</g>
				</g>
			</g>
			<g>
				<g>
					<g>
						<path class="st4" d="M1181.4,2060.6l5.4-18.7c0.5-1.7,1-3,1.6-4.2l4.7-9.5v10.6c0,0.3-0.1,2.2-1.7,5L1181.4,2060.6z"/>
					</g>
				</g>
			</g>
		</g>
		<g class="st7">
			<g>
				<g>
					<g>
						<path class="st2" d="M727,1755.5c0,0-74.3-42.9-148.1,9c-24.9,17.6-39.5,36.1-48,52.8c-16.8-8.3-36.1-13.8-58.4-15
							c-2.9-0.1-5.7-0.2-8.5-0.2c19.8-41.2,54.1-96.8,99.6-94.6c62.8,3.1,123.1,3.8,151.2,25.3C743,1754.5,727,1755.5,727,1755.5z"
							/>
					</g>
				</g>
			</g>
			<g>
				<g>
					<g>
						<path class="st4" d="M532.1,1820.7l-2.2-1.1c-17.4-8.6-36.8-13.6-57.4-14.8c-2.8-0.1-5.6-0.2-8.4-0.2h-4l1.7-3.6
							c31.4-65.5,65.6-97.9,102-96c5.9,0.3,11.7,0.6,17.5,0.8c56,2.6,109,5,135.1,25c13.4,10.3,18.9,17.5,17.4,22.6
							c-1,3.3-4.6,4.4-6.6,4.6l-0.8,0.1l-0.7-0.4c-0.7-0.4-73.8-41.4-145.4,8.9c-21.5,15.2-37.4,32.6-47.2,51.9L532.1,1820.7z
							 M468.1,1799.7c1.5,0,3.1,0.1,4.7,0.2c20.5,1.1,39.7,5.9,57.2,14.2c10.2-19.1,26.2-36.4,47.6-51.5c70.1-49.3,141.6-14,150-9.6
							c0.6-0.2,1.4-0.5,1.5-0.9c0.1-0.4,0.8-4.5-15.7-17.2c-24.9-19.1-77-21.5-132.3-24c-5.8-0.3-11.6-0.5-17.5-0.8
							C530.6,1708.5,497.7,1739.4,468.1,1799.7z"/>
					</g>
				</g>
			</g>
		</g>
		<g class="st7">
			<g>
				<g>
					<g>
						<path class="st2" d="M634.4,1975.8c-26.1-26-100.9-111.8-187.5-111.7c-90.4,0.2-133.6,153.2-133.6,153.2l-6.5-11.4
							c9.5-108.4,61.1-203.6,157.3-203.8c2.8,0,5.6,0.1,8.5,0.2c22.3,1.2,41.6,6.7,58.4,15c71.2,35.5,95.8,122.7,102.6,154.8
							C633.9,1973.5,634.2,1974.7,634.4,1975.8z"/>
					</g>
				</g>
			</g>
			<g>
				<g>
					<g>
						<path class="st4" d="M314.1,2023.8l-9.8-17.3l0.1-0.8c8.8-99.5,55.3-205.9,159.8-206.1c2.9,0,5.7,0.1,8.6,0.2
							c21.4,1.2,41.3,6.3,59.4,15.3c71.4,35.6,96.5,121.3,103.9,156.5l0.1,0.7c0.2,1.1,0.5,2.2,0.6,3.1l1.3,7.7l-5.6-5.6
							c-2.3-2.3-5-5.1-8-8.2c-29.8-30.8-99.7-102.7-177.5-102.7c0,0-0.1,0-0.1,0c-87.5,0.2-130.8,149.9-131.2,151.4L314.1,2023.8z
							 M309.4,2005.4l3.2,5.7c8.9-28.3,51.9-149.2,134.3-149.4c0,0,0.1,0,0.1,0c80,0,150.8,73,181.1,104.2c0.7,0.7,1.3,1.4,2,2
							c-8.5-36.9-33.8-115.3-100.2-148.3c-17.4-8.6-36.8-13.6-57.4-14.8c-2.8-0.1-5.6-0.2-8.4-0.2
							C363.3,1804.8,318.1,1908.3,309.4,2005.4z"/>
					</g>
				</g>
			</g>
		</g>
		<g>
			<g>
				<g>
					<g>
						<path class="st4" d="M494,2335.5c-5.8,0-11.9-0.2-18.2-0.5c-61.6-3.3-114.4-42.2-148.7-109.3
							c-29.3-57.3-43.8-132.7-39.8-206.8c3.5-64.7,21-123,49.3-164.4c33.7-49.3,81.1-73.7,137-70.7
							c122.4,6.7,171.6,132.3,180.5,197.8c1.4,10.1-5.7,19.5-15.8,20.8c-10.1,1.3-19.4-5.7-20.8-15.8l0,0
							c-0.9-6.5-23.6-159.3-145.9-165.9c-100.5-5.4-142.1,104.4-147.3,200.1c-7.2,131.7,48.3,271.4,153.6,277.1
							c85.3,4.6,118.5-26.9,156.9-63.5c9.7-9.2,19.6-18.7,30.7-27.9c40.4-33.7,128.2-51.5,260.8-52.9l3.9,0
							c179.4-2.3,422,31.7,424.4,32.1c10.1,1.4,17.2,10.8,15.7,20.9s-10.8,17.1-20.9,15.7c-2.4-0.4-242.3-34.1-418.7-31.7l-4,0
							c-162.4,1.7-218.5,28.5-237.5,44.3c-10.1,8.4-19.7,17.5-28.9,26.3C621.9,2297.8,582.3,2335.5,494,2335.5z"/>
					</g>
				</g>
			</g>
		</g>
		<g>
			<g>
				<g>
					<g>
						<path class="st4" d="M856.7,1896.5c-4.8,0-9.7-1.9-13.3-5.7c-16-16.6-30.9-34.3-45.3-51.4c-49.6-59-96.5-114.7-185.3-119.6
							c-69.9-3.7-113.8,47.6-138.3,91.3c-5,8.9-16.3,12.1-25.2,7.1c-8.9-5-12.1-16.3-7.1-25.2c29.6-52.9,83.6-115,172.6-110.2
							c104.8,5.7,159.1,70.3,211.6,132.7c14,16.6,28.4,33.8,43.6,49.5c7.1,7.4,6.9,19.1-0.5,26.2
							C866,1894.8,861.3,1896.5,856.7,1896.5z"/>
					</g>
				</g>
			</g>
		</g>
		<g>
			<g>
				<g>
					<g>
						<path class="st4" d="M616.2,2287.8c-4.5,0-8.9-1.6-12.5-4.9c-7.5-6.9-8.1-18.6-1.2-26.1c27.3-29.9,25.2-95.8,22.1-118.7
							c-1.4-10.1,5.7-19.5,15.8-20.9c10.1-1.4,19.5,5.7,20.9,15.8c0.6,4.1,13.3,99.9-31.4,148.7
							C626.2,2285.8,621.2,2287.8,616.2,2287.8z"/>
					</g>
				</g>
			</g>
		</g>
		<g>
			<g>
				<g>
					<g>
						<path class="st4" d="M694.1,1722.8c-3.5,0-7-1-10.1-3c-8.6-5.6-11-17-5.5-25.6c1.3-2.1,100.6-158,89.2-327.7
							c-0.7-10.2,7-19,17.2-19.7c10.2-0.7,19,7,19.7,17.2c12.3,182.6-90.7,343.6-95.1,350.4C706.1,1719.9,700.2,1722.8,694.1,1722.8
							z"/>
					</g>
				</g>
			</g>
		</g>
		<g class="st3">
			<g>
				<g>
					<g>
						<path class="st4" d="M1266.8,2202.4c-26.9,0-65.2-5.8-110.8-15.5l57.8,22.5c-5.1-1-170.6-33.8-289.8-37.5
							c-13.6-0.4-53.4-0.3-98.5,4.3c-3.7,0.4-7.4,0.8-11.1,1.3s-7.5,0.9-11.2,1.4c-3.8,0.5-7.5,1-11.3,1.6s-7.5,1.2-11.2,1.9
							c-3.6,0.6-7.2,1.3-10.7,2c-0.4,0.1-0.8,0.1-1.3,0.3c-2.9,0.5-5.7,1.1-8.5,1.8c-1.4,0.3-2.8,0.6-4.1,0.9
							c-2.5,0.5-5,1.2-7.4,1.8c-0.7,0.1-1.3,0.3-1.8,0.5c-3,0.8-6.1,1.6-9,2.4c-0.3,0.1-0.6,0.1-0.9,0.2c-24,7-45.2,16.2-59.9,28.5
							c-55.2,46-85,101.9-200.4,95.7c-112.5-6.1-177.7-154.4-171.7-313.3c25.3,92.7,78.3,156.1,144.6,169.8
							c40.9,8.4,104.5-8.4,128.5-30.8c56-52.1,56.1-134.4,56.1-134.4s16.4,105,63.8,97.8c95-14.5,131.3-15.2,183.2-19.4
							c121.6-9.9,336.4,48.4,454.6,21.3c0.1,2.7,0.3,5.4,0.5,8.1c1.8,28.1,6.5,56.2,13.8,82.8
							C1323.4,2201,1295.6,2202.4,1266.8,2202.4z"/>
					</g>
				</g>
			</g>
		</g>
		<g>
			<g>
				<g>
					<g>
						<path class="st8" d="M2025.7,1878.3"/>
					</g>
				</g>
			</g>
		</g>
		<g class="st7">
			<g>
				<g>
					<g>
						<path class="st2" d="M1675.4,1755.6l99.4,23.6c-187.1-33.1-195,84.4-195,84.4c-39.1-8.3-80.5-10.1-110.2-10.1
							c3.3-18.7,18.6-67.1,89.6-81.3C1599.9,1764,1638.8,1756.9,1675.4,1755.6z"/>
					</g>
				</g>
			</g>
			<g>
				<g>
					<g>
						<path class="st4" d="M1582.1,1866.6l-2.8-0.6c-39.4-8.4-81.4-9.9-109.6-10l-3,0l0.5-2.9c3.6-20.3,19.6-68.9,91.6-83.3
							c38.1-7.6,78.5-15.2,116.6-16.6l0.3,0l99.7,23.6l-1,4.9c-70-12.4-122.7-5.2-156.6,21.3c-32.7,25.5-35.4,60.4-35.5,60.8
							L1582.1,1866.6z M1472.6,1851c27.8,0,67.3,1.8,104.9,9.5c1.3-9.2,7.7-38.6,37-61.5c27.4-21.4,66.4-30.7,116.1-27.8l-55.5-13.2
							c-37.7,1.4-77.7,8.9-115.5,16.5C1494.1,1787.8,1477.1,1830.3,1472.6,1851z"/>
					</g>
				</g>
			</g>
		</g>
		<g class="st3">
			<g>
				<g>
					<g>
						<path class="st4" d="M1742.8,1310.9c-113.1,61.3-376.8,102.4-467.3,100.1c-54.8-1.3-184-4-299.4-38.2
							c-72.4-21.4-120.5-51.1-145.6-85.8l3-9.7c194.4,101.8,354.5,10.2,598.5-36.9c165.5-31.9,308.6-56.1,369.5-104.4
							c28.9-22.8,36.7-38.4,36.7-38.4c3.6,1.1,29.2,40.6,57.6,91c-3.2,3.7-6.5,7.3-9.8,10.9c1.6,3.5,3.3,7.1,5,11l-5,3.7
							c-1.5-2.6-3-5.1-4.6-7.5C1846.8,1247.2,1778.4,1291.7,1742.8,1310.9z"/>
					</g>
				</g>
			</g>
		</g>
		<g>
			<g>
				<g>
					<g>
						<path class="st4" d="M1732.2,1718.4c-9.4,0-17.4-7.1-18.4-16.7c-1-10.2,6.4-19.2,16.6-20.3c1.9-0.2,189.9-19.7,302.1-79.5
							c9-4.8,20.2-1.4,25,7.6c4.8,9,1.4,20.2-7.6,25c-118.7,63.3-307.8,82.9-315.8,83.7C1733.4,1718.3,1732.8,1718.4,1732.2,1718.4z
							"/>
					</g>
				</g>
			</g>
		</g>
		<g>
			<g>
				<g>
					<g>
						<path class="st4" d="M1793.2,1807.6c-26.8,0-43.1-2.5-45-2.9c-10.1-1.7-16.9-11.2-15.2-21.3c1.7-10.1,11.2-16.9,21.3-15.2
							c1.8,0.3,135.7,20.4,293.8-68.9c8.9-5,20.2-1.9,25.2,7s1.9,20.2-7,25.2C1951.1,1796.6,1849.1,1807.6,1793.2,1807.6z"/>
					</g>
				</g>
			</g>
		</g>
		<g>
			<g>
				<g>
					<g>
						<path class="st2" d="M794.5,1131.3c-115.9-81.3-158.6-202-165.2-341C623,657.9,774.8,349.7,774.8,349.7
							s24.7-112.4,114.5-191.6c188.3-166,473.8-137.5,473.8-137.5s328.4,9.3,513.4,266.1c145.7,202.2,145.6,429.4,117.4,589.9
							c-27.9,159.2-126.2,298-269.4,375.7c-107.8,58.5-359.3,97.7-445.6,95.5c-52.3-1.3-175.4-3.8-285.5-36.4
							c-115.8-34.3-166.4-90.8-158-154.7"/>
					</g>
				</g>
			</g>
		</g>
		<g class="st3">
			<g>
				<g>
					<g>
						<path class="st4" d="M794.5,1131.3l40.9,25.3c1.6,59.1,42.2,120.4,158,154.6c110.1,32.6,233.2,35.2,285.5,36.5
							c86.3,2.2,337.8-37,445.6-95.5c143.2-77.6,241.5-216.5,269.4-375.7c17.1-96.9,23.8-218.1-5.5-343.3
							c-1.9,45.1-7.1,87.5-13.9,126.1c-27.9,159.2-126.2,298-269.4,375.7c-107.8,58.5-359.3,97.7-445.6,95.5
							c-52.3-1.3-175.4-3.8-285.5-36.4c-115.8-34.3-206.6-101.7-158-154.7l-40.9-25.3C703.6,863.9,660,798.8,635.5,723.7
							c-4.7,24.9-7.1,47.6-6.2,66.7C635.9,929.3,678.6,1050,794.5,1131.3z"/>
					</g>
				</g>
			</g>
		</g>
		<g>
			<g>
				<g>
					<g>
						<path class="st4" d="M1286.2,1366.4c-2.7,0-5.2,0-7.7-0.1l-2.9-0.1c-52.9-1.3-176.9-4.4-287.4-37.1
							c-115-34.1-171-90.4-171.2-172.3c0-10.2,8.2-18.5,18.5-18.6c10.2,0,18.5,8.2,18.5,18.5c0.1,40.4,15.2,98.6,144.7,136.9
							c105.7,31.3,226.3,34.3,277.8,35.6l2.9,0.1c84.3,1.9,332.1-36.7,436.3-93.2c137.9-74.8,232.7-207,260-362.6
							c26.9-153.1,28.9-377.3-114.2-575.9C1684.2,51.4,1365.8,39.1,1362.6,39l-1.3-0.1c-3.1-0.3-313.5-27.8-483.6,156.7
							c-72.3,78.4-84.5,155.9-84.7,156.7l-0.4,2.9l-1.3,2.6c-1.5,3-149.6,305.5-143.5,431.6c7.2,152.7,57.2,256.5,157.3,326.7
							c8.4,5.9,10.4,17.4,4.5,25.8c-5.9,8.4-17.4,10.4-25.8,4.5c-108.8-76.3-165.3-192.5-173-355.3
							C604.6,660.4,741.6,375.5,757,343.9c3-16.6,20.5-94.2,93.5-173.4C1031.1-25.3,1343.8,0.2,1364.3,2.1
							c8.6,0.3,89.1,4,191.9,37.6c98.6,32.3,236.9,99.4,335.4,236.2c150.7,209.1,148.7,443.8,120.6,604
							c-29.3,166.8-130.9,308.5-278.8,388.8C1625.3,1327.2,1382.1,1366.4,1286.2,1366.4z"/>
					</g>
				</g>
			</g>
		</g>
		<g>
			<g>
				<g>
					<g>
						<path class="st4" d="M629.3,790.4c2.6,107,31.5,203.1,96.3,278.8c0,0.1,0.1,0.2,0.2,0.2c6,7,12.3,13.8,18.9,20.4l49.8,41.6
							c-18.4-12.9-34.9-26.7-49.8-41.6l-0.1,1.8c87.7,90.4,259,116,345.7,121.5c144.1,9.2,292.4-4.9,383.4-47
							c123.1-56.9,181.6-170.7,204.3-293.8c23-124.2,22.1-300-100-457c-155.2-199.5-428.9-207.9-428.9-207.9s-5.9-0.6-16.7-1
							c-232.9-8.7-437.3,153.6-484.2,381.8C635.7,649.7,627.5,718.3,629.3,790.4z"/>
					</g>
				</g>
			</g>
		</g>
		<g>
			<g>
				<g>
					<g>
						<path class="st4" d="M1173.8,1234.3c-27.7,0-55.9-0.9-84.6-2.7c-58.7-3.8-257.8-24-357.8-127.1l-5.7-5.9l0.1-1.8
							c-4.2-4.3-8.2-8.7-12-13.1l-1.1-0.7l-1.8-2.7c-63.5-74.6-97.2-172-100.1-289.5l0,0c-1.6-66.4,4.9-135.8,19.3-206.3
							c23.5-114.8,87.1-218,179-290.6c92-72.7,207.1-110.4,324-106c9.3,0.4,15.3,0.8,17.1,1c17.9,0.6,285.7,13.6,442.4,215
							c127.4,163.9,126.7,347,103.6,471.7c-27.8,150.9-100,254.3-214.7,307.3C1409.7,1216.1,1298.4,1234.3,1173.8,1234.3z
							 M806.4,1117.1c97.4,60.6,238.4,74.5,285.1,77.5c152.1,9.7,292.1-7.3,374.4-45.3c103.2-47.7,168.4-142,193.8-280.4
							c21.7-117.3,22.6-289.3-96.4-442.3c-148.1-190.4-412.2-200.6-414.9-200.7l-1.2-0.1c0,0-5.7-0.5-15.6-0.9
							c-224.3-8.3-420,146-465.3,367.1c-13.9,67.8-20.2,134.4-18.6,198l0,0c2.7,108.7,33.3,198.3,91,266.2l1.7,2
							c5.2,6,10.8,12.1,16.7,18L806.4,1117.1z"/>
					</g>
				</g>
			</g>
		</g>
		<g>
			<g>
				<g>
					<g>
						
							<ellipse transform="matrix(6.319977e-02 -0.998 0.998 6.319977e-02 1033.7253 2600.5837)" class="st2" cx="1902.1" cy="749.7" rx="199.3" ry="151.8"/>
					</g>
				</g>
			</g>
			<g>
				<g>
					<g>
						<path class="st4" d="M1897,951.3c-2.5,0-5.1-0.1-7.7-0.2c-84.9-5.4-148.2-100.1-141.2-211.1c3.4-53.7,22.5-103.1,53.9-139.3
							c31.5-36.4,71.6-54.9,112.8-52.3c84.9,5.4,148.2,100.1,141.2,211.1c-3.4,53.7-22.5,103.1-53.9,139.3
							C1972.6,932.8,1935.5,951.3,1897,951.3z M1907.2,553c-37.1,0-72.8,17.9-101.4,50.8c-30.6,35.3-49.3,83.8-52.7,136.3
							c-6.9,108.3,54.4,200.6,136.5,205.8c39.7,2.5,78.3-15.5,108.8-50.6c30.6-35.3,49.3-83.8,52.7-136.3
							c6.9-108.3-54.4-200.6-136.5-205.8C1912.1,553.1,1909.7,553,1907.2,553z"/>
					</g>
				</g>
			</g>
		</g>
		<g>
			<g>
				<g>
					<g>
						<path class="st2" d="M1889.4,948.3c0,0-51.6-3-105.3-6.4c-83.7-5.3-145.8-98.6-138.9-208.5c7-109.8,80.4-194.6,164.1-189.3
							c44.8,2.8,112.7,7.1,112.7,7.1"/>
					</g>
				</g>
			</g>
			<g>
				<g>
					<g>
						<path class="st4" d="M1889.3,950.8c0,0-51.6-3-105.3-6.4c-84.9-5.4-148.2-100.1-141.2-211.1c3.4-53.7,22.5-103.1,53.9-139.3
							c31.5-36.3,71.6-54.9,112.8-52.3l112.7,7.1l-0.3,5l-112.7-7.1c-39.7-2.6-78.3,15.5-108.8,50.6
							c-30.6,35.3-49.3,83.8-52.7,136.3c-6.9,108.3,54.4,200.6,136.5,205.8c53.6,3.4,105.3,6.4,105.3,6.4L1889.3,950.8z"/>
					</g>
				</g>
			</g>
		</g>
		<g>
			<g>
				<g>
					<g>
						
							<ellipse transform="matrix(6.319977e-02 -0.998 0.998 6.319977e-02 1033.7253 2600.5837)" class="st2" cx="1902.1" cy="749.7" rx="199.3" ry="151.8"/>
					</g>
				</g>
			</g>
			<g>
				<g>
					<g>
						<path class="st4" d="M1897,951.3c-2.5,0-5.1-0.1-7.7-0.2c-84.9-5.4-148.2-100.1-141.2-211.1c3.4-53.7,22.5-103.1,53.9-139.3
							c31.5-36.4,71.6-54.9,112.8-52.3c84.9,5.4,148.2,100.1,141.2,211.1c-3.4,53.7-22.5,103.1-53.9,139.3
							C1972.6,932.8,1935.5,951.3,1897,951.3z M1907.2,553c-37.1,0-72.8,17.9-101.4,50.8c-30.6,35.3-49.3,83.8-52.7,136.3
							c-6.9,108.3,54.4,200.6,136.5,205.8c39.7,2.5,78.3-15.5,108.8-50.6c30.6-35.3,49.3-83.8,52.7-136.3
							c6.9-108.3-54.4-200.6-136.5-205.8C1912.1,553.1,1909.7,553,1907.2,553z"/>
					</g>
				</g>
			</g>
		</g>
		<g>
			<g>
				<g>
					<g>
						<path class="st2" d="M1889.4,948.3c0,0-51.6-3-105.3-6.4c-83.7-5.3-145.8-98.6-138.9-208.5c7-109.8,80.4-194.6,164.1-189.3
							c44.8,2.8,112.7,7.1,112.7,7.1"/>
					</g>
				</g>
			</g>
			<g>
				<g>
					<g>
						<path class="st4" d="M1889.3,950.8c0,0-51.6-3-105.3-6.4c-84.9-5.4-148.2-100.1-141.2-211.1c3.4-53.7,22.5-103.1,53.9-139.3
							c31.5-36.3,71.6-54.9,112.8-52.3l112.7,7.1l-0.3,5l-112.7-7.1c-39.7-2.6-78.3,15.5-108.8,50.6
							c-30.6,35.3-49.3,83.8-52.7,136.3c-6.9,108.3,54.4,200.6,136.5,205.8c53.6,3.4,105.3,6.4,105.3,6.4L1889.3,950.8z"/>
					</g>
				</g>
			</g>
		</g>
		<g>
			<g>
				<g>
					<g>
						<path class="st2" d="M1889.4,948.3c0,0-51.6-3-105.3-6.4c-83.7-5.3-145.8-98.6-138.9-208.5c7-109.8,80.4-194.6,164.1-189.3
							c44.8,2.8,112.7,7.1,112.7,7.1"/>
					</g>
				</g>
			</g>
		</g>
		<g class="st3">
			<g>
				<g>
					<g>
						<path class="st4" d="M1784.2,941.9c53.6,3.4,105.3,6.4,105.3,6.4l32.6-397c0,0-9.4-0.6-23.5-1.5l-23.8,289.5l-130-123.2
							c0,0-32.3,61.1-65.6,58.5c-25.1-1.9-31.1-22.7-33.4-46.5c-0.2,1.8-0.3,3.6-0.4,5.4C1638.3,843.3,1700.5,936.6,1784.2,941.9z"
							/>
					</g>
				</g>
			</g>
		</g>
		<g>
			<g>
				<g>
					<g>
						<path class="st4" d="M1892.8,983.9c-0.4,0-0.7,0-1.1,0c0,0-56.1-3.3-114.3-7c-49.8-3.2-94.7-31.1-126.4-78.8
							c-30.7-46.1-45.4-105.4-41.5-167c8.2-129.1,96.7-229,197.6-222.6l122.3,7.7l-2.3,36.9l-122.3-7.7
							c-80.3-5-151.4,79.3-158.3,188c-3.4,53.6,9.2,104.8,35.4,144.2c25.2,37.8,60,59.9,97.9,62.3c58.1,3.7,114.1,7,114.1,7
							c10.2,0.6,18,9.4,17.4,19.6C1910.7,976.3,1902.5,983.9,1892.8,983.9z"/>
					</g>
				</g>
			</g>
		</g>
		<g>
			<g>
				<g>
					<g>
						
							<ellipse transform="matrix(6.319977e-02 -0.998 0.998 6.319977e-02 1033.7253 2600.5837)" class="st2" cx="1902.1" cy="749.7" rx="199.3" ry="151.8"/>
					</g>
				</g>
			</g>
		</g>
		<g class="st3">
			<g>
				<g>
					<g>
						<path class="st4" d="M1889.5,948.5c83.6,5.3,157.1-79.4,164.1-189.3c0.3-4.7,0.5-9.3,0.5-13.9
							c-21.8,77.7-102.4,101.5-152,101.5c-61,0-145.4-59.5-143.6-156c-4.1,15.6-6.8,32.1-7.8,49.2
							C1743.7,849.9,1805.9,943.2,1889.5,948.5z"/>
					</g>
				</g>
			</g>
		</g>
		<g>
			<g>
				<g>
					<g>
						<path class="st4" d="M1901.1,984.5c-3.1,0-6.2-0.1-9.4-0.3c-49.8-3.2-94.7-31.1-126.4-78.8c-30.7-46.1-45.4-105.4-41.5-167
							c8.2-129.1,96.8-229,197.6-222.6c49.8,3.2,94.7,31.1,126.4,78.8c30.7,46.1,45.4,105.4,41.5,167l0,0
							c-3.9,61.7-26,118.6-62.3,160.5C1991.9,962.5,1947.5,984.5,1901.1,984.5z M1912.1,552.5c-77.5,0-144.7,82.6-151.4,188.3
							c-3.4,53.6,9.2,104.8,35.4,144.2c25.2,37.8,60,59.9,97.9,62.3c38,2.4,75.3-15.2,105-49.5c31-35.7,49.9-85,53.3-138.6l0,0
							c3.4-53.6-9.2-104.8-35.4-144.2c-25.2-37.8-60-59.9-97.9-62.3C1916.8,552.5,1914.4,552.5,1912.1,552.5z"/>
					</g>
				</g>
			</g>
		</g>
		<g class="st3">
			<g>
				<g>
					<g>
						<path class="st2" d="M1555.1,509.3c-19.7-39.7-50.2-83.1-95.1-104.7c-35.5-17.1-63.4-7.4-84.3,11.3
							c-39.9,35.7-40.8,98.1-4.1,137.1l47.2,50.2c23.9,25.4,93.3,80.2,133,47.8C1572.2,634.4,1576.5,552.4,1555.1,509.3z"/>
					</g>
				</g>
			</g>
			<g>
				<g>
					<g>
						<path class="st4" d="M1522.3,668.6c-41.9,0-90.1-40.2-109-60.3l-47.2-50.2c-19.4-20.7-29.8-48.7-28.6-77
							c1.2-27.6,13-52.7,33.2-70.8c27.1-24.3,59.1-28.6,92.5-12.5c39.2,18.8,72.3,55.2,98.6,108.1l0,0
							c22.3,44.9,19.2,130.9-5.3,150.9C1546.3,665.2,1534.6,668.6,1522.3,668.6z M1424.2,403.1c-15.4,0-29.8,6.1-43.5,18.3
							c-17.2,15.4-27.2,36.8-28.2,60.3c-1.1,24.3,7.9,48.4,24.6,66.1l47.2,50.2c25.6,27.2,89.2,74.5,122.8,47.1
							c15.8-12.9,22.3-90.5,1.3-132.6l0,0c-24.7-49.8-55.6-83.9-91.7-101.3C1445.4,405.9,1434.6,403.1,1424.2,403.1z"/>
					</g>
				</g>
			</g>
		</g>
		<g class="st3">
			<g>
				<g>
					<g>
						<path class="st2" d="M1311.8,406.9L1311.8,406.9c30.6-45,8.3-106.9-44.1-121.7c-90.7-25.6-228.9-45.2-358.5,13.7
							c-35.3,16.1-50.4,58.2-33,92.9l0,0c13,25.9,42.5,39,70.5,31.6c59.7-15.6,166.9-32.2,267.3,11.8
							C1249.2,450.6,1290.3,438.6,1311.8,406.9z"/>
					</g>
				</g>
			</g>
			<g>
				<g>
					<g>
						<path class="st4" d="M1245.8,449.4c-11.7,0-23.5-2.4-34.8-7.3c-99.7-43.7-207.2-25.9-262.4-11.5c-31.4,8.2-64.6-6.7-79.1-35.5
							c-9.3-18.5-10.7-39.5-3.8-59.1c6.9-19.7,21.3-35.3,40.3-44c130.8-59.5,269.9-40.5,363.6-14.1c27.3,7.7,48.4,27.4,58.2,54
							c9.7,26.8,6.1,55.6-9.9,79.1l0,0C1301.3,435.6,1274,449.4,1245.8,449.4z M1070.6,399.5c46.1,0,97.2,7.2,146.5,28.8
							c31.7,13.9,68.9,3.1,88.5-25.6l0,0c13.3-19.5,16.3-43.4,8.2-65.5c-8-22.1-25.6-38.4-48.1-44.7
							c-91.3-25.7-226.7-44.3-353.3,13.3c-15.3,7-26.8,19.5-32.4,35.3c-5.5,15.7-4.5,32.5,3,47.4c11.3,22.5,37.4,34.2,61.9,27.7
							C974.8,408.2,1019.7,399.5,1070.6,399.5z"/>
					</g>
				</g>
			</g>
		</g>
		<g>
			<g>
				<g>
					<g>
						<g>
							<circle class="st9" cx="985.7" cy="1678.7" r="689.2"/>
						</g>
					</g>
				</g>
			</g>
			<g>
				<g>
					<g>
						<g>
							<path class="st10" d="M1674.9,1678.7c0,7-0.1,13.9-0.3,20.8c-11,371-315.2,668.4-688.9,668.4
								c-373.6,0-677.9-297.4-688.9-668.4c-0.2-6.9-0.3-13.9-0.3-20.8c0-87.2,16.2-170.5,45.7-247.3
								c98.2-255.3,344-437.5,632.8-441.8c3.5-0.1,7.1-0.1,10.7-0.1s7.2,0,10.7,0.1c288.9,4.4,534.6,186.5,632.8,441.8
								C1658.7,1508.2,1674.9,1591.5,1674.9,1678.7z"/>
						</g>
					</g>
				</g>
			</g>
			<g>
				<g>
					<defs>
						<circle id="SVGID_1_" cx="985.7" cy="1678.7" r="689.2"/>
					</defs>
					<clipPath id="SVGID_2_">
						<use xlink:href="#SVGID_1_"  style="overflow:visible;"/>
					</clipPath>
					<g class="st11">
						<g>
							<g>
								<g>
									<g>
										<g>
											<path class="st12" d="M1348.7,2061.5c-3.2-34-22.2-65.9-50.4-84.7c-36.3-24.2-44.5-77-49.5-115
												c-4.1-30.6-23.3-54.4-53.2-33.3c-68.6,48.5-168-25.3-187.5-96c-17-75.7,0.9-141.9,39.4-206.3
												c26.7-44.7,82.8-58.1,127.9-36.1c53.1,26,135.9-54.4,144.5-106.9c1-6,1.6-14.1-0.5-18.9c-21.5-48.3-95.1-51.4-119.7-6.6
												c-15.9,29-48.9,39.6-78.3,23.9c-54.1-28.8-71.1-4.8-89.5,48.3c-5.9,17.1-6,48.1-27.2,34.9
												c-20.8-12.9-38.7-38.7-27.9-63.3c26.4-59.9,51-123.4,66.8-187.9c1-4.2,5.2-9.9,8.2-10.2c67.1-7,60.1-93.6,73.3-141.8
												c4.6-17,1.1-24.8-9.9-31.5c-11.2-6.9-16.4,0.9-20.8,12.9c-7.3,20.1-14.4,40.2-21.8,60.2c-3.8,10.3-5.2,25.8-16.6,24.2
												c-13.4-2-20.2-18.3-19.5-33.1c2.2-42.4,13.5-89.7,39.3-124c19.5-26,57.2-44.7,87.2-24.8c37.2,24.7,66.2,22.2,106.9,1.3
												c17.1-8.8,35.5-18.3,53.6-23.7c30.6-9.2,52.4-33.8,60.1-64.9c8.2-31,33.1-53.3,64.2-59.2c19.6-3.7,32.3-14.6,38-38.2
												c10.2-42.1,43.4-73.8,83.4-87.3c59.5-20.1,108.7-16.8,151.8,27.7c11.8,12.1,24,7.4,35.5,4.9
												c30.1-6.5,62.2-11.4,90.8-18.5c21.7-5.4,52.7,4.8,66.7,22.2c9.4,11.7,20.4,13,31.2,11.5c14.9-2.1,30.9-2.4,44.9-4
												c33.9-3.9,48.3,3,66.2,33.6c7.1,30-12.9,70-40.9,77.3c-8.2,2.1-18,3.5-27.4,3.7c-26.3,0.4-30.6,16.9-21.8,50.1
												c18.9,71.2-4.7,176-80.7,202.4c-18.4,6.4-28.6,13.6-20,42.9c4.5,15.3,7.1,33.4-0.5,49.2c-17.3,36.3-26.6,77.2-15.4,116.2
												c8.8,30.7-20.7,53.8-48.3,37.6c-30-17.6-59.2-37.7-87.1-58.8c-21.5-16.4-33.8-11.2-43,17.6c-7.9,24.8-20.9,50-26.9,74
												c-7.7,30.5-33.3,51.7-61.3,28.2c-32-20.4-49.2-28.2-82.3-19.8c-11.7,2.9-24.8-1.6-36.2-10.2
												c-11.5-8.7-24.8-18.4-30.9,5.2c-5.7,22.3,12.7,20.9,21,27.7c15,12.3,31.4,22,47.2,32.1c27.6,17.6,30.7,45.5,12.8,71.6
												c-17.5,25.5-50.6,46.5-81.1,25.4c-20.6-13.1-40.8-26.8-61.3-39.9c-9.7-6.2-18.9-17.2-27.8,5.2
												c-9.4,23.8,4.2,25.5,13.2,31.6c35.8,24.2,71.8,48.1,108.5,71.1c31.6,19.7,42.1,59.8,25.4,92.5
												c-34.5,67.4-28.1,140.4-3.5,216.2c10.1,31,17.6,61.6,24.4,93.7c13.8,63.6-16,158.4-86.3,175.5
												c-27.9,6.3-51-13.2-59.1-38.9C1360,2108,1354.4,2084.4,1348.7,2061.5z"/>
										</g>
									</g>
								</g>
							</g>
							<g>
								<g>
									<g>
										<g>
											<path class="st12" d="M26.5,1626.2c-29.3-60.3-24.8-107.5,42.4-133.4c99.3-43.1,197.3-89.2,293.8-137.8
												c16.3-8.2,33-18.1,47.5-0.1c12.3,15.2,11.4,34.3,5.2,54.5c-11,35.8,15.6,44.8,40.6,57c21.1,10.2,44.3-2.9,61.7-20.3
												c15.3-15.3-0.3-34.3-3.4-51.3c-2.2-11.9-9-24.6,0.1-35c9.4-10.8,19-0.6,27,5c16.1,11.1,31.4,12.9,49.2,2.7
												c15.6-8.9,32.3-8.4,44.3,9.6c11.8,17.8,10,39.7,2.8,59.5c-29.1,80.7-61.9,162.6-90.4,241.2
												c-12.2,33.7-49.8,45.3-79.7,57.7c-30,12.5-30.8,45.9-17.8,71.1c5.4,10.4,11.3,17.9,20.8,14.1
												c37.9-15.3,69.6,12.4,97.6,31.8c21.5,15,51,24.3,76.7,10.8c30.8-16.1,56.1-14.3,86.5,3.9c23.8,14.3,57.4,35.9,87.2,27.5
												c38.8-11,59,101.2,51.2,130.2c-21.3,79.2-50.4,163.8-80.2,241.7c-16.2,42.3-18.9,85-5,126.5
												c6.9,20.8,12.5,45.2,17.6,68.2c3.2,14.3,13.5,31.6,5.8,42.7c-9.5,13.8-23.8-0.7-34.8-7.2
												c-37.3-22.4-60.7-64.4-71.6-105.1c-8.1-30.2-17.6-61.2-23.8-91.6c-12.4-60.4-33.8-124.5-89.6-159.5
												c-50.5-34.7-68.9-141.1-53.6-194.5c4-14,22-28.9,8.2-44.6c-14.5-16.3-33.8-37.6-53.4-29.8c-40.1,15.9-84.2-9.2-115.2-33
												c-30.2-23.3-60.7-46.7-94.4-65.3c-49.4-26.8-63.3-85-80.3-132.6c-14.5-40.4-73.6-85.6-116.8-80.1
												C50.8,1564.5,40.5,1600.7,26.5,1626.2z"/>
										</g>
									</g>
								</g>
							</g>
							<g>
								<g>
									<g>
										<g>
											<path class="st12" d="M2247.3,1582c0.4,1.2,1,2.4,1.1,3.7c1.6,19.1,23.2,38.6,6,55.5c-16.4,16.1-49.4,32.7-72.8,20.1
												c-35.7-11.4-49.8-9.2-80.7,7.9c-24.8,13.8-56.9,13.3-76.1-11c-22.2-26.4-20.2-62.6-9-92.9
												c17.5-47.3,63.6-96.5,116.4-93.6C2184.8,1474.5,2231.7,1534.7,2247.3,1582z"/>
										</g>
									</g>
								</g>
							</g>
							<g>
								<g>
									<g>
										<g>
											<path class="st12" d="M697.8,1010.1c12.4-6.8,25.7-14.1,37.4-20.3c25-13.3,68.4-50.5,91.2-10.5
												c32.7,57.2,39.7,110.6,18.8,169.3c-17.8,49.9-39.4,103.6-56.4,156.5c-14.3,44.3-31.9,49.9-60.8,24.8
												c-16.6-14.4-35.8-27.6-42.3-50.8c-10.8-37.9-38.6-66.4-72.3-84.7c-18.7-10.2-38.8-25.3-32.3-60.1
												c5.6-30.1,12.1-67.9,42.3-83.3c24.5-12.4,49.7-27,74.6-40.6C697.9,1010.3,697.9,1010.2,697.8,1010.1z"/>
										</g>
									</g>
								</g>
							</g>
							<g>
								<g>
									<g>
										<g>
											<path class="st12" d="M497.5,1292.4c-21.4,13-39.7,22.3-59.5,14c-8.4-3.5-15.3-10.3-17-20.5c-2.3-14,8.9-16.7,16.2-21.1
												c12.4-7.4,25.2-13.5,37.8-20.6c22.3-12.6,47.8-19.3,55.2,14.3C537,1289.5,505.4,1280.1,497.5,1292.4z"/>
										</g>
									</g>
								</g>
							</g>
							<g>
								<g>
									<g>
										<g>
											<path class="st12" d="M1844.9,1411.7c30.5-2.7,75.5,20.3,90.3,43.1c9.4,14.6-4,23.1-11.6,24.4
												c-22.9,4-76.7-24.4-90.3-45.4C1828.3,1426.2,1832.5,1416.9,1844.9,1411.7z"/>
										</g>
									</g>
								</g>
							</g>
							<g>
								<g>
									<g>
										<g>
											<path class="st12" d="M1520.2,1902.7c-5-26.2-7.1-60.2,17.6-76.8c18.5-12.4,21.1,14.8,24.8,29.9
												c6.3,25.9,8.9,60.1-16.9,76.8C1525,1946.1,1527.4,1916.3,1520.2,1902.7z"/>
										</g>
									</g>
								</g>
							</g>
							<g>
								<g>
									<g>
										<g>
											<path class="st12" d="M2051.9,954.9c4.7,32-24.7,92.9-49.4,99.1c-6.5,1.6-17.6-5.9-14.2-14.4
												c10.7-29.9,19.5-66.2,46-84.8C2039,951.3,2049.6,946.4,2051.9,954.9z"/>
										</g>
									</g>
								</g>
							</g>
							<g>
								<g>
									<g>
										<g>
											<path class="st12" d="M2038.8,1440.3c-9.2-0.4-26.4,22-32.3-7.3c-6.3-31.3,14.2-42.8,35-47.2c11.2-2.4,28-19.2,33.7,2.3
												C2084.1,1415.1,2064.3,1435.8,2038.8,1440.3z"/>
										</g>
									</g>
								</g>
							</g>
							<g>
								<g>
									<g>
										<g>
											<path class="st12" d="M2319.1,1593.8c-1.5,10,19,23.6-1.2,28.9c-21.1,5.6-32.1-13.8-36.9-34.1
												c-2.8-11.7-17.5-30.3-0.9-35.4C2308.8,1544.3,2309.9,1575.6,2319.1,1593.8z"/>
										</g>
									</g>
								</g>
							</g>
							<g>
								<g>
									<g>
										<g>
											<path class="st12" d="M987.3,1187.5c5.7,22,15.8,54.7-8,69.5c-15,9.3-17.1-14.6-19.5-27.1c-4.2-22.2-16.5-55.8,5.3-72.2
												C983.8,1143.5,978.6,1181.5,987.3,1187.5z"/>
										</g>
									</g>
								</g>
							</g>
							<g>
								<g>
									<g>
										<g>
											<path class="st12" d="M1952.2,1321.5c5.6,22.6,11.5,45.3-11.1,52.8c-18,5.9-16.4-17.3-20.9-29.4
												c-7.9-21.1-3.6-41.6,11.8-49.2C1950.6,1286.5,1946.5,1312.9,1952.2,1321.5z"/>
										</g>
									</g>
								</g>
							</g>
							<g>
								<g>
									<g>
										<g>
											<path class="st12" d="M947.2,1243.9c3.4,14.5,1.7,26.1-10.4,31.6c-8.2,3.8-14.5,1.2-17.5-10.1c-3.7-14.1-1-26.5,8.8-34.2
												C938.5,1223,943.6,1232.2,947.2,1243.9z"/>
										</g>
									</g>
								</g>
							</g>
						</g>
					</g>
				</g>
				<g>
					<defs>
						<circle id="SVGID_3_" cx="985.7" cy="1678.7" r="689.2"/>
					</defs>
					<clipPath id="SVGID_4_">
						<use xlink:href="#SVGID_3_"  style="overflow:visible;"/>
					</clipPath>
					<g class="st13">
						<g>
							<g>
								<g>
									<g>
										<g>
											<path class="st14" d="M1415.5,2179.4c-28.2,0-49.7-21.9-57.4-46.5c-5.8-18.4-10.6-37.8-15.3-56.6l-3.4-13.9
												c-3-31.4-20.3-60.5-46.4-77.9c-37.9-25.3-47.6-75.9-53.6-121.5c-2.1-16.2-8.7-28.5-17-32.1c-5.9-2.6-13.2-0.8-21.7,5.2
												c-27,19.1-59.9,22.5-95.1,9.9c-48.9-17.5-93.8-64.2-106.7-111.1c-16.3-72.4-3.5-140.1,40.4-213.5
												c28.5-47.7,88.6-64.7,139.9-39.6c18,8.8,38.8,1.8,53.2-5.6c37.1-19.1,72.8-62.4,78.1-94.5c1.3-8.1,0.7-12.4,0.2-13.6
												c-8.6-19.2-28.2-31.8-51.3-32.7c-22.4-1-42.3,9.4-51.9,26.8c-18.4,33.5-57.4,45.4-90.8,27.6
												c-19.5-10.4-33.8-13.5-43.9-9.6c-13.7,5.4-22.9,25-32.5,52.8c-1.2,3.4-2.1,7.5-3.1,12c-3,13-6,26.4-17,31
												c-6.2,2.6-13.2,1.5-20.7-3.2c-25.2-15.6-44.1-46.3-31.5-74.9c31.6-71.7,52.7-130.9,66.3-186.4
												c1.6-6.4,7.8-16.4,16.2-17.2c44.5-4.7,51.3-51,58-95.8c2.1-14.2,4.1-27.6,7.3-39.3c3.9-14.4,0.5-17.3-5.8-21.2
												c-1.9-1.2-2.7-1.2-2.7-1.2c0.1,0.1-1.6,1.4-4.5,9.3c-2.5,6.9-5,13.8-7.5,20.8c-4.7,13.2-9.5,26.4-14.3,39.5
												c-0.7,1.9-1.3,4.1-2,6.3c-2.7,9.2-7.7,26.3-24.7,23.8c-19.1-2.8-28.3-24.1-27.3-42.7c1.6-29.9,9-86.4,41.1-129
												c22.7-30.1,65.3-49.8,99.7-26.9c32.3,21.5,56.9,21.7,97.5,0.8l0.8-0.4c16.7-8.6,35.7-18.3,54.3-24
												c26.6-8,46.7-29.8,53.8-58.2c9-34.2,36.4-59.4,71.5-66.1c17.2-3.3,26.1-12.3,30.7-31.3c10.5-43.4,43.9-78.5,89.4-93.9
												c68-22.9,119.3-13.4,161.4,30c6.5,6.7,12.4,5.7,23,3.2c1.3-0.3,2.7-0.6,4-0.9c12.2-2.6,24.8-5,37.1-7.3
												c18-3.4,36.6-6.9,53.4-11.1c25.1-6.3,60,5.3,76.2,25.4c5.9,7.3,12.3,9.6,22.7,8.1c8.7-1.3,17.7-1.9,26.4-2.5
												c6.6-0.5,12.9-0.9,18.8-1.6c38-4.4,55.6,4.5,75.3,38.1l0.7,1.2l0.3,1.3c8.4,35.5-15.6,80.1-47.6,88.4
												c-9.2,2.4-19.7,3.8-29.5,4c-7.3,0.1-12.1,1.7-14.3,4.6c-3.8,5-3.3,16.4,1.3,33.9c18.7,70.4-1,183.8-86.6,213.5
												c-14.2,4.9-21.3,7.4-14.2,31.5c6.6,22.3,6.2,40.6-1,55.8c-19.2,40.3-24.2,77.2-14.9,109.7c5.2,18-0.1,35.7-13.8,46.3
												c-13.6,10.5-32,11.3-48,1.8c-28.6-16.8-58.2-36.8-88-59.5c-7.4-5.6-13.3-8.2-16.6-7.1c-2.3,0.7-6.9,4.3-11.9,20.1
												c-3.5,11.1-8.1,22.3-12.4,33.1c-5.7,14.1-11.1,27.4-14.3,40.3c-5.5,21.9-18.5,38.1-34.8,43.4c-9.5,3.1-24.2,3.8-41-9.9
												c-30.4-19.3-44.8-25.9-74.6-18.3c-13.8,3.5-29.4-0.7-44-11.8c-2.9-2.2-10.5-8.1-13-7.7c0.1,0-1.7,1.5-3.3,7.9
												c-2.2,8.5-0.7,9.2,7.4,12.5c3.4,1.4,7.2,3,10.5,5.7c12,9.8,25.3,18.2,38.1,26.2c2.8,1.7,5.5,3.4,8.2,5.2
												c14.9,9.5,24.3,22.2,27.3,36.9c3.1,15.4-1,32-11.9,47.8c-13.6,19.8-33.1,33.6-52.1,37.2c-14.6,2.7-29.1-0.5-41.9-9.4
												c-10.5-6.7-21.2-13.7-32-20.8c-9.7-6.4-19.3-12.7-29.1-18.9c-1.4-0.9-2.9-1.9-4.3-2.9c-1.7-1.2-4.4-3.1-5.8-3.7
												c-0.7,0.7-2.2,2.7-4.1,7.4c-4.8,12.2-2.9,13.3,4.4,17.3c1.9,1,3.7,2.1,5.4,3.2c29.4,19.8,68.2,45.8,108.2,70.9
												c35.5,22.2,47.8,67.2,28.7,104.6c-29.6,57.7-30.5,124.2-2.9,209.1c9.1,27.9,16.9,57.9,24.6,94.6
												c14.1,64.9-14.5,167.3-93.1,186.4C1423.8,2179,1419.6,2179.4,1415.5,2179.4z M1357.8,2060l3,11.9
												c4.6,18.5,9.4,37.7,15,55.5c6.1,19.5,23.8,38.1,48.2,32.6c66.6-16.3,91.5-108.3,79.3-164.5
												c-7.7-36.6-15.2-65.2-24.1-92.8c-29.2-89.9-27.9-160.8,4.1-223.2c14.7-28.8,5.3-63.3-22.1-80.4
												c-40.3-25.2-79.3-51.3-108.8-71.2c-1.3-0.8-2.6-1.6-4-2.3c-8.2-4.5-23.5-12.9-12.7-40.3c2.7-6.7,7.2-16,16.1-18.6
												c8.8-2.6,16.2,2.7,21.7,6.6c1.2,0.8,2.3,1.7,3.5,2.4c9.8,6.3,19.5,12.7,29.3,19.1c10.6,7,21.3,14,32,20.8
												c9.1,6.2,18.5,8.4,28.3,6.6c14.3-2.6,29.4-13.6,40.2-29.4c8-11.6,11.1-23.3,9-33.7c-2-9.8-8.4-18.1-19.1-24.9
												c-2.7-1.7-5.4-3.4-8.1-5.1c-13.3-8.4-27-17-39.9-27.6c-1.2-1-3.6-2-5.9-2.9c-7.9-3.3-24.4-10.1-18.2-34.2
												c2.9-11.4,7.9-18.2,15.2-20.8c11.2-3.9,22.2,4.4,30.2,10.5c9.9,7.5,20.2,10.6,28.3,8.6c36.5-9.2,56.2-0.2,89.5,21l1,0.7
												c8.4,7,16.4,9.3,23.9,6.9c10-3.3,18.7-14.9,22.6-30.3c3.6-14.2,9.4-28.7,15.1-42.8c4.2-10.5,8.6-21.3,11.9-31.7
												c3.7-11.7,10.3-27.8,24-32.1c12.8-4.1,25.2,3.8,33.4,10c29.2,22.2,58.2,41.8,86.2,58.2c9.5,5.6,19.7,5.4,27.3-0.5
												c7.7-5.9,10.4-15.9,7.3-26.6c-10.6-37-5.2-78.3,16-122.7c5.2-10.9,5.2-24.8,0-42.6c-10-34.1,3.1-46.3,25.8-54.2
												c67.7-23.5,93.7-119.7,74.8-191.3c-6.4-24.3-5.9-39.6,1.8-49.8c5.9-7.8,15.3-11.7,28.8-12c8.3-0.1,17.5-1.4,25.2-3.4
												c22-5.7,39.7-39.3,34.5-64.9c-15.5-26.1-26.3-31.3-56.4-27.8c-6.3,0.7-13.1,1.2-19.6,1.7c-8.3,0.6-17,1.2-25.1,2.3
												c-16.8,2.4-29.8-2.5-39.7-14.8c-11.7-14.5-39-23.6-57.3-19c-17.4,4.3-36.2,7.9-54.5,11.4c-12.1,2.3-24.7,4.7-36.6,7.2
												c-1.2,0.3-2.4,0.5-3.6,0.8c-11.1,2.6-26.3,6.2-40.5-8.4c-37.6-38.7-80.1-46.3-142.2-25.3c-39.4,13.3-68.3,43.5-77.4,80.7
												c-6.2,25.8-21,40.5-45.2,45.1c-28,5.3-49.8,25.4-57,52.5c-8.6,34.7-33.4,61.4-66.4,71.4c-17,5.1-34.4,14.1-51.2,22.7
												l-0.8,0.4c-39.5,20.3-72.8,27.1-116.2-1.9c-26.5-17.6-59.6,2.6-74.7,22.6c-29.1,38.7-35.9,91.1-37.4,118.9
												c-0.6,10.4,4,22.3,11.6,23.4c0,0,0.1,0,0.1,0c1.5-1.6,3.2-7.5,4.1-10.7c0.8-2.6,1.5-5.2,2.4-7.5
												c4.8-13.1,9.6-26.2,14.3-39.3c2.5-6.9,5-13.9,7.5-20.8c3.1-8.5,7.4-17.5,16.1-20.6c5.7-2,11.8-1,18.2,3
												c15.2,9.3,19.4,21.9,14,41.8c-2.9,10.6-4.8,23.5-6.8,37.1c-6.9,46.4-15.5,104.1-72.6,111.3c-0.8,0.9-1.7,2.5-1.9,3.4
												c-13.8,56.6-35.2,116.8-67.3,189.5c-9.3,21.1,9.4,42.4,24.3,51.7c2.9,1.8,4.1,1.7,4.1,1.8c2-1.6,4.5-12.2,5.8-17.9
												c1.1-4.7,2.2-9.6,3.7-13.9c11.6-33.6,22.9-55.9,43.3-63.9c15.6-6.1,34.5-2.8,59.3,10.5c24.6,13.1,52.2,4.6,65.8-20.2
												c13-23.7,39.4-37.7,68.9-36.4c30.1,1.3,55.9,18,67.4,43.7c2.5,5.6,2.9,13.7,1.2,24.1c-6.2,37.7-45.6,86.2-87.9,108
												c-26,13.4-50.2,15.4-69.8,5.8c-42.6-20.8-92.3-6.8-115.8,32.5c-41.2,69-53.4,132.4-38.3,199.5c11.2,40.4,52,82.8,95,98.1
												c20.4,7.3,50.6,11.9,78.2-7.6c17.6-12.5,31.3-10.7,39.8-7c14.5,6.3,24.9,23.8,27.9,46.7c5.5,41.5,14,87.5,45.5,108.5
												C1333.8,1989.4,1354.2,2023.3,1357.8,2060z M1052.6,1212.7C1052.6,1212.7,1052.6,1212.7,1052.6,1212.7
												C1052.6,1212.7,1052.6,1212.7,1052.6,1212.7z"/>
										</g>
									</g>
								</g>
							</g>
							<g>
								<g>
									<g>
										<g>
											<path class="st14" d="M798.1,2518.9c-8.8,0-16.7-5.5-23.8-10.4c-2-1.4-4-2.8-5.9-3.9c-34.9-21-62.5-61.3-75.8-110.6
												c-2.2-8.1-4.5-16.3-6.8-24.5c-6.2-22.2-12.6-45.1-17.2-67.6c-11-53.4-30.6-119.1-85.5-153.6
												c-55.5-38.2-73.1-150.6-57.6-204.9c1.5-5.2,4.2-10,6.9-14.6c6.8-11.9,8-15.9,3.3-21.2c-14.7-16.6-30.2-32.4-43-27.3
												c-34.9,13.8-76.7,2.3-124.2-34.3c-29.4-22.7-59.7-46.1-93.2-64.5c-46.3-25.1-63.2-75-78.1-119
												c-2.1-6.3-4.3-12.5-6.4-18.6c-12.8-35.8-68-79-106.9-74c-20.5,2.6-30.4,23.1-40.9,44.7c-2.6,5.5-5.4,11.1-8.3,16.3
												l-8.6,15.6l-7.8-16c-18.6-38.3-22.8-69.1-12.9-94.2c8.8-22.4,29.1-39.8,60.3-51.9c97.1-42.2,195.7-88.5,293-137.5
												l2.5-1.3c15.1-7.7,37.9-19.3,56.3,3.6c12.8,15.8,15,36.4,6.8,63c-7.5,24.2,4.4,31,29.7,43c2,1,4.1,1.9,6.2,2.9
												c19.8,9.6,42.3-9.8,51.1-18.5c6.1-6.1,4.4-12.8-0.8-26.6c-2-5.3-4.1-10.8-5.1-16.5c-0.4-2.3-1.1-4.8-1.8-7.4
												c-2.6-9.9-6.3-23.5,4-35.4c13.7-15.8,29.3-4,36,1c1.1,0.8,2.2,1.7,3.2,2.4c13.9,9.6,25.3,10.3,39.3,2.3
												c21.9-12.5,43.1-7.8,56.6,12.5c12,18,13.3,41.5,3.8,67.8c-15,41.6-31.2,84.1-46.9,125.2c-14.6,38.3-29.7,78-43.5,116.1
												c-12.3,33.9-45.5,47.3-74.8,59.1c-3.4,1.4-6.7,2.7-10,4.1c-8.9,3.7-14.9,9.8-17.9,18c-4.1,11.4-2.4,26.4,4.8,40.3
												c5.7,11.1,8,10.2,9.1,9.8c38.7-15.6,71.3,7.8,97.6,26.6c3,2.1,5.9,4.2,8.8,6.3c8.7,6.1,39.3,24.8,67.2,10.2
												c33.2-17.4,61.8-16.1,95.6,4.2l3.3,2c22,13.3,52,31.4,76.6,24.5c7.5-2.1,18.7-2.3,30.2,9.1
												c27.8,27.4,39.1,107.6,32.4,132.4c-19.3,71.6-47.2,155.5-80.5,242.6c-16,41.7-17.6,82.1-4.9,120.3
												c7.3,21.9,13.2,48.1,17.8,69.1c0.8,3.5,2.1,7.3,3.5,11.4c4.3,12.5,9.1,26.7,0.9,38.6c-3.6,5.3-8.3,8.5-13.7,9.5
												C800.5,2518.8,799.3,2518.9,798.1,2518.9z M497.9,1860.6c20.9,0,38.9,20.4,51.6,34.6c14.2,16,5,32.1-1,42.7
												c-2.2,3.9-4.3,7.5-5.2,10.5c-14.2,49.5,2.6,151.8,50,184.4c60.5,38,81.7,108.3,93.4,165.3c4.5,21.9,10.8,44.5,16.9,66.4
												c2.3,8.3,4.6,16.5,6.8,24.6c12.1,44.8,36.7,81.1,67.5,99.6c2.2,1.3,4.5,2.9,6.9,4.6c4.1,2.8,11,7.6,13.7,7.1
												c0.4-0.1,1.1-0.8,1.8-1.8c2.9-4.2-0.3-13.7-3.2-22.1c-1.5-4.4-3-8.9-4-13.3c-4.6-20.6-10.3-46.2-17.3-67.3
												c-14.1-42.3-12.4-87,5.1-132.8c33.2-86.6,60.8-169.8,79.9-240.8c5.5-20.5-5.5-92.7-27.5-114.4c-5.5-5.4-9.4-5.2-12.2-4.5
												c-32.3,9.2-66.3-11.4-91.2-26.5l-3.2-1.9c-28.3-17-50-18.1-77.5-3.7c-25,13.1-57.3,8.8-86.3-11.4c-3-2.1-6-4.2-9-6.4
												c-24.9-17.8-50.6-36.3-79.8-24.5c-19,7.7-29.2-12-32.5-18.4c-9.5-18.4-11.6-39-5.7-55.1c4.8-13.1,14.5-23,28.2-28.7
												c3.3-1.4,6.7-2.8,10.2-4.2c27-10.8,54.9-22.1,64.3-48.2c13.8-38.2,29-77.9,43.6-116.3c15.6-41,31.8-83.3,46.7-124.8
												c5.2-14.3,9-34.8-1.8-51.2c-3-4.5-12-18.1-32-6.7c-20.1,11.4-39.4,10.4-59-3.1c-1.3-0.9-2.5-1.8-3.8-2.8
												c-8.5-6.4-9-5.8-10.8-3.7c-3.5,4-2.7,8.7-0.1,18.5c0.8,2.8,1.5,5.8,2.1,8.8c0.7,4,2.4,8.5,4.2,13.3
												c5,13.1,11.8,31.1-3.3,46.3c-24.4,24.5-50.8,32.6-72.3,22.1c-2-1-4-1.9-6-2.9c-23.1-10.9-52-24.6-39.4-65.2
												c6.3-20.5,5.2-35.1-3.5-45.9c-8.3-10.2-15.8-7.8-33.5,1.3l-2.6,1.3c-97.6,49.2-196.6,95.6-294.3,138.1
												c-26.9,10.4-43.2,23.9-50.1,41.6c-6.4,16.3-4.9,36.6,4.6,61.6c11.4-23.5,24.6-49.3,54.3-53.1
												c48.5-6.2,111.3,43,126.7,86.2c2.2,6.2,4.4,12.5,6.5,18.9c14.5,42.8,29.6,87.1,69.5,108.8c34.8,19.2,65.7,43,95.6,66.1
												c42,32.4,77.7,43.1,106.1,31.8C489.9,1861.3,494,1860.6,497.9,1860.6z"/>
										</g>
									</g>
								</g>
							</g>
							<g>
								<g>
									<g>
										<g>
											<path class="st14" d="M2067.5,1687.4c-19.5,0-37.7-8.1-49.9-23.6c-21.1-25.1-25-62.3-10.4-101.9
												c19.2-51.9,68.5-102.9,125.6-99.6c59.5,3.3,107.9,70.3,123.3,116.7l0.3,0.7c0.4,1.1,1.1,2.9,1.3,5
												c0.4,5,2.9,10.8,5.6,16.8c5.7,12.9,13.5,30.5-2.4,46.1c-16.8,16.5-54,36.9-82.9,22c-33.2-10.5-44.8-8-72.6,7.4
												C2093,1684.1,2080,1687.4,2067.5,1687.4z M2127.9,1480.7c-46.1,0-87.3,44.5-103.3,87.7c-5.8,15.7-16.7,55.2,7.4,83.8
												c17,21.5,44.6,19.9,64.5,8.9c34.3-19,50.7-20.6,88-8.6l1.6,0.7c18.9,10.2,48.2-5,61.9-18.5c6.1-6,4.4-11.7-1.6-25.4
												c-3.1-7-6.3-14.3-7.1-22.2l-0.2-0.4c-0.2-0.5-0.4-1.1-0.6-1.6c-15.9-48.1-61.2-101.5-106.7-104
												C2130.5,1480.8,2129.2,1480.7,2127.9,1480.7z"/>
										</g>
									</g>
								</g>
							</g>
							<g>
								<g>
									<g>
										<g>
											<path class="st14" d="M757.1,1354c-13.6,0-26.2-9.4-35.1-17.1c-2.3-2-4.7-4-7-5.9c-14.9-12.5-31.8-26.7-38.2-49.3
												c-11.8-41.3-43.4-65.8-67.9-79.1c-21.1-11.5-44.4-29.8-37-69.9l0.3-1.3c5.9-31.8,13.2-71.3,46.9-88.5
												c17.1-8.7,34.9-18.6,52.1-28.2c5.3-3,10.6-5.9,15.9-8.8v0l10.4-6c11.3-6.2,23-12.6,33.4-18.1c3.9-2,8.4-4.8,13.2-7.8
												c19-11.7,42.7-26.2,64.4-20.6c10.7,2.7,19.4,10,26,21.4c34.7,60.7,40.8,116.9,19.5,176.9c-6.5,18.2-13.3,36.4-20.5,55.7
												c-12.3,32.9-25,67-35.8,100.5c-8.8,27.3-18.9,41.2-33,45.1C762.2,1353.6,759.6,1354,757.1,1354z M708.7,1014.7
												L708.7,1014.7l-6.4,3.8c-7.4,4-14.8,8.2-22.2,12.3c-17.3,9.7-35.3,19.7-52.7,28.5c-25.6,13-31.7,46.1-37.1,75.3l-0.3,1.3
												c-4.9,26.6,7.5,39.4,27.7,50.3c27.6,15,63.3,42.8,76.8,90.3c4.9,17.2,18.2,28.3,32.3,40.2c2.4,2,4.9,4.1,7.2,6.1
												c11.2,9.7,19.8,13.8,25.6,12.2c4.9-1.4,12.4-8.2,20.3-32.9c10.9-33.9,23.7-68.1,36.1-101.3c7.2-19.2,14-37.4,20.4-55.4
												c19.7-55.3,14.1-105.1-18.1-161.5c-4-7.1-8.8-11.2-14.5-12.7c-14.2-3.6-34.1,8.6-50.1,18.4c-5.1,3.1-9.8,6-14.2,8.4
												C729.9,1003.1,719.2,1009,708.7,1014.7z"/>
										</g>
									</g>
								</g>
							</g>
							<g>
								<g>
									<g>
										<g>
											<path class="st14" d="M453.3,1318.8c-6.2,0-12.5-1.2-18.9-3.9c-12.3-5.2-20.6-15.2-22.6-27.6
												c-3-18.3,10.2-25.1,17.2-28.7c1.2-0.6,2.4-1.2,3.4-1.8c7.4-4.4,15-8.4,22.4-12.3c5.2-2.7,10.4-5.5,15.6-8.4
												c20.3-11.4,36.1-14.3,48.5-8.7c10.2,4.6,17,14.3,20.2,29.1c6.3,28.4-13.8,34-24.5,37c-3.4,0.9-8.5,2.4-9.4,3.8l-1.1,1.8
												l-1.8,1.1C486.2,1310.1,470.2,1318.8,453.3,1318.8z M505.5,1243.3c-5.4,0-13.6,2.1-26,9.1c-5.3,3-10.7,5.8-16,8.6
												c-7.1,3.8-14.5,7.6-21.5,11.8c-1.4,0.8-2.9,1.6-4.4,2.4c-7.4,3.8-8.1,4.7-7.4,9.3c1.2,7.7,6.9,11.6,11.4,13.4
												c14.3,6,28.1,0.6,49.6-12.4c4.8-5.8,12.1-7.8,18.6-9.7c11-3.1,13.9-3.9,11.4-15.2c-1.9-8.7-5.2-14.2-9.7-16.2
												C510,1243.7,508,1243.3,505.5,1243.3z"/>
										</g>
									</g>
								</g>
							</g>
							<g>
								<g>
									<g>
										<g>
											<path class="st14" d="M1918.9,1488.8c-29.1,0-79.5-28.4-93.4-49.9c-3.5-5.4-4.4-11.7-2.6-17.7c2.3-7.6,8.9-14,18.4-18
												l1.3-0.6l1.4-0.1c32.6-2.8,81.5,20.6,98.8,47.3c6.4,9.9,5.2,18.1,2.9,23.1c-3.8,8.8-13.2,14.1-20.7,15.4
												C1923.2,1488.6,1921.1,1488.8,1918.9,1488.8z M1847.2,1420.8c-4.1,2-6.1,4.2-6.6,5.8c-0.2,0.5-0.2,1.2,0.4,2.2
												c12.1,18.6,62.7,44.5,80.9,41.3c2.5-0.4,6-2.5,6.9-4.6c0.7-1.6-0.4-4-1.5-5.7C1915.1,1441,1875.4,1419.3,1847.2,1420.8z"
												/>
										</g>
									</g>
								</g>
							</g>
							<g>
								<g>
									<g>
										<g>
											<path class="st14" d="M1536.7,1945.3c-2.1,0-4.1-0.4-6.1-1.2c-9.6-3.8-12.4-15-14.8-24.9c-1.1-4.6-2.3-9.3-3.8-12.1
												l-0.7-1.2l-0.3-1.4c-3-15.7-12.2-63.6,21.6-86.2c8.9-6,15.8-5.2,20.1-3.4c11.5,4.7,14.7,19.6,17.5,32.7
												c0.5,2.2,0.9,4.3,1.4,6.2c12.8,52.3-4.3,76-20.8,86.8C1545.7,1943.7,1541,1945.3,1536.7,1945.3z M1529,1899.8
												c2.2,4.6,3.5,9.9,4.8,15.1c0.9,3.7,2.3,9.5,3.7,11.8c0.6-0.2,1.7-0.7,3.2-1.7c16.8-10.8,21.1-33.3,12.9-66.8
												c-0.5-2.1-1-4.3-1.5-6.7c-1.1-5.1-3.6-16.7-6.2-19.3c-0.4,0.1-1.4,0.5-3,1.5C1527.3,1844.1,1522.7,1865.8,1529,1899.8z"
												/>
										</g>
									</g>
								</g>
							</g>
							<g>
								<g>
									<g>
										<g>
											<path class="st14" d="M2000.6,1063.4c-6.1,0-12.8-3-17.3-8.1c-4.9-5.6-6.2-12.7-3.7-19.2c1.4-4,2.9-8.3,4.4-12.8
												c9.3-27.4,19.7-58.5,44.8-76.2c2.9-2.1,13.3-8.6,22.5-5.2c4.7,1.7,8,5.5,9.4,10.6l0.2,1c5.2,34.9-25.4,101.6-56.3,109.4
												C2003.5,1063.3,2002.1,1063.4,2000.6,1063.4z M2043.1,960.3c-1.1,0.5-2.3,1.2-3.5,2c-20.2,14.2-29.2,41-38,66.9
												c-1.5,4.6-3.1,9.1-4.6,13.4c0.2,0.8,2.4,2.3,3.6,2.3C2017.5,1040.7,2044.6,990.5,2043.1,960.3z"/>
										</g>
									</g>
								</g>
							</g>
							<g>
								<g>
									<g>
										<g>
											<path class="st14" d="M2017.6,1457.4c-2.4,0-4.8-0.5-7.3-1.6c-6.4-3-10.7-9.9-12.8-21c-3.5-17.6-2.7-48.5,42.2-58.1
												c1.8-0.4,4.7-1.8,7.5-3.2c7.3-3.6,16.4-8,25.3-3.9c5.6,2.6,9.6,8,11.7,16c4.3,13.3,3,26.6-3.9,38.2
												c-7.9,13.2-22.5,22.5-39.8,25.6l-1,0.2l-0.7,0c-1.1,0.3-3.5,1.6-5.1,2.5C2029.3,1454.4,2023.7,1457.4,2017.6,1457.4z
												 M2064.5,1386.3c-1.3,0-6.5,2.5-9.3,3.9c-3.8,1.8-7.7,3.8-11.8,4.6c-23.6,5-32,15.9-27.9,36.3c1,4.8,2.1,6.9,2.6,7.6
												c1.6-0.4,4.9-2.1,6.7-3.1c4.1-2.2,8.3-4.5,13-4.7c11.6-2.2,21.5-8.4,26.5-16.8c4.2-6.9,4.9-14.8,2.1-23.4
												C2065.5,1387.2,2064.6,1386.3,2064.5,1386.3C2064.6,1386.3,2064.6,1386.3,2064.5,1386.3z"/>
										</g>
									</g>
								</g>
							</g>
							<g>
								<g>
									<g>
										<g>
											<path class="st14" d="M2310.9,1632.9c-5.8,0-11.2-1.5-16.1-4.4c-13.3-8-19.7-24.9-22.8-37.8c-0.5-2.2-1.9-5.4-3.3-8.6
												c-3.8-8.7-8.1-18.5-3.9-27.5c1.6-3.4,5-7.9,12.6-10.3c30.5-9.4,39.5,16.6,44.9,32.2c1.7,4.8,3.2,9.4,5.1,13.1l1.4,2.7
												l-0.4,2.7c0.2,1.2,1.8,4.1,2.8,5.8c3,5.3,7.1,12.5,3.8,20.2c-3.3,7.7-11.9,10-14.7,10.7
												C2317.1,1632.5,2313.9,1632.9,2310.9,1632.9z M2281.6,1562.5c-0.2,2.4,2.6,8.8,4.1,12.2c1.7,3.9,3.4,7.9,4.3,11.7
												c3.1,13.2,8.2,22.5,14.3,26.2c3.2,1.9,6.8,2.3,11.3,1.1c0.5-0.1,1-0.3,1.4-0.4c-0.6-1.1-1.3-2.5-1.9-3.5
												c-2.2-4-4.9-8.7-5.2-14.1c-1.9-4.2-3.5-8.8-5-13.2c-6.8-19.7-10.1-24.2-21.9-20.5
												C2282.2,1562.2,2281.8,1562.4,2281.6,1562.5z"/>
										</g>
									</g>
								</g>
							</g>
							<g>
								<g>
									<g>
										<g>
											<path class="st14" d="M973.2,1268.3c-2.6,0-4.8-0.6-6.5-1.4c-10.7-4.8-13.2-19.4-15.2-31.2c-0.3-1.5-0.5-2.8-0.7-4.1
												c-0.6-3.3-1.5-6.9-2.3-10.7c-5.1-22.4-12.1-53.2,11.1-70.7c6.3-4.8,12.3-6.2,17.8-4.1c9.2,3.5,11.3,14.3,13.1,23.9
												c0.6,3.2,1.7,8.4,2.6,10.2l2.3,1.6l1.8,6.7c6.2,23.4,15.5,58.7-13,76.3C980,1267.5,976.3,1268.3,973.2,1268.3z
												 M970.4,1165.2c-12.3,9.6-9.3,28.3-4,51.6c0.9,4,1.8,7.8,2.4,11.3c0.3,1.4,0.5,2.9,0.8,4.4c0.7,4.2,2.3,13.4,4.3,16.8
												c0.1-0.1,0.3-0.2,0.5-0.3c15.5-9.6,11.4-31,4.8-55.9l-0.3-0.9c-3.9-4.7-5.2-11.5-6.6-18.7
												C971.9,1171.2,971.2,1167.7,970.4,1165.2z"/>
										</g>
									</g>
								</g>
							</g>
							<g>
								<g>
									<g>
										<g>
											<path class="st14" d="M1935.8,1384.5c-3.4,0-6.5-0.8-9.3-2.5c-8.7-5.1-10.8-15.6-12.7-24.8c-0.7-3.5-1.4-6.8-2.2-9.1
												c-9.8-26.1-3.1-51.1,16.3-60.7c6.8-3.4,12.9-3.8,18.1-1.2c8.4,4.2,10.3,14.1,11.9,22.1c0.5,2.6,1.3,7,2.1,8.2l0.8,1.3
												l0.6,2.4c5.5,22.3,13,52.9-17.4,62.9C1941.1,1384,1938.4,1384.5,1935.8,1384.5z M1937.7,1303.3c-0.4,0.2-0.9,0.4-1.6,0.7
												c-10.6,5.3-13.6,20.7-7.2,37.6c1.4,3.7,2.2,7.9,3.1,11.9c0.8,3.9,2.3,11.2,3.9,12.5c0-0.1,0.8-0.1,2.4-0.6
												c12.1-4,11.9-13.6,5.4-40.5c-2.1-3.9-3-8.7-3.9-13.3C1939.2,1309.2,1938.5,1305.3,1937.7,1303.3z"/>
										</g>
									</g>
								</g>
							</g>
							<g>
								<g>
									<g>
										<g>
											<path class="st14" d="M930.3,1286.4c-3.2,0-5.9-0.8-7.8-1.7c-5.8-2.8-9.9-8.4-12.2-16.9c-4.8-18.1-0.4-34,12-43.8
												c7.5-5.9,13.7-5.7,17.7-4.4c9.2,2.9,13.4,13.1,16,21.7l0.2,0.6c6.1,26.1-5.1,37.3-15.5,42.1
												C936.8,1285.7,933.3,1286.4,930.3,1286.4z M934.7,1237.8c-0.3,0.2-0.5,0.4-0.9,0.7c-8.2,6.5-7.5,16.9-5.5,24.6
												c1,3.6,2,4.7,2.2,4.9c0-0.1,0.9-0.1,2.5-0.8c3.2-1.5,9.1-4.2,5.3-20.8C936.7,1241.3,935.5,1238.9,934.7,1237.8z"/>
										</g>
									</g>
								</g>
							</g>
						</g>
					</g>
				</g>
			</g>
			<g>
				<g class="st3">
					<g>
						<g>
							<g>
								<path class="st4" d="M1661.9,1586c-62.4,316.4-341.4,555.1-676.2,555.1c-334.7,0-613.8-238.6-676.2-555.1
									c-7.3,36.9-11.6,74.8-12.7,113.5c5.8,196.5,94,372.3,231,494.3c-137.1-121.9-225.2-297.8-231-494.3
									c0.2-7.6,0.6-15.1,1.1-22.7c22.3,360.5,321.8,646.1,687.9,646.1c366.1,0,665.5-285.5,687.9-646.1c0.5,7.5,0.8,15.1,1.1,22.7
									c-5.3,179.7-79.5,342.2-197,461.9c117.5-119.7,191.6-282.2,197-461.9C1673.5,1660.8,1669.1,1622.9,1661.9,1586z"/>
							</g>
						</g>
					</g>
				</g>
			</g>
			<g class="st15">
				<g>
					<g>
						<g>
							<path class="st2" d="M1347.1,1192.1c-6.2,0-12.5-1.8-18.1-5.6c-43.8-29.6-91.3-53.4-141.1-70.6c-16.9-5.8-25.9-24.3-20-41.2
								c5.8-16.9,24.3-25.9,41.2-20c55.1,19.1,107.7,45.4,156.2,78.1c14.8,10,18.7,30.2,8.7,45
								C1367.7,1187.1,1357.5,1192.1,1347.1,1192.1z"/>
						</g>
					</g>
				</g>
			</g>
			<g class="st15">
				<g>
					<g>
						<g>
							<path class="st2" d="M556.2,1250.4c-8.8,0-17.5-3.5-23.9-10.5c-12.1-13.2-11.2-33.7,2-45.8
								c124.4-113.7,285.7-176.3,454.3-176.3c32.6,0,65.3,2.3,97.4,7c17.7,2.6,30,19,27.4,36.7c-2.6,17.7-19,30-36.7,27.4
								c-29-4.2-58.6-6.3-88.1-6.3c-152.4,0-298.2,56.6-410.6,159.4C571.8,1247.6,564,1250.4,556.2,1250.4z"/>
						</g>
					</g>
				</g>
			</g>
			<g>
				<g>
					<g>
						<g>
							<path class="st4" d="M985.7,2386.4c-185.3,0-360.5-71.1-493.3-200.3c-132.6-128.9-208.6-301.5-214.1-486.1
								c-0.2-7.1-0.3-14.3-0.3-21.4c0-87.5,15.8-172.9,47-253.9c50.1-130.4,137.1-242.3,251.5-323.5c116.9-83,254.6-128,398.4-130.2
								c7-0.2,14.7-0.2,22.1,0c143.6,2.2,281.3,47.2,398.2,130.3c114.3,81.2,201.3,193.1,251.4,323.4c31.2,81,46.9,166.4,46.9,253.9
								c0,7.1-0.1,14.3-0.3,21.4c-5.5,184.5-81.5,357.1-214.1,486.1C1346.2,2315.3,1171,2386.4,985.7,2386.4z M985.2,1008
								c-3.3,0-6.5,0-9.8,0.1c-275.4,4.2-517.2,173-616,430c-29.5,76.7-44.5,157.7-44.5,240.6c0,6.8,0.1,13.6,0.3,20.3
								c10.8,364.7,305.3,650.4,670.4,650.4s659.6-285.7,670.4-650.4c0.2-6.7,0.3-13.5,0.3-20.3c0-83-15-163.9-44.5-240.6
								c-98.8-257-340.5-425.8-615.8-430c-3.6-0.1-7-0.1-10.5-0.1C985.5,1008,985.4,1008,985.2,1008z"/>
						</g>
					</g>
				</g>
			</g>
		</g>
		<g>
			<g>
				<g>
					<g>
						<path class="st2" d="M1910.3,2273.9c-151.4,93.3-185,26.1-283.5,61.1c-35.4,12.6-67.1,16.1-93.3,15.4
							c-24.6,12.7-57.6,19.2-101.9,14.4c-176.4-19.2-220.3-342.5-114.4-466.5c0,0,0.2-0.3,0.7-0.9c0.3-0.3,0.5-0.6,0.7-0.8
							c0.1-0.1,0.1-0.1,0.2-0.2c0.7-0.8,1.4-1.6,2.1-2.3c15.9-17.4,80.9-82,167.1-74.5c26.7-29.9,63.6-56.1,112.8-61.8
							c153.3-17.7,197.6,77.1,254.4,121.5c0.1,0.1,0.1,0.1,0.1,0.1c139.6,45.8,202.3-120.1,208.3-60.4
							C2069.8,1878.7,2061.7,2180.6,1910.3,2273.9z"/>
					</g>
				</g>
			</g>
		</g>
		<g>
			<g>
				<g>
					<g>
						<path class="st4" d="M1775.2,1781.5c12.1,6.6,22.4,15.5,31.8,24.8c9.4,9.3,17.4,19.7,25.2,29.7c7.8,10,15.1,20.1,22.9,29.6
							c7.7,9.6,15.9,18.5,25.8,26.6l0.1,0c1.1,0.9,1.3,2.5,0.4,3.6c-0.6,0.7-1.6,1.1-2.4,0.9c-13.3-2.3-25.9-8.4-37.3-15.4
							c-11.4-7.1-21.9-15.2-31.8-23.3c-9.9-8.1-19.6-16-28.7-24c-9-8.1-18-15.7-26.4-24.2l-0.3-0.3c-6.9-6.9-6.8-18.1,0.1-25
							C1760,1778.9,1768.5,1777.9,1775.2,1781.5z"/>
					</g>
				</g>
			</g>
		</g>
		<g>
			<g>
				<g>
					<g>
						<path class="st4" d="M1462.2,1872.7c-3.4,0-6.8-0.9-9.9-2.9c-8.6-5.5-11.2-16.9-5.7-25.6c39.2-61.6,91.8-97.8,152.3-104.8
							c65.7-7.6,120.5,3.7,167.4,34.7c8.5,5.6,10.9,17.1,5.3,25.6c-5.6,8.5-17.1,10.9-25.6,5.3c-39.9-26.3-85.3-35.4-142.8-28.8
							c-61.8,7.2-102.3,51.7-125.3,87.9C1474.3,1869.6,1468.3,1872.7,1462.2,1872.7z"/>
					</g>
				</g>
			</g>
		</g>
		<g>
			<g>
				<g>
					<g>
						<path class="st4" d="M1480.8,2386.4c-10.8,0-22.2-0.5-34.2-1.8c-10.2-1-17.6-10.1-16.6-20.3c1-10.2,10.1-17.6,20.3-16.6
							c65.5,6.6,109.2-8.8,147.7-22.4c21.8-7.7,42.4-15,64.6-17.7c20.4-2.6,39.6-2.8,58.1-3.1c32.9-0.5,66.9-1,111.9-14.3
							c145.7-43.3,177.2-186.8,189.1-240.8c1.5-6.9,2.6-12,3.8-15.8c72.5-240.8-68.6-722.6-166.5-894.2c-5.1-8.9-2-20.2,6.9-25.3
							c8.9-5.1,20.2-2,25.3,6.9c103.3,181.1,246.3,669.1,169.8,923.2c-0.7,2.4-1.8,7.4-3.1,13.1c-11.9,54.1-48,218.8-214.7,268.3
							c-49.9,14.8-86.5,15.4-121.9,15.9c-18.3,0.3-35.6,0.5-54,2.8c-18.3,2.3-36.2,8.6-56.9,15.9
							C1576.7,2372.1,1536.2,2386.4,1480.8,2386.4z"/>
					</g>
				</g>
			</g>
		</g>
		<g>
			<g>
				<g>
					<g>
						<path class="st2" d="M1852.7,1411.2c30.3,252.1-194.4,382.3-447.4,366.9c-26.5-1.6-116.3-8.8-168.8-97.2
							c-19.7-33.2-65.7-138.5-0.7-159.6c29.5-9.6,98.8-10.5,127.8-21.6c21.1-8.1-50.2-52.4-5.7-96.6c42.1-41.7,113,55.2,113,55.2
							s120.4-35.7,166.4-118.4"/>
					</g>
				</g>
			</g>
		</g>
		<g>
			<g>
				<g>
					<g>
						<path class="st4" d="M1446.1,1797.8c-13.8,0-27.8-0.4-41.9-1.3c-103.3-6.3-156.9-61.2-183.6-106.2
							c-0.5-0.9-53.2-90.6-31.6-148.1c7.1-18.8,21.3-32.1,41.1-38.5c15.7-5.1,38.9-7.7,63.5-10.5c16.9-1.9,35.5-4,49.5-6.9
							c-12.2-19.5-36-58.7,1.8-96.2c11.1-11,25.3-16.4,41.1-15.6c39.7,2,82.4,43.9,100.7,64.1c28-10.8,101.7-44.2,134.2-107.1
							c4.7-9.1,15.9-12.6,24.9-7.9c9.1,4.7,12.6,15.8,7.9,24.9c-47.6,92.2-162.5,128-167.4,129.5l-11.8,3.6l-7.8-9.6
							c-18.7-22.7-57.6-59.2-82.6-60.5c-5.4-0.3-9.4,1.2-13.1,4.9c-14.9,14.8-11,27.2,4,51.1c7.2,11.5,14.1,22.4,9.9,34.8
							c-2.3,6.8-7.5,12.1-14.7,14.8c-17.5,6.7-44.2,9.8-72.5,13c-21.7,2.5-44.1,5-56.3,9c-9.2,3-14.7,8-17.8,16.4
							c-10.8,28.6,10.3,85.2,28.8,116.2c22.2,37.3,66.9,82.8,154.1,88.1c123.3,7.5,239-21.4,317.5-79.3c8.2-6.1,19.8-4.3,25.9,3.9
							c6.1,8.2,4.3,19.8-3.9,25.9C1668.4,1767.2,1563.2,1797.8,1446.1,1797.8z"/>
					</g>
				</g>
			</g>
		</g>
		<g>
			<g>
				<g>
					<g>
						<path class="st4" d="M1855.3,1410.9c6.4,25.2,9.7,51.5,9.4,78.1c-0.3,26.6-4.3,53.5-12.3,79.5c-8.1,25.9-19.9,51.1-35.9,73.5
							c-15.9,22.3-35.3,42.3-57.5,57.9c-8.4,5.9-20,3.8-25.8-4.5c-5.3-7.6-4.2-17.8,2.3-24.1l0.1-0.1c17.5-16.8,34.1-34,48.5-53
							c14.4-19,27.1-39.3,36.9-61.4c9.9-22,17.1-45.6,21.6-70c4.7-24.4,6.7-49.7,7.3-75.3v0c0-1.5,1.3-2.6,2.7-2.6
							C1854,1408.9,1855,1409.7,1855.3,1410.9z"/>
					</g>
				</g>
			</g>
		</g>
		<g class="st3">
			<g>
				<g>
					<g>
						<path class="st4" d="M1393.5,1766.1c-0.1-0.1-115-8.2-157.1-85.1c-15.9-29.1-40.2-64.3-21.4-96c0.7,1.5,4-14.5,4.8-13.1
							c42.1,76.9,173.7,103.7,173.7,103.8c230.3,36.9,431.7-69.1,458.8-264.5h0.4C1882.9,1663.3,1657.2,1808.4,1393.5,1766.1z"/>
					</g>
				</g>
			</g>
		</g>
		<g>
			<g>
				<g>
					<g>
						<path class="st2" d="M1317.3,1898.4c0,0,139.4-170.9,300.4-11.1"/>
					</g>
				</g>
			</g>
			<g>
				<g>
					<g>
						<path class="st4" d="M1319.2,1899.9l-3.9-3.2c0.6-0.8,62.5-75.5,150.3-80.1c53.3-2.7,105,20.3,153.8,68.8l-3.5,3.5
							c-47.7-47.4-98.2-70-149.9-67.3C1380.4,1826.2,1319.8,1899.2,1319.2,1899.9z"/>
					</g>
				</g>
			</g>
		</g>
		<g>
			<g>
				<g>
					<g>
						<path class="st4" d="M1491.5,1806c28.9,1.3,56.9,11.2,81.2,25.3c12.2,7,23.6,15.2,34.2,24c5.4,4.3,10.5,9.1,15.3,13.7l7.3,7.1
							c2.6,2.5,5.1,5.1,7.6,7.9c19.2,22.4,30.4,47.9,38.9,73.4c8.2,25.7,13.7,51.8,15.9,78.3c0.1,1.4-0.9,2.6-2.3,2.7
							c-1.2,0.1-2.2-0.6-2.6-1.7l0-0.1c-8.5-24.6-18.4-48.7-30.1-71.3c-11.7-22.4-25.4-43.9-42.4-59.5c-2.1-1.9-4.3-3.8-6.6-5.6
							l-7.4-5.8c-5.1-3.9-10-7.5-15.1-11c-10.1-7-20.5-13.4-31.1-19.1c-10.6-5.6-21.5-10.5-32.6-14.5c-11.1-3.9-22.4-6.9-34-9.2
							l-0.4-0.1c-9.5-1.9-15.7-11.1-13.7-20.6C1475.3,1811.4,1483,1805.6,1491.5,1806z"/>
					</g>
				</g>
			</g>
		</g>
		<g>
			<g>
				<g>
					<g>
						<path class="st4" d="M1317.3,1916.8c-4.1,0-8.2-1.4-11.7-4.2c-7.9-6.4-9.1-18.1-2.7-26c2.9-3.6,73.1-88.7,179.2-82.5
							c10.2,0.6,18,9.3,17.4,19.6c-0.6,10.2-9.4,18-19.6,17.4c-86.9-5-147.8,68.2-148.4,68.9
							C1328,1914.5,1322.7,1916.8,1317.3,1916.8z"/>
					</g>
				</g>
			</g>
		</g>
		<g>
			<g>
				<g>
					<g>
						<path class="st16" d="M1448.4,2366.2"/>
					</g>
				</g>
			</g>
		</g>
		<g>
			<g>
				<g>
					<g>
						<path class="st2" d="M1604.7,2206.4c2.9-27.6,17.5-345.9-177.2-355.7c-229.9-11.6-217.3,493.5,4.3,514.2
							C1606.1,2381.1,1604.7,2206.4,1604.7,2206.4"/>
					</g>
				</g>
			</g>
			<g>
				<g>
					<g>
						<path class="st4" d="M1453.9,2368.4c-7.3,0-14.8-0.4-22.5-1.1c-121.2-11.3-182.9-166.1-172.7-309.2
							c7.2-100.4,55.8-215.7,168.8-210c44.1,2.2,80.9,20.3,109.6,53.9c84.4,98.7,70.5,297.8,70,304.5c0,3.6-0.9,79.9-51.3,126.2
							C1530.1,2356.5,1495.8,2368.4,1453.9,2368.4z M1419.7,1853c-103.9,0-148.9,109.7-155.8,205.5
							c-10.1,140.7,50,292.8,168.1,303.9c50.8,4.8,91.3-6.5,120.5-33.3c49.7-45.6,49.7-121.9,49.7-122.7l0-0.3
							c0.2-2,15.4-202.5-68.8-300.8c-27.8-32.4-63.4-50-106.1-52.1C1424.7,1853.1,1422.2,1853,1419.7,1853z"/>
					</g>
				</g>
			</g>
		</g>
		<g>
			<g>
				<g>
					<g>
						<path class="st4" d="M1454.1,2384.4c-7.8,0-15.8-0.4-24.1-1.2c-130.9-12.2-198-175.5-187.1-326.3
							c10.2-141.8,83.1-229.9,185.5-224.8c48.6,2.5,89.3,22.5,121,59.4c87.5,102.3,75.1,298.1,73.8,315.5
							c-0.1,9.6-2.3,87.7-56.5,137.4C1537.8,2371.1,1500,2384.4,1454.1,2384.4z M1419.9,1869c-93.1,0-133.7,101.8-140.1,190.7
							c-9.4,130.1,46.7,276.8,153.7,286.8c46,4.3,82.3-5.5,108.1-29c44.4-40.6,44.7-110.2,44.7-110.9v-1l0.1-1
							c0.2-1.9,14.9-195.3-65-288.8c-25.1-29.4-56.1-44.6-94.7-46.5C1424.3,1869.1,1422.1,1869,1419.9,1869z"/>
					</g>
				</g>
			</g>
		</g>
		<g class="st3">
			<g>
				<g>
					<g>
						<path class="st4" d="M2007.4,2155.1c-54,110.7-200.8,190.1-356.6,178.9h-0.1c-42.4,17.7-152.2,40.4-212.9,33.8
							c-104.4-11.4-168.9-139.7-176.9-259.6c22.3,45.6,65.2,156.2,195.3,147c140.7-9.9,145.2-169.3,145.2-169.3s21.7,115.5,78,124.4
							c80.4,12.7,98.5-149.3,98.5-149.3s79.3,89.6,140.1,54.3c84.3-49,121.2-241.9,51.8-651.6c-8.9-52.4-54.5-195.8-79.2-268h10.1
							C1981.2,1378.6,2160.4,1841.4,2007.4,2155.1z"/>
					</g>
				</g>
			</g>
		</g>
		<g>
			<g>
				<g>
					<g>
						<path class="st4" d="M1504.5,359.7c-3.8,0-7.5-1.1-10.8-3.5c-8.3-6-10.2-17.5-4.2-25.8c1.3-1.8,32.1-44,93.7-75.8
							c56.4-29.1,150.6-54.8,279.1-11.9c9.7,3.2,14.9,13.7,11.7,23.4c-3.2,9.7-13.7,14.9-23.4,11.7c-220.3-73.6-326.6,68.1-331,74.2
							C1515.9,357,1510.2,359.7,1504.5,359.7z"/>
					</g>
				</g>
			</g>
		</g>
	</g>
</g>
</svg>
