<?xml version="1.0" encoding="utf-8"?>
<!-- Generator: Adobe Illustrator 25.0.0, SVG Export Plug-In . SVG Version: 6.00 Build 0)  -->
<svg version="1.1" id="Layer_1" xmlns="http://www.w3.org/2000/svg" xmlns:xlink="http://www.w3.org/1999/xlink" x="0px" y="0px"
	 viewBox="0 0 2703.06 2728.21" style="enable-background:new 0 0 2703.06 2728.21;" xml:space="preserve">
<style type="text/css">
	.st0{opacity:0.85;}
	.st1{fill:#F7931D;}
	.st2{fill:#FFFFFF;}
	.st3{opacity:0.3;}
	.st4{fill:#102770;}
	.st5{opacity:0.4;}
	.st6{fill:#293856;}
	.st7{fill:#F9A528;stroke:#102770;stroke-width:5;stroke-linecap:round;stroke-linejoin:round;stroke-miterlimit:10;}
	.st8{fill:none;stroke:#102770;stroke-width:0;stroke-linecap:round;stroke-linejoin:round;stroke-miterlimit:10;}
	.st9{fill:none;stroke:#102770;stroke-width:31.9188;stroke-linecap:round;stroke-linejoin:round;stroke-miterlimit:10;}
	.st10{opacity:0.35;}
	.st11{opacity:0.5;}
	.st12{fill:#D66B09;}
	.st13{fill:#FFB200;}
	.st14{fill:#FFD766;}
	.st15{fill:#FFEC90;}
	.st16{opacity:0.41;}
	.st17{fill:#32B1D1;stroke:#102770;stroke-width:0;stroke-linecap:round;stroke-linejoin:round;stroke-miterlimit:10;}
</style>
<g>
	<g class="st0">
		<g>
			<g>
				<ellipse class="st1" cx="1268.83" cy="2640.36" rx="1147.64" ry="87.85"/>
			</g>
		</g>
	</g>
	<g>
		<g>
			<g>
				<g>
					<polygon class="st2" points="1049.96,1066.87 1435.43,974.13 1619.81,1166.63 1077.83,1340.65 					"/>
				</g>
			</g>
		</g>
		<g class="st3">
			<g>
				<g>
					<polygon class="st4" points="1619.81,1166.63 1077.83,1340.67 1065.46,1219.22 1527.96,1070.72 					"/>
				</g>
			</g>
		</g>
		<g>
			<g>
				<g>
					<path class="st2" d="M524.69,2040.09c-84.8,32.49-246.03,20.59-246.03,20.59c-60.86-8.3-110.42-53.06-124.86-112.77
						L39.71,1476.05c-14.11-58.36,8.13-119.49,56.45-155.13l182.63-106.94"/>
				</g>
			</g>
			<g>
				<g>
					<path class="st4" d="M346.44,2065.24c-38.95,0-67.3-2.02-67.97-2.07c-0.05,0-0.1-0.01-0.15-0.02
						c-30.36-4.14-58.43-17.19-81.18-37.73c-22.74-20.54-38.57-47.14-45.77-76.93L37.28,1476.64
						c-14.38-59.49,8.15-121.4,57.39-157.73c0.07-0.05,0.14-0.1,0.22-0.15l182.63-106.94c1.19-0.7,2.72-0.3,3.42,0.89
						c0.7,1.19,0.3,2.72-0.89,3.42L97.54,1323.01c-47.55,35.15-69.29,94.97-55.4,152.45l114.09,471.86
						c14.29,59.11,62.44,102.62,122.68,110.87c4.24,0.31,162.29,11.21,244.88-20.44c1.29-0.5,2.73,0.15,3.23,1.44
						c0.49,1.29-0.15,2.74-1.44,3.23C476.37,2061.28,401,2065.24,346.44,2065.24z"/>
				</g>
			</g>
		</g>
		<g class="st3">
			<g>
				<g>
					<path class="st4" d="M524.67,2040.09c-84.78,32.48-246.01,20.59-246.01,20.59c-60.88-8.3-110.44-53.07-124.88-112.75
						L39.71,1476.04c-4.35-17.95-5.27-36.19-2.95-53.86l99.15,410.04c14.4,59.73,63.96,104.49,124.84,112.79
						c0,0,60.21,10.47,103.02-78.14L524.67,2040.09z"/>
				</g>
			</g>
		</g>
		<g>
			<g>
				<g>
					<path class="st2" d="M724.46,1969.73l-199.77,70.36c-58.92,20.75-122.84-14.06-137.38-74.81l-151.17-631.83
						c-13.08-54.67,20.56-109.62,75.2-122.83l216.9-52.44L724.46,1969.73z"/>
				</g>
			</g>
			<g>
				<g>
					<path class="st4" d="M489.74,2048.56c-17.84,0-35.62-4.42-51.58-13.11c-26.77-14.58-46.19-39.94-53.28-69.58l-151.17-631.83
						c-13.37-55.88,21.19-112.33,77.04-125.84l216.9-52.44c0.64-0.16,1.32-0.05,1.89,0.3c0.57,0.35,0.97,0.9,1.13,1.55
						l196.22,811.55c0.3,1.25-0.39,2.52-1.6,2.95l-199.77,70.36C513.92,2046.54,501.81,2048.56,489.74,2048.56z M526.4,1161.2
						l-214.47,51.86c-53.18,12.86-86.08,66.61-73.35,119.81l151.17,631.83c6.76,28.27,25.28,52.45,50.81,66.35
						c25.53,13.9,55.89,16.34,83.31,6.68l197.64-69.61L526.4,1161.2z"/>
				</g>
			</g>
		</g>
		<g>
			<g>
				<g>
					<polygon class="st2" points="724.45,1922.03 715.63,1925.14 693.17,1792.68 					"/>
				</g>
			</g>
			<g>
				<g>
					<path class="st4" d="M715.63,1927.64c-0.44,0-0.88-0.12-1.27-0.34c-0.64-0.37-1.07-1.01-1.2-1.74L690.7,1793.1
						c-0.23-1.33,0.64-2.6,1.96-2.87c1.32-0.26,2.62,0.55,2.93,1.86l31.28,129.35c0.3,1.25-0.39,2.52-1.6,2.95l-8.82,3.11
						C716.19,1927.59,715.91,1927.64,715.63,1927.64z M707.69,1863.38l9.91,58.42l3.89-1.37L707.69,1863.38z"/>
				</g>
			</g>
		</g>
		<g class="st3">
			<g>
				<g>
					<path class="st4" d="M724.45,1977.29c0,0-197.1,75.65-245.57,68.23c-48.44-7.38-117.66-54.58-110.96-174.16
						c0,0,15.18,11.58,50.71,6.43c0.03,0,0.05-0.01,0.08-0.01c9.34-1.4,15.36-10.71,13.16-19.9L314.85,1368.8
						c-11.29-47.16,17.75-94.6,64.91-106.01l175.03-42.33l133.06,550.2l5.31,22.02l22.46,132.46L724.45,1977.29z"/>
				</g>
			</g>
		</g>
		<g class="st5">
			<g>
				<g>
					<path class="st6" d="M693.17,1792.68l-5.31-22.02c0.96-0.4,1.48-0.6,1.48-0.6L693.17,1792.68z"/>
				</g>
			</g>
			<g>
				<g>
					<path class="st4" d="M693.16,1795.18c-1.13,0-2.15-0.77-2.43-1.91l-5.31-22.02c-0.29-1.19,0.33-2.42,1.47-2.89
						c1-0.42,1.54-0.62,1.54-0.62c0.7-0.27,1.48-0.21,2.14,0.16c0.65,0.37,1.1,1.01,1.23,1.75l3.83,22.62
						c0.22,1.33-0.64,2.6-1.96,2.87C693.5,1795.16,693.33,1795.18,693.16,1795.18z"/>
				</g>
			</g>
		</g>
		<g>
			<g>
				<g>
					<path class="st4" d="M347.36,2078.83c-38.64,0-67.12-2.03-69.89-2.23c-0.33-0.02-0.66-0.06-0.98-0.1
						c-33.06-4.51-63.62-18.71-88.38-41.08s-41.99-51.33-49.83-83.75L24.2,1479.8c-15.66-64.76,8.87-132.17,62.49-171.73
						c0.45-0.33,0.92-0.64,1.41-0.93l182.63-106.94c7.61-4.45,17.38-1.9,21.84,5.71c4.45,7.61,1.9,17.38-5.71,21.84l-181.88,106.5
						c-42.79,31.98-62.32,86.07-49.75,138.05l114.09,471.86c12.95,53.54,56.48,93,111,100.64c9.71,0.67,160.43,10.37,238.67-19.61
						c8.23-3.15,17.46,0.96,20.61,9.19c3.15,8.23-0.96,17.46-9.19,20.61C479.07,2074.66,402.77,2078.83,347.36,2078.83z"/>
				</g>
			</g>
		</g>
		<g>
			<g>
				<g>
					<path class="st4" d="M489.75,2062.01c-20.07,0-40.06-4.97-58.02-14.75c-30.11-16.4-51.96-44.93-59.93-78.27l-151.17-631.83
						c-15.09-63.08,23.92-126.81,86.97-142.05l216.9-52.44c4.11-0.99,8.46-0.31,12.07,1.89c3.61,2.21,6.2,5.76,7.2,9.87
						l196.22,811.55c1.92,7.96-2.49,16.08-10.21,18.8l-199.77,70.36C516.94,2059.74,503.32,2062.01,489.75,2062.01z M516.48,1177.44
						l-201.39,48.69c-45.98,11.12-74.44,57.59-63.43,103.6l151.17,631.83c5.88,24.57,21.97,45.59,44.16,57.67
						c22.18,12.08,48.57,14.2,72.4,5.81l186.17-65.57L516.48,1177.44z"/>
				</g>
			</g>
		</g>
		<g>
			<g>
				<g>
					<path class="st2" d="M1813.08,1876.43c-0.48,51.39-58.41,147.82-58.41,147.82s-48.16,83.83-92.52,104.13
						c-50.03,22.9-99.75,5.35-154.01-23.38l-0.24-0.12l-498.33-229.3V1618.2l218.32-29.29l43.13-9.58c0,0,53.54-7.34,175.55,69.42
						c42.93,27.01,147.54,117.62,205.84,213.42C1709.06,1778.75,1813.95,1787.29,1813.08,1876.43z"/>
				</g>
			</g>
			<g>
				<g>
					<path class="st4" d="M1614.01,2141.39c-8.97,0-18.21-0.96-27.78-2.89c-22.47-4.51-46.92-14.17-79.27-31.29l-0.18-0.09
						l-498.26-229.26c-0.89-0.41-1.46-1.3-1.46-2.27V1618.2c0-1.25,0.93-2.31,2.17-2.48l218.22-29.27l43.03-9.55
						c0.07-0.01,0.13-0.03,0.2-0.04c2.22-0.3,55.84-6.59,177.22,69.78c42.61,26.81,145.6,115.76,204.64,210.97
						c30.82-43.11,78.64-64.66,117.45-52.51c29.33,9.17,45.94,35.18,45.59,71.34c-0.48,51.48-56.39,145.13-58.77,149.09
						c-1.96,3.41-49.04,84.71-93.63,105.12C1647.51,2137.83,1631.26,2141.39,1614.01,2141.39z M1012.06,1873.99l496.88,228.63
						l0.31,0.15c38.04,20.14,71.97,33.7,104.72,33.7c15.88,0,31.47-3.19,47.13-10.35c43.13-19.74,90.92-102.28,91.4-103.11
						c0.6-1,57.61-96.48,58.08-146.6c0,0,0,0,0,0c0.33-33.81-15.01-58.05-42.08-66.52c-30.8-9.64-79.63,3.06-114.02,53.71
						c-0.48,0.7-1.29,1.15-2.13,1.09c-0.85-0.02-1.63-0.47-2.07-1.2c-58.25-95.73-162.28-185.7-205.03-212.6
						c-117.25-73.77-171.34-69.32-173.81-69.07l-43.01,9.55c-0.07,0.02-0.14,0.03-0.21,0.04l-216.16,29V1873.99z"/>
				</g>
			</g>
		</g>
		<g class="st3">
			<g>
				<g>
					<path class="st4" d="M1813.08,1876.43c-0.48,51.39-58.41,147.82-58.41,147.82s-48.16,83.83-92.52,104.13
						c-50.03,22.9-99.75,5.35-154.01-23.38l-0.24-0.12l-498.33-229.3v-116.54l498.33,229.3l0.24,0.12
						c54.26,28.73,103.98,46.28,154.01,23.38c44.37-20.31,92.52-104.14,92.52-104.14s24.3-40.42,41.57-82.87
						C1806.89,1836.85,1813.32,1854.12,1813.08,1876.43z"/>
				</g>
			</g>
		</g>
		<g>
			<g>
				<g>
					<path class="st4" d="M1614.3,2154.84c-52.25,0-104.38-29.81-158.75-60.9c-45.4-25.96-92.34-52.8-145.32-67.69
						c-8.49-2.38-13.43-11.2-11.05-19.68c2.38-8.49,11.2-13.43,19.68-11.05c56.77,15.95,107.64,45.04,152.53,70.71
						c71.59,40.94,128.14,73.28,184.09,47.65c32.58-14.92,72.63-75.5,85.32-97.59c0.05-0.09,0.11-0.18,0.16-0.27
						c15.49-25.8,55.78-101.21,56.16-139.75c0.29-30.18-13.66-50.22-38.27-54.97c-17.82-3.44-38.95,1.78-57.99,14.33
						c-15.83,10.44-37.81,30.86-52.66,68.91c-3.2,8.21-12.46,12.27-20.67,9.06c-8.21-3.2-12.27-12.46-9.06-20.67
						c31.28-80.14,97.34-112.46,146.44-102.98c40,7.73,64.58,40.92,64.14,86.62c-0.53,54.62-57.26,150.12-60.64,155.76
						c-1.2,2.08-13.21,22.68-30.6,45.92c-24.95,33.34-48.17,55.09-69.02,64.64C1650.54,2151.26,1632.41,2154.84,1614.3,2154.84z"/>
				</g>
			</g>
		</g>
		<g>
			<g>
				<g>
					<path class="st4" d="M1649.7,1881.7c-5.77,0-11.34-3.14-14.18-8.62c-52.73-101.67-152.21-182.35-197.44-210.81
						c-113.41-71.34-164.68-67.15-165.19-67.09c0.19-0.02,0.29-0.04,0.29-0.04l-4.33-31.62c6.07-0.83,62.84-5.88,186.23,71.74
						c47.78,30.05,152.9,115.37,208.78,223.13c4.06,7.83,1,17.46-6.82,21.52C1654.69,1881.12,1652.18,1881.7,1649.7,1881.7z"/>
				</g>
			</g>
		</g>
		<g>
			<g>
				<g>
					<path class="st4" d="M1110.85,1067.4c-6.9,0-13.26-4.51-15.3-11.46c-2.49-8.46,2.35-17.33,10.8-19.82l224.83-66.17
						c8.46-2.49,17.33,2.35,19.82,10.8c2.49,8.46-2.35,17.33-10.8,19.82l-224.83,66.17
						C1113.86,1067.19,1112.34,1067.4,1110.85,1067.4z"/>
				</g>
			</g>
		</g>
		<g>
			<g>
				<g>
					<path class="st7" d="M1295.38,2138.91"/>
				</g>
			</g>
		</g>
		<g>
			<g>
				<g>
					<path class="st2" d="M1391.75,2204.47c0,0-70.86,55.06-174.32-25.06c-28.81-22.3-61.28-75.81-83.11-130.23
						c-534.64,203.93-752.88-287.23-728.82-691.68c2.11-35.99,6.7-71.46,13.77-105.93c12.21-59.69,31.96-116.34,59.61-167.41
						l525.18-314.84c0,0,64.04,133.46,186.65,481.1c51.03,144.71,72.22,296.81,79.6,424.96c45.17,11.85,86.82,36.35,114.95,81.51
						c42.01,67.47,11.53,258.7,11.53,258.7s94-30.88,115.55,44.49C1533.87,2135.45,1391.75,2204.47,1391.75,2204.47z"/>
				</g>
			</g>
		</g>
		<g class="st3">
			<g>
				<g>
					<path class="st4" d="M873.43,1241.12c-175.03,101.78-384.9,115.31-467.93,116.38c2.11-35.99,6.7-71.46,13.77-105.93
						L873.43,1241.12z"/>
				</g>
			</g>
		</g>
		<g>
			<g>
				<g>
					<path class="st2" d="M1404.28,1950.8c-3.31,0.8-5.19,1.44-5.19,1.44s5.19-32.64,8.34-75.69
						C1407.59,1902.56,1406.15,1928.49,1404.28,1950.8z"/>
				</g>
			</g>
			<g>
				<g>
					<path class="st4" d="M1399.09,1954.73c-0.58,0-1.15-0.2-1.61-0.59c-0.67-0.56-1-1.44-0.86-2.3c0.05-0.33,5.21-33.04,8.31-75.48
						c0.1-1.34,1.23-2.34,2.58-2.32c1.34,0.04,2.41,1.14,2.42,2.48c0.14,22.81-0.92,47.87-3.16,74.48
						c-0.09,1.07-0.86,1.97-1.91,2.22c-3.14,0.76-4.95,1.37-4.97,1.37C1399.63,1954.69,1399.36,1954.73,1399.09,1954.73z
						 M1404.28,1950.8h0.01H1404.28z"/>
				</g>
			</g>
		</g>
		<g class="st3">
			<g>
				<g>
					<path class="st4" d="M1391.75,2204.47c0,0-70.86,55.06-174.32-25.06c-28.81-22.3-61.28-75.81-83.11-130.23
						c-464.74,178.47-748.93-179.9-717.97-612.68c-0.2,403.45,269.98,669.93,733.48,462.25c11.28,44.42,42.24,144.83,92.71,197.85
						c90.23,94.77,151.53,44.51,151.53,44.51s84.39-40.98,113.23-94.28c1.96,3.99,3.63,8.42,5.03,13.25
						C1533.87,2135.45,1391.75,2204.47,1391.75,2204.47z"/>
				</g>
			</g>
		</g>
		<g>
			<g>
				<g>
					<path class="st8" d="M1969.35,786.82c-11.71-6.41-23.61-12.22-35.67-17.48C1945.75,774.56,1957.67,780.39,1969.35,786.82z"/>
				</g>
			</g>
		</g>
		<g>
			<g>
				<g>
					<path class="st4" d="M892.94,2112.56c-12.66,0-25.15-0.46-37.49-1.39c-84.9-6.37-161.17-34.51-226.69-83.64
						c-44.62-33.46-84.02-76.63-117.09-128.31c-32.78-51.23-59.53-111.12-79.51-178.01c-20.05-67.13-33.41-141.77-39.7-221.83
						c-6.4-81.33-5.55-168.95,2.51-260.42c0.77-8.78,8.52-15.28,17.3-14.5c8.78,0.77,15.27,8.52,14.5,17.3
						c-31.24,354.34,49.36,631.44,221.13,760.23c69.8,52.34,152.55,78.6,245.06,78.61c72.56,0,151.12-16.15,234.19-48.56
						c8.21-3.2,17.46,0.86,20.67,9.07c3.2,8.21-0.86,17.46-9.07,20.67C1052.24,2095.54,969.74,2112.56,892.94,2112.56z"/>
				</g>
			</g>
		</g>
		<g>
			<g>
				<g>
					<path class="st4" d="M1165.87,1156.75c2.73,4.9,5.22,9.83,7.62,14.82c2.4,4.98,4.7,9.99,6.91,15.04
						c4.44,10.08,8.55,20.27,12.44,30.53c3.9,10.26,7.51,20.6,10.94,31c3.44,10.4,6.66,20.87,9.67,31.39
						c6.01,21.06,11.01,42.39,16.22,63.66c5.2,21.28,10.55,42.53,15.57,63.87c5.07,21.33,9.79,42.77,14.25,64.28
						c4.48,21.51,8.52,43.15,12.09,64.92c3.56,21.78,6.66,43.69,8.62,65.93c0.97,11.12,1.73,22.31,2,33.63l0.14,4.23l-0.03,4.28
						l-0.07,8.57c0.04,2.84-0.23,5.76-0.38,8.66l-0.54,8.7c-0.52,8.26-7.64,14.54-15.9,14.03c-8.26-0.52-14.54-7.64-14.03-15.9
						l0.06-0.93l0.46-7.63c0.14-2.55,0.39-5.06,0.34-7.68l0.06-7.79l0.04-3.89l-0.14-3.94c-0.25-10.48-0.96-21.07-1.89-31.67
						c-1.87-21.21-4.87-42.52-8.35-63.78c-3.49-21.26-7.44-42.51-11.86-63.7c-4.39-21.19-9.05-42.35-14.07-63.46
						c-5.01-21.1-10.08-42.21-15.84-63.15c-5.71-20.95-11.96-41.76-17.59-62.74c-2.83-10.49-5.48-21.02-8.04-31.59
						c-2.54-10.57-5-21.17-7.24-31.84c-2.26-10.66-4.36-21.38-6.25-32.17c-0.94-5.39-1.83-10.81-2.64-16.25
						c-0.82-5.43-1.54-10.92-2.11-16.41l0-0.03c-0.29-2.8,1.74-5.31,4.55-5.6C1162.98,1153.94,1164.9,1155.03,1165.87,1156.75z"/>
				</g>
			</g>
		</g>
		<g>
			<g>
				<g>
					<path class="st9" d="M1129.22,930.39"/>
				</g>
			</g>
		</g>
		<g>
			<g>
				<g>
					<path class="st2" d="M307.07,1117.72c-31.1,12.24-70.47,113.04,41.76,168.62c84.38,41.79,295.37,29.95,524.6-45.23"/>
				</g>
			</g>
			<g>
				<g>
					<path class="st4" d="M492.49,1312.72c-62.49,0-112.7-8.24-144.77-24.13c-68.61-33.98-77.03-82.14-75.94-107.82
						c1.38-32.57,18.92-59.29,34.37-65.37c1.28-0.5,2.74,0.13,3.24,1.41c0.51,1.29-0.13,2.74-1.41,3.24
						c-14,5.51-29.91,30.37-31.2,60.93c-1.04,24.47,7.08,70.4,73.16,103.12c41.68,20.65,115.08,28.1,206.68,21
						c97.43-7.56,206.71-30.5,316.03-66.36c1.31-0.43,2.72,0.29,3.15,1.6c0.43,1.31-0.28,2.72-1.6,3.16
						c-109.7,35.98-219.39,59-317.21,66.59C534.35,1311.85,512.77,1312.72,492.49,1312.72z"/>
				</g>
			</g>
		</g>
		<g>
			<g>
				<g>
					<path class="st2" d="M307.07,1117.72c-31.1,12.24-70.47,113.04,41.76,168.62c84.38,41.79,295.37,29.95,524.6-45.23
						L307.07,1117.72z"/>
				</g>
			</g>
		</g>
		<g class="st3">
			<g>
				<g>
					<path class="st4" d="M295.22,1126.29c-4.27,36.03,10.97,81.51,73.97,112.71c71.66,35.51,234.8,32.32,422.84-15.6
						L295.22,1126.29z"/>
				</g>
			</g>
		</g>
		<g>
			<g>
				<g>
					<path class="st4" d="M312.91,1132.57c-0.9,0.44-2.73,1.64-4.47,3.42c-1.78,1.73-3.59,3.98-5.25,6.4
						c-3.3,4.94-6.1,10.71-8.1,16.78c-1.99,6.08-3.33,12.44-3.86,18.85c-0.53,6.41-0.26,12.85,0.72,19.16
						c1.98,12.64,7.2,24.65,14.92,35.35c1.9,2.69,4.06,5.25,6.25,7.78c2.26,2.48,4.59,4.93,7.11,7.24c4.93,4.71,10.42,9,16.22,12.98
						c5.8,3.98,11.95,7.61,18.35,10.93l1.19,0.63l1.17,0.55l2.34,1.1l2.34,1.11c0.77,0.38,1.55,0.75,2.39,1.06l4.91,1.97
						c0.82,0.32,1.63,0.67,2.46,0.98l2.55,0.86c13.53,4.71,28,8.04,42.72,10.49c14.74,2.44,29.77,4.04,44.91,5.03
						c15.15,0.93,30.4,1.34,45.68,1.33c15.29-0.12,30.62-0.59,45.95-1.47c15.33-0.96,30.66-2.09,45.98-3.67
						c15.33-1.47,30.62-3.43,45.91-5.49c7.63-1.12,15.27-2.21,22.9-3.42l11.43-1.87l5.72-0.94l5.7-1.02l11.41-2.04
						c3.8-0.67,7.59-1.45,11.39-2.17l11.38-2.21l11.35-2.37c7.58-1.53,15.13-3.2,22.69-4.86c7.57-1.61,15.08-3.47,22.63-5.21
						c30.12-7.17,60.04-15.29,89.78-24.11c3.02-0.9,6.2,0.82,7.1,3.84c0.87,2.91-0.72,5.98-3.54,7
						c-29.4,10.56-59.19,20.1-89.25,28.77c-7.53,2.11-15.03,4.35-22.6,6.33c-7.56,2.03-15.11,4.11-22.71,5.97l-11.39,2.85
						l-11.43,2.69c-3.82,0.88-7.62,1.82-11.45,2.65l-11.48,2.52l-5.74,1.26l-5.76,1.18l-11.52,2.35
						c-7.69,1.53-15.41,2.95-23.12,4.39c-15.46,2.7-30.95,5.32-46.54,7.43c-31.14,4.46-62.56,7.3-94.2,8.59
						c-15.83,0.53-31.71,0.68-47.64,0.18c-15.94-0.57-31.93-1.79-47.97-3.96c-16.03-2.2-32.12-5.34-48.14-10.38l-3.01-0.93
						c-1-0.33-2-0.72-3-1.08l-5.99-2.2c-1-0.34-1.99-0.78-2.98-1.22l-2.98-1.3l-2.97-1.31l-1.49-0.66l-1.41-0.7
						c-7.5-3.68-14.88-7.8-22.01-12.46c-7.13-4.67-14.06-9.83-20.53-15.72c-3.25-2.92-6.34-6.06-9.34-9.3
						c-2.95-3.3-5.85-6.68-8.49-10.3c-5.34-7.19-9.98-15.05-13.59-23.43c-3.58-8.39-6.22-17.25-7.64-26.32
						c-1.46-9.05-1.75-18.28-0.92-27.37c0.84-9.09,2.74-18.07,5.79-26.71c3.06-8.64,7.14-16.99,12.75-24.81
						c1.44-1.95,2.9-3.88,4.57-5.76c0.79-0.95,1.7-1.87,2.55-2.79c0.92-0.92,1.81-1.82,2.82-2.71c1.94-1.78,4.1-3.49,6.53-5.1
						c2.43-1.6,5.13-3.11,8.31-4.34c8.22-3.16,17.44,0.94,20.6,9.16c2.98,7.75-0.5,16.4-7.81,20.01L312.91,1132.57z"/>
				</g>
			</g>
		</g>
		<g>
			<g>
				<g>
					
						<ellipse transform="matrix(0.9858 -0.1678 0.1678 0.9858 -94.043 122.8739)" class="st2" cx="679.92" cy="617.81" rx="665.59" ry="599.75"/>
				</g>
			</g>
			<g>
				<g>
					<path class="st4" d="M656.19,1222.16c-46.92,0-93.51-4.55-139.41-13.64c-83.51-16.54-161.22-47.34-230.99-91.54
						c-69.79-44.22-128.1-99.63-173.33-164.68c-46.84-67.37-77.5-142.19-91.16-222.37c-13.65-80.18-9.47-160.93,12.44-240
						C54.89,413.58,91.59,342,142.81,277.18c51.21-64.8,114.35-119.58,187.69-162.82C406.41,69.6,489.96,39.23,578.84,24.1
						C667.72,8.97,756.62,9.98,843.06,27.1c83.51,16.54,161.22,47.33,230.99,91.54c69.79,44.22,128.1,99.63,173.33,164.68
						c46.84,67.37,77.5,142.19,91.16,222.37c13.65,80.18,9.47,160.93-12.44,240c-21.15,76.35-57.85,147.93-109.07,212.75
						c-51.21,64.8-114.35,119.58-187.69,162.82c-75.91,44.76-159.46,75.12-248.34,90.26
						C739.31,1218.61,697.62,1222.16,656.19,1222.16z M704.23,18.43c-41.23,0-82.87,3.5-124.54,10.6
						C405.03,58.77,251.27,147.99,146.74,280.28C42.26,412.48-0.53,571.88,26.23,729.09c48.89,287.2,319.25,487.97,630.5,487.98
						c40.59,0,81.84-3.41,123.42-10.49c360.44-61.36,608.72-375.41,553.45-700.06c-26.77-157.22-119.89-293.47-262.23-383.66
						C962.93,54.15,835.8,18.43,704.23,18.43z"/>
				</g>
			</g>
		</g>
		<g class="st3">
			<g>
				<g>
					<path class="st4" d="M780.58,1209.04c-292.02,49.71-568.71-80.04-694.27-303.15c144.23,150.3,371.33,228.34,608.49,187.96
						c362.4-61.72,611.08-376.44,555.51-702.97c-10.77-63.4-32.28-122.57-62.52-176.31c76.09,79.32,129.07,178.74,148.26,291.54
						C1391.67,832.64,1142.94,1147.36,780.58,1209.04z"/>
				</g>
			</g>
		</g>
		<g>
			<g>
				<g>
					<path class="st4" d="M656.19,1235.62c-47.79,0-95.26-4.63-142.03-13.89c-85.14-16.86-164.4-48.28-235.58-93.38
						c-71.31-45.18-130.92-101.83-177.17-168.36C53.43,890.98,22.02,814.34,8.04,732.19c-13.98-82.15-9.7-164.86,12.74-245.86
						c21.63-78.09,59.14-151.27,111.48-217.51c52.24-66.11,116.64-121.98,191.41-166.07c77.32-45.59,162.42-76.52,252.92-91.93
						c90.5-15.41,181.04-14.38,269.09,3.06c85.14,16.86,164.4,48.28,235.58,93.38c71.31,45.18,130.92,101.83,177.17,168.36
						c47.97,69.01,79.39,145.65,93.37,227.79c13.98,82.15,9.7,164.86-12.74,245.86c-21.63,78.09-59.14,151.27-111.48,217.51
						c-52.24,66.11-116.64,121.98-191.41,166.07c-77.32,45.59-162.42,76.52-252.92,91.93
						C740.82,1232.01,698.38,1235.62,656.19,1235.62z M704.22,31.89c-40.48,0-81.36,3.44-122.28,10.41
						C410.57,71.47,259.77,158.95,157.3,288.62C55.22,417.8,13.38,573.42,39.5,726.84c47.78,280.65,312.4,476.77,617.22,476.78
						c39.84,0,80.36-3.35,121.18-10.3c353.13-60.12,596.46-367.2,542.44-684.54c-26.12-153.41-117.09-286.43-256.17-374.55
						C957.9,66.89,833.26,31.89,704.22,31.89z"/>
				</g>
			</g>
		</g>
		<g>
			<g>
				<g>
					<path class="st4" d="M1312.97,784.62c-203.36,328.51-661.45,353.98-833.41,12.12c-116.99-232.58,20.41-526.69,250.99-624.75
						c167.82-71.37,362.87-67.63,544.84,162.55c0,0,64.82,114.33,66.69,208.23s-12.15,185.53-12.15,185.53L1312.97,784.62z"/>
				</g>
			</g>
		</g>
		<g class="st10">
			<g>
				<g>
					<path class="st4" d="M479.57,796.73c171.94,341.85,630.05,316.38,833.4-12.11l3.43-11.42
						C1020.94,968.15,619.49,913.86,439.2,571.45C431.58,647.33,443.48,724.95,479.57,796.73z"/>
				</g>
			</g>
		</g>
		<g>
			<g>
				<g>
					<path class="st4" d="M868.23,1114.29c-53.06,0-104.87-7.9-154.66-23.61c-62.72-19.8-119.81-51.41-169.69-93.97
						c-52.62-44.89-96.16-101.15-129.39-167.22c-60.06-119.39-65.79-259.75-16.14-395.22c26.22-71.54,67.54-139.18,119.49-195.62
						C571.12,180.78,635.7,134.7,704.6,105.4c77.32-32.88,152.88-48.71,224.57-47.03c1.1,0.03,2.2,0.17,3.27,0.42
						c95.71,22.45,184.14,70.33,255.74,138.47c62.63,59.57,109.36,130.64,138.9,211.22c28.15,76.8,39.14,160.59,31.78,242.33
						c0,0,0,0,0,0c-8.51,94.51-41.29,185.71-94.79,263.73c-11.33,16.51-23.59,32.48-36.42,47.47c-5.85,6.87-12.33,14.08-19.79,22.01
						c-20.5,21.54-42.71,41.46-66.07,59.26c-0.67,0.51-1.38,0.96-2.12,1.36c-67.12,36.07-138.46,58.41-212.05,66.41
						C907.68,1113.21,887.87,1114.29,868.23,1114.29z M918.86,90.16c-64.3,0-132.11,14.99-201.76,44.61
						c-129.8,55.2-237.75,171.27-288.78,310.49c-46.58,127.1-41.37,258.46,14.69,369.89c61.29,121.83,158.18,206.58,280.18,245.09
						c127.74,40.32,273.56,24.6,400.28-43.13c21.65-16.58,42.25-35.09,61.23-55.04c7.03-7.47,13.16-14.29,18.7-20.79
						c12.14-14.17,23.69-29.24,34.38-44.81c50.41-73.51,81.3-159.46,89.32-248.53c14.47-160.7-44.18-316.54-160.9-427.57
						c-67.09-63.85-149.84-108.83-239.41-130.14C924.15,90.19,921.5,90.16,918.86,90.16z M1342.98,649.38h0.01H1342.98z"/>
				</g>
			</g>
		</g>
		<g>
			<g>
				<g>
					<path class="st4" d="M871.03,1058.23c-7.05,0-14.08-0.15-21.11-0.46c-78.87-3.48-154.73-26.95-219.37-67.87
						c-69.79-44.18-125.39-106.75-165.25-185.99c-53.65-106.66-58.78-232.03-14.44-353.01c23.41-63.86,60.29-124.24,106.67-174.62
						c47.57-51.68,105.24-92.82,166.76-118.98c96.89-41.2,190.04-52.2,276.86-32.69c50.03,11.24,98.78,32.84,144.9,64.18
						c49.42,33.59,97.14,79.29,141.85,135.84c0.51,0.64,0.96,1.32,1.36,2.03c2.73,4.81,66.83,118.96,68.76,215.78
						c1.88,94.19-11.75,184.47-12.33,188.26c-0.11,0.74-0.28,1.47-0.49,2.19l-16.96,56.32c-0.4,1.34-0.98,2.61-1.71,3.8
						c-53.54,86.49-127.39,156.7-213.56,203.02C1036.97,1036.89,953.75,1058.23,871.03,1058.23z M914.45,147.54
						c-57.01,0-116.27,13.03-177.66,39.13C621.75,235.6,526.07,338.48,480.83,461.88c-41.27,112.61-36.66,228.98,12.98,327.68
						c72.09,143.33,202.4,229.46,357.51,236.31c175.6,7.75,346.68-87.18,446.97-247.88l16.01-53.18
						c1.54-10.51,13.53-95.76,11.81-181.72c-1.68-84.26-57.76-188.24-64.05-199.66C1158.63,213,1042.21,147.54,914.45,147.54z
						 M1312.97,784.62h0.01H1312.97z"/>
				</g>
			</g>
		</g>
		<g class="st11">
			<g>
				<g>
					<path class="st2" d="M649.32,309.88c0,0,231.66-81.53,410.94-4.44c0.19,0.08,0.38,0.16,0.56,0.24
						c37.72,16.26,70.36,42.44,94.68,75.53c32.17,43.76,47.93,78.63,60.62,109.87c38.55,95.01,38.84,146.74,38.84,146.74
						c33.67-72.13,41-141.47,9.68-220.92c-3.11-7.82-6.6-15.78-10.45-23.83c-0.88-1.86-1.79-3.68-2.74-5.5
						c0.03-0.03,0-0.07-0.07-0.1c-8.93-15.76-21.45-36.02-37.49-57.7c-48.32-65.41-128.39-143.81-237.88-150.85
						C771.29,165.76,637.47,303.13,649.32,309.88z"/>
				</g>
			</g>
		</g>
		<g class="st11">
			<g>
				<g>
					
						<ellipse transform="matrix(0.9923 -0.1237 0.1237 0.9923 -71.3447 75.8733)" class="st2" cx="575.23" cy="612.37" rx="72.26" ry="84.2"/>
				</g>
			</g>
		</g>
		<g class="st11">
			<g>
				<g>
					
						<ellipse transform="matrix(0.9992 -0.0395 0.0395 0.9992 -29.7436 24.084)" class="st2" cx="594.16" cy="764.19" rx="29.84" ry="34.77"/>
				</g>
			</g>
		</g>
		<g class="st3">
			<g>
				<g>
					<path class="st4" d="M399.99,1041.2c-90.4,19.55-184.02-58.46-209.04-174.25c-1.67-7.69-2.99-15.38-3.94-23.03
						c41.13,69.73,110.63,109.86,178.41,95.25c84.43-18.23,136.29-115.11,122.4-222.08c13.8,23.35,24.39,50.04,30.68,79.09
						C543.52,911.98,490.44,1021.7,399.99,1041.2z"/>
				</g>
			</g>
		</g>
		<g>
			<g>
				<g>
					<path class="st4" d="M1315.98,2239.7c-13.46,0-27.34-1.83-41.64-6.06c-115.61-34.15-179.35-239.79-182.01-248.53
						c-2.56-8.43,2.19-17.35,10.63-19.91c8.43-2.57,17.35,2.19,19.91,10.63c0.6,1.97,61.36,197.92,160.51,227.21
						c45.17,13.34,86.11-2.35,137.51-31.99c35.22-20.31,65.61-44.97,75.61-61.36c12.94-21.21,10.98-43.48-5.25-59.57
						c-12.12-12.02-30.38-18.95-51.42-19.51c-25.37-0.71-53.16,7.89-80.37,24.8c-7.49,4.65-17.33,2.35-21.98-5.13
						c-4.65-7.49-2.35-17.33,5.13-21.98c73.03-45.38,138.56-33.12,171.11-0.83c12.83,12.72,20.68,28.48,22.71,45.57
						c2.11,17.78-2.28,36.21-12.69,53.28c-15.45,25.33-55.03,54-86.91,72.39C1401.4,2219.13,1361.05,2239.7,1315.98,2239.7z"/>
				</g>
			</g>
		</g>
		<g>
			<g>
				<g>
					<path class="st4" d="M1383.91,2041.18c-2.31,0-4.65-0.5-6.87-1.56c-7.95-3.8-11.32-13.32-7.53-21.28
						c66.88-140.08,24.11-233.79,9.4-259.18c-27.19-46.95-80.41-75.08-158.19-83.61c-60.12-6.6-112.67,1.73-113.2,1.82
						c-8.7,1.41-16.9-4.49-18.31-13.19c-1.42-8.7,4.48-16.89,13.17-18.31c2.29-0.37,56.75-9.07,121.07-2.13
						c38.28,4.13,72.13,13,100.59,26.35c36.58,17.16,64.33,41.75,82.48,73.07c10.51,18.15,28.53,56.99,31.12,113.26
						c2.6,56.44-10.64,115.55-39.34,175.67C1395.59,2037.83,1389.87,2041.18,1383.91,2041.18z"/>
				</g>
			</g>
		</g>
		<g>
			<g>
				<g>
					<path class="st4" d="M207.59,225.97c-5.42,0-10.71-2.77-13.7-7.76c-4.53-7.56-2.08-17.36,5.48-21.89
						c57.93-34.73,117.2-59.08,176.16-72.39c47.4-10.7,94.69-14.31,140.56-10.74c78.73,6.12,125.95,31.22,127.92,32.29
						c7.75,4.19,10.64,13.87,6.45,21.63c-4.19,7.75-13.85,10.64-21.6,6.46c-0.86-0.45-44.81-23.39-116.99-28.69
						c-66.9-4.91-172.57,4.77-296.08,78.82C213.21,225.24,210.38,225.97,207.59,225.97z"/>
				</g>
			</g>
		</g>
		<g>
			<g>
				<g>
					<g>
						<path class="st12" d="M2965.99,1362.31l2.56,3.56C2967.57,1364.76,2966.72,1363.57,2965.99,1362.31z"/>
					</g>
				</g>
			</g>
			<g>
				<g>
					<g>
						<path class="st4" d="M2968.56,1368.37c-0.69,0-1.38-0.29-1.87-0.84c-1.09-1.23-2.06-2.57-2.86-3.98
							c-0.66-1.15-0.3-2.63,0.81-3.35c1.12-0.72,2.61-0.44,3.38,0.64l2.56,3.56c0.78,1.08,0.57,2.58-0.47,3.41
							C2969.66,1368.19,2969.11,1368.37,2968.56,1368.37z"/>
					</g>
				</g>
			</g>
		</g>
		<g>
			<g>
				<g>
					<path class="st4" d="M1278.96,1566.46c-8.19,0-15.16-6.27-15.88-14.59c-2.73-31.65-14.34-120.62-34.92-151.76
						c-4.86-7.35-2.84-17.25,4.51-22.11c7.35-4.86,17.25-2.84,22.11,4.51c12.57,19.02,23.15,53.07,31.43,101.21
						c6,34.89,8.56,64.18,8.67,65.41c0.76,8.78-5.75,16.51-14.53,17.27C1279.88,1566.44,1279.42,1566.46,1278.96,1566.46z"/>
				</g>
			</g>
		</g>
		<g>
			<g>
				<g>
					<path class="st2" d="M440.29,1702.44c102.14-37.72,367.95-131.02,535.27-145.55"/>
				</g>
			</g>
			<g>
				<g>
					<path class="st4" d="M440.29,1704.94c-1.02,0-1.97-0.63-2.35-1.63c-0.48-1.3,0.18-2.73,1.48-3.21
						c105.56-38.98,369.09-131.21,535.92-145.7c1.38-0.13,2.59,0.9,2.71,2.27c0.12,1.38-0.9,2.59-2.27,2.71
						c-166.22,14.43-429.25,106.49-534.62,145.41C440.87,1704.89,440.57,1704.94,440.29,1704.94z"/>
				</g>
			</g>
		</g>
		<g>
			<g>
				<g>
					<path class="st2" d="M1026.68,1629.25c-117.56,1.98-426.44,118.1-550.83,166.73c-28.15,11-59.54-5.27-66.78-34.61l0,0
						c-6.11-24.74,7.32-50.1,31.22-58.92c102.14-37.72,367.95-131.02,535.27-145.55"/>
				</g>
			</g>
			<g>
				<g>
					<path class="st4" d="M457.63,1801.91c-8.32,0-16.61-1.97-24.16-5.89c-13.43-6.96-23.21-19.37-26.83-34.06
						c-6.42-26,7.67-52.6,32.78-61.87c105.56-38.98,369.09-131.21,535.92-145.7c1.37-0.13,2.59,0.9,2.71,2.27
						c0.12,1.38-0.9,2.59-2.27,2.71c-166.22,14.43-429.25,106.49-534.62,145.41c-22.72,8.39-35.47,32.45-29.66,55.98
						c3.28,13.29,12.13,24.53,24.28,30.82c12.14,6.29,26.42,7.04,39.16,2.06c126.69-49.52,434.07-164.91,551.7-166.9
						c1.37,0.01,2.52,1.08,2.54,2.46c0.02,1.38-1.08,2.52-2.46,2.54c-116.82,1.97-423.52,117.13-549.96,166.55
						C470.59,1800.71,464.11,1801.91,457.63,1801.91z"/>
				</g>
			</g>
		</g>
		<g class="st3">
			<g>
				<g>
					<path class="st4" d="M990.54,1632.44c-117.54,1.99-390.3,114.92-514.7,163.55c-28.13,10.97-59.53-5.27-66.79-34.63
						c-1-4.03-1.48-8.06-1.48-12.01c0-11.73,4.15-22.98,11.45-31.84c10.45,24.3,38.62,36.71,64.16,26.73
						c111.84-43.73,364.13-140.61,501.1-161.44L990.54,1632.44z"/>
				</g>
			</g>
		</g>
		<g>
			<g>
				<g>
					<path class="st4" d="M457.63,1815.37c-10.45,0-20.87-2.48-30.35-7.39c-16.87-8.74-29.15-24.33-33.71-42.79
						c-8.06-32.66,9.64-66.07,41.18-77.72c106.07-39.17,370.96-131.85,539.41-146.48c8.78-0.76,16.52,5.74,17.28,14.52
						c0.76,8.78-5.74,16.52-14.52,17.28c-164.6,14.29-426.26,105.9-531.12,144.62c-16.28,6.01-25.42,23.26-21.25,40.13
						c2.35,9.53,8.7,17.58,17.41,22.1c8.7,4.51,18.94,5.05,28.07,1.48c127.37-49.78,436.56-165.8,556.37-167.82
						c0.09,0,0.18,0,0.27,0c8.69,0,15.8,6.97,15.95,15.69c0.15,8.81-6.88,16.08-15.69,16.23
						c-114.64,1.94-419.53,116.48-545.29,165.63C473.92,1813.87,465.76,1815.37,457.63,1815.37z"/>
				</g>
			</g>
		</g>
		<g>
			<g>
				<g>
					<path class="st2" d="M1063.69,1529.21l12.5,83.47c0.81,5.39,6.52,8.53,11.49,6.27c29.16-13.25,135.76-57.4,191.3-68.45
						c0,0-10.15-117.79-37.51-159.19"/>
				</g>
			</g>
			<g>
				<g>
					<path class="st4" d="M1084.29,1622.2c-1.75,0-3.49-0.44-5.09-1.3c-2.98-1.62-4.98-4.48-5.48-7.84l-12.5-83.47
						c-0.2-1.37,0.74-2.64,2.1-2.84c1.36-0.21,2.64,0.74,2.84,2.1l12.5,83.47c0.27,1.8,1.34,3.32,2.92,4.19
						c1.58,0.86,3.42,0.92,5.06,0.18c30.14-13.7,134.24-56.56,189.63-68.18c-1.57-16.37-12.25-118.52-36.9-155.81
						c-0.76-1.15-0.45-2.7,0.71-3.46c1.15-0.76,2.7-0.44,3.46,0.71c27.4,41.45,37.5,155.52,37.91,160.35c0.11,1.27-0.75,2.42-2,2.67
						c-54.37,10.82-160.35,54.46-190.75,68.28C1087.29,1621.87,1085.79,1622.2,1084.29,1622.2z"/>
				</g>
			</g>
		</g>
		<g>
			<g>
				<g>
					<path class="st2" d="M975.55,1556.89l8.18,56.51c1.64,11.34,11.99,19.34,23.38,18.05l70.7-14.97l-14.12-96.61l-91.34,20.57"/>
				</g>
			</g>
			<g>
				<g>
					<path class="st4" d="M1004.67,1634.09c-11.68,0-21.7-8.49-23.41-20.33l-8.18-56.51c-0.2-1.37,0.75-2.63,2.12-2.83
						c1.37-0.2,2.63,0.75,2.83,2.12l8.18,56.51c1.45,10.03,10.45,17.02,20.51,15.94l68.28-14.46l-13.39-91.62l-88.71,19.97
						c-1.35,0.3-2.68-0.54-2.99-1.89c-0.3-1.35,0.54-2.68,1.89-2.99l91.34-20.57c0.68-0.15,1.39-0.02,1.96,0.38
						c0.57,0.39,0.96,1.01,1.06,1.7l14.12,96.61c0.19,1.3-0.67,2.53-1.96,2.81l-70.7,14.97c-0.08,0.02-0.16,0.03-0.24,0.04
						C1006.48,1634.04,1005.57,1634.09,1004.67,1634.09z"/>
				</g>
			</g>
		</g>
		<g>
			<g>
				<g>
					<path class="st2" d="M1077.83,1616.49l-70.7,14.96c-11.41,1.28-21.74-6.7-23.38-18.03l-4.95-34.23l-3.23-22.3l-3.23-16.44
						l84.58-19.07l6.78-1.52L1077.83,1616.49z"/>
				</g>
			</g>
			<g>
				<g>
					<path class="st4" d="M1004.69,1634.09c-11.69,0-21.71-8.48-23.42-20.31l-8.17-56.47l-3.22-16.38c-0.26-1.33,0.58-2.62,1.9-2.92
						l84.58-19.07l6.79-1.52c0.68-0.16,1.39-0.01,1.96,0.38c0.57,0.39,0.96,1.01,1.06,1.7l14.12,96.63c0.19,1.3-0.67,2.53-1.96,2.81
						l-70.7,14.96c-0.08,0.02-0.16,0.03-0.24,0.04C1006.49,1634.04,1005.59,1634.09,1004.69,1634.09z M975.26,1542.34l2.76,14.05
						c0.01,0.04,0.02,0.08,0.02,0.12l8.18,56.54c1.45,10.01,10.44,16.99,20.51,15.92l68.28-14.45l-13.4-91.65l-4.15,0.93
						L975.26,1542.34z"/>
				</g>
			</g>
		</g>
		<g class="st5">
			<g>
				<g>
					<path class="st6" d="M1063.7,1567.69l-70.7,14.96c-5.19,0.6-10.17-0.76-14.2-3.47l-3.23-22.3l-3.23-16.44l84.58-19.07
						L1063.7,1567.69z"/>
				</g>
			</g>
			<g>
				<g>
					<path class="st4" d="M990.6,1585.29c-4.67,0-9.28-1.39-13.2-4.03c-0.59-0.39-0.98-1.02-1.08-1.72l-3.22-22.24l-3.22-16.38
						c-0.26-1.33,0.58-2.62,1.9-2.92l84.58-19.07c0.68-0.15,1.39-0.02,1.97,0.38c0.57,0.39,0.96,1.01,1.06,1.7l6.78,46.32
						c0.19,1.31-0.67,2.54-1.96,2.81l-70.7,14.96c-0.08,0.02-0.15,0.03-0.23,0.04C992.39,1585.24,991.5,1585.29,990.6,1585.29z
						 M981.11,1577.69c3.46,2.05,7.5,2.93,11.5,2.5l68.29-14.45l-6.05-41.33l-79.58,17.94l2.76,14.05c0.01,0.04,0.02,0.08,0.02,0.12
						L981.11,1577.69z"/>
				</g>
			</g>
		</g>
		<g>
			<g>
				<g>
					<path class="st4" d="M1004.63,1647.55c-18.3,0-34-13.3-36.69-31.87l-8.18-56.51c-1.26-8.72,4.79-16.82,13.51-18.08
						c8.72-1.27,16.82,4.79,18.08,13.51l8.18,56.51c0.41,2.83,2.96,4.81,5.8,4.48l70.7-7.96c8.76-0.98,16.66,5.32,17.64,14.07
						c0.99,8.76-5.32,16.66-14.07,17.64l-70.7,7.96C1007.46,1647.47,1006.04,1647.55,1004.63,1647.55z"/>
				</g>
			</g>
		</g>
		<g class="st3">
			<g>
				<g>
					<path class="st4" d="M259.63,1903.2c-4.71,1.2-9.46,1.76-14.08,1.76c-25.42,0-48.6-16.84-55.66-42.37l-28.17-101.66l24.46-6.82
						l15.88,57.37c7.06,25.53,30.28,42.37,55.66,42.37c4.67,0,9.38-0.56,14.08-1.76c12.13-3.03,22.38-9.7,29.88-18.55
						C309.18,1864.34,290.43,1895.46,259.63,1903.2z"/>
				</g>
			</g>
		</g>
		<g>
			<g>
				<g>
					<path class="st4" d="M245.45,1917.44c-12.28,0-24.4-3.24-35.27-9.57c-15.94-9.29-27.43-24.19-32.36-41.97l-24.7-89.19
						c-3.74-13.49,4.19-27.53,17.67-31.3c0,0,0,0,0,0l88.11-24.62c6.65-1.86,13.6-0.98,19.58,2.47c5.98,3.45,10.21,9.04,11.92,15.73
						l23.21,90.75c4.66,18.24,1.93,37.2-7.71,53.37c-9.64,16.18-25,27.61-43.26,32.19C256.96,1916.73,251.19,1917.44,245.45,1917.44
						z M177.54,1769.48c-0.24,0.07-0.38,0.31-0.31,0.55l24.7,89.19c6.61,23.88,30.62,37.86,54.65,31.83
						c11.77-2.95,21.66-10.32,27.87-20.74c6.21-10.42,7.97-22.63,4.97-34.38l-23.21-90.75c-0.02-0.06-0.05-0.18-0.21-0.28
						c-0.16-0.09-0.28-0.06-0.34-0.04L177.54,1769.48z"/>
				</g>
			</g>
		</g>
		<g>
			<g>
				<g>
					<path class="st4" d="M1122.1,2032.88c-1.93,0-3.9-0.47-5.71-1.46c-5.8-3.16-7.95-10.43-4.79-16.23
						c0.97-1.79,24.3-44.37,61.85-91.36c51.16-64.01,101.87-103.21,150.72-116.51c70.81-19.29,101.67,10.31,102.95,11.58
						l-16.86,16.99l0.15,0.15c-0.94-0.86-23.57-20.97-79.95-5.62c-105.49,28.73-196.93,194.56-197.84,196.23
						C1130.45,2030.63,1126.34,2032.88,1122.1,2032.88z"/>
				</g>
			</g>
		</g>
		<g>
			<g>
				<g>
					<path class="st4" d="M1416.45,1827.14c-2.1,0-4.24-0.55-6.17-1.72c-5.65-3.41-7.48-10.75-4.08-16.4
						c1.66-2.76,41.63-67.97,126.9-98.97c6.21-2.26,13.08,0.95,15.34,7.16s-0.95,13.08-7.16,15.34
						c-77,27.99-114.2,88.22-114.57,88.82C1424.46,1825.08,1420.5,1827.14,1416.45,1827.14z"/>
				</g>
			</g>
		</g>
		<g>
			<g>
				<g>
					<path class="st2" d="M232.2,622.22c0,0-11.96,2.58,61.14-13.21c93.23-20.14,186.69,46.3,208.75,148.41
						s-35.64,201.2-128.87,221.34c-75.34,16.28-61.14,13.21-61.14,13.21"/>
				</g>
			</g>
			<g>
				<g>
					<path class="st4" d="M311.54,994.64l-0.01-0.05c-1.15,0.12-2.58-0.07-2.96-1.87c-0.08-0.39-0.36-2.25,1.92-2.96l0-0.02
						l0.39-0.08c0.01,0,0.02,0,0.03-0.01l61.77-13.35c44.39-9.59,82.05-37.56,106.03-78.75c24.02-41.27,31.45-90.85,20.92-139.62
						c-10.54-48.77-37.77-90.87-76.69-118.54c-38.85-27.62-84.69-37.54-129.09-27.96l-59.95,12.95c-0.34,0.07-0.68,0.15-1,0.21
						c-0.06,0.02-0.13,0.04-0.19,0.05l-0.72,0.16l-0.01-0.06c-1.46,0.16-2.59-0.12-2.96-1.85c-0.31-1.42,0.34-2.41,1.93-2.94
						l-0.01-0.04c0.02,0,0.2-0.04,0.67-0.15c0.02,0,0.03-0.01,0.05-0.01c0.01,0,0.02,0,0.03-0.01c2.83-0.61,15.18-3.28,61.11-13.2
						c45.78-9.89,93.03,0.33,133.04,28.77c39.94,28.39,67.88,71.56,78.68,121.56c10.8,49.99,3.17,100.85-21.48,143.19
						c-24.7,42.42-63.51,71.23-109.3,81.12c-44.41,9.6-57.71,12.47-61.14,13.21l0,0c-0.04,0.01-0.08,0.02-0.12,0.03
						C311.81,994.59,311.56,994.64,311.54,994.64z"/>
				</g>
			</g>
		</g>
		<g class="st3">
			<g>
				<g>
					<path class="st4" d="M373.22,978.75c-44.45,9.58-57.73,12.49-61.16,13.21l-79.88-369.74c2.07-0.44,9.46-2.03,32.24-6.98
						l49.51,229.14c3.47-0.76,88.24-113.33,88.24-113.33l11.95,12.94c23.79,25.76,66.2,17.91,79.44-14.56
						c0.07-0.16,0.13-0.32,0.2-0.48c3.43,9.14,6.22,18.63,8.34,28.49C524.16,859.53,466.46,958.6,373.22,978.75z"/>
				</g>
			</g>
		</g>
		<g>
			<g>
				<g>
					
						<ellipse transform="matrix(0.9775 -0.2112 0.2112 0.9775 -164.293 75.6647)" class="st2" cx="272.13" cy="807.09" rx="147.74" ry="189.14"/>
				</g>
			</g>
			<g>
				<g>
					<path class="st4" d="M287.43,997.1c-72.54,0-142.14-65.68-162.15-158.28c-22.31-103.29,25.41-201.55,106.38-219.04
						c39.34-8.5,80.51,3.08,115.94,32.61c35.24,29.38,60.59,73.06,71.38,122.98c22.31,103.29-25.41,201.55-106.38,219.04
						C304.23,996.22,295.81,997.1,287.43,997.1z M257.08,622.06c-8.16,0-16.3,0.86-24.36,2.6
						c-78.28,16.91-124.28,112.51-102.55,213.1c19.5,90.25,87.01,154.34,157.22,154.34c8.04,0,16.11-0.84,24.16-2.58
						c78.28-16.91,124.28-112.51,102.55-213.1c-10.55-48.84-35.3-91.53-69.69-120.2C317.48,633.79,287.19,622.06,257.08,622.06z"/>
				</g>
			</g>
		</g>
		<g class="st3">
			<g>
				<g>
					<path class="st4" d="M312.06,991.96c-79.72,17.24-162.27-51.55-184.33-153.65c-1.48-6.78-2.63-13.57-3.47-20.31
						c36.27,61.48,97.55,96.87,157.32,83.99c74.45-16.08,120.17-101.5,107.93-195.82c12.17,20.59,21.51,44.13,27.05,69.74
						C438.61,878.01,391.81,974.76,312.06,991.96z"/>
				</g>
			</g>
		</g>
		<g>
			<g>
				<g>
					<path class="st4" d="M310.97,1008.07c-9.34,0-14.38-7.04-15.56-12.5c-1.63-7.56,2.51-16.64,12.24-18.97l0,0l0.37-0.08
						c0.01,0,0.03-0.01,0.04-0.01l61.78-13.35c40.65-8.78,75.19-34.48,97.24-72.37c22.33-38.36,29.22-84.53,19.39-130.01
						c-9.83-45.48-35.16-84.69-71.33-110.41c-35.73-25.4-77.79-34.55-118.44-25.77l-61.47,13.28c-0.02,0-0.04,0.01-0.06,0.01
						l-0.32,0.07l0,0c-9.83,1.92-17.35-4.65-18.98-12.22c-1.6-7.39,2.18-16.42,12.25-18.96l0-0.01c0.03-0.01,0.2-0.04,0.62-0.13
						c0.03-0.01,0.06-0.01,0.09-0.02c0.03-0.01,0.05-0.01,0.08-0.02c2.92-0.63,15.37-3.32,61.06-13.19
						c49.53-10.7,100.55,0.29,143.68,30.96c42.68,30.34,72.52,76.4,84.04,129.68c11.51,53.28,3.34,107.55-23.01,152.81
						c-26.62,45.73-68.56,76.81-118.09,87.5c-44.12,9.53-57.53,12.43-61.07,13.19c-0.02,0-0.05,0.01-0.07,0.02
						c-0.03,0.01-0.06,0.01-0.09,0.02c-0.67,0.15-0.93,0.2-0.97,0.21l-0.01-0.02C313.19,1007.98,312.05,1008.07,310.97,1008.07z"/>
				</g>
			</g>
		</g>
		<g>
			<g>
				<g>
					<path class="st4" d="M287.08,1010.6c-34.38,0-68.72-13.19-99.04-38.46c-37.54-31.29-64.5-77.63-75.92-130.48
						c-11.42-52.85-5.99-106.18,15.29-150.18c21.92-45.33,57.93-75.47,101.41-84.86c43.48-9.4,88.72,3.19,127.4,35.43
						c37.54,31.29,64.5,77.63,75.92,130.48c11.42,52.85,5.99,106.18-15.29,150.18c-21.92,45.33-57.93,75.47-101.41,84.86
						C306.05,1009.6,296.56,1010.6,287.08,1010.6z M257.01,635.53c-7.19,0-14.36,0.76-21.44,2.29
						c-71.02,15.34-112.4,103.76-92.24,197.1c18.14,83.96,79.99,143.73,143.93,143.74c7.15,0,14.31-0.75,21.45-2.29
						c71.02-15.34,112.4-103.76,92.24-197.1c-9.92-45.92-33.06-85.94-65.16-112.7C311.34,646.18,284,635.53,257.01,635.53z"/>
				</g>
			</g>
		</g>
		<g>
			<g>
				<g>
					<path class="st2" d="M1063.69,1529.21l12.5,83.47c0.81,5.39,6.52,8.53,11.49,6.27c29.16-13.25,135.76-57.4,191.3-68.45
						c0,0-10.15-117.79-37.51-159.19"/>
				</g>
			</g>
			<g>
				<g>
					<path class="st4" d="M1084.29,1622.2c-1.75,0-3.49-0.44-5.09-1.3c-2.98-1.62-4.98-4.48-5.48-7.84l-12.5-83.47
						c-0.2-1.37,0.74-2.64,2.1-2.84c1.36-0.21,2.64,0.74,2.84,2.1l12.5,83.47c0.27,1.8,1.34,3.32,2.92,4.19
						c1.58,0.86,3.42,0.92,5.06,0.18c30.14-13.7,134.24-56.56,189.63-68.18c-1.57-16.37-12.25-118.52-36.9-155.81
						c-0.76-1.15-0.45-2.7,0.71-3.46c1.15-0.76,2.7-0.44,3.46,0.71c27.4,41.45,37.5,155.52,37.91,160.35c0.11,1.27-0.75,2.42-2,2.67
						c-54.37,10.82-160.35,54.46-190.75,68.28C1087.29,1621.87,1085.79,1622.2,1084.29,1622.2z"/>
				</g>
			</g>
		</g>
		<g class="st5">
			<g>
				<g>
					<path class="st6" d="M1049.96,1469.13l12.5,83.47c0.81,5.39,6.52,8.53,11.49,6.27c29.16-13.25,135.76-57.4,191.3-68.45
						c0,0-10.15-117.79-37.51-159.19"/>
				</g>
			</g>
			<g>
				<g>
					<path class="st4" d="M1070.56,1562.12c-1.75,0-3.49-0.44-5.09-1.3c-2.98-1.62-4.98-4.48-5.48-7.84l-12.5-83.47
						c-0.2-1.37,0.74-2.64,2.1-2.84c1.37-0.21,2.64,0.74,2.84,2.1l12.5,83.47c0.27,1.8,1.34,3.32,2.92,4.19
						c1.58,0.86,3.42,0.92,5.06,0.18c30.14-13.7,134.24-56.56,189.63-68.18c-1.57-16.37-12.25-118.52-36.9-155.81
						c-0.76-1.15-0.45-2.7,0.71-3.46c1.15-0.76,2.7-0.44,3.46,0.71c27.4,41.45,37.5,155.52,37.92,160.35c0.11,1.27-0.75,2.42-2,2.67
						c-54.36,10.82-160.34,54.46-190.75,68.28C1073.57,1561.79,1072.06,1562.12,1070.56,1562.12z"/>
				</g>
			</g>
		</g>
		<g>
			<g>
				<g>
					<path class="st4" d="M1084.28,1635.67c-3.95,0-7.89-0.99-11.5-2.95c-6.72-3.65-11.23-10.1-12.37-17.67l-12.5-83.47
						c-1.31-8.72,4.7-16.84,13.42-18.15c8.72-1.31,16.84,4.7,18.15,13.42l11,73.41c36.52-15.95,117.85-48.78,171.23-62.18
						c-4.29-38.53-15.44-110.58-33.54-137.95c-4.86-7.35-2.84-17.25,4.51-22.11c7.35-4.86,17.25-2.84,22.11,4.51
						c12.57,19.02,23.15,53.07,31.43,101.21c6,34.89,8.56,64.18,8.67,65.41c0.7,8.1-4.81,15.43-12.78,17.02
						c-53.22,10.6-157.77,53.67-187.81,67.33C1091.07,1634.94,1087.67,1635.67,1084.28,1635.67z"/>
				</g>
			</g>
		</g>
		<g>
			<g>
				<g>
					<g>
						<path class="st13" d="M2439.12,1066.26c1.71,24.49,1.92,49,0.61,73.4c-1.78,34.28-6.54,68.32-14.12,101.72
							c-32.9,144.91-119.41,277.88-252.98,366.56c-133.86,88.87-290.39,116.92-436.97,90.73c-32.19-5.76-63.91-14.14-94.77-25.06
							c-24.22-8.54-47.9-18.67-70.92-30.3c139.18-60.12,297.33-146.29,458.14-253.06
							C2188.89,1283.51,2329.69,1171.2,2439.12,1066.26z"/>
					</g>
				</g>
			</g>
			<g>
				<g>
					<g>
						<path class="st12" d="M2028.1,1390.26c160.79-106.75,301.59-219.06,411.02-323.99c1.71,24.49,1.92,49,0.61,73.4
							c-83.63,84.34-221.32,194.08-384.79,302.61c-156.58,103.95-305,185.68-414.06,231.34c-24.22-8.54-47.9-18.67-70.92-30.3
							C1709.14,1583.19,1867.29,1497.02,2028.1,1390.26z"/>
					</g>
				</g>
			</g>
			<g>
				<g>
					<g>
						<path class="st13" d="M2340.49,776.96c13.97,21.05,26.45,42.67,37.43,64.73c-83.57,93.5-255.95,233.4-466.33,373.08
							c-210.36,139.66-406.23,244.24-524.83,284.97c-16.07-18.68-31.15-38.57-45.12-59.62c-0.66-0.99-1.3-1.96-1.94-2.96
							c-6.12-9.31-11.92-18.72-17.43-28.24c-12.94-22.27-24.27-45.07-34.05-68.26c-0.4-0.94-0.8-1.88-1.18-2.83
							c-14.33-34.52-25.21-69.87-32.73-105.64c-14.32-68.04-16.48-137.5-7.15-205.24c22.66-164.46,113.13-318.78,262.33-417.83
							c147.98-98.24,323.65-122.16,482.97-80.62c65.41,17.03,128.07,45.12,184.92,83.6c30.41,20.57,59.16,44.15,85.78,70.59
							c2.16,2.12,4.28,4.26,6.4,6.44c17.58,18.01,34.2,37.3,49.7,57.87c5.76,7.62,11.36,15.43,16.79,23.4
							C2337.54,772.57,2339.02,774.75,2340.49,776.96z"/>
					</g>
				</g>
			</g>
			<g>
				<g>
					<g>
						<path class="st12" d="M2336.05,770.4c1.5,2.17,2.97,4.35,4.44,6.56c13.97,21.05,26.45,42.67,37.43,64.73
							c-83.57,93.5-255.95,233.4-466.33,373.08c-210.36,139.66-406.23,244.24-524.83,284.97c-16.07-18.68-31.15-38.57-45.12-59.62
							c-0.66-0.99-1.3-1.96-1.94-2.96c113.6-31.61,313.56-134.49,528.02-276.87C2090.65,1012.27,2268.17,862.12,2336.05,770.4z"/>
					</g>
				</g>
			</g>
			<g>
				<g>
					<g>
						<path class="st12" d="M1254.29,1248.14c-8.03,0-14.95-6.05-15.84-14.22c-0.96-8.76,5.36-16.64,14.12-17.61
							c81.92-9.01,282.71-110.63,488.3-247.12c245.35-162.89,397.91-306.04,421.79-363.25c3.4-8.13,12.74-11.97,20.88-8.58
							c8.13,3.4,11.97,12.74,8.58,20.88c-19.14,45.84-88.88,112.6-144.02,160.52c-78.95,68.62-179.08,143.67-289.57,217.02
							c-212.71,141.22-414.63,242.59-502.46,252.26C1255.46,1248.11,1254.87,1248.14,1254.29,1248.14z"/>
					</g>
				</g>
			</g>
			<g>
				<g>
					<g>
						<path class="st12" d="M1247.15,1042.91c-6.76,0-13.04-4.33-15.2-11.11c-2.68-8.4,1.96-17.38,10.35-20.05
							c88.85-28.34,237.72-108.15,388.53-208.27c158.03-104.92,291.84-214.13,349.22-285.02c5.55-6.85,15.59-7.91,22.45-2.36
							c6.85,5.55,7.91,15.59,2.36,22.45c-59.28,73.24-195.83,184.94-356.37,291.53c-153.09,101.64-305.01,182.91-396.48,212.08
							C1250.4,1042.66,1248.76,1042.91,1247.15,1042.91z"/>
					</g>
				</g>
			</g>
			<g>
				<g>
					<g>
						<path class="st12" d="M1287.02,1353.78c-7.72,0-14.5-5.61-15.74-13.47c-1.37-8.71,4.57-16.88,13.28-18.25
							c93.16-14.7,300.38-120.6,515.63-263.5c113.29-75.21,216.65-152.38,298.92-223.15c78.58-67.59,131.78-124.39,149.82-159.94
							c3.99-7.86,13.59-11,21.45-7.01c7.86,3.99,11,13.59,7.01,21.45c-41.25,81.3-225.93,240.13-459.55,395.23
							c-108.77,72.22-216.52,135.87-311.59,184.07c-93.99,47.66-168.93,76.83-216.72,84.37
							C1288.69,1353.72,1287.85,1353.78,1287.02,1353.78z"/>
					</g>
				</g>
			</g>
			<g>
				<g>
					<g>
						<path class="st12" d="M1735.65,1706.65c-2.52,0-4.99-1.18-6.54-3.4c-2.53-3.61-1.66-8.58,1.95-11.11
							c0.83-0.58,1.77-1.01,2.75-1.24c79.32-18.84,224.13-93.13,368.92-189.26c145.59-96.66,266.85-198.21,316.48-265.02
							c2.63-3.54,7.63-4.28,11.16-1.65c3.54,2.63,4.28,7.63,1.65,11.16c-50.65,68.19-173.44,171.19-320.46,268.8
							c-148.36,98.5-291.57,171.83-373.86,191.45C1737.02,1706.57,1736.33,1706.65,1735.65,1706.65z"/>
					</g>
				</g>
			</g>
			<g>
				<g>
					<g>
						<path class="st4" d="M1841.64,1724.02c-96.67,0-192.48-22.76-278.88-66.47c-5.53-2.79-8.94-8.53-8.75-14.72
							c0.19-6.19,3.94-11.71,9.62-14.17c143.3-61.9,300.86-148.94,455.65-251.7c154.77-102.76,296.14-214.18,408.8-322.22
							c4.47-4.29,11.01-5.6,16.79-3.37c5.78,2.23,9.74,7.6,10.17,13.78c7.46,106.71-13.11,214.09-59.47,310.55
							c-47.75,99.34-121.79,184.24-214.12,245.54c-92.32,61.29-199.31,96.58-309.4,102.03
							C1861.91,1723.77,1851.77,1724.02,1841.64,1724.02z M1608.46,1643.76c180.56,78.24,390.34,60.43,555.33-49.11
							c165.01-109.55,262.84-295.95,260.79-492.73c-109.49,101.69-242.81,205.47-387.66,301.63
							C1892.06,1499.73,1744.68,1582.32,1608.46,1643.76z"/>
					</g>
				</g>
			</g>
			<g>
				<g>
					<g>
						<path class="st12" d="M2362.24,694.18c0.75,1.13,1.38,2.33,1.89,3.61L2362.24,694.18z"/>
					</g>
				</g>
			</g>
			<g>
				<g>
					<g>
						<path class="st14" d="M2670.81,659.6c48.57,73.16-46.86,229.43-231.69,406.67c-109.43,104.94-250.23,217.24-411.02,323.99
							c-160.81,106.76-318.96,192.93-458.14,253.06c-235.08,101.55-416.12,128.84-464.7,55.67
							c-44.11-66.44,30.52-201.38,182.96-358.34c9.77,23.19,21.11,45.99,34.05,68.26c-41.56,47.01-60.1,81.95-48.95,98.74
							c11.36,17.11,52.06,13.14,113.44-7.92c118.6-40.72,314.47-145.3,524.83-284.97c210.38-139.68,382.76-279.58,466.33-373.08
							c43.21-48.39,62.67-84.35,51.31-101.46c-11.14-16.78-50.55-13.27-109.98,6.77c-15.5-20.57-32.12-39.86-49.7-57.87
							C2473.38,609.56,2626.7,593.15,2670.81,659.6z"/>
					</g>
				</g>
			</g>
			<g>
				<g>
					<g>
						<path class="st15" d="M1274.9,1580.55c-3.26,0-6.39-0.1-9.4-0.29c-23.96-1.56-40.77-9.37-49.96-23.21
							c-11.97-18.03-9.43-43.92,7.53-76.96c14.83-28.89,40.74-63.71,77-103.51c4.45-4.89,12.02-5.24,16.91-0.79
							c4.89,4.45,5.24,12.02,0.79,16.91c-34.84,38.24-59.53,71.32-73.4,98.32c-12.53,24.41-15.61,42.67-8.89,52.79
							c10.45,15.74,48.19,17.01,103.54,3.46c59.55-14.57,139.25-45.87,230.49-90.5c112.46-55.05,237.9-127.97,362.75-210.86
							c124.84-82.88,240.72-170.18,335.11-252.46c76.56-66.76,136.34-128.07,172.88-177.3c33.97-45.75,47.45-81.02,37-96.77
							c-6.72-10.12-24.74-14.38-52.1-12.3c-30.27,2.3-70.34,12.21-119.1,29.48c-6.23,2.21-13.07-1.06-15.28-7.29
							c-2.21-6.23,1.06-13.07,7.29-15.28c50.75-17.97,92.9-28.33,125.28-30.78c37.04-2.81,61.89,4.9,73.86,22.93
							c9.19,13.85,9.87,32.37,2,55.06c-6.78,19.57-20.15,42.85-39.72,69.22c-37.55,50.58-98.54,113.2-176.37,181.07
							c-95.16,82.95-211.9,170.91-337.6,254.36c-125.71,83.46-252.09,156.91-365.47,212.42c-92.76,45.38-174.13,77.28-235.32,92.25
							C1317.46,1577.18,1294.03,1580.55,1274.9,1580.55z"/>
					</g>
				</g>
			</g>
			<g>
				<g>
					<g>
						<path class="st15" d="M1238.4,1667.25c-43.39,0-72.94-11.51-88.16-34.44c-18-27.11-13.46-66.71,13.51-117.71
							c24.42-46.19,66.45-100.77,124.93-162.22c4.56-4.79,12.13-4.98,16.92-0.42c4.79,4.56,4.98,12.13,0.42,16.92
							c-111.36,117.03-162.14,210.55-135.83,250.18c7.54,11.35,21.82,18.73,42.44,21.93c22.06,3.42,50.81,1.99,85.44-4.25
							c69.69-12.56,161.72-44.48,266.16-92.33c128.7-58.95,271.13-139.51,411.9-232.96c140.75-93.45,270.27-193.44,374.55-289.17
							c84.63-77.68,149.78-150.11,188.4-209.46c19.19-29.5,31.67-55.43,37.09-77.09c5.06-20.25,3.8-36.27-3.73-47.62
							c-26.31-39.63-132.21-29.13-283.29,28.08c-6.18,2.34-13.09-0.77-15.43-6.96c-2.34-6.18,0.77-13.09,6.96-15.43
							c79.33-30.04,145.94-47.59,197.99-52.17c57.46-5.05,95.72,6.13,113.72,33.24c21.8,32.83,10.61,83.64-33.23,151.02
							c-39.7,61.01-106.19,135.03-192.28,214.04c-105.19,96.56-235.72,197.35-377.5,291.48
							c-141.79,94.13-285.35,175.32-415.17,234.78c-106.23,48.67-200.25,81.21-271.88,94.12
							C1278.46,1665.1,1257.14,1667.25,1238.4,1667.25z"/>
					</g>
				</g>
			</g>
			<g>
				<g>
					<g>
						<path class="st4" d="M1215.14,1756.27c-19.83,0-37.66-1.75-53.32-5.26c-32.09-7.17-55.59-21.71-69.86-43.19
							c-25.03-37.7-19.33-92.01,16.92-161.44c32.5-62.24,90.55-137.22,167.89-216.84c3.73-3.84,9.14-5.55,14.4-4.57
							c5.26,0.99,9.68,4.55,11.76,9.49c9.58,22.73,20.73,45.08,33.14,66.44c3.45,5.95,2.71,13.44-1.84,18.59
							c-55.72,63.02-47.71,79.2-47.61,79.34c0.1,0.15,12.26,14.19,94.97-14.19c120.95-41.53,320.65-150.03,521.18-283.17
							c200.53-133.13,378.04-275.07,463.26-370.42c58.23-65.2,50.02-81.85,49.92-82c-0.1-0.14-11.89-13.81-91.58,13.07
							c-6.52,2.2-13.71-0.03-17.84-5.52c-14.87-19.73-31.14-38.68-48.37-56.33c-3.74-3.83-5.31-9.28-4.18-14.52
							c1.13-5.23,4.81-9.55,9.8-11.5c103.4-40.36,195.04-64.76,265.01-70.56c78.06-6.47,130.32,9.37,155.35,47.07
							c14.27,21.49,18.54,48.79,12.69,81.15c-5.27,29.17-18.9,62.82-40.51,100c-41.39,71.23-112.67,156.24-206.13,245.86
							c-114.01,109.33-256.91,221.98-413.24,325.77c-156.34,103.8-315.63,191.77-460.64,254.41
							c-118.86,51.35-224.88,84.04-306.58,94.53C1250.15,1755.01,1231.93,1756.26,1215.14,1756.27z M1283.31,1368.85
							c-67.02,70.99-117.33,137.16-146.13,192.29c-20.94,40.11-41.18,95.04-18.62,129.01c19.84,29.88,70.7,40.49,147.08,30.68
							c78.78-10.12,181.83-42,297.99-92.18c143.3-61.9,300.86-148.94,455.65-251.7c154.77-102.76,296.14-214.18,408.8-322.22
							c91.34-87.58,160.71-170.18,200.62-238.86c38.7-66.59,48.66-117.58,28.82-147.46l0,0c-22.55-33.97-81.04-36.65-126.12-32.91
							c-61.99,5.14-142.5,25.82-233.94,60.03c9.56,10.6,18.77,21.55,27.56,32.77c65.02-20.59,102.48-19.55,117.51,3.08
							c16.08,24.23-0.66,62.65-52.7,120.92c-42.33,47.37-107.18,106.51-187.52,171.04c-82.5,66.26-179.98,137.05-281.89,204.71
							c-101.9,67.65-204.97,130.01-298.06,180.33c-90.66,49-170.33,85.81-230.41,106.44c-37.77,12.96-67.19,19.43-89.07,19.43
							c-20.95,0-34.98-5.93-42.85-17.78c-15.03-22.64-1.44-57.57,42.79-109.5C1295.88,1394.52,1289.36,1381.78,1283.31,1368.85z"/>
					</g>
				</g>
			</g>
			<g class="st3">
				<g>
					<g>
						<path class="st4" d="M2439.12,1066.26c1.71,24.49,1.92,49,0.61,73.4c-1.78,34.28-6.54,68.32-14.12,101.72
							c-32.9,144.91-119.41,277.88-252.98,366.56c-133.86,88.87-290.39,116.92-436.97,90.73c-32.19-5.76-63.91-14.14-94.77-25.06
							c-24.22-8.54-47.9-18.67-70.92-30.3c139.18-60.12,297.33-146.29,458.14-253.06
							C2188.89,1283.51,2329.69,1171.2,2439.12,1066.26z"/>
					</g>
				</g>
			</g>
			<g class="st3">
				<g>
					<g>
						<path class="st4" d="M2377.92,841.68c-83.55,93.49-255.94,233.42-466.32,373.08c-210.37,139.66-406.25,244.25-524.85,284.98
							c-16.04-18.71-31.12-38.6-45.13-59.63c-0.66-1-1.28-1.96-1.94-2.96c-6.11-9.33-11.92-18.72-17.41-28.24
							c-12.93-22.26-24.27-45.06-34.07-68.27c-0.4-0.94-0.79-1.88-1.15-2.82c-14.33-34.53-25.22-69.89-32.76-105.64
							c-14.29-68.04-16.46-137.5-7.14-205.26c18.34-133.01,80.98-259.34,183.24-355.2c-22.47,51.09-37.66,105.05-45.24,160.1
							c-9.35,67.76-7.19,137.19,7.14,205.26c7.5,35.76,18.39,71.11,32.72,105.61c0.4,0.98,0.79,1.92,1.19,2.86
							c0.52,1.24,1.22,2.77,2.07,4.55c46.3,96.95,162.58,122.19,266.75,95.87c198.56-50.17,597.42-355.03,681.6-424.12
							C2385.52,836.46,2370.39,826.61,2377.92,841.68z"/>
					</g>
				</g>
			</g>
			<g class="st16">
				<g>
					<g>
						<g>
							<path class="st2" d="M2377.92,841.68c-9.73,10.89-20.64,22.37-32.7,34.45c-8.05-14.66-16.8-29.14-26.19-43.3
								c-1.48-2.21-2.96-4.37-4.44-6.54c-5.43-8-11.02-15.81-16.8-23.41c-15.5-20.57-32.13-39.87-49.69-57.89
								c-2.11-2.17-4.25-4.29-6.4-6.42c-26.61-26.45-55.38-50.05-85.81-70.6c-56.85-38.47-119.49-66.58-184.89-83.59
								c-159.34-41.54-335.02-17.65-482.99,80.61c-98.78,65.59-171.83,155.42-216.48,256.39
								c40.51-123.51,121.25-234.79,237.97-312.28c147.97-98.22,323.65-122.15,482.95-80.6c65.41,17.04,128.08,45.11,184.93,83.62
								c30.39,20.56,59.15,44.12,85.77,70.57c2.18,2.12,4.29,4.29,6.4,6.45c17.59,18.01,34.19,37.28,49.69,57.85
								c5.77,7.64,11.37,15.45,16.8,23.41c1.52,2.17,2.99,4.34,4.44,6.58C2354.45,798.02,2366.93,819.63,2377.92,841.68z"/>
						</g>
					</g>
				</g>
			</g>
			<g>
				<g>
					<g>
						<path class="st4" d="M1386.76,1515.69c-4.57,0-9.01-1.96-12.1-5.55c-16.54-19.23-32.13-39.82-46.32-61.2
							c-6.97-10.5-13.66-21.27-19.89-32.03c-13.07-22.5-24.83-46.08-34.94-70.06c-27.7-65.77-43.57-135.31-47.17-206.7
							c-3.53-69.9,4.78-139.43,24.69-206.67c20.07-67.76,51.26-130.93,92.72-187.77c42.91-58.83,95.7-109.26,156.91-149.9
							c61.21-40.64,128.18-69.71,199.05-86.43c68.48-16.15,138.81-20.38,209.04-12.57c69.69,7.75,137,27.08,200.05,57.46
							c64.39,31.03,122.32,72.65,172.18,123.7c18.18,18.62,35.34,38.61,51.02,59.42c7.48,9.89,14.81,20.24,21.79,30.74
							c14.19,21.38,27.12,43.73,38.42,66.44c2.91,5.85,1.96,12.88-2.39,17.75c-42.33,47.36-107.17,106.5-187.51,171.03
							c-82.5,66.26-179.98,137.05-281.89,204.71c-101.9,67.65-204.97,130.01-298.06,180.33c-90.66,49-170.33,85.81-230.41,106.44
							C1390.24,1515.41,1388.49,1515.69,1386.76,1515.69z M1841.07,525.02c-111.76,0-224.18,31.94-322.75,97.39
							c-233.32,154.91-323.91,454.37-215.39,712.05c9.58,22.73,20.73,45.08,33.14,66.44c5.92,10.22,12.26,20.44,18.87,30.39
							c11.44,17.23,23.83,33.92,36.92,49.73c121.79-43.97,315.97-150.12,510.91-279.55c194.95-129.43,368.15-267.18,455.93-362.36
							c-9.5-18.2-20.07-36.1-31.51-53.33l0,0c-6.61-9.96-13.57-19.77-20.67-29.16c-14.88-19.75-31.16-38.7-48.39-56.35
							C2145.31,584.76,1993.83,525.02,1841.07,525.02z"/>
					</g>
				</g>
			</g>
			<g class="st3">
				<g>
					<g>
						<path class="st4" d="M2018.21,1396.8c-157.42,103.78-311.94,187.61-448.26,246.51c-235.08,101.54-416.14,128.83-464.71,55.68
							c-44.09-66.46,30.55-201.37,182.96-358.34c9.8,23.2,21.13,46.01,34.07,68.27c-41.57,46.99-60.12,81.93-48.96,98.73
							c11.37,17.12,52.08,13.16,113.43-7.9c78.68-27.02,191.37-82.15,319.77-156.99c-0.4,18.37,3.7,34.41,12.52,47.69
							C1755.41,1445.26,1866.14,1443.7,2018.21,1396.8z"/>
					</g>
				</g>
			</g>
		</g>
		<g>
			<g>
				<g>
					<path class="st17" d="M1770.26,1268.02"/>
				</g>
			</g>
		</g>
		<g>
			<g>
				<g>
					<path class="st2" d="M1396.51,1180.45l-14.02-5.79c3.56-3.36,7.65-6.04,12.17-8.04
						C1395.51,1171.27,1396.1,1175.91,1396.51,1180.45z"/>
				</g>
			</g>
			<g>
				<g>
					<path class="st4" d="M1396.51,1182.95c-0.32,0-0.65-0.06-0.95-0.19l-14.02-5.79c-0.78-0.32-1.35-1.02-1.5-1.86
						c-0.15-0.83,0.13-1.69,0.74-2.27c3.72-3.51,8.05-6.37,12.88-8.51c0.7-0.31,1.5-0.28,2.18,0.08c0.68,0.36,1.15,1.01,1.29,1.76
						c0.79,4.33,1.4,8.92,1.87,14.04c0.08,0.87-0.3,1.72-1.01,2.24C1397.56,1182.79,1397.04,1182.95,1396.51,1182.95z
						 M1387.23,1173.91l6.37,2.63c-0.25-2.15-0.52-4.21-0.84-6.2C1390.81,1171.39,1388.96,1172.59,1387.23,1173.91z"/>
				</g>
			</g>
		</g>
		<g>
			<g>
				<g>
					<path class="st2" d="M1454.52,1174.57c-1.2,0.77-1.97,1.28-2.31,1.5c0.61-0.62,1.17-1.25,1.74-1.88
						C1454.17,1174.26,1454.37,1174.38,1454.52,1174.57z"/>
				</g>
			</g>
			<g>
				<g>
					<path class="st4" d="M1452.22,1178.57c-0.73,0-1.44-0.32-1.93-0.91c-0.81-0.99-0.75-2.42,0.14-3.33
						c0.58-0.6,1.13-1.2,1.67-1.81c0.67-0.75,1.72-1.02,2.67-0.69c0.72,0.25,1.3,0.66,1.74,1.22c0.43,0.56,0.6,1.26,0.48,1.95
						c-0.12,0.69-0.53,1.3-1.12,1.68c-0.91,0.58-1.57,1.01-1.97,1.28l-0.31,0.2C1453.16,1178.44,1452.69,1178.57,1452.22,1178.57z"
						/>
				</g>
			</g>
		</g>
		<g>
			<g>
				<g>
					<path class="st2" d="M1485.51,1271.64c-0.07,0.17-0.13,0.33-0.25,0.54c-1.59-0.6-2.47-0.94-2.47-0.94
						C1483.69,1271.4,1484.6,1271.52,1485.51,1271.64z"/>
				</g>
			</g>
			<g>
				<g>
					<path class="st4" d="M1485.26,1274.68c-0.3,0-0.6-0.05-0.89-0.16l-2.47-0.94c-1.21-0.46-1.86-1.76-1.52-3
						c0.34-1.24,1.58-2.01,2.85-1.79c0.84,0.15,1.69,0.26,2.54,0.37c0.76,0.1,1.47,0.55,1.86,1.21c0.39,0.66,0.48,1.47,0.2,2.19
						l-2.33-0.92l2.32,0.92c-0.1,0.26-0.21,0.52-0.39,0.84C1486.99,1274.21,1486.14,1274.68,1485.26,1274.68z M1485.51,1271.64h0.01
						H1485.51z"/>
				</g>
			</g>
		</g>
		<g>
			<g>
				<g>
					<path class="st2" d="M1485.51,1271.64c-0.88-0.12-1.72-0.24-2.55-0.36c0.32,0.12,1.12,0.44,2.31,0.88
						c8.78,3.47,38.5,16.48,46.36,35.95c1.64,3.95,2.35,8.22,1.76,12.73c-3.67,28.17-59.01,19.83-93.52,3.55
						c-1.56-0.76-2.99-1.48-4.43-2.23c0,0-16.4,4.03-28.45,16.4c-49.47,50.71-230.93,182.06-503.04,211.94v-248.85
						c0,0,259.7-57.49,432.5-89.49c0,0-41.02-91.49,7.82-105.97c26.25-7.78,44.21,26.05,50.39,60.45
						c-4.51,1.99-8.62,4.67-12.17,8.02l14,5.79c-0.4-4.51-1-9.18-1.84-13.81c2.35-1.04,4.79-1.88,7.34-2.55l-6.62-2.87
						c0,0,41.77-96.71,80.71-73.41c23.26,13.93,17.79,43.53-22.14,86.38c-0.56,0.64-1.12,1.28-1.72,1.92
						c0.32-0.24,1.08-0.76,2.27-1.52c14.2-9.38,85.86-54.34,104.97-24.82c13.96,21.51-6.26,54.7-73.77,69.1
						c0.04,0.04,0.08,0.12,0.08,0.2c25.69-6.06,92.4-18.67,100.18,11.85C1592.52,1256.72,1560.08,1282.74,1485.51,1271.64z"/>
				</g>
			</g>
		</g>
		<g>
			<g>
				<g>
					<polygon class="st2" points="1373.83,1149.88 1408.83,1159.88 1378.83,1209.88 1348.83,1184.88 1353.83,1159.88 					"/>
				</g>
			</g>
		</g>
		<g class="st3">
			<g>
				<g>
					<path class="st4" d="M1533.39,1320.84c-3.67,28.17-59.01,19.83-93.52,3.55c-1.56-0.76-2.99-1.48-4.43-2.23
						c0,0-16.4,4.03-28.45,16.4c-49.47,50.71-322.63,217.52-594.74,247.4l5.72-44.09c5.41-41.69,39.75-73.59,81.72-75.9
						c55.03-3.03,119.86-16.27,163.99-25.26c203.7-41.47,355.63-163.4,364.57-161.32c8.9,2.07,44.68,36.67,79.6,33.93
						c9.83-0.77,17.35-8.41,19.66-13.95C1529.15,1303.32,1533.99,1316.33,1533.39,1320.84z"/>
				</g>
			</g>
		</g>
		<g>
			<g>
				<g>
					<path class="st4" d="M1321.91,1218.67l-0.77-1.78l-0.68-1.63c-0.44-1.08-0.87-2.15-1.28-3.22c-0.83-2.15-1.62-4.29-2.38-6.44
						c-1.53-4.3-2.94-8.64-4.2-13.05c-2.51-8.81-4.69-17.81-5.95-27.23c-1.25-9.42-1.88-19.21-0.51-29.7
						c0.37-2.63,0.85-5.29,1.52-7.98c0.7-2.7,1.57-5.43,2.69-8.14c2.29-5.41,5.63-10.91,10.36-15.28c4.63-4.44,10.4-7.5,16-9.21
						c1.4-0.46,2.83-0.73,4.19-1.07c1.3-0.33,2.62-0.63,3.98-0.87c2.71-0.5,5.52-0.83,8.43-0.88c5.8-0.17,12.09,0.96,17.69,3.55
						c5.63,2.56,10.37,6.43,13.96,10.64c7.18,8.53,10.7,17.84,13.24,26.81c2.45,9.03,3.74,17.97,4.39,26.85
						c0.29,4.05-2.75,7.58-6.81,7.87c-3.58,0.26-6.74-2.08-7.64-5.42l-0.02-0.07c-2.16-8.03-4.55-15.91-7.68-23.11
						c-1.54-3.6-3.29-7.01-5.22-10.07c-1.91-3.06-4.06-5.76-6.32-7.8c-2.26-2.04-4.55-3.42-6.87-4.13
						c-2.32-0.71-4.73-0.88-7.49-0.56c-1.37,0.15-2.81,0.46-4.29,0.88c-0.74,0.2-1.5,0.46-2.26,0.72c-0.37,0.14-0.65,0.33-0.98,0.49
						c-0.32,0.16-0.63,0.33-0.92,0.51c-2.39,1.36-4.08,2.92-5.46,4.62c-0.69,0.86-1.32,1.76-1.89,2.8
						c-0.58,1.03-1.11,2.16-1.56,3.42c-0.44,1.28-0.82,2.66-1.13,4.13c-0.3,1.48-0.51,3.06-0.66,4.69
						c-0.58,6.58,0.11,14.06,1.47,21.57c1.4,7.53,3.36,15.22,5.82,22.82c1.23,3.8,2.54,7.6,3.94,11.36c0.7,1.88,1.43,3.75,2.17,5.59
						l1.12,2.74l1.08,2.51l0.2,0.47c3.47,8.1-0.28,17.48-8.38,20.95C1334.75,1230.49,1325.38,1226.77,1321.91,1218.67z"/>
				</g>
			</g>
		</g>
		<g>
			<g>
				<g>
					<path class="st4" d="M1484.29,1266.96c1.11,0.17,2.07,0.34,3.09,0.54c1,0.2,2.01,0.39,3,0.63c1.98,0.47,3.96,0.96,5.92,1.52
						c3.92,1.13,7.8,2.46,11.64,4.04c7.66,3.18,15.22,7.17,22.29,13.04c3.53,2.94,6.92,6.42,9.88,10.7
						c2.91,4.28,5.39,9.52,6.4,15.41c0.52,2.93,0.68,5.97,0.48,8.96c-0.1,1.49-0.14,3.16-0.41,4.81c-0.26,1.65-0.68,3.35-1.25,5.03
						c-1.16,3.36-3.06,6.59-5.37,9.3c-2.32,2.73-5.03,4.83-7.72,6.5c-5.46,3.26-10.81,4.75-15.77,5.73
						c-4.97,0.99-9.68,1.4-14.25,1.52c-9.12,0.21-17.71-0.72-26.1-2.17c-8.38-1.49-16.5-3.64-24.5-6.25c-4-1.31-7.95-2.8-11.87-4.43
						c-3.93-1.63-7.82-3.43-11.68-5.47c-7.8-4.11-10.78-13.77-6.66-21.56c4.07-7.71,13.57-10.72,21.32-6.79l0.05,0.02
						c5.97,3.03,12.45,5.7,19.06,7.99c6.61,2.31,13.42,4.15,20.19,5.57c6.75,1.42,13.56,2.33,19.86,2.39
						c3.14,0.04,6.15-0.15,8.75-0.64c2.59-0.5,4.71-1.37,5.89-2.07c0.62-0.31,0.99-0.59,1.27-0.72c0.3-0.13,0.53-0.17,0.91-0.35
						c0.15-0.11,0.38-0.23,0.58-0.45c0.1-0.12,0.24-0.21,0.33-0.37c0.1-0.15,0.24-0.28,0.26-0.51c0.22-0.84,0.34-1.68,0.36-2.58
						c0.02-1.77-0.34-3.87-1.39-6.2c-0.99-2.34-2.59-4.84-4.52-7.32c-3.91-4.98-9.19-9.78-14.87-14.3
						c-2.85-2.26-5.83-4.46-8.89-6.61c-1.53-1.08-3.07-2.16-4.64-3.2l-4.66-3.09l-0.24-0.16c-2.13-1.41-2.72-4.29-1.3-6.42
						C1480.75,1267.43,1482.56,1266.7,1484.29,1266.96z"/>
				</g>
			</g>
		</g>
		<g>
			<g>
				<g>
					<path class="st4" d="M1385.52,1156.96c0.38-1.42,0.69-2.6,1.07-3.87c0.36-1.25,0.76-2.47,1.15-3.7
						c0.81-2.44,1.65-4.87,2.57-7.26c1.8-4.8,3.84-9.52,6.04-14.19c4.43-9.32,9.62-18.4,15.93-27.16
						c3.21-4.35,6.64-8.67,10.64-12.77c3.97-4.12,8.41-8.12,13.81-11.66c2.7-1.76,5.64-3.43,8.92-4.83
						c3.27-1.4,6.89-2.55,10.81-3.18c3.91-0.65,8.13-0.72,12.27-0.1c4.14,0.6,8.12,1.93,11.64,3.67c0.88,0.43,1.73,0.9,2.57,1.37
						l1.22,0.73l1.1,0.72c1.45,0.96,2.89,2.02,4.29,3.19c2.81,2.31,5.49,5.12,7.76,8.36c2.29,3.22,4.09,6.92,5.28,10.69
						c1.19,3.79,1.73,7.64,1.8,11.29c0.08,7.32-1.56,13.75-3.75,19.37c-2.2,5.65-5.02,10.6-8.07,15.17
						c-6.15,9.1-13.27,16.74-20.88,23.62c-3.83,3.42-7.75,6.65-11.82,9.68c-4.06,3.03-8.24,5.9-12.61,8.49
						c-1.18,0.7-2.7,0.31-3.39-0.87c-0.47-0.8-0.45-1.76-0.01-2.51l0.01-0.01c2.53-4.34,5.13-8.54,7.68-12.72
						c1.25-2.11,2.55-4.16,3.76-6.26c1.25-2.07,2.47-4.14,3.65-6.23c4.75-8.27,9.16-16.55,12.35-24.67
						c1.58-4.04,2.82-8.05,3.54-11.74c0.73-3.7,0.83-7.07,0.34-9.53c-0.23-1.23-0.6-2.23-1.04-3.06c-0.44-0.83-0.96-1.51-1.61-2.2
						c-0.64-0.69-1.48-1.36-2.51-2.06c-0.51-0.35-1.08-0.69-1.71-1.03l-0.46-0.25l-0.37-0.18c-0.24-0.1-0.48-0.21-0.7-0.29
						c-1.85-0.62-2.9-0.62-4.72-0.27c-0.9,0.2-1.97,0.56-3.19,1.11c-1.21,0.56-2.55,1.3-3.94,2.22c-2.78,1.84-5.76,4.31-8.68,7.12
						c-2.89,2.85-5.84,5.97-8.64,9.34c-5.7,6.69-11.15,14.1-16.5,21.71c-2.69,3.81-5.33,7.69-7.99,11.59l-3.97,5.88l-1.99,2.93
						c-0.65,0.95-1.35,1.99-1.95,2.82l-0.48,0.66c-3.51,4.83-10.28,5.9-15.11,2.39C1385.89,1165.81,1384.41,1161.15,1385.52,1156.96
						z"/>
				</g>
			</g>
		</g>
		<g>
			<g>
				<g>
					<path class="st4" d="M1449.15,1171.95c3.9-3.8,7.89-7.17,12.06-10.47c4.15-3.29,8.44-6.41,12.84-9.4
						c8.82-5.96,18.12-11.32,28.15-15.83c5.02-2.27,10.24-4.26,15.76-5.9c5.53-1.62,11.38-2.87,17.83-3.27
						c3.23-0.16,6.62-0.11,10.19,0.43c3.56,0.53,7.33,1.52,11.03,3.32c3.7,1.77,7.28,4.38,10.11,7.56c1.4,1.56,2.7,3.32,3.69,4.96
						c0.99,1.6,1.87,3.31,2.63,5.09c1.54,3.54,2.51,7.42,2.87,11.31c0.17,1.95,0.2,3.89,0.08,5.81c-0.14,1.92-0.41,3.8-0.8,5.62
						c-1.58,7.34-5,13.56-8.99,18.68c-2,2.56-4.15,4.89-6.4,7.01c-2.26,2.11-4.61,4.02-7,5.78c-4.78,3.54-9.83,6.34-14.9,8.83
						c-10.22,4.81-20.74,8-31.3,10.09c-5.28,1.05-10.58,1.81-15.87,2.31c-5.29,0.51-10.59,0.79-15.88,0.72
						c-2.05-0.03-3.69-1.71-3.66-3.75c0.02-1.58,1.02-2.92,2.42-3.43l0.02,0c9.69-3.55,19.22-7,28.32-10.99
						c9.1-3.95,17.83-8.37,25.63-13.52c3.91-2.54,7.52-5.34,10.77-8.25c1.62-1.46,3.12-2.98,4.47-4.54c1.37-1.54,2.6-3.11,3.65-4.69
						c2.04-3.18,3.42-6.35,3.82-9.14c0.4-2.81,0.05-5.15-1.01-7.48c-0.26-0.58-0.58-1.16-0.96-1.74c-0.35-0.56-0.6-0.87-0.91-1.22
						c-0.61-0.66-1.25-1.14-2.18-1.62c-1.82-0.94-5.04-1.59-8.88-1.52c-3.84,0-8.17,0.65-12.6,1.59c-4.44,0.93-8.98,2.24-13.56,3.68
						c-18.34,5.93-36.93,14.39-55.6,22.47l-0.12,0.05c-2.64,1.14-5.72-0.07-6.86-2.72
						C1447.12,1175.72,1447.65,1173.41,1449.15,1171.95z"/>
				</g>
			</g>
		</g>
		<g>
			<g>
				<g>
					<path class="st4" d="M1474.31,1216.64c4.91-2.35,9.77-4.27,14.78-6.07c4.98-1.79,10.04-3.37,15.17-4.8
						c10.26-2.82,20.79-4.94,31.73-6c5.48-0.54,11.06-0.76,16.82-0.55c5.76,0.23,11.7,0.92,17.94,2.61
						c3.11,0.88,6.31,2.01,9.51,3.66c3.2,1.64,6.46,3.78,9.39,6.68c2.94,2.86,5.5,6.48,7.16,10.4c0.83,1.92,1.5,4.01,1.91,5.88
						c0.42,1.83,0.72,3.73,0.87,5.66c0.33,3.85,0.01,7.83-0.89,11.63c-0.46,1.9-1.05,3.75-1.79,5.53c-0.74,1.77-1.61,3.46-2.55,5.07
						c-3.84,6.45-9.07,11.25-14.49,14.82c-2.72,1.79-5.5,3.3-8.3,4.6c-2.82,1.27-5.65,2.33-8.48,3.23
						c-5.66,1.83-11.34,2.87-16.94,3.6c-11.22,1.29-22.21,0.95-32.88-0.45c-5.34-0.7-10.6-1.67-15.78-2.88
						c-5.18-1.21-10.28-2.64-15.28-4.39c-1.93-0.68-2.95-2.79-2.27-4.73c0.52-1.49,1.9-2.44,3.39-2.48l0.02,0
						c10.32-0.27,20.44-0.48,30.35-1.36c9.89-0.84,19.57-2.23,28.6-4.62c4.51-1.15,8.83-2.66,12.84-4.37c2-0.87,3.91-1.83,5.69-2.87
						c1.79-1.02,3.46-2.11,4.95-3.28c2.96-2.36,5.27-4.92,6.54-7.44c1.28-2.54,1.69-4.86,1.44-7.41c-0.06-0.64-0.17-1.29-0.35-1.95
						c-0.16-0.64-0.29-1.01-0.47-1.45c-0.36-0.82-0.83-1.48-1.55-2.23c-1.42-1.47-4.27-3.12-7.93-4.28c-3.64-1.23-7.95-2-12.44-2.53
						c-4.5-0.54-9.23-0.75-14.03-0.85c-19.27-0.24-39.6,1.83-59.87,3.51l-0.13,0.01c-2.87,0.24-5.39-1.9-5.63-4.77
						C1471.18,1219.56,1472.42,1217.55,1474.31,1216.64z"/>
				</g>
			</g>
		</g>
		<g>
			<g>
				<g>
					<path class="st4" d="M1361.64,1224.47l-1.65,0.1l-1.78,0.14c-1.18,0.08-2.39,0.18-3.6,0.29c-2.4,0.19-4.84,0.5-7.25,0.75
						c-2.43,0.32-4.84,0.55-7.27,0.89l-7.27,0.98c-9.69,1.38-19.38,2.98-29.04,4.65c-19.33,3.38-38.6,7.27-57.82,11.44
						c-4.81,0.98-9.61,2.06-14.41,3.13l-7.2,1.61c-2.4,0.52-4.8,1.05-7.2,1.61c-9.59,2.21-19.16,4.4-28.85,6.71
						c-9.66,2.32-19.34,4.43-29.01,6.65l-29.04,6.34l-116.04,24.99c-19.41,4.1-38.86,8.13-58.41,11.89
						c-9.77,1.86-19.56,3.7-29.38,5.41c-9.81,1.74-19.66,3.33-29.56,4.77c-2.93,0.43-5.64-1.6-6.07-4.53
						c-0.37-2.52,1.09-4.88,3.36-5.76c18.64-7.23,37.47-13.75,56.36-20.08c18.9-6.3,37.9-12.26,56.99-17.99
						c9.56-2.81,19.13-5.63,28.75-8.28l14.44-3.96l14.5-3.79c19.35-5,38.8-9.54,58.27-13.82c4.86-1.1,9.74-2.12,14.61-3.13
						l14.63-3.04c9.77-1.88,19.52-3.88,29.32-5.61c4.91-0.88,9.75-1.81,14.71-2.66l14.84-2.55c4.93-0.9,9.92-1.57,14.88-2.33
						c4.97-0.74,9.93-1.5,14.92-2.12c19.93-2.62,39.98-4.6,60.16-5.48c5.06-0.15,10.08-0.44,15.15-0.43
						c2.53-0.02,5.05-0.07,7.59-0.06l7.6,0.11c5.07,0.12,10.15,0.36,15.24,0.72c2.56,0.23,5.08,0.42,7.65,0.72
						c1.28,0.14,2.55,0.27,3.85,0.46l1.94,0.29l2.06,0.34c2.9,0.48,4.86,3.23,4.38,6.13c-0.42,2.49-2.5,4.29-4.91,4.44
						L1361.64,1224.47z"/>
				</g>
			</g>
		</g>
		<g>
			<g>
				<g>
					<path class="st4" d="M1443.71,1314.8l-1.78,2.03c-0.58,0.67-1.17,1.3-1.75,1.93c-1.16,1.28-2.33,2.55-3.51,3.79
						c-2.33,2.53-4.75,4.94-7.14,7.39c-2.4,2.43-4.83,4.83-7.27,7.22l-7.42,7.04l-7.52,6.92c-2.51,2.31-5.1,4.51-7.66,6.76
						c-5.1,4.52-10.33,8.87-15.55,13.25c-21.06,17.26-43.04,33.39-65.74,48.44c-22.71,15.04-46.2,28.88-70.16,41.86l-18.08,9.54
						l-18.3,9.11l-4.58,2.27l-4.63,2.16l-9.28,4.3l-9.29,4.28c-3.11,1.38-6.26,2.7-9.39,4.05c-24.97,10.96-50.51,20.65-76.37,29.36
						l-19.46,6.36l-19.64,5.78l-9.82,2.87l-9.91,2.58l-19.83,5.08l-19.99,4.45l-9.99,2.22l-10.06,1.9l-20.13,3.73
						c-6.73,1.12-13.49,2.05-20.24,3.09c-13.47,2.24-27.07,3.51-40.62,5.05c-6.77,0.86-13.59,1.23-20.39,1.74l-20.41,1.46
						c-8.79,0.63-16.42-5.99-17.05-14.78c-0.62-8.65,5.79-16.19,14.37-17.02l0.59-0.06l19.69-1.89c6.56-0.67,13.13-1.13,19.66-2.06
						c13.07-1.71,26.17-3.15,39.15-5.41c6.5-1.06,13.02-2.02,19.5-3.16l19.4-3.75l9.7-1.86l9.64-2.17l19.27-4.34l19.13-4.94
						l9.57-2.44l9.49-2.74l18.98-5.5l18.81-6.06c3.13-1.03,6.29-1.97,9.39-3.08l9.32-3.29l9.33-3.27l4.66-1.64
						c1.55-0.55,3.08-1.17,4.62-1.75l18.46-7.08c3.09-1.14,6.11-2.48,9.16-3.72l9.13-3.79c24.26-10.31,48.32-21.2,71.73-33.4
						c23.45-12.13,46.39-25.22,68.92-39.01c22.53-13.78,44.6-28.35,66.14-43.69c5.32-3.91,10.77-7.67,16.03-11.67
						c2.64-1.98,5.33-3.92,7.93-5.95l7.89-6l7.8-6.11l7.73-6.18c2.56-2.08,5.1-4.18,7.62-6.28c1.27-1.05,2.52-2.1,3.76-3.16
						l3.62-3.11l0.29-0.25c3.72-3.2,9.32-2.77,12.52,0.95C1446.69,1306.55,1446.59,1311.52,1443.71,1314.8z"/>
				</g>
			</g>
		</g>
		<g>
			<g>
				<g>
					<path class="st4" d="M1307.22,1419.14c-2.16,0-4.34-0.7-6.17-2.14c-66.96-52.79-69.42-180.97-69.49-186.4
						c-0.07-5.51,4.33-10.03,9.84-10.11c5.48-0.09,10.03,4.33,10.11,9.84l0,0c0.02,1.24,2.42,124.11,61.9,171
						c4.33,3.41,5.07,9.68,1.66,14.01C1313.09,1417.84,1310.17,1419.14,1307.22,1419.14z"/>
				</g>
			</g>
		</g>
	</g>
</g>
</svg>
