<?xml version="1.0" encoding="utf-8"?>
<!-- Generator: Adobe Illustrator 25.0.0, SVG Export Plug-In . SVG Version: 6.00 Build 0)  -->
<svg version="1.1" id="Fondo" xmlns="http://www.w3.org/2000/svg" xmlns:xlink="http://www.w3.org/1999/xlink" x="0px" y="0px"
	 viewBox="0 0 381.4 389.1" style="enable-background:new 0 0 381.4 389.1;" xml:space="preserve">
<style type="text/css">
	.st0{fill:#F39200;}
	.st1{fill:#FFFFFF;}
</style>
<g>
	<path class="st0" d="M190,389.1c-104.8,0-190-85.2-190-190C0,94.3,85.2,9,190,9v17.1c-95.3,0-172.9,77.6-172.9,172.9
		C17.1,294.4,94.7,372,190,372c95.4,0,172.9-77.6,172.9-172.9c0-6.9-0.4-13.9-1.2-20.8l17-2c0.9,7.5,1.4,15.2,1.4,22.8
		C380,303.8,294.8,389.1,190,389.1z"/>
</g>
<g>
	<path class="st0" d="M209.8,29.1l5-29.1l6.4,1.1l-4,23.3l14.5,2.5l-1,5.8L209.8,29.1z"/>
	<path class="st0" d="M283.7,55.9l1-7.1L274,42.5l-5.7,4.4l-5.7-3.3l25.9-19.3l5.2,3l-4.1,32.1L283.7,55.9z M287.1,32.4l-8.2,6.3
		l6.8,4L287.1,32.4z"/>
	<path class="st0" d="M325,94.2l-8.8-11l23-18.5l8.6,10.7c3.8,4.7,3.8,9.5,0.1,12.4l-0.1,0.1c-2.6,2.1-5.2,1.9-7.4,1
		c1.1,3.5,0.9,6.4-2.2,8.9l-0.1,0.1C334,101.1,329.2,99.4,325,94.2z M334.9,92.1c1.5-1.2,1.6-3.2-0.5-5.8l-4.7-5.9l-5.1,4.1l4.8,6
		C331.2,92.9,333.1,93.6,334.9,92.1L334.9,92.1z M343.1,83.5c1.5-1.2,1.4-3.1-0.3-5.2l-4-5l-4.9,3.9l3.7,4.7
		C339.4,84.1,341.3,84.9,343.1,83.5L343.1,83.5z"/>
	<path class="st0" d="M351.9,145.4c-1.4-4.2-1.4-9,0.5-13.4l5.6,2.2c-1.2,3.2-1.7,6.3-0.6,9.5c0.8,2.5,2.4,3.7,4,3.1l0.1,0
		c1.6-0.5,2-1.8,1.7-6.8c-0.5-6.1-0.1-10.3,5.4-12.2l0.1,0c5.1-1.7,9.8,1.2,11.7,7c1.4,4.1,1.3,8-0.1,11.6l-5.7-1.6
		c0.9-3.1,1.1-5.8,0.3-8.2c-0.8-2.4-2.3-3.2-3.7-2.8l-0.1,0c-1.8,0.6-2,2-1.6,7.3c0.4,6.2-0.5,10.1-5.4,11.7l-0.1,0
		C358.5,154.6,354,151.4,351.9,145.4z"/>
</g>
<path d="M189.8,292c-55.5,0-95.3-41.3-95.3-92.4v-0.5c0-51.1,40.3-93,95.8-93s95.3,41.3,95.3,92.4v0.5
	C285.5,250.2,245.2,292,189.8,292z M244.2,199.1c0-30.8-22.6-56.5-54.4-56.5c-31.8,0-53.9,25.2-53.9,56v0.5
	c0,30.8,22.6,56.5,54.4,56.5c31.8,0,53.9-25.2,53.9-56V199.1z"/>
<g>
	<g>
		<path class="st1" d="M190,1095.2c-104.8,0-190-85.2-190-190c0-104.8,85.2-190,190-190v17.1c-95.3,0-172.9,77.6-172.9,172.9
			c0,95.4,77.6,172.9,172.9,172.9c95.4,0,172.9-77.6,172.9-172.9c0-6.9-0.4-13.9-1.2-20.8l17-2c0.9,7.5,1.4,15.2,1.4,22.8
			C380,1009.9,294.8,1095.2,190,1095.2z"/>
	</g>
	<g>
		<path class="st1" d="M209.8,735.2l5-29.1l6.4,1.1l-4,23.3l14.5,2.5l-1,5.8L209.8,735.2z"/>
		<path class="st1" d="M283.7,762l1-7.1l-10.8-6.3l-5.7,4.4l-5.7-3.3l25.9-19.3l5.2,3l-4.1,32.1L283.7,762z M287.1,738.5l-8.2,6.3
			l6.8,4L287.1,738.5z"/>
		<path class="st1" d="M325,800.3l-8.8-11l23-18.5l8.6,10.7c3.8,4.7,3.8,9.5,0.1,12.4l-0.1,0.1c-2.6,2.1-5.2,1.9-7.4,1
			c1.1,3.5,0.9,6.4-2.2,8.9l-0.1,0.1C334,807.2,329.2,805.5,325,800.3z M334.9,798.3c1.5-1.2,1.6-3.2-0.5-5.8l-4.7-5.9l-5.1,4.1
			l4.8,6C331.2,799,333.1,799.7,334.9,798.3L334.9,798.3z M343.1,789.6c1.5-1.2,1.4-3.1-0.3-5.2l-4-5l-4.9,3.9l3.7,4.7
			C339.4,790.2,341.3,791,343.1,789.6L343.1,789.6z"/>
		<path class="st1" d="M351.9,851.5c-1.4-4.2-1.4-9,0.5-13.4l5.6,2.2c-1.2,3.2-1.7,6.3-0.6,9.5c0.8,2.5,2.4,3.7,4,3.1l0.1,0
			c1.6-0.5,2-1.8,1.7-6.8c-0.5-6.1-0.1-10.3,5.4-12.2l0.1,0c5.1-1.7,9.8,1.2,11.7,7c1.4,4.1,1.3,8-0.1,11.6l-5.7-1.6
			c0.9-3.1,1.1-5.8,0.3-8.2c-0.8-2.4-2.3-3.2-3.7-2.8l-0.1,0c-1.8,0.6-2,2-1.6,7.3c0.4,6.2-0.5,10.1-5.4,11.7l-0.1,0
			C358.5,860.7,354,857.5,351.9,851.5z"/>
	</g>
</g>
<path d="M189.8,998.1c-55.5,0-95.3-41.3-95.3-92.4v-0.5c0-51.1,40.3-93,95.8-93s95.3,41.3,95.3,92.4v0.5
	C285.5,956.3,245.2,998.1,189.8,998.1z M244.2,905.2c0-30.8-22.6-56.5-54.4-56.5c-31.8,0-53.9,25.2-53.9,56v0.5
	c0,30.8,22.6,56.5,54.4,56.5c31.8,0,53.9-25.2,53.9-56V905.2z"/>
<g>
	<g>
		<path class="st0" d="M190,1739.2c-104.8,0-190-85.2-190-190c0-104.8,85.2-190,190-190v17.1c-95.3,0-172.9,77.6-172.9,172.9
			c0,95.4,77.6,172.9,172.9,172.9c95.4,0,172.9-77.6,172.9-172.9c0-6.9-0.4-13.9-1.2-20.8l17-2c0.9,7.5,1.4,15.2,1.4,22.8
			C380,1653.9,294.8,1739.2,190,1739.2z"/>
	</g>
	<g>
		<path class="st0" d="M209.8,1379.2l5-29.1l6.4,1.1l-4,23.3l14.5,2.5l-1,5.8L209.8,1379.2z"/>
		<path class="st0" d="M283.7,1406l1-7.1l-10.8-6.3l-5.7,4.4l-5.7-3.3l25.9-19.3l5.2,3l-4.1,32.1L283.7,1406z M287.1,1382.5
			l-8.2,6.3l6.8,4L287.1,1382.5z"/>
		<path class="st0" d="M325,1444.3l-8.8-11l23-18.5l8.6,10.7c3.8,4.7,3.8,9.5,0.1,12.4l-0.1,0.1c-2.6,2.1-5.2,1.9-7.4,1
			c1.1,3.5,0.9,6.4-2.2,8.9l-0.1,0.1C334,1451.2,329.2,1449.5,325,1444.3z M334.9,1442.3c1.5-1.2,1.6-3.2-0.5-5.8l-4.7-5.9l-5.1,4.1
			l4.8,6C331.2,1443,333.1,1443.7,334.9,1442.3L334.9,1442.3z M343.1,1433.6c1.5-1.2,1.4-3.1-0.3-5.2l-4-5l-4.9,3.9l3.7,4.7
			C339.4,1434.2,341.3,1435,343.1,1433.6L343.1,1433.6z"/>
		<path class="st0" d="M351.9,1495.5c-1.4-4.2-1.4-9,0.5-13.4l5.6,2.2c-1.2,3.2-1.7,6.3-0.6,9.5c0.8,2.5,2.4,3.7,4,3.1l0.1,0
			c1.6-0.5,2-1.8,1.7-6.8c-0.5-6.1-0.1-10.3,5.4-12.2l0.1,0c5.1-1.7,9.8,1.2,11.7,7c1.4,4.1,1.3,8-0.1,11.6l-5.7-1.6
			c0.9-3.1,1.1-5.8,0.3-8.2c-0.8-2.4-2.3-3.2-3.7-2.8l-0.1,0c-1.8,0.6-2,2-1.6,7.3c0.4,6.2-0.5,10.1-5.4,11.7l-0.1,0
			C358.5,1504.7,354,1501.5,351.9,1495.5z"/>
	</g>
</g>
<path class="st1" d="M189.8,1642.1c-55.5,0-95.3-41.3-95.3-92.4v-0.5c0-51.1,40.3-93,95.8-93s95.3,41.3,95.3,92.4v0.5
	C285.5,1600.3,245.2,1642.1,189.8,1642.1z M244.2,1549.2c0-30.8-22.6-56.5-54.4-56.5c-31.8,0-53.9,25.2-53.9,56v0.5
	c0,30.8,22.6,56.5,54.4,56.5c31.8,0,53.9-25.2,53.9-56V1549.2z"/>
</svg>
