<?xml version="1.0" encoding="utf-8"?>
<!-- Generator: Adobe Illustrator 25.0.0, SVG Export Plug-In . SVG Version: 6.00 Build 0)  -->
<svg version="1.1" id="Capa_1" xmlns="http://www.w3.org/2000/svg" xmlns:xlink="http://www.w3.org/1999/xlink" x="0px" y="0px"
	 viewBox="0 0 431.4 428.1" style="enable-background:new 0 0 431.4 428.1;" xml:space="preserve">
<style type="text/css">
	.st0{fill:#F29100;}
	.st1{fill:#FFFFFF;}
</style>
<g>
	<g>
		<path class="st0" d="M214,412.1c-104.8,0-190-85.2-190-190c0-104.8,85.2-190,190-190v17.1c-95.3,0-172.9,77.6-172.9,172.9
			C41.1,317.4,118.7,395,214,395c95.4,0,172.9-77.6,172.9-172.9c0-6.9-0.4-13.9-1.2-20.8l17-2c0.9,7.5,1.4,15.2,1.4,22.8
			C404,326.8,318.8,412.1,214,412.1z"/>
	</g>
	<g>
		<path class="st0" d="M233.8,52.1l5-29.1l6.4,1.1l-4,23.3l14.5,2.5l-1,5.8L233.8,52.1z"/>
		<path class="st0" d="M307.7,78.9l1-7.1L298,65.5l-5.7,4.4l-5.7-3.3l25.9-19.3l5.2,3l-4.1,32.1L307.7,78.9z M311.1,55.4l-8.2,6.3
			l6.8,4L311.1,55.4z"/>
		<path class="st0" d="M349,117.2l-8.8-11l23-18.5l8.6,10.7c3.8,4.7,3.8,9.5,0.1,12.4l-0.1,0.1c-2.6,2.1-5.2,1.9-7.4,1
			c1.1,3.5,0.9,6.4-2.2,8.9l-0.1,0.1C358,124.1,353.2,122.4,349,117.2z M358.9,115.1c1.5-1.2,1.6-3.2-0.5-5.8l-4.7-5.9l-5.1,4.1
			l4.8,6C355.2,115.9,357.1,116.6,358.9,115.1L358.9,115.1z M367.1,106.5c1.5-1.2,1.4-3.1-0.3-5.2l-4-5l-4.9,3.9l3.7,4.7
			C363.4,107.1,365.3,107.9,367.1,106.5L367.1,106.5z"/>
		<path class="st0" d="M375.9,168.4c-1.4-4.2-1.4-9,0.5-13.4l5.6,2.2c-1.2,3.2-1.7,6.3-0.6,9.5c0.8,2.5,2.4,3.7,4,3.1l0.1,0
			c1.6-0.5,2-1.8,1.7-6.8c-0.5-6.1-0.1-10.3,5.4-12.2l0.1,0c5.1-1.7,9.8,1.2,11.7,7c1.4,4.1,1.3,8-0.1,11.6l-5.7-1.6
			c0.9-3.1,1.1-5.8,0.3-8.2c-0.8-2.4-2.3-3.2-3.7-2.8l-0.1,0c-1.8,0.6-2,2-1.6,7.3c0.4,6.2-0.5,10.1-5.4,11.7l-0.1,0
			C382.5,177.6,378,174.4,375.9,168.4z"/>
	</g>
</g>
<path class="st1" d="M213.8,315c-55.5,0-95.3-41.3-95.3-92.4v-0.5c0-51.1,40.3-93,95.8-93s95.3,41.3,95.3,92.4v0.5
	C309.5,273.2,269.2,315,213.8,315z M268.2,222.1c0-30.8-22.6-56.5-54.4-56.5c-31.8,0-53.9,25.2-53.9,56v0.5
	c0,30.8,22.6,56.5,54.4,56.5c31.8,0,53.9-25.2,53.9-56V222.1z"/>
</svg>
