<?xml version="1.0" encoding="utf-8"?>
<!-- Generator: Adobe Illustrator 25.0.0, SVG Export Plug-In . SVG Version: 6.00 Build 0)  -->
<svg version="1.1" id="Layer_1" xmlns="http://www.w3.org/2000/svg" xmlns:xlink="http://www.w3.org/1999/xlink" x="0px" y="0px"
	 viewBox="0 0 2145 2642.6" style="enable-background:new 0 0 2145 2642.6;" xml:space="preserve">
<style type="text/css">
	.st0{opacity:0.85;}
	.st1{fill:#F7931D;}
	.st2{fill:#FFFFFF;}
	.st3{opacity:0.35;}
	.st4{fill:#371A45;}
	.st5{fill:#AFAFB2;}
	.st6{opacity:0.7;}
	.st7{fill:#22A7F0;}
	.st8{fill:#111A28;}
	.st9{opacity:0.3;}
	.st10{fill:#390075;}
	.st11{fill:#F9195A;}
	.st12{opacity:0.5;}
</style>
<g>
	<g class="st0">
		<ellipse class="st1" cx="1072.5" cy="2560.1" rx="1072.5" ry="82.5"/>
	</g>
	<g>
		<g>
			<path class="st2" d="M1715.7,2345.7H369.2c0,0-1.5-137.9,25-342.8c4.7-36.8,10.4-75.7,17.2-116.4
				c29.7-179.5,80.2-393,166.2-605.3c12.9-31.9,26.7-63.8,41.3-95.6c11.6-25.2,23.7-50.3,36.4-75.2c9.2-18.3,18.8-36.4,28.7-54.5
				h716.8c9.9,18.1,19.5,36.3,28.7,54.5c12.9,25.2,25.1,50.6,36.8,76.1c16.7,36.3,32.3,72.9,46.8,109.4
				c82.4,207.3,131.3,415.1,160.2,590.5c6.8,40.9,12.4,80,17.2,116.8C1717.1,2208,1715.7,2345.7,1715.7,2345.7z"/>
		</g>
		<g class="st3">
			<path class="st4" d="M1715.7,2345.7H369.2c0,0-1.5-137.9,25-342.8c4.7-36.8,10.4-75.7,17.2-116.4c12.8-77.3,29.5-160.9,51.1-248
				c70.3,225.3,296.9,396.8,574.4,396.8h12c276.8,0,502.7-170.6,573.8-395.1c21.5,86.4,38,169.5,50.7,246.2
				c6.8,40.9,12.4,80,17.2,116.8C1717.1,2208,1715.7,2345.7,1715.7,2345.7z"/>
		</g>
		<g>
			<path class="st4" d="M1731.5,2361.7H353.4l-0.2-15.8c0-1.8-1.4-179.5,36.8-426.8c35.3-228.4,112.5-564.8,280-870.8
				c4.2-7.7,14-10.6,21.7-6.3c7.7,4.2,10.6,14,6.3,21.7c-290,529.6-311.3,1158.9-312.8,1266.1h1314.3
				c-0.6-48.4-5.1-203.7-36.4-406.4c-34.9-225.6-111.1-557.9-276.4-859.6c-4.2-7.8-1.4-17.5,6.3-21.7c7.8-4.2,17.5-1.4,21.7,6.3
				c167.6,306,244.8,642.4,280,870.8c38.2,247.3,36.8,425.1,36.8,426.8L1731.5,2361.7z"/>
		</g>
		<g>
			<path class="st4" d="M1447,2302.2H637.9c-143.2,0-259.7-116.5-259.7-259.7v-647.7c0-143.2,116.5-259.7,259.7-259.7H1447
				c143.2,0,259.7,116.5,259.7,259.7v647.7C1706.7,2185.8,1590.2,2302.2,1447,2302.2z M637.9,1167.2
				c-125.5,0-227.7,102.1-227.7,227.7v647.7c0,125.5,102.1,227.7,227.7,227.7H1447c125.5,0,227.7-102.1,227.7-227.7v-647.7
				c0-125.5-102.1-227.7-227.7-227.7H637.9z"/>
		</g>
		<g>
			<g>
				<path class="st2" d="M2077.3,1984.6c0,0-111.1,530-147.3,541.8c-51.8,16.8-176.4-0.9-176.4-0.9s-259.1-35.1-491.1-51
					c-68.1-4.7-133.8-7.7-190-7.7c-64.4,0-141.4,4-220.1,9.9c-223.7,16.7-460.9,48.8-460.9,48.8s-124.6,17.7-176.5,0.9
					c-36.2-11.8-147.3-541.8-147.3-541.8c66.1-95.6,218.8-85.4,291.6,83.2c1.9-3,3.8-6,5.8-8.9c28-41.1,67.9-77.6,124.7-98.1
					c8.7-3.2,17.4-5.8,26.1-8.1c120.3-31.4,229.9,22,307.2,80.2c7.1,5.3,13.8,10.6,20.2,15.9c0.7,0.6,1.3,1.1,2,1.6
					c5.1,4.2,10,8.4,14.8,12.6c23.4,20.4,49.2,37.4,76.9,50.4c4,1.8,7.9,3.6,12,5.3c38.8,16.4,80.8,25.1,123.6,25.1
					c78.4,0,153.7-29.1,212.6-80.8c65.3-57.4,166.2-123.6,281.6-119.6c28.8,1,58.4,6.3,88.6,17.2c46.4,16.8,81.4,44.2,108,76
					c8.3,9.9,15.8,20.3,22.5,30.9C1858.6,1899.2,2011.2,1889.1,2077.3,1984.6z"/>
			</g>
			<g class="st3">
				<path class="st4" d="M2077.3,1984.6c0,0-111.1,530-147.3,541.7c-51.8,16.9-176.5-0.8-176.5-0.8s-259-35.1-491-51h0
					c-8.5-0.6-17-1.2-25.4-1.7c-5.3-0.3-10.5-0.7-15.8-1c-10.4-0.6-20.8-1.2-31-1.7c-5.1-0.2-10.2-0.5-15.2-0.7c-4-0.2-8-0.4-12-0.5
					c-4-0.2-8-0.4-11.9-0.5c-4-0.2-7.9-0.3-11.8-0.4c-3.9-0.1-7.8-0.2-11.6-0.4c-7.7-0.2-15.2-0.4-22.7-0.5
					c-11.2-0.2-22-0.3-32.6-0.3c-4.6,0-9.3,0-14.1,0.1c-7.2,0-14.4,0.2-21.9,0.3c-0.5,0-1,0-1.5,0c-6,0.1-12,0.3-18,0.4
					c-6.1,0.2-12.2,0.4-18.5,0.6c-23.6,0.8-48.1,2-73.2,3.5c-4.8,0.3-9.6,0.6-14.4,0.9c-9.6,0.6-19.4,1.2-29.1,1.9
					c-9.8,0.6-19.6,1.4-29.4,2.1c-223.7,16.7-461,48.8-461,48.8s-124.6,17.8-176.4,0.8c-36.2-11.8-147.3-541.7-147.3-541.7
					c10.9-15.7,24.1-28.6,38.9-38.4c35.6,155.4,86.2,358.2,108.4,365.5c51.8,16.8,176.4-0.9,176.4-0.9s22.5-6.1,60.1-15.5
					c48.5-12.1,65-72.8,29.3-107.7c-42-41.1-81.3-84.1-115.8-128.6c28-41.1,67.9-77.6,124.7-98.1c8.7-3.2,17.4-5.8,26.1-8.1
					c120.3-31.4,229.9,22,307.2,80.2c7.1,5.3,13.8,10.6,20.2,15.9c0.7,0.6,1.3,1.1,2,1.6c5.1,4.2,10,8.4,14.8,12.6
					c23.4,20.4,49.2,37.4,76.9,50.4c4,1.8,7.9,3.6,12,5.3c38.8,16.4,80.8,25.1,123.6,25.1c78.4,0,153.7-29.1,212.6-80.8
					c65.3-57.4,166.2-123.6,281.6-119.6c28.8,1,58.4,6.3,88.6,17.2c46.4,16.8,81.4,44.2,108,76c-36.7,49.3-79.6,97.2-125.9,142.8
					c-0.3,0.3-0.6,0.6-0.9,0.8c-35.9,35.3-19.4,96.1,29.5,108c53.9,13.2,87.5,22.3,87.5,22.3s124.6,17.8,176.5,0.9
					c22.2-7.2,72.8-210.1,108.4-365.5C2053.2,1956,2066.4,1968.9,2077.3,1984.6z"/>
			</g>
			<g>
				<path class="st4" d="M281.8,2549.6c-27,0-53.3-2-71.8-8c-13.1-4.3-31.1-10.1-97.8-286.7c-32-132.7-59.9-265.6-60.2-266.9
					l-1.4-6.7l3.9-5.7c32.7-47.4,85.9-72.4,142.3-66.8c66.6,6.6,125.7,52.5,165,127.3c32.4-42.3,73.5-72.6,122.4-90.3
					c99.4-36,203.8-19.8,310.5,48.1c7.5,4.7,9.6,14.6,4.9,22.1c-4.7,7.5-14.6,9.6-22.1,4.9c-97.8-62.3-192.9-77.4-282.4-45
					c-50.6,18.3-91.8,52.1-122.4,100.5l-16.2,25.6l-12-27.8c-34-78.7-89-127.4-150.9-133.5c-42.4-4.2-82.6,13.5-108.8,47.7
					c50.2,238.8,114.4,495.7,137.3,523.5c40.8,11.9,134,2.5,167.1-2.2c4.5-0.6,437.5-58.9,683.3-58.9s678.9,58.2,683.2,58.8
					c33.1,4.7,126.3,14.1,167.2,2.2c22.9-27.8,87.1-284.7,137.3-523.5c-26.2-34.1-66.5-51.9-108.8-47.7
					c-61.9,6.1-116.9,54.8-150.9,133.5l-12,27.8l-16.2-25.6c-30.6-48.4-71.8-82.2-122.4-100.5c-90.4-32.7-186.2-17-284.9,46.6
					c-7.4,4.8-17.3,2.6-22.1-4.8c-4.8-7.4-2.6-17.3,4.8-22.1c106-68.3,214.3-85.5,313.1-49.8c48.9,17.7,90,48,122.4,90.3
					c39.3-74.8,98.4-120.7,165-127.3c56.3-5.6,109.5,19.4,142.3,66.8l3.9,5.7l-1.4,6.7c-0.3,1.3-28.2,134.3-60.2,266.9
					c-66.7,276.6-84.7,282.5-97.8,286.7c-54.8,17.8-178.4,0.5-183.7-0.2c-4.2-0.6-435.2-58.5-678.8-58.5s-674.6,58-678.9,58.5
					C390.2,2541.8,334.7,2549.6,281.8,2549.6z M1922,2512.8L1922,2512.8L1922,2512.8z"/>
			</g>
			<g>
				<g>
					<path class="st5" d="M1897.8,2526.4h32.2c37.8,0,72.1-22.2,87.5-56.7c48.2-107.9,136.1-345.1,53.8-489.8
						c-2.4-4.2-5-8.3-7.7-12.2c0,0-79-71.9-135.8,29.8C1874.8,2092.5,1763.5,2498.6,1897.8,2526.4z"/>
				</g>
				<g class="st6">
					<path class="st2" d="M1898.7,2065.2c1.4-2.3,2.8-4.4,4.2-6.4c69.8-101.7,167-29.8,167-29.8c3.3,3.9,6.5,8,9.4,12.2
						c9.7,13.9,17.5,28.7,23.6,44.2c-3.9-38-13.8-73.9-31.7-105.5c-2.4-4.2-5-8.3-7.7-12.2c0,0-79-71.9-135.8,29.8
						C1919.2,2012.9,1909.1,2036.4,1898.7,2065.2z"/>
				</g>
				<g>
					<path class="st4" d="M2102.5,2097.3c-0.9,0-1.8-0.1-2.7-0.2l-197.5-33c-8.7-1.5-14.6-9.7-13.1-18.4c1.5-8.7,9.7-14.6,18.4-13.1
						l197.5,33c8.7,1.5,14.6,9.7,13.1,18.4C2117,2091.8,2110.2,2097.3,2102.5,2097.3z"/>
				</g>
				<g>
					<path class="st4" d="M2101.3,2204c-0.7,0-1.4,0-2.2-0.1l-231-31.1c-8.8-1.2-14.9-9.2-13.7-18c1.2-8.8,9.1-14.9,18-13.7
						l231,31.1c8.8,1.2,14.9,9.2,13.7,18C2116,2198.2,2109.2,2204,2101.3,2204z"/>
				</g>
				<g>
					<path class="st4" d="M2080.9,2308.5c-0.6,0-1.3,0-2-0.1l-234.5-28.7c-8.8-1.1-15-9.1-13.9-17.8c1.1-8.8,9.1-15,17.8-13.9
						l234.5,28.7c8.8,1.1,15,9.1,13.9,17.8C2095.8,2302.6,2088.9,2308.5,2080.9,2308.5z"/>
				</g>
				<g>
					<path class="st4" d="M2043.7,2422.5c-0.5,0-1,0-1.5-0.1l-209.7-18.9c-8.8-0.8-15.3-8.6-14.5-17.4c0.8-8.8,8.6-15.3,17.4-14.5
						l209.7,18.9c8.8,0.8,15.3,8.6,14.5,17.4C2058.9,2416.3,2051.9,2422.5,2043.7,2422.5z"/>
				</g>
				<g class="st3">
					<path class="st4" d="M1897.8,2526.4h32.2c37.8,0,72.1-22.2,87.5-56.7c12.5-28,27.6-64.6,41.8-106
						c-19.3,32.1-58.6,52.4-101.7,52.4h-38.4c-54.6-9.5-75.2-63-76-133.2C1824.7,2401.4,1829.8,2512.3,1897.8,2526.4z"/>
				</g>
				<g>
					<path class="st4" d="M1930,2542.4h-33.8l-1.6-0.3c-26.4-5.4-46.3-22.5-59.2-50.8c-55.1-120.5,35-423.6,78.5-501.5
						c20.1-36,45.4-56.7,75.3-61.6c45.8-7.5,83.6,26.3,85.2,27.7l1.3,1.2l1,1.5c3,4.3,5.8,8.8,8.5,13.4
						c83.9,147.5,2.7,379.2-53.1,504.2C2014.2,2516.4,1974.1,2542.4,1930,2542.4z M1899.6,2510.4h30.4c31.5,0,60.1-18.5,72.9-47.2
						c43-96.2,134.3-335.1,54.5-475.4c-1.8-3.2-3.7-6.3-5.8-9.3c-5.7-4.6-30.6-23.3-57.5-18.8c-19.7,3.3-37.3,18.6-52.4,45.6
						c-45.5,81.4-124.1,370.4-77.3,472.6C1872.8,2496.1,1884.3,2506.7,1899.6,2510.4z"/>
				</g>
			</g>
			<g>
				<g>
					<path class="st5" d="M247.2,2526.4H215c-37.8,0-72.1-22.2-87.5-56.7c-48.2-107.9-136.1-345.1-53.8-489.8
						c2.4-4.2,5-8.3,7.7-12.2c0,0,79-71.9,135.8,29.8C270.2,2092.5,381.5,2498.6,247.2,2526.4z"/>
				</g>
				<g class="st6">
					<path class="st2" d="M246.3,2065.2c-1.4-2.3-2.8-4.4-4.2-6.4c-69.8-101.7-167-29.8-167-29.8c-3.3,3.9-6.5,8-9.4,12.2
						c-9.7,13.9-17.5,28.7-23.6,44.2c3.9-38,13.8-73.9,31.7-105.5c2.4-4.2,5-8.3,7.7-12.2c0,0,79-71.9,135.8,29.8
						C225.8,2012.9,235.9,2036.4,246.3,2065.2z"/>
				</g>
				<g>
					<path class="st4" d="M42.5,2097.3c-7.7,0-14.5-5.5-15.8-13.4c-1.5-8.7,4.4-17,13.1-18.4l197.5-33c8.8-1.5,17,4.4,18.4,13.1
						c1.5,8.7-4.4,17-13.1,18.4l-197.5,33C44.2,2097.2,43.3,2097.3,42.5,2097.3z"/>
				</g>
				<g>
					<path class="st4" d="M43.7,2204c-7.9,0-14.8-5.8-15.8-13.9c-1.2-8.8,5-16.8,13.7-18l231-31.1c8.8-1.2,16.8,5,18,13.7
						c1.2,8.8-5,16.8-13.7,18l-231,31.1C45.1,2204,44.4,2204,43.7,2204z"/>
				</g>
				<g>
					<path class="st4" d="M64.1,2308.5c-8,0-14.9-5.9-15.9-14.1c-1.1-8.8,5.2-16.8,13.9-17.8l234.5-28.7c8.8-1.1,16.7,5.2,17.8,13.9
						c1.1,8.8-5.2,16.8-13.9,17.8l-234.5,28.7C65.4,2308.5,64.8,2308.5,64.1,2308.5z"/>
				</g>
				<g>
					<path class="st4" d="M101.3,2422.5c-8.2,0-15.2-6.3-15.9-14.6c-0.8-8.8,5.7-16.6,14.5-17.4l209.7-18.9
						c8.8-0.8,16.6,5.7,17.4,14.5c0.8,8.8-5.7,16.6-14.5,17.4l-209.7,18.9C102.3,2422.5,101.8,2422.5,101.3,2422.5z"/>
				</g>
				<g class="st3">
					<path class="st4" d="M247.2,2526.4H215c-37.8,0-72.1-22.2-87.5-56.7c-12.5-28-27.6-64.6-41.8-106
						c19.3,32.1,58.6,52.4,101.7,52.4h38.4c54.6-9.5,75.2-63,76-133.2C320.3,2401.4,315.2,2512.3,247.2,2526.4z"/>
				</g>
				<g>
					<path class="st4" d="M248.8,2542.4H215c-44.1,0-84.2-26-102.1-66.2C57.1,2351.2-24,2119.5,59.8,1972c2.6-4.6,5.4-9.1,8.5-13.4
						l1-1.5l1.3-1.2c1.6-1.4,39.4-35.2,85.2-27.7c29.9,4.9,55.2,25.6,75.3,61.6c43.5,77.9,133.6,381,78.5,501.5
						c-12.9,28.2-32.8,45.3-59.2,50.8L248.8,2542.4z M93.4,1978.5c-2,3-3.9,6.1-5.7,9.2c-79.8,140.3,11.5,379.2,54.4,475.4
						c12.8,28.7,41.4,47.2,72.9,47.2h30.5c15.3-3.7,26.8-14.3,35.1-32.4c46.8-102.2-31.8-391.2-77.3-472.6
						c-15-26.9-32.7-42.3-52.4-45.6C124.1,1955.3,99.2,1973.9,93.4,1978.5z"/>
				</g>
			</g>
			<g>
				<path class="st4" d="M610.6,2511.2c-1.9,0-3.8-0.4-5.6-1.4c-5.9-3.1-8.1-10.3-5.1-16.2c56.8-108.6,57.7-230.7,2.5-363
					c-41.6-99.6-101.1-167.7-101.7-168.4c-4.4-5-3.9-12.6,1.1-16.9c5-4.4,12.5-3.9,16.9,1.1c2.5,2.9,62.4,71.3,105.5,174.3
					c57.5,137.4,56.5,270.2-3.1,384C619.1,2508.9,614.9,2511.2,610.6,2511.2z"/>
			</g>
			<g>
				<path class="st4" d="M1539.9,2511.2c-4.3,0-8.5-2.3-10.6-6.4c-59.6-113.8-60.6-246.6-3.1-384c43.1-103,103-171.5,105.5-174.3
					c4.4-5,12-5.4,16.9-1.1c5,4.4,5.4,12,1.1,16.9c-0.6,0.7-60.1,68.8-101.6,168.4c-55.2,132.2-54.3,254.3,2.5,363
					c3.1,5.9,0.8,13.1-5.1,16.2C1543.7,2510.8,1541.8,2511.2,1539.9,2511.2z"/>
			</g>
		</g>
		<g>
			<g class="st3">
				<path class="st4" d="M1088.5,1885.1c4.9,7.5,9.7,14.9,14.3,22.2C1098.1,1900,1093.4,1892.6,1088.5,1885.1z"/>
			</g>
			<g>
				<path class="st2" d="M811.4,1889.2c-72.7,29.4-185.3,23.3-262.1,14c-46-5.6-78.3-48-71.6-93.9v0c6.2-41.9,43-72.3,85.3-70.3
					c71.8,3.4,179.5,4.9,247.7-10.2"/>
			</g>
			<g class="st3">
				<path class="st4" d="M811.4,1889.2c-72.8,29.5-185.3,23.3-262.1,14c-46-5.6-78.3-48.1-71.5-93.9c1.3-9.4,4.3-18.1,8.5-26.2
					c12.1,23.1,35.1,40.2,63.1,43.6c76.6,9.3,189,15.5,261.8-13.8L811.4,1889.2z"/>
			</g>
			<g>
				<path class="st4" d="M666.9,1926.9c-41.9,0-83.7-3.5-119.4-7.8c-26.5-3.2-50.1-16.7-66.3-38c-16.3-21.3-23.1-47.7-19.1-74.2
					c7.4-50.2,51.3-86.4,101.9-84c75,3.5,178.1,4.7,243.4-9.8c9.3-2.1,32.4-2,46.5,43.4c14.8,47.6,13.5,127.3-36.3,147.5l0,0
					C775.2,1921.2,720.9,1926.9,666.9,1926.9z M559.2,1754.9c-32.8,0-60.7,23.9-65.5,56.7c-2.7,17.9,1.9,35.7,12.9,50.1
					c10.9,14.3,26.8,23.4,44.7,25.6c78,9.4,185.5,14.9,254.1-12.9l0,0c19.7-8,23.5-40,24.2-53.4c2.1-39-10.3-70.6-17.1-76.2
					c-68.8,14.9-173.9,13.8-250.2,10.2C561.3,1754.9,560.2,1754.9,559.2,1754.9z"/>
			</g>
			<g>
				<path class="st2" d="M1629.9,1903.2c-36,4.4-80,8-124,7.6c-3,0-6,0-9-0.1c-3.2,0-6.4-0.1-9.6-0.3c-2.2,0-4.3-0.1-6.3-0.2
					c-2.5-0.1-5-0.3-7.5-0.4c-3.2-0.2-6.3-0.4-9.5-0.6h-0.2c-3.1-0.2-6.3-0.5-9.4-0.8c-2.1-0.2-4.1-0.4-6.2-0.6
					c-1.7-0.1-3.5-0.4-5.2-0.6c-2.7-0.3-5.4-0.7-8-1.1c-2.5-0.4-5-0.7-7.4-1.1c-0.5,0-1-0.1-1.5-0.2c-2.9-0.4-5.7-0.9-8.5-1.5
					c-2.8-0.5-5.6-1.1-8.4-1.7c-0.2,0-0.5-0.1-0.7-0.1c-1.6-0.4-3.1-0.7-4.6-1.1c-1.7-0.4-3.4-0.8-5.1-1.2h0
					c-5.2-1.3-10.3-2.8-15.2-4.3c-2.7-0.8-5.3-1.7-7.9-2.7c-2.6-0.9-5.2-1.9-7.7-2.9l0.3-77l0.4-83.4c17.5,3.9,37.5,6.7,58.9,8.6
					c62.1,5.6,135.3,4.1,188.8,1.6c1.3,0,2.6-0.1,3.9-0.1c40.6,0,75.4,29.9,81.4,70.4C1708.2,1855.2,1675.9,1897.7,1629.9,1903.2z"
					/>
			</g>
			<g class="st3">
				<path class="st4" d="M1629.9,1903.2c-36,4.4-80,8-124,7.6c-3,0-6,0-9-0.1c-3.2,0-6.4-0.1-9.6-0.3c-2.2,0-4.3-0.1-6.3-0.2
					c-2.5-0.1-5-0.3-7.5-0.4c-3.2-0.2-6.3-0.4-9.5-0.6h-0.2c-3.1-0.2-6.3-0.5-9.4-0.8c-2.1-0.2-4.1-0.4-6.2-0.6
					c-1.7-0.1-3.5-0.4-5.2-0.6c-2.7-0.3-5.4-0.7-8-1.1c-2.5-0.4-5-0.7-7.4-1.1c-0.5,0-1-0.1-1.5-0.2c-2.9-0.4-5.7-0.9-8.5-1.5
					c-2.8-0.5-5.6-1.1-8.4-1.7c-0.2,0-0.5-0.1-0.7-0.1c-1.6-0.4-3.1-0.7-4.6-1.1c-1.7-0.4-3.4-0.8-5.1-1.2h0
					c-5.2-1.3-10.3-2.8-15.2-4.3c-2.7-0.8-5.3-1.7-7.9-2.7c-2.6-0.9-5.2-1.9-7.7-2.9l0.3-77l0-5.6c2.3,1,4.8,1.9,7.3,2.8
					c2.6,0.9,5.3,1.8,7.9,2.7c5,1.6,10.1,3,15.2,4.3h0c1.7,0.5,3.4,0.9,5.1,1.2c1.5,0.4,3.1,0.7,4.6,1.1l0.7,0.1
					c2.8,0.6,5.6,1.1,8.4,1.7c2.8,0.6,5.6,1.1,8.5,1.5c0.5,0.1,1,0.2,1.5,0.2c2.4,0.4,4.9,0.8,7.4,1.1c2.6,0.4,5.3,0.7,8,1.1
					c1.7,0.2,3.4,0.4,5.2,0.6c2,0.2,4.1,0.5,6.2,0.6c3.1,0.3,6.3,0.6,9.4,0.8h0.2c3.1,0.2,6.3,0.5,9.5,0.6c2.5,0.1,5,0.3,7.5,0.4
					c2.1,0.1,4.2,0.2,6.3,0.2c3.2,0.1,6.4,0.2,9.6,0.3c3,0.1,6,0.1,9,0.1c44,0.4,87.9-3.3,124-7.6c26.7-3.2,48.9-18.9,61.4-40.5
					c5.1,8.8,8.6,18.7,10.2,29.3C1708.2,1855.2,1675.9,1897.7,1629.9,1903.2z"/>
			</g>
			<g>
				<path class="st4" d="M1512.4,1926.9c-54,0-108.3-5.8-150.6-22.8c-49.8-20.2-51.1-99.9-36.3-147.5c14.1-45.3,37.2-45.4,46.5-43.4
					c65.3,14.5,168.4,13.3,243.4,9.8c50.6-2.4,94.4,33.7,101.9,84c3.9,26.5-2.9,52.9-19.1,74.2c-16.2,21.3-39.8,34.8-66.3,38
					C1596.1,1923.4,1554.3,1926.9,1512.4,1926.9z M1366.7,1744.8c-6.8,5.6-19.2,37.3-17.1,76.3c0.7,13.4,4.6,45.4,24.2,53.3l0,0
					c68.7,27.8,176.1,22.4,254.1,12.9c17.9-2.2,33.8-11.3,44.7-25.6c11-14.4,15.6-32.2,12.9-50.1c-5-33.9-34.5-58.2-68.7-56.7
					C1540.6,1758.6,1435.5,1759.7,1366.7,1744.8z"/>
			</g>
			<g>
				<path class="st2" d="M1395.9,1675.8v257.1c0,47.7-39,86.7-86.7,86.7H835.7c-47.6,0-86.7-39-86.7-86.7v-257.1
					c0-47.7,39-86.7,86.7-86.7h473.5c28.1,0,53.1,13.5,69,34.4C1389.3,1638,1395.9,1656.2,1395.9,1675.8z"/>
			</g>
			<g class="st3">
				<path class="st4" d="M1395.9,1675.8v257.1c0,47.7-39,86.7-86.8,86.7H835.7c-47.7,0-86.7-39-86.7-86.7v-96.2
					c50.7,98.6,223.1,137.4,364.8,123c31.7-3.2,54.3-33.3,46.8-64.2c-2.3-9.2-3.5-19-3.5-29.1c0-56.1,37.2-101.5,83-101.5
					c44.3,0,80.6,42.5,82.9,96.1c56.8-74.3,59.9-173.6,55.1-237.4C1389.3,1638.1,1395.9,1656.2,1395.9,1675.8z"/>
			</g>
			<g>
				<path class="st4" d="M1309.2,2035.6H835.8c-56.6,0-102.7-46.1-102.7-102.7v-257.1c0-56.6,46.1-102.7,102.7-102.7h473.5
					c56.6,0,102.7,46.1,102.7,102.7v257.1C1411.9,1989.5,1365.9,2035.6,1309.2,2035.6z M835.8,1605.1c-39,0-70.7,31.7-70.7,70.7
					v257.1c0,39,31.7,70.7,70.7,70.7h473.5c39,0,70.7-31.7,70.7-70.7v-257.1c0-39-31.7-70.7-70.7-70.7H835.8z"/>
			</g>
			<g>
				
					<ellipse transform="matrix(0.7071 -0.7071 0.7071 0.7071 -912.6226 1405.4526)" class="st7" cx="1240.2" cy="1804.4" rx="74.8" ry="74.8"/>
			</g>
			<g>
				<path class="st2" d="M1315,1804.4c0,4.1-0.3,8-1,11.9c-5.7-35.6-36.6-62.9-73.8-62.9c-37.2,0-68.1,27.2-73.8,62.9
					c-0.7-3.9-1-7.9-1-11.9c0-41.3,33.5-74.8,74.8-74.8C1281.5,1729.6,1315,1763.1,1315,1804.4z"/>
			</g>
			<g class="st3">
				<path class="st4" d="M1315,1804.3c0,41.3-33.5,74.8-74.8,74.8s-74.8-33.5-74.8-74.8c0-9.6,1.8-18.7,5.1-27.1
					c10.8,27.9,37.9,47.6,69.6,47.6c31.7,0,58.9-19.7,69.6-47.6C1313.2,1785.7,1315,1794.8,1315,1804.3z"/>
			</g>
			<g>
				<path class="st4" d="M1240.2,1891.1c-47.8,0-86.8-38.9-86.8-86.8c0-47.8,38.9-86.8,86.8-86.8s86.8,38.9,86.8,86.8
					C1327,1852.2,1288.1,1891.1,1240.2,1891.1z M1240.2,1741.6c-34.6,0-62.8,28.2-62.8,62.8c0,34.6,28.2,62.8,62.8,62.8
					s62.8-28.2,62.8-62.8C1303,1769.8,1274.8,1741.6,1240.2,1741.6z"/>
			</g>
			<g>
				<path class="st4" d="M1028.3,2031.6c-6.6,0-12-5.4-12-12v-177.3l-89.9-67.7c-3-2.3-4.8-5.8-4.8-9.6v-175.9c0-6.6,5.4-12,12-12
					c6.6,0,12,5.4,12,12V1759l89.9,67.7c3,2.3,4.8,5.8,4.8,9.6v183.3C1040.3,2026.2,1035,2031.6,1028.3,2031.6z"/>
			</g>
		</g>
		<g>
			<g>
				<path class="st2" d="M1735.1,868.8L1735.1,868.8c-7.7,0.6-14.4-5.2-15-12.9l-30-402.2c-0.6-7.7,5.2-14.4,12.9-15h0
					c80.9-6,151.4,54.6,157.4,135.5l10.2,137.1C1876.7,792.2,1816,862.7,1735.1,868.8z"/>
				<path class="st4" d="M1734.1,871.7c-4,0-7.9-1.4-11-4.1c-3.4-2.9-5.5-7-5.8-11.5l-30-402.2c-0.7-9.3,6.3-17.4,15.6-18.1
					c39.9-3,78.6,9.8,108.9,35.9c30.3,26.1,48.7,62.4,51.6,102.3l10.2,137.1c3,39.9-9.8,78.6-35.9,108.9
					c-26.1,30.3-62.4,48.7-102.3,51.6C1734.9,871.7,1734.5,871.7,1734.1,871.7z M1714.2,441.1c-3.6,0-7.3,0.1-11,0.4
					c-6.1,0.5-10.7,5.8-10.3,11.9l30,402.2c0.2,3,1.6,5.7,3.8,7.6c2.2,1.9,5.1,2.9,8.1,2.7l0,0c38.4-2.9,73.3-20.5,98.4-49.7
					c25.1-29.2,37.3-66.3,34.5-104.7l-10.2-137.1c-2.9-38.4-20.5-73.3-49.6-98.4C1781.6,453.3,1748.6,441.1,1714.2,441.1z"/>
			</g>
			<g class="st3">
				<path class="st4" d="M1865.9,647l4.8,64.3c6,80.9-54.6,151.4-135.6,157.4c-7.7,0.6-14.4-5.2-15-12.9l-8-106.9
					c2.5,4.7,7.7,7.7,13.3,7.3l9.5-0.7C1798.9,750.8,1850.2,705.7,1865.9,647z"/>
			</g>
			<g>
				<path class="st4" d="M1734.1,884.8c-7.2,0-14-2.5-19.5-7.3c-6.1-5.2-9.7-12.5-10.3-20.5l-30-402.2
					c-1.2-16.5,11.2-30.9,27.7-32.2c43.4-3.2,85.4,10.6,118.4,39c33,28.4,52.9,67.9,56.2,111.3l10.2,137.1
					c3.2,43.4-10.6,85.4-39,118.4c-28.4,33-67.9,52.9-111.3,56.2l0,0C1735.6,884.8,1734.8,884.8,1734.1,884.8z M1706.2,454.5
					l29.7,398.2c34.1-3.1,65.1-19,87.5-45c22.8-26.5,33.9-60.3,31.3-95.2l-10.2-137.1c-2.6-34.9-18.6-66.6-45.1-89.4
					C1773.4,463.6,1740.3,452.4,1706.2,454.5z"/>
			</g>
			<g>
				<path class="st2" d="M375.5,537.8L375.5,537.8c7.7-0.6,14.4,5.2,15,12.9l30,402.2c0.6,7.7-5.2,14.4-12.9,15h0
					c-80.9,6-151.4-54.6-157.4-135.5l-10.2-137.1C233.9,614.3,294.6,543.8,375.5,537.8z"/>
				<path class="st4" d="M396.6,971.2c-77.6,0-143.4-60-149.2-138.6l-10.2-137.1c-6.1-82.4,55.8-154.4,138.2-160.5
					c9.2-0.7,17.4,6.3,18.1,15.6l30,402.2c0.3,4.5-1.1,8.9-4,12.3c-2.9,3.4-7,5.5-11.5,5.8C404,971.1,400.3,971.2,396.6,971.2z
					 M375.7,540.7c-79.2,5.9-138.8,75.2-132.9,154.3L253,832.2c5.9,79.2,75.2,138.8,154.3,132.9c3-0.2,5.7-1.6,7.6-3.8
					c1.9-2.3,2.9-5.1,2.7-8.1l-30-402.2C387.2,544.8,381.8,540.2,375.7,540.7L375.7,540.7z"/>
			</g>
			<g class="st3">
				<path class="st4" d="M412.2,841.3l8.3,111.6c0.6,7.7-5.2,14.4-12.9,15c-42.5,3.2-82.1-12-111-38.9
					c-26.1-24.3-43.5-58.2-46.4-96.6l-4.3-57.8c26.8,49,80.6,80.5,139.9,76.1l14.7-1.1C405.8,849.2,410.1,845.9,412.2,841.3z"/>
			</g>
			<g>
				<path class="st4" d="M396.5,984.3c-84.4,0-155.9-65.3-162.3-150.8L224,696.4c-6.7-89.6,60.7-167.9,150.3-174.6l0,0
					c16.4-1.3,30.9,11.2,32.2,27.7l30,402.2c0.6,8-2,15.7-7.2,21.8c-5.2,6.1-12.5,9.7-20.5,10.3
					C404.7,984.2,400.6,984.3,396.5,984.3z M374.7,553.9c-71,6.4-124.1,68.8-118.8,140.1l10.2,137.1
					c5.3,71.3,67.1,125.2,138.3,120.9L374.7,553.9z"/>
			</g>
			<g>
				<circle class="st2" cx="1055.4" cy="703.3" r="687.3"/>
				<path class="st4" d="M1055.3,1393.4c-379.4,0-688.8-308-690.1-687.7c-1.4-380.5,307.1-691.3,687.7-692.6c0.8,0,1.7,0,2.5,0
					c379.4,0,688.8,308,690.1,687.7c1.4,380.5-307.1,691.3-687.7,692.6C1057,1393.4,1056.2,1393.4,1055.3,1393.4z M1055.4,18.9
					c-0.8,0-1.7,0-2.5,0c-377.4,1.3-683.3,309.5-682,686.8c1.3,376.6,308.1,682,684.4,682c0.8,0,1.7,0,2.5,0
					c377.4-1.3,683.3-309.5,682-686.8C1738.4,324.3,1431.7,18.9,1055.4,18.9z"/>
			</g>
			<g class="st3">
				<path class="st4" d="M1735.7,605.7c4.5,31.1,6.8,62.8,6.9,95.1c1.3,379.6-305.3,688.4-684.8,689.7
					c-379.6,1.3-688.4-305.3-689.7-684.8c0-10.9,0.2-21.8,0.7-32.6c47.5,334.4,335.5,590.9,682.8,589.7
					C1420.2,1261.5,1719.9,970.2,1735.7,605.7z"/>
			</g>
			<g>
				<path class="st4" d="M1055.3,1406.6c-386.7,0-701.8-313.8-703.2-700.8C350.7,318,665.1,1.4,1052.9,0c0.8,0,1.7,0,2.6,0
					c386.7,0,701.8,313.8,703.2,700.8l0,0c1.4,387.8-313,704.4-700.8,705.8C1057.1,1406.6,1056.2,1406.6,1055.3,1406.6z M1055.4,32
					c-0.8,0-1.6,0-2.4,0c-370.1,1.3-670.2,303.5-668.9,673.7c1.3,369.3,302.2,668.9,671.2,668.9c0.8,0,1.6,0,2.4,0
					c370.1-1.3,670.2-303.5,668.9-673.7l0,0C1725.3,331.6,1424.5,32,1055.4,32z"/>
			</g>
			<g>
				<path class="st4" d="M1740.5,718.5c2.5,134.5-38.8,260.1-111.5,364.8c-54.5,78.5-282.1,218.3-566.1,226.2
					c-263.4,7.3-505.7-128.7-563.1-205.1C423.3,1002.5,377.3,878.5,374.8,744c-6.6-355.8,296.3-509.1,673.5-516.1
					S1733.9,362.6,1740.5,718.5z"/>
			</g>
			<g>
				<path class="st4" d="M1042,1325.7c-263.6,0-496.5-133.9-555-211.7c-81.4-108.3-125.8-236.2-128.3-369.7
					c-3.2-173.9,64-309.3,199.8-402.3c118.6-81.3,287.9-126.3,489.4-130.1c201.5-3.8,372.3,34.9,493.9,111.7
					c139.2,88,211.4,220.7,214.6,394.6v0c2.5,133.5-37.1,262.9-114.4,374.2c-53.6,77.2-278.4,224.7-578.8,233
					C1056.2,1325.6,1049.1,1325.7,1042,1325.7z M1072.5,243.7c-8.3,0-16.3,0.1-23.9,0.2c-200.5,3.7-666,59.9-657.8,499.8
					c2.4,126.7,44.5,248.1,121.9,351.1c53.5,71.2,280,199,529.8,199c6.7,0,13.3-0.1,20-0.3c285.4-7.9,504.6-149,553.4-219.3
					c73.5-105.7,111-228.6,108.7-355.4v0C1716.6,295.6,1283.9,243.7,1072.5,243.7z"/>
			</g>
			<g class="st6">
				
					<ellipse transform="matrix(0.1599 -0.9871 0.9871 0.1599 609.4072 2064.6389)" class="st2" cx="1517.7" cy="674.3" rx="121.6" ry="88.1"/>
			</g>
			<g class="st6">
				
					<ellipse transform="matrix(0.2948 -0.9556 0.9556 0.2948 120.9371 1998.2544)" class="st2" cx="1414.2" cy="917.2" rx="55.8" ry="47.9"/>
			</g>
			<g class="st3">
				<path class="st8" d="M1601.5,389c85,78.1,136.3,186.5,139,329.5c2.5,134.5-38.8,260.1-111.5,364.8
					c-54.5,78.5-282.1,218.3-566.1,226.2c-100.3,2.8-197.5-15.2-282.6-42.8c348.9-17.1,626.1-188.7,693.7-286
					c92.3-132.9,144.7-292.4,141.5-463C1614.7,472,1609.8,429.2,1601.5,389z"/>
			</g>
			<g>
				<path class="st4" d="M420.5,455.5c-3.6,0-7.1-1.2-10.1-3.6c-6.5-5.4-7.8-14.8-2.9-21.6c117-178.9,348.5-284.5,635.3-289.9
					c285-5.3,520.4,88.4,645.7,257.2c4.5,5.8,4.6,14.1-0.2,20c-5.6,6.8-15.5,7.9-22.3,2.4l-1.6-1.3l-1.3-1.7
					c-119.1-160.5-345-249.6-619.7-244.5C767.1,177.6,545,278.1,434,448.3l-1.2,1.6C429.7,453.6,425.1,455.5,420.5,455.5z"/>
			</g>
			<g class="st6">
				<path class="st2" d="M532.1,952.8c0,0-116.8-349,69.8-492.4c186.6-143.4,458.8-147.9,452.7-130.4c0,0-300,78.6-413.4,319
					C553.7,834.4,532.1,952.8,532.1,952.8z"/>
			</g>
		</g>
		<g class="st9">
			<path class="st10" d="M1166.6,2350.2c-0.6,0.4-1.1,0.7-1.7,1H979.6c-0.6-0.3-1.1-0.7-1.7-1H1166.6z"/>
		</g>
		<g>
			<path class="st11" d="M1884.5,1661.1c0,11.7-0.6,23.4-1.8,35.1c-14.7,143.8-117.1,287.2-245.2,413.4
				c-207.8,204.7-482.9,364.2-559.3,406.6c-12.7,7.1-28.1,7.2-40.9,0.2c-90-48.8-453.7-255.4-660.6-513
				c-86.6-107.8-145.8-224.6-145.8-342.4c0-31,3.4-61.3,9.8-90.5c43.8-199.9,229.6-350.1,452.2-350.1
				c148.4,0,280.4,66.7,364.9,170.4c84.5-103.7,216.5-170.4,364.8-170.4C1677.7,1220.5,1884.5,1417.8,1884.5,1661.1z"/>
		</g>
		<g class="st3">
			<path class="st4" d="M1882.9,1661.1c0,58.2-14.4,116.1-39.5,172.8c-26.4,58-64.2,115.1-109.1,170c-29.6,36.3-62.4,71.6-97,105.7
				c-207.8,204.7-483,364.2-559.4,406.6c-12.7,7.1-28.1,7.2-40.9,0.2c-90-48.8-453.7-255.4-660.6-513c-2.7-3.4-5.4-6.8-8-10.1
				c-2.6-3.4-5.3-6.8-7.9-10.2c-3.2-4.2-6.4-8.5-9.6-12.8c-20.5-27.8-39-56.2-55-84.9c-1.2-2.2-2.4-4.4-3.6-6.6
				c-1.7-3.1-3.3-6.2-5-9.3c-9.7-18.6-18.4-37.4-25.8-56.4c-1.2-3.2-2.4-6.3-3.6-9.5c-1.3-3.6-2.6-7.2-3.9-10.8
				c-0.6-1.8-1.2-3.6-1.8-5.4c-0.8-2.3-1.5-4.5-2.2-6.8c-2.1-6.8-4.1-13.6-5.9-20.4c-1-3.6-1.8-7.3-2.7-11c-1.3-5.5-2.5-11-3.6-16.4
				c-0.7-3.6-1.4-7.3-2-11c-0.3-1.8-0.6-3.7-0.9-5.5c-0.5-3.7-1-7.3-1.5-11c-0.2-1.8-0.4-3.7-0.6-5.5c-0.2-1.4-0.3-2.8-0.4-4.2
				c-0.1-1-0.2-1.9-0.2-2.9c-0.3-3.2-0.5-6.3-0.7-9.4c-0.2-3.7-0.4-7.4-0.5-11c0-1.8-0.1-3.7-0.1-5.5c0-0.9,0-1.8,0-2.8v-2.8
				c0-15.5,0.8-30.8,2.5-46c0.4-3.7,0.8-7.3,1.4-11c0-0.2,0-0.3,0.1-0.5c0.5-3.7,1-7.3,1.6-11c0-0.2,0.1-0.5,0.1-0.8
				c1.2-7.2,2.6-14.3,4.1-21.3c89.2,23,176.3,42.5,206,50.8c93,26.1,167.8,50.1,155.3,227.2c-4.3,60.7-43.7,108.7-96.6,135.1
				c15.4,14,31,27.7,46.9,41.3c295.9,252.7,735.5,245.6,1022.7-16.9c9.7-8.9,19.4-17.8,28.9-26.8c-50.5-26.8-87.8-73.8-91.9-132.7
				c-12.5-177.1,62.3-201.2,155.3-227.2c29.7-8.3,116.8-27.9,206-50.8c1.8,8,3.3,16.2,4.6,24.4
				C1881.2,1616.6,1882.9,1638.6,1882.9,1661.1z"/>
		</g>
		<g class="st3">
			<path class="st4" d="M233.3,1615.2c-1.6,15.1-2.5,30.4-2.5,46v2.8c0-0.9,0-1.8,0-2.8C230.8,1645.6,231.6,1630.3,233.3,1615.2z"/>
		</g>
		<g class="st3">
			<path class="st4" d="M241.4,1749.2c-1.4-5.5-2.5-11-3.6-16.4C238.9,1738.2,240.1,1743.7,241.4,1749.2z"/>
		</g>
		<g class="st3">
			<path class="st4" d="M250.1,1780.6c-2.2-6.8-4.2-13.6-5.9-20.4C246,1766.9,247.9,1773.7,250.1,1780.6z"/>
		</g>
		<g class="st3">
			<path class="st4" d="M287.4,1869.5c-9.8-18.6-18.4-37.4-25.8-56.4C269,1832.1,277.7,1850.9,287.4,1869.5z"/>
		</g>
		<g class="st3">
			<path class="st4" d="M351.1,1970.4c-20.5-27.8-39-56.2-55-84.9C312.1,1914.2,330.6,1942.6,351.1,1970.4z"/>
		</g>
		<g class="st3">
			<path class="st4" d="M1884.5,1661.1c0,11.7-0.6,23.4-1.8,35.1c-4.7,46.1-18.4,92.2-39.2,137.7c25.1-56.7,39.5-114.6,39.5-172.8
				c0-22.5-1.8-44.6-5.2-66.1c0.3-1.3,0.6-2.6,0.9-3.9C1882.5,1613.9,1884.5,1637.3,1884.5,1661.1z"/>
		</g>
		<g class="st12">
			<g>
				<path class="st2" d="M1884.5,1661.1c0,10.4-0.5,20.8-1.5,31.2c-18.9-226.8-217.8-405.1-460.5-405.1c-132,0-251,52.8-335.2,137.5
					c-5.4,5.5,30.9,46.7,29.7,54.3c-7.9,50.2-51.2-10-59.3-21.4c-84.5-103.7-216.5-170.4-364.9-170.4
					c-242.8,0-441.9,178.7-460.5,405.7c-1-10.6-1.4-21.2-1.4-31.8c0-243.4,206.9-440.6,462-440.6c148.4,0,280.4,66.7,364.9,170.4
					c84.5-103.7,216.5-170.4,364.9-170.4C1677.7,1220.5,1884.5,1417.8,1884.5,1661.1z"/>
			</g>
		</g>
		<g>
			<path class="st4" d="M1057.4,2537.7c-9.6,0-19.2-2.4-27.9-7.1c-136-73.8-814.7-462.6-814.7-869.5c0-251.8,214.4-456.6,478-456.6
				c141.9,0,273.8,58.7,364.9,161.7c91.1-103,223-161.7,364.8-161.7c263.6,0,478,204.8,478,456.6c0,396.4-678.6,793.6-814.6,869.2
				C1077,2535.3,1067.2,2537.7,1057.4,2537.7z M692.8,1236.5c-245.9,0-446,190.5-446,424.6c0,388.8,664.7,769.1,798,841.4
				c8,4.4,17.6,4.3,25.6-0.1c58.2-32.3,262.4-150,448.4-306.6c232.1-195.4,349.8-375.3,349.8-534.7c0-234.1-200.1-424.6-446-424.6
				c-138.8,0-267.2,59.9-352.4,164.5l-12.4,15.2l-12.4-15.2C960.1,1296.5,831.6,1236.5,692.8,1236.5z"/>
		</g>
		<g>
			<path class="st4" d="M1107.5,1480.7c-5.4,0-10.6-2.7-13.6-7.6c-22.1-35.9-48.9-72.4-49.1-72.7c-5.2-7.1-3.7-17.1,3.4-22.4
				c7.1-5.2,17.1-3.7,22.4,3.4c1.1,1.5,27.8,37.8,50.6,74.9c4.6,7.5,2.3,17.4-5.2,22C1113.3,1479.9,1110.4,1480.7,1107.5,1480.7z"/>
		</g>
		<g class="st12">
			<g>
				<path class="st2" d="M1265.2,1383.4c70.7-68.4,277.6-79.5,370.3,13.8c79.3,79.8-55.8,67-162.7,60.8
					C1380.1,1452.7,1194.5,1451.8,1265.2,1383.4z"/>
			</g>
		</g>
		<g>
			<path class="st2" d="M511.4,1255.2c0,0-367.3,162.3-313.1,479.3c51.7,302.2,390.5,235.2,403.6,50.4
				c12.5-177.1-62.3-201.2-155.3-227.2c-68.9-19.3-98-75.2-91.2-117.3C369.2,1354.8,511.4,1255.2,511.4,1255.2z"/>
		</g>
		<g class="st3">
			<path class="st4" d="M601.9,1784.9c-13,184.8-351.9,251.8-403.6-50.4c-6.9-40.2-7-78-1.9-113.2c0.6,4,1.2,8.1,1.9,12.2
				c50.2,293.6,371.6,238.7,401.7,65.8C603.5,1723,604.3,1751.2,601.9,1784.9z"/>
		</g>
		<g class="st3">
			<path class="st4" d="M1843.5,1833.9c-25.6,58.2-62.4,115-106.3,169.6c-0.9,0.2-1.8,0.3-2.8,0.4
				C1779.3,1949,1817.1,1892,1843.5,1833.9z"/>
		</g>
		<g>
			<path class="st2" d="M1602.3,1255.2c0,0,367.3,162.3,313.1,479.3c-51.7,302.2-390.5,235.2-403.6,50.4
				c-12.5-177.1,62.3-201.2,155.3-227.2c68.9-19.3,98-75.2,91.2-117.3C1744.5,1354.8,1602.3,1255.2,1602.3,1255.2z"/>
		</g>
		<g class="st3">
			<path class="st4" d="M1511.8,1784.9c13,184.8,351.9,251.8,403.6-50.4c6.9-40.2,7-78,1.9-113.2c-0.6,4-1.2,8.1-1.9,12.2
				c-50.2,293.6-371.6,238.7-401.7,65.8C1510.2,1723,1509.4,1751.2,1511.8,1784.9z"/>
		</g>
		<g>
			<path class="st4" d="M409.9,1958.4c-93.7,0-199.3-57.6-227.3-221.2c-23.1-135.1,25.6-264.1,141-372.9
				c86.1-81.1,177.5-122.1,181.4-123.8c7.5-3.3,16.4-0.4,20.4,6.8c4,7.2,2,16.2-4.8,21c-1.4,1-136.8,96.7-149.4,174.5
				c-5.8,35.7,20.2,82.7,79.7,99.4c88.8,24.9,180.6,50.6,166.9,243.8c-6.6,92.9-91.1,166.9-196.7,172.1
				C417.4,1958.3,413.6,1958.4,409.9,1958.4z M377.4,1359.6c-10.8,8.9-21.8,18.5-32.6,28.7c-108.3,102.4-152.3,218-130.8,343.6
				c25.6,149.5,122.9,198.5,205.5,194.3c76.1-3.8,160.2-54.9,166.4-142.4c11.8-167.1-56.8-186.3-143.7-210.7
				c-77.4-21.7-110.7-85.9-102.7-135.3C343.8,1411.6,358.5,1384.7,377.4,1359.6z"/>
		</g>
		<g>
			<path class="st4" d="M1703.9,1958.4c-3.8,0-7.5-0.1-11.3-0.3c-105.6-5.2-190.2-79.2-196.7-172.1
				c-13.6-193.1,78.2-218.9,166.9-243.8c59.5-16.7,85.5-63.7,79.7-99.4c-12.6-77.8-148-173.6-149.4-174.5c-6.7-4.7-8.8-13.8-4.8-21
				c4-7.2,12.9-10.1,20.4-6.8c3.9,1.7,95.3,42.6,181.4,123.8c115.4,108.8,164.1,237.7,141,372.9
				C1903.2,1900.7,1797.5,1958.4,1703.9,1958.4z M1736.3,1359.6c18.9,25.2,33.6,52.1,37.8,78.2c8,49.4-25.3,113.6-102.7,135.3
				c-86.9,24.4-155.5,43.6-143.7,210.7c6.2,87.4,90.3,138.6,166.4,142.4c82.6,4.2,179.9-44.8,205.5-194.3
				c21.5-125.6-22.5-241.2-130.8-343.6C1758.1,1378,1747.1,1368.5,1736.3,1359.6z"/>
		</g>
		<g>
			<path class="st4" d="M1906.1,1582.6c-4.3,0-8.5-2.4-10.7-6.5c-47.8-92.1-141.4-129.1-142.3-129.5c-6.2-2.4-9.3-9.3-6.9-15.5
				c2.4-6.2,9.3-9.3,15.5-6.9c4.2,1.6,102.8,40.4,155,140.8c3.1,5.9,0.8,13.1-5.1,16.2C1909.8,1582.2,1907.9,1582.6,1906.1,1582.6z"
				/>
		</g>
		<g>
			<path class="st4" d="M207,1582.6c-1.9,0-3.8-0.4-5.5-1.4c-5.9-3.1-8.2-10.3-5.1-16.2c52.2-100.4,150.8-139.2,155-140.8
				c6.2-2.4,13.1,0.7,15.5,6.9c2.4,6.2-0.7,13.1-6.9,15.5l0,0c-0.9,0.4-94.5,37.4-142.3,129.5C215.5,1580.2,211.4,1582.6,207,1582.6
				z"/>
		</g>
	</g>
</g>
</svg>
