<?xml version="1.0" encoding="utf-8"?>
<!-- Generator: Adobe Illustrator 25.0.0, SVG Export Plug-In . SVG Version: 6.00 Build 0)  -->
<svg version="1.1" id="Layer_1" xmlns="http://www.w3.org/2000/svg" xmlns:xlink="http://www.w3.org/1999/xlink" x="0px" y="0px"
	 viewBox="0 0 2498.7 2786.68" style="enable-background:new 0 0 2498.7 2786.68;" xml:space="preserve">
<style type="text/css">
	.st0{opacity:0.85;}
	.st1{fill:#F7931D;}
	.st2{fill:#FFFFFF;}
	.st3{fill:#371A45;}
	.st4{opacity:0.35;}
	.st5{opacity:0.7;}
	.st6{fill:#111A28;}
	.st7{opacity:0.3;}
	.st8{fill:#6B184E;}
	.st9{fill:#F92323;}
	.st10{opacity:0.45;}
	.st11{fill:#AFAFB2;}
	.st12{fill:#3AAAFF;}
</style>
<g>
	<g>
		<g class="st0">
			<ellipse class="st1" cx="1249.35" cy="2633.46" rx="1249.35" ry="153.22"/>
		</g>
		<g>
			<g>
				<path class="st2" d="M1928.8,1434.18v801.91c0,102.66-83.25,185.91-185.91,185.91H763.65c-102.66,0-185.91-83.25-185.91-185.91
					v-799.95c0-0.88,0-1.71,0.04-2.59c0.96-72.99,44.03-135.79,106-165.34c24.2-11.52,51.29-17.99,79.87-17.99h979.23
					c18.19,0,35.76,2.63,52.41,7.51C1871.83,1280.15,1927.92,1350.55,1928.8,1434.18z"/>
			</g>
			<g>
				<path class="st3" d="M1742.89,2438.69H763.66c-111.72,0-202.61-90.89-202.61-202.61v-799.95
					c0-111.72,90.89-202.61,202.61-202.61h979.23c111.72,0,202.6,90.89,202.6,202.61v799.95
					C1945.49,2347.8,1854.6,2438.69,1742.89,2438.69z M763.66,1266.91c-93.31,0-169.22,75.91-169.22,169.22v799.95
					c0,93.31,75.91,169.22,169.22,169.22h979.23c93.31,0,169.22-75.91,169.22-169.22v-799.95c0-93.31-75.91-169.22-169.22-169.22
					H763.66z"/>
			</g>
			<g>
				<rect x="876.01" y="1879.04" class="st2" width="737.55" height="580.68"/>
			</g>
			<g>
				<path class="st2" d="M2132.57,1914.56c-36.06,149.69-140.72,161.58-203.77,153.91c-29.55-3.59-49.95-11.43-49.95-11.43H627.11
					c0,0-20.16,7.76-49.37,11.35c-63.01,7.85-168.26-3.63-204.4-153.82c-41.44-172.14,82.71-360.73,204.44-481
					c39.39-38.98,78.54-70.78,111.72-92.56c12.19-7.97,24.33-15.69,36.52-23.16c41.4-25.41,82.59-47.87,122.61-67.61
					c217.34-107.38,400.75-136.29,400.75-136.29h7.22c0,0,183.37,28.92,400.71,136.29c32.76,16.19,66.35,34.18,100.16,54.13
					c19.61,11.52,39.31,23.75,58.97,36.64c33.39,21.91,72.78,53.92,112.38,93.19C2050.32,1554.54,2173.93,1742.7,2132.57,1914.56z"
					/>
			</g>
			<g class="st4">
				<path class="st3" d="M2132.57,1914.56c-52.92,219.8-253.73,142.47-253.73,142.47H627.11c0,0-200.85,77.33-253.77-142.47
					c-9.47-39.44-10.31-79.75-4.38-119.94c1.13,7.43,2.63,14.81,4.38,22.2c52.92,219.84,253.77,142.51,253.77,142.51h1251.74
					c0,0,200.81,77.33,253.73-142.51c1.75-7.39,3.26-14.77,4.38-22.2C2142.88,1834.81,2142.04,1875.12,2132.57,1914.56z"/>
			</g>
			<g>
				<path class="st3" d="M1956.96,2086.96c-45.98,0-81.76-13.46-84.12-14.37c-8.6-3.31-12.89-12.97-9.58-21.58
					c3.31-8.6,12.96-12.88,21.56-9.58c1.52,0.57,80.88,29.83,147.15-5.11c41.13-21.69,69.52-63.98,84.37-125.69
					c29.03-120.59-29.81-243.66-84.28-325.67c-71.71-107.96-165.92-191.37-224.8-229.99c-262.91-172.43-531.62-220.84-552.06-224.33
					h-4.47c-20.44,3.48-289.16,51.89-552.06,224.33c-58.89,38.62-153.1,122.03-224.81,229.99
					c-54.47,82.01-113.31,205.08-84.28,325.67c14.86,61.71,43.24,104,84.38,125.69c66.58,35.1,146.37,5.41,147.17,5.11
					c8.62-3.28,18.25,1.03,21.55,9.62c3.29,8.6-0.98,18.23-9.58,21.54c-3.81,1.47-94.3,35.48-174.44-6.6
					c-50.14-26.32-84.3-75.97-101.53-147.55c-59.02-245.16,197.26-508.77,323.23-591.39c278.41-182.59,563.54-229.14,566.39-229.59
					c0.86-0.14,1.73-0.21,2.6-0.21h7.22c0.87,0,1.74,0.07,2.6,0.21c2.85,0.45,287.99,47,566.39,229.59
					c125.97,82.62,382.25,346.24,323.23,591.39c-17.23,71.58-51.39,121.23-101.53,147.55
					C2016.89,2081.95,1985.03,2086.96,1956.96,2086.96z"/>
			</g>
			<g>
				<g>
					<path class="st2" d="M1934.53,836.27L1934.53,836.27c-7.77,1.09-14.95-4.32-16.04-12.08l-57.02-405.06
						c-1.09-7.77,4.32-14.95,12.08-16.04h0c81.48-11.47,156.83,45.28,168.29,126.76l19.44,138.13
						C2072.76,749.45,2016.01,824.8,1934.53,836.27z"/>
					<path class="st3" d="M1932.52,839.41c-3.71,0-7.3-1.19-10.31-3.46c-3.67-2.76-6.04-6.79-6.68-11.34l-57.02-405.06
						c-0.64-4.55,0.53-9.08,3.29-12.74c2.77-3.67,6.79-6.04,11.34-6.68c40.19-5.65,80.2,4.68,112.62,29.1
						c32.43,24.43,53.4,60.01,59.06,100.21l19.44,138.13c11.68,82.99-46.33,160-129.31,171.68
						C1934.14,839.35,1933.33,839.41,1932.52,839.41z M1894.63,404.6c-6.85,0-13.75,0.48-20.66,1.45c-2.96,0.42-5.59,1.96-7.39,4.36
						c-1.8,2.39-2.56,5.34-2.15,8.3l57.02,405.06c0.42,2.96,1.97,5.59,4.36,7.39c2.39,1.8,5.34,2.55,8.3,2.14l0,0
						c79.71-11.22,135.43-85.2,124.21-164.91l-19.44-138.13c-5.43-38.61-25.58-72.8-56.73-96.26
						C1956.58,414.74,1926.09,404.6,1894.63,404.6z"/>
				</g>
				<g class="st4">
					<path class="st3" d="M2052.18,603.2l9.13,64.78c11.45,81.45-45.29,156.81-126.78,168.31c-7.76,1.1-14.95-4.35-16.05-12.11
						l-15.19-107.67c2.87,4.6,8.26,7.3,13.97,6.54l9.6-1.38C1991.25,712.62,2040.23,663.64,2052.18,603.2z"/>
				</g>
				<g>
					<path class="st3" d="M1932.49,853.1c-6.66,0-13.11-2.14-18.52-6.22c-6.59-4.97-10.85-12.2-12.01-20.37l-57.02-405.06
						c-1.15-8.17,0.95-16.3,5.92-22.9c4.97-6.59,12.2-10.85,20.37-12c43.83-6.18,87.42,5.09,122.77,31.72
						c35.35,26.63,58.21,65.42,64.38,109.25l19.44,138.12c12.73,90.46-50.5,174.42-140.96,187.15
						C1935.4,853,1933.94,853.1,1932.49,853.1z M1878.36,419.29l56.32,400.08c70.91-11.33,120.15-77.66,110.09-149.07l-19.44-138.13
						c-4.92-35-23.18-65.97-51.41-87.23C1946.36,424.18,1912.5,415.12,1878.36,419.29z"/>
				</g>
				<g>
					<path class="st2" d="M536.56,591.29L536.56,591.29c7.77-1.09,14.95,4.32,16.04,12.08l57.02,405.06
						c1.09,7.77-4.32,14.95-12.08,16.04l0,0c-81.48,11.47-156.83-45.28-168.29-126.76L409.8,759.58
						C398.33,678.1,455.08,602.75,536.56,591.29z"/>
					<path class="st3" d="M576.45,1028.95c-32.76,0-64.49-10.56-91.12-30.61c-32.42-24.42-53.4-60.01-59.06-100.21L406.83,760
						c-11.68-82.99,46.33-160,129.31-171.68c4.54-0.65,9.07,0.53,12.74,3.29c3.67,2.77,6.04,6.8,6.68,11.35l57.02,405.05
						c0.64,4.55-0.53,9.08-3.29,12.74c-2.77,3.67-6.79,6.04-11.34,6.68C590.77,1028.45,583.58,1028.95,576.45,1028.95z
						 M538.56,594.14c-0.53,0-1.06,0.04-1.59,0.11l0,0c-79.71,11.22-135.43,85.2-124.21,164.91l19.44,138.13
						c5.44,38.62,25.58,72.8,56.73,96.26c31.14,23.46,69.55,33.38,108.18,27.95c2.96-0.42,5.59-1.96,7.39-4.36
						c1.8-2.39,2.56-5.34,2.15-8.3l-57.02-405.06c-0.42-2.97-1.96-5.59-4.35-7.39C543.31,594.92,540.98,594.14,538.56,594.14z
						 M536.56,591.28h0.05H536.56z"/>
				</g>
				<g class="st4">
					<path class="st3" d="M593.83,896.05l15.8,112.37c1.1,7.76-4.35,14.95-12.11,16.05c-42.77,6-83.88-6.76-114.94-32.07
						c-28.04-22.86-47.88-55.99-53.33-94.67l-8.2-58.2c30.32,47.81,86.86,76.13,146.59,67.73l14.78-2.08
						C587.83,904.4,592,900.77,593.83,896.05z"/>
				</g>
				<g>
					<path class="st3" d="M576.42,1042.65c-35.71,0-70.3-11.5-99.33-33.37c-35.35-26.63-58.21-65.42-64.38-109.24l-19.44-138.13
						c-12.73-90.46,50.5-174.42,140.97-187.15h0c8.18-1.14,16.3,0.95,22.9,5.91c6.59,4.97,10.85,12.2,12,20.38l57.02,405.05
						c1.15,8.17-0.95,16.3-5.92,22.9c-4.97,6.59-12.2,10.85-20.37,12C592.03,1042.1,584.19,1042.65,576.42,1042.65z M536.42,608.18
						c-70.91,11.33-120.15,77.66-110.09,149.07l19.44,138.13c4.92,35,23.18,65.97,51.41,87.23c27.56,20.76,61.41,29.84,95.56,25.65
						L536.42,608.18z M536.56,591.28h0.05H536.56z"/>
				</g>
				<g class="st4">
					<path class="st3" d="M1795.3,1257.74c-11.94,16.07-24.58,31.63-37.85,46.61c-116.97,132.12-283.9,220.18-473.86,233.28
						c-217.88,15.02-419.28-71.78-557.57-219.8c-14.81-15.86-28.92-32.43-42.23-49.62c24.2-11.52,51.29-17.99,79.87-17.99h84.97
						c217.34-107.38,400.75-136.29,400.75-136.29h7.22c0,0,183.37,28.92,400.71,136.29h85.59
						C1761.08,1250.23,1778.65,1252.86,1795.3,1257.74z"/>
				</g>
				<g>
					<circle class="st2" cx="1235.63" cy="713.76" r="697.06"/>
					<path class="st3" d="M1235.15,1413.84c-364.3,0.03-672.48-283.11-697.92-651.91c-26.56-385.09,265.13-720,650.23-746.56
						c186.59-12.84,366.95,47.69,507.95,170.5c141.01,122.81,225.75,293.19,238.61,479.74l0,0
						c12.87,186.55-47.69,366.94-170.5,507.94s-293.19,225.75-479.73,238.61C1267.51,1413.29,1251.24,1413.84,1235.15,1413.84z
						 M1236.1,19.69c-15.97,0-32.05,0.55-48.23,1.66c-381.8,26.33-670.99,358.37-644.66,740.17
						c26.33,381.8,358.34,671.08,740.17,644.66c184.95-12.75,353.86-96.77,475.62-236.57c121.76-139.8,181.79-318.64,169.04-503.59
						l0,0C1902.83,300.39,1597.25,19.69,1236.1,19.69z"/>
				</g>
				<g class="st4">
					<path class="st3" d="M1917.73,570c6.6,31.14,11.06,63.12,13.32,95.81c26.43,384.05-263.42,716.86-647.47,743.38
						c-384.05,26.43-716.86-263.42-743.38-647.47c-0.77-11.04-1.27-22.12-1.5-33.04c70.23,335.28,378.66,575.88,730.06,551.66
						C1641.77,1254.6,1925.87,939.95,1917.73,570z"/>
				</g>
				<g>
					<path class="st3" d="M1235.14,1427.53c-371.43,0.03-685.64-288.64-711.57-664.66C496.5,370.24,793.89,28.79,1186.52,1.7
						c392.7-27.01,734.09,270.33,761.16,662.96c13.12,190.2-48.62,374.12-173.83,517.88s-298.92,230.16-489.12,243.28
						C1268.13,1426.97,1251.55,1427.53,1235.14,1427.53z M1236.09,33.38c-15.66,0-31.42,0.54-47.28,1.64
						c-374.26,25.81-657.75,351.3-631.94,725.56c25.81,374.26,351.27,657.77,725.56,631.94c181.3-12.5,346.88-94.86,466.24-231.9
						c119.36-137.04,178.21-312.36,165.7-493.66C1889.66,308.54,1590.12,33.38,1236.09,33.38z"/>
				</g>
				<g>
					<path class="st3" d="M1930.04,683.82c11.44,135.92-22.06,265.83-88.74,376.59c-49.98,83.04-271.01,239.6-557.97,266.35
						c-266.07,24.8-520.28-96.78-583.44-170.29c-84.25-98.06-138.99-220.54-150.43-356.46c-30.27-359.69,266.21-534.81,647.46-566.9
						C1578.19,201.02,1899.77,324.13,1930.04,683.82z"/>
				</g>
				<g>
					<path class="st3" d="M1210.57,1346.8c-245.84,0-463.17-109.43-523.33-179.45c-89.64-104.34-143.03-230.88-154.4-365.94
						c-14.81-175.94,44.32-317.52,175.73-420.83c114.76-90.21,283.15-146.96,486.97-164.11c203.81-17.15,379.33,10.65,507.55,80.42
						c146.83,79.88,228.78,209.59,243.59,385.53l0,0c11.36,135.06-20.12,268.74-91.07,386.6
						c-49.18,81.7-267.08,246.05-570.72,274.36C1259.93,1345.7,1235.1,1346.8,1210.57,1346.8z M1306.42,245.17
						c-40.63,0-77.46,2-108.08,4.58c-197.3,16.6-359.53,70.92-469.14,157.08c-122.03,95.92-176.9,227.73-163.09,391.78
						c10.78,128.02,61.42,248,146.46,346.98c60.41,70.31,309.16,188.78,569.22,164.55c288.2-26.87,500.51-184.07,545.21-258.33
						c67.3-111.8,97.18-238.56,86.4-366.58l0,0C1881.68,308.17,1534.53,245.17,1306.42,245.17z"/>
				</g>
				<g class="st5">
					
						<ellipse transform="matrix(0.0952 -0.9955 0.9955 0.0952 888.8021 2285.4883)" class="st2" cx="1701.58" cy="653.84" rx="123.36" ry="89.39"/>
				</g>
				<g class="st5">
					
						<ellipse transform="matrix(0.2318 -0.9728 0.9728 0.2318 357.2715 2265.4395)" class="st2" cx="1612.96" cy="906.52" rx="56.62" ry="48.59"/>
				</g>
				<g class="st4">
					<path class="st6" d="M1767.55,359.56c91.16,73.42,150.31,179.78,162.49,324.24c11.44,135.95-22.09,265.85-88.71,376.61
						c-50,83.04-271.05,239.6-558,266.37c-101.32,9.47-200.88-2.32-288.89-24.63c352.02-40.43,621.16-232.41,683.15-335.4
						c84.63-140.57,127.14-305.47,112.6-477.94C1786.34,442.71,1778.62,399.68,1767.55,359.56z"/>
				</g>
				<g>
					<path class="st3" d="M575.66,505.61c-3.49,0-7-1.09-10-3.34c-6.98-5.23-8.69-14.88-4.17-22.15
						c106.64-188.87,334.08-311.19,624.1-335.61c287.98-24.22,532.36,54.97,670.58,217.3c5.32,5.52,6.29,14.19,1.86,20.83
						c-5.12,7.67-15.47,9.75-23.14,4.63c-0.29-0.19-0.68-0.47-0.96-0.68c-0.96-0.73-1.83-1.56-2.61-2.48
						c-131.04-154.48-365.37-229.72-642.92-206.33C909.29,201.28,691.29,317.63,590.29,497c-0.23,0.42-0.49,0.82-0.75,1.22
						c-0.14,0.21-0.36,0.51-0.51,0.71C585.74,503.3,580.73,505.61,575.66,505.61z M575.39,488.71l0.27,0.21L575.39,488.71z"/>
				</g>
				<g class="st5">
					<path class="st2" d="M722.51,1000.94c0,0-141.27-345.46,38.07-502.96s454.51-180.08,449.56-161.89
						c0,0-298.38,99.37-397.3,350.2C736.57,879.7,722.51,1000.94,722.51,1000.94z"/>
				</g>
			</g>
			<g>
				<g>
					<path class="st2" d="M482.49,1506.84l62.4-92.07c0,0,263.98-76.53,488.04-14.52c217.63,60.23,220.33,172.87,220.33,172.87
						v221.59h-722.5L482.49,1506.84z"/>
				</g>
				<g>
					<path class="st2" d="M1253.27,1573.12v221.59H530.75l-48.24-287.89l39.55-58.36l22.84-33.71c0,0,263.99-76.53,488.05-14.5
						C1250.57,1460.49,1253.27,1573.12,1253.27,1573.12z"/>
				</g>
				<g class="st7">
					<path class="st8" d="M1234.3,1611.04v183.67H530.75l-48.24-287.89l39.55-58.36c62.08-15.19,288.81-63.25,485.58-10.29
						C1231.53,1498.41,1234.3,1611.04,1234.3,1611.04z"/>
				</g>
				<g>
					<path class="st2" d="M2024.04,1506.84l-62.4-92.07c0,0-263.98-76.53-488.04-14.52c-217.63,60.23-220.33,172.87-220.33,172.87
						v221.59h722.5L2024.04,1506.84z"/>
				</g>
				<g>
					<path class="st2" d="M2024.04,1506.82l-48.28,287.89h-722.49v-221.59c0,0,2.7-112.63,220.33-172.87
						c224.06-62.03,488.05,14.5,488.05,14.5l20.82,30.7L2024.04,1506.82z"/>
				</g>
				<g class="st7">
					<path class="st8" d="M2024.04,1506.82l-48.28,287.89h-702.59v-182.18c0,0,2.84-112.63,232.01-172.87
						c184.28-48.42,394.23-12.32,477.3,5.79L2024.04,1506.82z"/>
				</g>
				<g>
					<path class="st2" d="M1153.95,1565.18c-224.75-195.84-712.54-103.41-712.54-103.41l124.45,803.08
						c0,0,363.34-92.44,588.09,103.41V1565.18z"/>
				</g>
				<g>
					<path class="st2" d="M1153.95,1565.18c-224.75-195.84-712.54-103.41-712.54-103.41l124.45,803.08
						c0,0,363.34-92.44,588.09,103.41V1565.18z"/>
				</g>
				<g>
					<path class="st3" d="M1253.26,1811.4h-722.5c-8.15,0-15.11-5.89-16.46-13.94l-48.27-287.87c-0.71-4.23,0.24-8.57,2.64-12.12
						l62.4-92.07c2.18-3.22,5.43-5.58,9.17-6.67c10.96-3.18,271.12-77.12,497.15-14.58c226.96,62.82,232.44,183.46,232.57,188.56
						l0,221.99C1269.95,1803.93,1262.48,1811.4,1253.26,1811.4z M544.89,1778.01h691.68v-204.45
						c-0.37-4.56-10.91-102.66-208.09-157.23c-198.89-55.04-433.86,2.48-473.24,12.91l-55.18,81.43L544.89,1778.01z"/>
				</g>
				<g>
					<path class="st3" d="M1975.77,1811.4h-722.5c-9.22,0-16.69-7.48-16.69-16.69v-221.59c0.13-5.51,5.62-126.15,232.57-188.96
						c226.02-62.55,486.18,11.4,497.15,14.58c3.74,1.08,6.98,3.44,9.17,6.67l62.4,92.07c2.41,3.55,3.35,7.9,2.64,12.12
						l-48.27,287.87C1990.88,1805.51,1983.92,1811.4,1975.77,1811.4z M1269.95,1778.01h691.68l44.83-267.34l-55.18-81.43
						c-39.38-10.43-274.36-67.96-473.24-12.91c-197.16,54.57-207.72,152.65-208.09,157.23V1778.01z"/>
				</g>
				<g>
					<path class="st9" d="M1153.94,1565.18v803.06c-224.75-195.81-588.09-103.38-588.09-103.38l-33.5-216.28l-62.17-314.26
						l-28.76-272.55C441.42,1461.77,929.19,1369.34,1153.94,1565.18z"/>
				</g>
				<g class="st10">
					<path class="st2" d="M1153.94,1565.18v15.28c-149.84-99.98-380.09-103.59-529.24-92.71c-80.94,5.91-140.84,68.13-133.4,138.6
						l15.99,151.53l58.56,486.98c-20.3,3.46,0,0,0,0l-33.5-216.28l-62.17-314.26l-28.76-272.55
						C441.42,1461.77,929.19,1369.34,1153.94,1565.18z"/>
				</g>
				<g class="st4">
					<path class="st3" d="M1153.94,1565.18v803.06c-224.75-195.81-588.09-103.38-588.09-103.38l-10.48-99.47
						c81.31-12.94,226.69-32.28,390.51,23.89c74.69,25.61,155.46-22.74,155.46-92.68v-569.52
						C1120.08,1538.36,1137.68,1551.01,1153.94,1565.18z"/>
				</g>
				<g>
					<path class="st9" d="M2057.29,1461.77l-36.52,235.62l-55.59,358.81l-32.34,208.66c0,0-363.36-92.44-588.08,103.41v-803.08
						C1569.49,1369.33,2057.29,1461.77,2057.29,1461.77z"/>
				</g>
				<g>
					<path class="st3" d="M1153.96,2384.95c-3.96,0-7.87-1.41-10.97-4.11c-215.39-187.68-569.46-100.71-573.01-99.81
						c-4.55,1.17-9.39,0.34-13.32-2.26c-3.92-2.59-6.57-6.72-7.29-11.36l-124.45-803.08c-1.38-8.9,4.55-17.29,13.39-18.96
						c5.04-0.96,125.31-23.54,275.25-22.03c203.21,1.86,355.07,45.34,451.36,129.25c3.64,3.17,5.73,7.76,5.73,12.58v803.08
						c0,6.54-3.82,12.49-9.78,15.2C1158.65,2384.46,1156.3,2384.95,1153.96,2384.95z M765.28,2226.36c3.49,0,6.99,0.02,10.54,0.06
						c144.7,1.67,268.79,38.55,361.44,107.05v-760.58c-195.73-162.81-592.57-110.7-676.83-97.39l119.2,769.17
						C610.86,2238.22,680,2226.36,765.28,2226.36z"/>
				</g>
				<g class="st4">
					<path class="st3" d="M1347.46,1565.18v803.06c224.75-195.81,588.09-103.38,588.09-103.38l10.48-99.47
						c-81.31-12.94-226.69-32.28-390.51,23.89c-74.69,25.61-155.46-22.74-155.46-92.68v-569.52
						C1381.32,1538.36,1363.72,1551.01,1347.46,1565.18z"/>
				</g>
				<g class="st10">
					<path class="st2" d="M1344.76,1565.18v15.28c149.84-99.98,380.09-103.59,529.24-92.71c80.94,5.91,140.84,68.13,133.4,138.6
						l-15.99,151.53l-58.56,486.98c20.3,3.46,0,0,0,0l33.72-217.66l48.43-312.52l42.29-272.92
						C2057.28,1461.77,1569.51,1369.34,1344.76,1565.18z"/>
				</g>
				<g>
					<path class="st3" d="M1344.75,2384.95c-2.34,0-4.7-0.49-6.91-1.5c-5.95-2.71-9.78-8.65-9.78-15.2v-803.08
						c0-4.82,2.09-9.41,5.73-12.58c96.29-83.91,248.15-127.4,451.36-129.25c149.89-1.6,270.2,21.07,275.25,22.03
						c8.84,1.67,14.77,10.06,13.39,18.96l-124.45,803.08c-0.72,4.64-3.37,8.77-7.29,11.36c-3.92,2.6-8.77,3.42-13.32,2.26
						c-3.55-0.89-357.62-87.86-573.01,99.81C1352.62,2383.54,1348.71,2384.95,1344.75,2384.95z M1361.44,1572.89v760.58
						c92.65-68.5,216.74-105.38,361.44-107.05c90.11-0.96,163.68,11.54,196.19,18.24l119.2-769.17
						C1954.01,1462.18,1557.17,1410.07,1361.44,1572.89z"/>
				</g>
			</g>
			<g>
				<g>
					<path d="M1568.05,1856.92c-3.88-14.03-7.8-28.07-10.78-42.33c-0.2,0.04-0.31,0.07-0.51,0.11c-1.55,13.58-3.47,27.11-5.48,40.62
						c-2.42,17.36-4.45,34.72-6.1,52.16c-3.87,1.05-5.8,1.59-9.65,2.7c-9.78-13.97-20.04-27.58-30.48-41.06
						c-8.52-10.88-17.02-21.79-24.85-33.18c-0.13,0.04-0.2,0.07-0.33,0.11c4.4,14.26,8.44,28.62,12.43,42.99
						c3.8,13.97,7.65,27.93,11.55,41.88c-4.77,1.67-7.14,2.53-11.88,4.3c-9.52-32.43-18.71-64.95-27.56-97.58
						c7.43-2.68,11.16-3.96,18.65-6.43c11.43,13.37,22.55,26.94,33.4,40.78c7.02,9.65,14.01,19.3,19.91,29.7
						c0.18-0.05,0.27-0.08,0.45-0.13c-0.23-12,0.99-23.92,2.2-35.84c2.43-17.52,5.23-34.94,8.41-52.35
						c7.66-1.73,11.51-2.55,19.21-4.07c8.9,32.59,17.5,65.25,25.79,97.99c-5.06,0.94-7.58,1.44-12.62,2.49
						C1575.94,1885.5,1572.02,1871.2,1568.05,1856.92z"/>
					<path d="M1661.96,1841.04c-14.24,1.02-28.39,2.37-42.56,4.07c1.56,12.05,3.11,24.1,4.67,36.15
						c14.92-1.78,29.79-3.14,44.79-4.11c0.24,4.37,0.36,6.56,0.6,10.93c-19.12,1.25-38.04,3.19-57.02,5.87
						c-5.04-33.32-10.09-66.64-15.13-99.95c21.28-3.04,42.52-5.26,63.97-6.7c0.26,4.37,0.38,6.56,0.64,10.93
						c-16.04,0.9-32.04,2.47-47.98,4.5c1.36,10.56,2.73,21.12,4.09,31.69c14.41-1.73,28.79-3.11,43.27-4.14
						C1661.56,1834.58,1661.69,1836.73,1661.96,1841.04z"/>
					<path d="M1683.92,1787.68c10.88-1.79,21.79-2.13,32.73-2.2c16.21-0.1,35.26,3.68,47.28,15.21
						c9.96,9.55,14.02,24.34,12.41,37.75c-1.66,13.84-8.39,28.34-19.47,37.52c-12.81,10.61-30.95,12.05-46.4,12.18
						c-9.18,0.08-17.25-0.47-23.93-1.05C1685.66,1853.95,1684.79,1820.82,1683.92,1787.68z M1699.68,1876.84
						c3.39,0.58,8.32,0.75,13.55,0.84c25.05,0.41,46.15-14.19,48.08-40.33c1.98-26.79-19.19-40.91-44.17-41.5
						c-7.84-0.19-13.81,0.43-17.81,1.2C1699.44,1823.64,1699.56,1850.24,1699.68,1876.84z"/>
				</g>
			</g>
			<g class="st4">
				<path class="st3" d="M2020.77,1697.38l-55.59,358.81c-89.01-28.29-269.63-74.03-218.3-250.39
					C1775.68,1706.9,1965.6,1697.89,2020.77,1697.38z"/>
			</g>
			<g class="st4">
				<path class="st3" d="M477.48,1697.38l55.59,358.81c89.01-28.29,269.63-74.03,218.3-250.39
					C722.57,1706.9,532.65,1697.89,477.48,1697.38z"/>
			</g>
			<g>
				<path class="st2" d="M2035.76,1630.68c0,0-255.1-7.56-288.86,108.37c-54.28,186.35,150.54,226.84,232.54,255.11
					C1979.44,1994.15,2106.73,1853.19,2035.76,1630.68z"/>
			</g>
			<g class="st4">
				<path class="st3" d="M1979.42,1994.14c-80.92-27.88-281.56-67.69-234.49-248.01c11.52,35.12,36.13,61.52,65.96,81.93
					c95.82,65.58,227.73,5.51,243-109.59c0.15-1.14,0.3-2.28,0.44-3.43C2075.11,1888.18,1979.42,1994.14,1979.42,1994.14z"/>
			</g>
			<g>
				<path class="st3" d="M1979.43,2010.85c-1.82,0-3.66-0.3-5.44-0.91c-8.23-2.84-18.05-5.9-28.44-9.15
					c-93.64-29.21-267.93-83.58-214.68-266.42c36.95-126.87,294.42-120.7,305.39-120.38c7.08,0.21,13.25,4.86,15.41,11.61
					c73.04,229.02-54.38,373.69-59.84,379.74C1988.6,2008.91,1984.08,2010.85,1979.43,2010.85z M2022.6,1647.19
					c-74.89,0-236.39,16.57-259.68,96.52c-40.69,139.69,72.82,187.86,192.57,225.21c6.36,1.99,12.51,3.91,18.29,5.77
					c24.21-31.69,101.15-150.71,49.57-327.5C2023.1,1647.19,2022.85,1647.19,2022.6,1647.19z"/>
			</g>
			<g>
				<g>
					<path class="st2" d="M908.89,2270.52c-80.73-293.45-262.16-284.01-329.89-246.75c-39.51,21.73-85.39,54.02-117.05,131.54
						c-53.13-192.62-311.42-171.42-320.99,90.59c-5.63,154.19,49.75,264.71,89.98,313.67c39.75,48.37,69.39,64.51,111.73,69.89
						c39.19,4.98,122.16-1.6,159.29-17.52c61.85-26.51,136.72-96.19,294.35-103.26c0,0,214.07,2.51,453.03,0.95
						c238.96,1.56,453.03-0.95,453.03-0.95c157.62,7.06,232.5,76.75,294.35,103.26c37.13,15.92,120.1,22.5,159.29,17.52
						c42.35-5.38,71.99-21.52,111.73-69.89c40.23-48.96,95.61-159.48,89.98-313.67c-9.57-262.01-267.86-283.2-320.99-90.59
						c-31.65-77.52-77.54-109.81-117.05-131.54c-67.73-37.26-249.16-46.7-329.89,246.75v124.27H911.12
						c-0.62,0-1.13-91.85-1.15-92.47L908.89,2270.52z"/>
				</g>
				<g class="st4">
					<path class="st3" d="M2267.75,2559.58c-39.74,48.37-69.4,64.51-111.72,69.89c-39.21,4.98-122.17-1.6-159.29-17.52
						c-61.88-26.5-136.75-96.2-294.35-103.27c0,0-214.1,2.53-453.06,0.98c-238.95,1.56-453.01-0.98-453.01-0.98
						c-157.64,7.07-232.51,76.78-294.35,103.27c-37.12,15.92-120.12,22.5-159.29,17.52c-42.37-5.38-71.98-21.52-111.72-69.89
						c-40.23-48.95-95.63-159.47-89.98-313.69c0.49-13.65,1.69-26.67,3.47-39.03c12.71,108.25,54.42,186.5,86.51,225.53
						c39.74,48.37,69.35,64.51,111.72,69.89c0.4,0.04,0.8,0.09,1.2,0.13c121.63,15.92,201.57-78.38,154.89-191.83
						c-34.59-83.89-47.21-146.93-36.81-155.24c19.38-15.6,108.21,221.08,248.6,215.13c185.21-7.87,177.56-163.6,177.56-163.6
						s10.09,12.85,21.52,33.88c47.52,87.31,138.22,142.39,237.62,142.13c33.12-0.04,67.31-0.22,102.07-0.44
						c39.4,0.26,78.13,0.41,115.34,0.48c91.66,0.17,176.37-50.74,217.46-132.68c13.34-26.6,26.5-43.35,26.5-43.35
						s-7.69,155.73,177.56,163.6c140.39,5.96,166.89-189.51,266.54-256.36c-21.55,14.46-26.09,99.16-52.57,187.6
						c-29.35,97.99,41.69,198.51,143.95,201.01c4.63,0.11,8.65-0.02,11.91-0.43c42.32-5.38,71.98-21.52,111.72-69.89
						c32.1-39.03,73.8-117.28,86.51-225.53c1.78,12.36,2.98,25.38,3.47,39.03C2363.38,2400.11,2307.98,2510.63,2267.75,2559.58z"/>
				</g>
				<g>
					<path class="st3" d="M492.23,2291.98c-8.97-22.07-16.66-44.09-24.25-66c-3.74-10.97-7.62-21.85-10.81-32.88
						c-3.15-11.05-6.27-22.06-7.96-33.53l-0.03-0.21c-1.22-8.26,4.49-15.95,12.75-17.17c6.88-1.01,13.36,2.79,16.04,8.85
						c4.82,10.92,8.07,22.34,10.7,33.88c2.71,11.53,4.26,23.32,5.69,35.09c1.41,11.77,2.28,23.63,2.77,35.51
						c0.36,11.9,0.43,23.81-0.65,35.85c-0.11,1.21-1.18,2.1-2.39,1.99c-0.85-0.08-1.54-0.63-1.84-1.36L492.23,2291.98z"/>
				</g>
				<g>
					<path class="st3" d="M411.91,2646.25c-9.22,0-16.69-7.48-16.69-16.69c0-7.66,5.16-14.11,12.18-16.08
						c1.51-0.43,3.08-0.66,4.64-0.66c9.22,0,16.69,7.48,16.69,16.69c0,7.66-5.16,14.11-12.19,16.08
						C415.04,2646.02,413.47,2646.25,411.91,2646.25z"/>
				</g>
				<g>
					<path class="st3" d="M2002.23,2291.38c-1.09-12.04-1.02-23.94-0.66-35.85c0.48-11.88,1.36-23.74,2.77-35.51
						c1.43-11.77,2.97-23.56,5.69-35.09c2.63-11.54,5.88-22.96,10.7-33.88c3.37-7.64,12.3-11.1,19.94-7.73
						c6.36,2.81,9.83,9.47,8.86,16.03l-0.04,0.23c-1.69,11.47-4.81,22.48-7.96,33.53c-3.19,11.03-7.07,21.91-10.81,32.88
						c-7.59,21.91-15.28,43.93-24.25,66l-0.01,0.03c-0.46,1.13-1.74,1.67-2.87,1.21C2002.8,2292.9,2002.3,2292.17,2002.23,2291.38z"
						/>
				</g>
				<g>
					<path class="st3" d="M1584.44,2269.05c10.5-54.05,27.96-107.74,57.32-156.43c3.68-6.06,7.73-11.93,11.59-17.91
						c4.2-5.77,8.38-11.59,12.81-17.23c9.22-11.01,18.79-21.86,29.69-31.53c5.23-5.05,11.04-9.51,16.73-14.1
						c2.88-2.25,5.98-4.24,8.96-6.37c2.99-2.13,6.03-4.19,9.23-6.03c12.42-7.92,25.9-14.28,39.79-19.49
						c27.84-10.5,58.19-14.39,87.99-11.99c14.92,1.3,29.71,4.27,44.13,9.04c7.19,2.49,14.32,5.27,21.29,8.86
						c3.64,1.8,6.72,3.55,9.77,5.29c3.1,1.7,6.18,3.63,9.26,5.43c24.7,14.8,47.96,34.07,66.35,57.01
						c9.22,11.45,17.34,23.65,24.56,36.24c7.27,12.6,13.17,25.75,18.72,38.97l-32.47,1.93c6-20.59,14.42-40.74,26.13-59.21
						c11.66-18.45,26.61-35.17,44.44-48.41c17.79-13.27,38.4-22.93,60.14-28.03c21.73-5.09,44.6-5.59,66.48-1.22
						c21.89,4.37,42.71,13.34,60.96,25.74c18.3,12.39,34,28.13,46.82,45.64c12.87,17.54,22.46,36.99,29.92,56.91
						c1.7,5.03,3.87,9.96,5.17,15.09l4.27,15.3c1.35,5.11,2.19,10.31,3.3,15.46c1.1,5.16,2.12,10.32,2.68,15.53l2.07,15.58
						c0.51,5.2,0.76,10.41,1.14,15.61c0.94,10.47,0.78,20.67,0.97,30.95c0.18,20.55-1.01,41.1-2.91,61.59
						c-4.11,40.96-13,81.47-26.15,120.64c-13.73,38.99-31.34,76.81-56.29,111.04c-3.21,4.21-6.51,8.52-9.82,12.57
						c-3.36,3.97-6.65,7.96-10.2,11.84c-6.95,7.82-14.37,15.44-22.49,22.6c-8.09,7.17-16.9,13.92-26.56,19.67
						c-9.64,5.77-20.14,10.44-30.86,13.76c-10.74,3.35-21.57,5.41-32.26,6.72c-11.04,1.33-21.46,1.59-31.9,1.63
						c-20.83,0.04-41.29-1.41-61.81-3.77c-10.25-1.3-20.49-2.71-30.78-4.74c-10.3-2-20.58-4.28-31.12-7.77
						c-5.14-1.67-10.98-3.9-15.57-6.13c-4.88-2.22-9.72-4.48-14.26-6.93c-4.68-2.37-9.22-4.81-13.64-7.3l-13.24-7.43
						c-17.45-9.94-34.48-19.63-51.84-28.42c-17.33-8.82-35.08-16.4-53.12-23.11c-36.22-12.96-74.05-21.53-112.54-24.96
						c-9.57-0.55-18.82-1.6-28.65-1.8l-29.95,0.06l-59.91,0.13l-119.81,0.25l-239.63,0.51l-239.62-0.51l-119.81-0.25l-59.91-0.13
						l-29.95-0.06c-9.83,0.21-19.08,1.25-28.65,1.8c-38.49,3.43-76.32,12-112.54,24.96c-18.05,6.72-35.79,14.29-53.12,23.11
						c-17.36,8.78-34.39,18.48-51.84,28.42l-13.24,7.43c-4.42,2.49-8.96,4.93-13.64,7.3c-4.54,2.45-9.38,4.71-14.26,6.93
						c-4.59,2.23-10.43,4.46-15.57,6.13c-10.55,3.49-20.83,5.77-31.12,7.77c-10.29,2.04-20.53,3.44-30.78,4.74
						c-20.52,2.36-40.98,3.81-61.81,3.77c-10.44-0.04-20.86-0.3-31.9-1.63c-10.69-1.31-21.52-3.37-32.26-6.72
						c-10.73-3.33-21.22-8-30.86-13.76c-9.67-5.76-18.47-12.51-26.56-19.67c-8.12-7.16-15.54-14.78-22.49-22.6
						c-3.55-3.87-6.85-7.87-10.2-11.84c-3.31-4.05-6.61-8.35-9.82-12.57c-24.96-34.23-42.57-72.05-56.29-111.04
						c-13.15-39.17-22.04-79.68-26.15-120.64c-1.9-20.49-3.09-41.04-2.91-61.59c0.18-10.28,0.02-20.48,0.97-30.95
						c0.39-5.2,0.63-10.41,1.14-15.61l2.07-15.58c0.56-5.21,1.58-10.37,2.68-15.53c1.11-5.15,1.96-10.34,3.3-15.46l4.27-15.3
						c1.3-5.13,3.46-10.05,5.17-15.09c7.46-19.92,17.05-39.37,29.92-56.91c12.82-17.51,28.53-33.25,46.82-45.64
						c18.25-12.4,39.07-21.38,60.96-25.74c21.88-4.37,44.75-3.87,66.48,1.22c21.75,5.07,42.33,14.83,60.07,28.12
						c17.78,13.27,32.68,30.01,44.27,48.46c11.63,18.47,20.02,38.6,25.9,59.19L446.5,2149c5.62-13.17,11.57-26.27,18.89-38.8
						c7.27-12.53,15.42-24.65,24.67-36c18.48-22.73,41.61-41.87,66.24-56.6c3.08-1.79,6.13-3.73,9.22-5.44
						c3.04-1.75,6.11-3.5,9.7-5.3c6.9-3.59,13.97-6.37,21.11-8.87c14.32-4.79,29.03-7.78,43.87-9.16
						c29.64-2.77,59.99,0.69,88.04,10.78c13.98,5.05,27.58,11.27,40.13,19.07c3.24,1.81,6.31,3.85,9.33,5.95
						c3.02,2.1,6.16,4.07,9.08,6.29c5.78,4.52,11.65,8.98,16.95,14c21.79,19.51,40.01,42.3,54.76,66.67
						c29.7,48.8,46.98,102.92,55.76,157.45c0.49,3.05-1.58,5.92-4.64,6.42c-2.6,0.42-5.07-1.03-6.05-3.35l-0.04-0.11
						c-10.58-25.19-20.95-50.08-32.68-74.1c-11.72-24.02-24.8-47.08-39.59-68.6c-3.7-5.38-7.78-10.44-11.52-15.76
						c-4.06-5.04-8.1-10.09-12.28-14.99c-8.66-9.49-17.41-18.88-27.14-27.01c-19.12-16.61-40.62-30.14-64.04-38.46
						c-23.25-8.68-48.36-12.15-73.08-10.22c-12.34,1.02-24.57,3.4-36.18,7.16c-5.75,1.96-11.44,4.13-16.67,6.81
						c-2.54,1.21-5.41,2.81-8.3,4.44c-2.9,1.57-5.64,3.26-8.45,4.9c-22.18,13.31-41.68,29.55-57.71,49.2
						c-16.02,19.63-28.56,42.27-38.48,66.27c-3.53,8.53-13.3,12.59-21.83,9.06c-4.87-2.01-8.29-6.07-9.66-10.76l-0.05-0.18
						c-5.11-17.83-12.29-34.9-21.95-50.25c-9.63-15.34-21.78-28.91-36.02-39.54c-28.34-21.45-65.38-30.32-100.1-23.32
						c-17.32,3.47-33.92,10.59-48.7,20.63c-14.8,10.03-27.76,22.93-38.55,37.64c-10.82,14.72-19.09,31.45-25.61,48.88
						c-1.48,4.43-3.42,8.68-4.55,13.25l-3.79,13.57c-1.21,4.54-1.94,9.24-2.95,13.84c-0.99,4.62-1.92,9.25-2.42,13.99l-1.88,14.13
						c-0.47,4.74-0.68,9.52-1.03,14.28c-0.88,9.45-0.72,19.25-0.9,28.94c-0.18,19.42,0.96,38.8,2.74,58.1
						c3.87,38.57,12.24,76.6,24.51,113.19c12.75,36.3,29.37,71.67,51.62,102.1c2.86,3.72,5.63,7.36,8.63,11.04
						c3.1,3.66,6.16,7.38,9.36,10.86c6.31,7.12,12.88,13.83,19.75,19.88c13.72,12.24,28.54,21.48,45.25,26.57
						c8.34,2.6,17.21,4.33,26.34,5.45c8.8,1.08,18.4,1.36,27.93,1.38c19.14,0.05,38.61-1.32,57.78-3.53
						c19.05-2.39,38.39-5.55,55.45-11.08c2.21-0.63,4.12-1.45,6.12-2.2c1.94-0.67,4.05-1.65,6.17-2.66
						c4.21-1.92,8.44-3.87,12.69-6.17c4.24-2.14,8.5-4.43,12.78-6.85l12.9-7.24c17.27-9.83,34.98-19.93,53.28-29.18
						c18.29-9.31,37.34-17.47,56.74-24.68c39-13.97,79.75-23.16,120.89-26.83c10.37-0.64,21.03-1.74,31.16-1.94l29.99,0.06
						l59.98,0.12l119.96,0.25l239.92,0.5l239.92-0.5l119.96-0.25l59.98-0.12l29.99-0.06c10.13,0.21,20.79,1.3,31.16,1.94
						c41.14,3.67,81.89,12.86,120.89,26.83c19.4,7.21,38.45,15.37,56.74,24.68c18.3,9.26,36.01,19.35,53.28,29.18l12.9,7.24
						c4.28,2.42,8.55,4.7,12.78,6.85c4.25,2.3,8.48,4.25,12.69,6.17c2.12,1.01,4.23,1.98,6.17,2.66c2,0.75,3.91,1.57,6.12,2.2
						c17.06,5.53,36.4,8.69,55.45,11.08c19.17,2.21,38.64,3.58,57.78,3.53c9.52-0.02,19.13-0.31,27.93-1.38
						c9.13-1.12,18.01-2.85,26.34-5.45c16.71-5.09,31.53-14.33,45.25-26.57c6.87-6.05,13.44-12.75,19.75-19.88
						c3.2-3.48,6.26-7.2,9.36-10.86c3.01-3.68,5.78-7.32,8.63-11.04c22.24-30.43,38.87-65.8,51.62-102.1
						c12.27-36.59,20.64-74.61,24.51-113.19c1.77-19.3,2.92-38.68,2.74-58.1c-0.18-9.69-0.02-19.49-0.9-28.94
						c-0.36-4.76-0.57-9.54-1.03-14.28l-1.88-14.13c-0.5-4.74-1.42-9.37-2.42-13.99c-1-4.61-1.74-9.3-2.95-13.84l-3.79-13.57
						c-1.13-4.58-3.07-8.82-4.55-13.25c-6.53-17.42-14.79-34.16-25.61-48.88c-10.79-14.71-23.75-27.61-38.55-37.64
						c-14.78-10.04-31.38-17.16-48.7-20.63c-34.71-6.99-71.8,1.84-100.03,23.42c-28.6,21.37-47.74,54.27-57.57,89.83
						c-2.53,9.15-11.99,14.51-21.14,11.99c-5.25-1.45-9.25-5.18-11.23-9.83l-0.1-0.23c-10.04-23.9-22.69-46.4-38.76-65.85
						c-16.12-19.43-35.5-35.54-57.6-48.79c-2.81-1.63-5.52-3.33-8.41-4.91c-2.88-1.63-5.74-3.24-8.24-4.44
						c-5.16-2.68-10.8-4.84-16.5-6.81c-11.51-3.78-23.66-6.18-35.93-7.28c-24.55-2.3-49.67,0.74-73.12,9.01
						c-23.57,8.02-45.41,21.25-64.82,37.77c-9.88,8.07-18.77,17.44-27.45,27.01c-4.24,4.89-8.38,9.91-12.51,14.94
						c-3.85,5.27-7.89,10.41-11.62,15.81c-14.96,21.57-28.09,44.77-39.57,68.98c-11.47,24.22-21.48,49.3-31.14,74.75l-0.04,0.09
						c-1.09,2.88-4.32,4.33-7.2,3.24C1585.36,2274.35,1583.93,2271.67,1584.44,2269.05z"/>
				</g>
				<g>
					<path class="st11" d="M2267.75,2559.58c-39.74,48.37-69.4,64.51-111.72,69.89c-17.43,2.22-43.43,2.13-70.29,0
						c0,0-0.04,0-0.09-0.04c-66.55-17.69-32.05-112.83-13.65-220.82c16.89-99.18-11.29-174.98,45.17-277.99
						c68.51-125.01,157.78-72.15,163.11-68.86c0.13,0.04,0.22,0.13,0.27,0.18c42.41,34.63,73.93,95.58,77.18,183.96
						C2363.38,2400.11,2307.98,2510.63,2267.75,2559.58z"/>
				</g>
				<g>
					<path class="st11" d="M412.09,2629.51h-0.04c-26.5,2.09-52.15,2.13-69.35-0.04c-42.37-5.38-71.98-21.52-111.72-69.89
						c-40.23-48.95-95.63-159.47-89.98-313.69c3.25-88.91,35.12-150.04,77.93-184.58c0.04-0.04,0.09-0.04,0.13-0.09
						c3.73-2.36,93.31-56.82,162.49,69.4c56.46,103.01,28.27,178.8,45.17,277.99C445.07,2516.55,478.55,2611.73,412.09,2629.51z"/>
				</g>
				<g class="st5">
					<path class="st2" d="M381.55,2130.62c34.54,63.04,37.39,115.9,38.32,170.18c-3.73-37.3-12.85-75.71-36.45-118.79
						c-70.69-128.97-162.22-73.31-166.05-70.91c-0.04,0.04-0.09,0.04-0.13,0.09c-37.65,30.41-67.04,80.96-76.6,152.53
						c0-5.87,0.13-11.83,0.36-17.83c3.25-88.91,35.12-150.04,77.93-184.58c0.04-0.04,0.09-0.04,0.13-0.09
						C222.79,2058.86,312.37,2004.41,381.55,2130.62z"/>
				</g>
				<g>
					<path class="st11" d="M422.85,2379.04c-2.62-27.21-2.58-52.9-2.98-78.24C422.45,2327.03,422.4,2352.68,422.85,2379.04z"/>
				</g>
				<g class="st4">
					<path class="st3" d="M412.09,2629.51h-0.04c-26.5,2.09-52.15,2.13-69.35-0.04c-42.37-5.38-71.98-21.52-111.72-69.89
						c-22.41-27.25-49.52-73.62-68.15-135.99c3.02,4.13,6,8,8.89,11.51c39.74,48.37,69.19,65.99,111.72,69.89
						c76.31,6.99,130.92-64.28,140.35-117.28c0.76,6.85,1.73,13.83,2.93,20.89C445.07,2516.55,478.55,2611.73,412.09,2629.51z"/>
				</g>
				<g>
					<path class="st3" d="M373.94,2647.78c-12.69,0-24.1-0.59-33.34-1.75c-49-6.23-82.2-26.78-122.52-75.85
						c-48.9-59.49-99.21-176.08-93.76-324.89c3.13-85.76,33.01-155.71,84.13-196.96h0c0.45-0.36,0.92-0.7,1.4-1.02
						c0.1-0.07,0.21-0.14,0.31-0.2c4.09-2.57,41.27-24.81,88.1-12.67c38.37,9.95,71.32,39.61,97.93,88.16
						c38.87,70.91,39.7,130.89,40.5,188.9c0.42,30.08,0.84,61.18,6.48,94.31c3.13,18.41,6.72,36.49,10.19,53.97
						c17.04,85.94,33.14,167.11-36.95,185.86c-1.09,0.29-2.21,0.47-3.34,0.54C399.38,2647.25,386.07,2647.78,373.94,2647.78z
						 M412.09,2629.51h0.05H412.09z M228.6,2074.96c-42.99,35.19-68.17,96.06-70.93,171.55c-6.59,180.07,70.64,283.56,86.19,302.48
						c39.42,47.97,65.88,59.48,100.93,63.93c15.41,1.94,39.38,1.97,64.36,0.08c36.46-11.02,28.52-60.66,11.45-146.72
						c-3.51-17.71-7.14-36.01-10.35-54.87c-6.08-35.67-6.52-68.1-6.96-99.45c-0.78-56.4-1.51-109.68-36.39-173.31
						c-22.01-40.16-47.93-64.35-77.03-71.89C258.49,2058.62,233.02,2072.36,228.6,2074.96z"/>
				</g>
				<g>
					<path class="st3" d="M412.11,2646.23c-4.37,0-8.67-1.71-11.88-4.92c-6.52-6.52-6.52-17.08,0-23.6c3-3,6.85-4.62,10.78-4.86
						c35.76-2.84,67.29-8.9,84.38-16.24c14.33-6.14,29.6-14.85,47.28-24.94c54.85-31.29,129.96-74.16,252.91-79.67
						c0.31-0.01,0.63-0.03,0.94-0.01c2.14,0.02,216.66,2.52,452.71,0.97c236.27,1.56,450.83-0.95,452.97-0.97
						c0.32-0.02,0.63,0,0.94,0.01c122.87,5.51,197.99,48.35,252.83,79.64c17.71,10.1,33,18.82,47.34,24.96
						c17.07,7.32,48.34,13.37,83.66,16.18c9.19,0.73,16.05,8.77,15.32,17.96c-0.73,9.19-8.8,15.99-17.96,15.32
						c-18.61-1.48-65.03-6.27-94.17-18.77c-16.08-6.88-32.91-16.48-50.73-26.65c-54.71-31.21-122.77-70.03-237.32-75.26
						c-11.48,0.13-221.9,2.48-452.89,0.97c-230.74,1.5-441.14-0.84-452.62-0.97c-114.61,5.23-182.68,44.07-237.39,75.29
						c-17.79,10.15-34.6,19.74-50.66,26.62c-28.74,12.34-74.69,17.21-94.17,18.78C413.63,2646.18,412.87,2646.23,412.11,2646.23z"/>
				</g>
				<g class="st5">
					<path class="st2" d="M2115.13,2130.62c-34.54,63.04-37.39,115.9-38.32,170.18c3.73-37.3,12.85-75.71,36.45-118.79
						c70.69-128.97,162.22-73.31,166.05-70.91c0.04,0.04,0.09,0.04,0.13,0.09c37.66,30.41,67.04,80.96,76.6,152.53
						c0-5.87-0.13-11.83-0.36-17.83c-3.25-88.91-35.12-150.04-77.93-184.58c-0.04-0.04-0.09-0.04-0.13-0.09
						C2273.88,2058.86,2184.3,2004.41,2115.13,2130.62z"/>
				</g>
				<g class="st4">
					<path class="st3" d="M2084.59,2629.51h0.04c26.5,2.09,52.15,2.13,69.35-0.04c42.37-5.38,71.98-21.52,111.72-69.89
						c22.41-27.25,49.52-73.62,68.15-135.99c-3.02,4.13-6,8-8.89,11.51c-39.74,48.37-69.19,65.99-111.72,69.89
						c-76.31,6.99-130.92-64.28-140.35-117.28c-0.76,6.85-1.73,13.83-2.93,20.89C2051.6,2516.55,2018.13,2611.73,2084.59,2629.51z"
						/>
				</g>
				<g>
					<g>
						<path class="st3" d="M373.92,2643.59c-12.5,0-23.73-0.58-32.8-1.72c-47.79-6.07-80.26-26.22-119.81-74.36
							c-48.41-58.9-98.22-174.44-92.81-322.08c3.09-84.53,32.41-153.37,82.58-193.85l0,0c0.34-0.27,0.7-0.53,1.06-0.77
							c0.09-0.06,0.17-0.11,0.26-0.17c3.93-2.48,39.69-23.84,84.81-12.15c37.21,9.64,69.27,38.62,95.31,86.12
							c38.37,70,39.19,129.45,39.98,186.94c0.42,30.24,0.85,61.5,6.54,94.95c3.14,18.47,6.73,36.58,10.21,54.09
							c17.37,87.6,32.38,163.26-33.92,181c-0.83,0.22-1.68,0.36-2.54,0.41C399.17,2643.06,385.96,2643.59,373.92,2643.59z
							 M412.09,2629.51h0.05H412.09z M226.18,2071.51c-44.08,35.94-69.89,97.99-72.7,174.83c-6.65,181.58,71.43,286.17,87.14,305.29
							c40.31,49.05,67.52,60.84,103.64,65.42c15.77,2,40.25,2.02,65.66,0.07c40.45-11.74,32.41-62.86,14.79-151.68
							c-3.51-17.68-7.13-35.96-10.33-54.76c-6.02-35.36-6.46-67.61-6.89-98.8c-0.79-56.94-1.53-110.72-36.91-175.26
							c-22.59-41.22-49.39-66.09-79.66-73.94C257.41,2053.99,230.17,2069.14,226.18,2071.51z"/>
					</g>
					<g>
						<path class="st3" d="M140.8,2296.18c-6.61,0-12.13-5.19-12.47-11.87c-0.35-6.89,4.95-12.77,11.85-13.12l278.08-14.14
							c6.88-0.36,12.77,4.96,13.12,11.85c0.35,6.89-4.95,12.77-11.85,13.12l-278.08,14.14
							C141.23,2296.18,141.01,2296.18,140.8,2296.18z"/>
					</g>
					<g>
						<path class="st3" d="M149.32,2193.73c-6.58,0-12.09-5.14-12.47-11.79c-0.39-6.89,4.88-12.8,11.77-13.19l249.67-14.14
							c6.82-0.5,12.8,4.88,13.19,11.77c0.39,6.89-4.88,12.8-11.77,13.19l-249.67,14.14C149.8,2193.73,149.56,2193.73,149.32,2193.73
							z"/>
					</g>
					<g>
						<path class="st3" d="M156.59,2413.41c-6.61,0-12.14-5.19-12.47-11.87c-0.35-6.89,4.95-12.77,11.85-13.12l267.14-13.56
							c6.98-0.31,12.77,4.96,13.12,11.85c0.35,6.89-4.95,12.77-11.85,13.12l-267.14,13.56
							C157.01,2413.41,156.8,2413.41,156.59,2413.41z"/>
					</g>
					<g>
						<path class="st3" d="M207.66,2538.87c-6.63,0-12.15-5.2-12.48-11.9c-0.33-6.89,4.99-12.75,11.88-13.09l238.96-11.51
							c6.84-0.35,12.75,4.99,13.09,11.88c0.33,6.89-4.99,12.75-11.88,13.09l-238.96,11.51
							C208.07,2538.87,207.87,2538.87,207.66,2538.87z"/>
					</g>
					<g>
						<path class="st3" d="M2357.92,2296.27c-0.21,0-0.43,0-0.64-0.01l-278.08-14.14c-6.89-0.35-12.2-6.23-11.85-13.12
							c0.35-6.89,6.11-12.13,13.12-11.85l278.08,14.14c6.89,0.35,12.2,6.23,11.85,13.12
							C2370.05,2291.08,2364.53,2296.27,2357.92,2296.27z"/>
					</g>
					<g>
						<path class="st3" d="M2349.37,2193.73c-0.24,0-0.48,0-0.72-0.02L2099,2179.58c-6.89-0.39-12.17-6.29-11.77-13.19
							c0.39-6.89,6.33-12.27,13.19-11.77l249.66,14.14c6.89,0.39,12.17,6.29,11.78,13.19
							C2361.46,2188.59,2355.95,2193.73,2349.37,2193.73z"/>
					</g>
					<g>
						<path class="st3" d="M2342.09,2413.55c-0.21,0-0.43,0-0.64-0.01l-267.09-13.56c-6.89-0.35-12.2-6.23-11.85-13.12
							c0.35-6.89,6.17-12.14,13.12-11.85l267.09,13.56c6.89,0.35,12.2,6.23,11.85,13.12
							C2354.23,2408.36,2348.7,2413.55,2342.09,2413.55z"/>
					</g>
					<g>
						<path class="st3" d="M2291.01,2538.96c-0.2,0-0.41,0-0.61-0.01l-239.27-11.51c-6.9-0.33-12.22-6.19-11.88-13.09
							s6.16-12.16,13.09-11.88l239.27,11.51c6.9,0.33,12.22,6.19,11.88,13.09C2303.17,2533.75,2297.64,2538.96,2291.01,2538.96z"/>
					</g>
					<g>
						<path class="st3" d="M2124.73,2643.6c-12.34,0-25.94-0.56-39.98-1.67l0,0c-0.98-0.08-1.96-0.28-2.9-0.59
							c-65.3-17.83-50.28-92.4-32.89-178.7c3.66-18.16,7.44-36.95,10.72-56.14c5.7-33.45,6.13-64.72,6.55-94.96
							c0.79-57.49,1.61-116.94,39.98-186.94c25.78-47.04,57.58-75.84,94.53-85.62c45.16-11.94,82.04,9.62,86.1,12.12l0,0
							c0.57,0.35,1.12,0.73,1.62,1.14l0,0c49.64,40.53,78.68,109.14,81.76,193.18c5.41,147.65-44.4,263.19-92.82,322.08l0,0
							c-39.54,48.13-72.01,68.28-119.8,74.36C2148.55,2643.02,2137.29,2643.6,2124.73,2643.6z M2088.03,2617.11
							c25.84,1.98,50.59,1.98,66.42-0.04c36.13-4.59,63.34-16.38,103.64-65.42c0,0,0,0,0,0c15.72-19.12,93.79-123.71,87.14-305.29
							c-2.81-76.42-28.37-138.26-72-174.26c-4.91-2.91-32.43-17.85-66.1-8.94c-30.07,7.95-56.65,32.68-79,73.47
							c-35.38,64.55-36.12,118.33-36.91,175.27c-0.43,31.19-0.88,63.45-6.9,98.81c-3.33,19.56-7.16,38.53-10.85,56.88
							C2055.81,2555.28,2047.74,2605.68,2088.03,2617.11z"/>
					</g>
				</g>
				<g>
					<path class="st3" d="M736.12,2527.38c-2.58,0-5.17-0.79-7.41-2.43c-5.57-4.1-6.77-11.93-2.67-17.51
						c0.52-0.72,54.55-77.1,38.05-222.35c-10.38-91.32-47.99-162.25-105.92-199.72c-38.5-24.91-81.66-31.6-121.51-18.86
						c-6.58,2.11-13.63-1.53-15.74-8.11c-2.1-6.59,1.53-13.63,8.12-15.74c47.13-15.07,97.82-7.36,142.73,21.68
						c64.33,41.62,105.95,119,117.19,217.91c17.7,155.74-40.28,236.64-42.76,240.01C743.77,2525.61,739.97,2527.38,736.12,2527.38z"
						/>
				</g>
				<g>
					<path class="st3" d="M1759.47,2527.37c-3.84,0-7.62-1.76-10.07-5.09c-2.48-3.37-60.45-84.27-42.76-240.01
						c11.24-98.91,52.86-176.3,117.19-217.92c44.91-29.05,95.6-36.76,142.73-21.68c6.59,2.1,10.22,9.15,8.12,15.74
						c-2.11,6.58-9.15,10.22-15.74,8.11c-39.85-12.73-83.01-6.04-121.51,18.86c-57.92,37.47-95.54,108.39-105.92,199.72
						c-16.5,145.24,37.52,221.63,38.07,222.38c4.05,5.59,2.83,13.41-2.74,17.48C1764.63,2526.58,1762.04,2527.37,1759.47,2527.37z"
						/>
				</g>
			</g>
			<g>
				<g>
					<path class="st12" d="M1342.25,1573.26v781.94c0,54.79-185.8,54.79-185.8,0v-781.94
						C1156.45,1631.3,1342.25,1631.3,1342.25,1573.26z"/>
				</g>
				<g>
					<g class="st10">
						<path class="st2" d="M1342.25,1573.26v32.62c0,58.07-185.8,58.07-185.8,0v-32.62
							C1156.45,1631.3,1342.25,1631.3,1342.25,1573.26z"/>
					</g>
					<g class="st4">
						<path class="st3" d="M1342.25,2213.36v141.83c0,54.79-185.8,54.79-185.8,0v-141.83
							C1156.45,2268.13,1342.25,2268.13,1342.25,2213.36z"/>
					</g>
					<g>
						<path class="st3" d="M1249.35,2412.97c-50.55,0-109.58-15.13-109.58-57.76v-781.95c0-9.22,7.47-16.69,16.69-16.69
							s16.69,7.48,16.69,16.69c0,12.7,31.29,26.86,76.2,26.86c44.9,0,76.2-14.16,76.2-26.86c0-9.22,7.47-16.69,16.69-16.69
							s16.69,7.48,16.69,16.69v781.95C1358.93,2397.84,1299.9,2412.97,1249.35,2412.97z M1173.16,1618.52v736.69
							c0,10.18,28.99,24.38,76.2,24.38c47.21,0,76.2-14.2,76.2-24.38v-736.69c-20.68,10.17-48.5,14.98-76.2,14.98
							C1221.66,1633.49,1193.84,1628.69,1173.16,1618.52z"/>
					</g>
					<g>
						<ellipse class="st3" cx="1249.35" cy="1575.18" rx="95.53" ry="41.62"/>
					</g>
				</g>
			</g>
			<g>
				<path class="st2" d="M467.59,1630.68c0,0,255.1-7.56,288.86,108.37c54.28,186.35-150.54,226.84-232.54,255.11
					C523.92,1994.15,396.62,1853.19,467.59,1630.68z"/>
			</g>
			<g>
				<path class="st3" d="M523.92,2010.85c-4.64,0-9.17-1.94-12.39-5.51c-5.46-6.05-132.88-150.72-59.84-379.74
					c2.15-6.75,8.33-11.4,15.41-11.61c10.95-0.31,268.44-6.48,305.39,120.38c53.25,182.83-121.04,237.21-214.68,266.42
					c-10.39,3.24-20.21,6.3-28.44,9.15C527.58,2010.55,525.74,2010.85,523.92,2010.85z M480,1647.18
					c-51.57,176.75,25.32,295.77,49.57,327.5c5.78-1.87,11.93-3.78,18.29-5.77c119.75-37.35,233.26-85.52,192.57-225.21
					c-23.29-79.95-184.4-96.53-259.4-96.53C480.68,1647.18,480.34,1647.18,480,1647.18z"/>
			</g>
			<g class="st4">
				<path class="st3" d="M523.93,1994.14c80.92-27.88,281.56-67.69,234.49-248.01c-11.52,35.12-36.13,61.52-65.96,81.93
					c-95.82,65.58-227.73,5.51-243-109.59c-0.15-1.14-0.3-2.28-0.44-3.43C428.24,1888.18,523.93,1994.14,523.93,1994.14z"/>
			</g>
		</g>
	</g>
</g>
</svg>
