<?xml version="1.0" encoding="utf-8"?>
<!-- Generator: Adobe Illustrator 25.0.0, SVG Export Plug-In . SVG Version: 6.00 Build 0)  -->
<svg version="1.1" id="Layer_1" xmlns="http://www.w3.org/2000/svg" xmlns:xlink="http://www.w3.org/1999/xlink" x="0px" y="0px"
	 viewBox="0 0 2009.3 2860.3" style="enable-background:new 0 0 2009.3 2860.3;" xml:space="preserve">
<style type="text/css">
	.st0{opacity:0.85;}
	.st1{fill:#F7931D;}
	.st2{fill:#FFFFFF;}
	.st3{opacity:0.35;}
	.st4{fill:#391B47;}
	.st5{fill:none;stroke:#293856;stroke-width:33.2973;stroke-linecap:round;stroke-miterlimit:10;}
	.st6{fill:#32B1D1;}
	.st7{fill:#22A7F0;}
	.st8{fill:#220F2D;}
	.st9{opacity:0.7;}
	.st10{fill:none;}
	.st11{fill:#4B20D3;}
	.st12{fill:#6B0F4B;}
	.st13{fill:#93ABD3;}
	.st14{fill:#847979;}
	.st15{fill:#371547;}
	.st16{opacity:0.6;}
	.st17{opacity:0.25;fill:#F7AD56;stroke:#102770;stroke-width:3;stroke-miterlimit:10;}
	.st18{fill:#F7AD56;stroke:#102770;stroke-width:3;stroke-miterlimit:10;}
	.st19{opacity:0.2;fill:#F7AD56;stroke:#102770;stroke-width:3;stroke-miterlimit:10;}
	.st20{opacity:0.1;fill:#F7AD56;stroke:#102770;stroke-width:3;stroke-miterlimit:10;}
	.st21{opacity:0.15;fill:#F7AD56;stroke:#102770;stroke-width:3;stroke-miterlimit:10;}
	.st22{opacity:0.5;}
</style>
<g>
	<g>
		<g class="st0">
			<ellipse class="st1" cx="1181.5" cy="2712.8" rx="832.5" ry="147.5"/>
		</g>
		<g>
			<g>
				<path class="st2" d="M1795.6,1988.2c-89.6,116.8-322.9,76.3-322.9,76.3l-2-789.5l-0.4-159.4c0,0,133.1,3.5,234.3,45.3
					c48.7,20.1,90,49.1,105.5,90.9C1863.7,1396.9,1869.2,1892.2,1795.6,1988.2z"/>
			</g>
			<g class="st3">
				<path class="st4" d="M1850.2,1581.2c3.1,173.1-13.2,353.1-54.6,407c-89.6,116.8-323,76.4-323,76.4l-2.4-948.9c0,0,2.5,0.1,7,0.3
					l1.9,739.8c0,0,233.4,40.5,323-76.3C1826.3,1747.8,1842,1672.8,1850.2,1581.2z"/>
			</g>
			<g>
				<path class="st4" d="M1564.4,2088.2c-51.6,0-90.7-6.5-94.6-7.2c-9.1-1.6-15.1-10.2-13.6-19.2s10.2-15.1,19.2-13.6
					c2.2,0.4,224.5,37.3,306.9-70.1c68.1-88.8,66.5-573.2,11.9-720.5c-43.1-116.4-321.7-125.3-324.5-125.3
					c-9.2-0.3-16.4-7.9-16.2-17.1s7.9-16.4,17.1-16.2c12.4,0.3,303.9,9.7,354.9,147.1c26.1,70.4,42.8,228.1,41.6,392.5
					c-0.6,86.1-7.5,293.5-58.4,359.8C1751.6,2072.9,1643.3,2088.2,1564.4,2088.2z"/>
			</g>
			<g>
				<path class="st2" d="M1833,1654l-159,11.9c-14.2,1.1-25.9,11.6-28.4,25.6c-9.3,51.3-24.6,170.9,25.3,210.4
					c41.4,32.8,108.7,28.9,148.1-4.4c44.1-37.3,48.4-154.6,47.7-212.7C1866.4,1666.8,1851,1652.7,1833,1654z"/>
			</g>
			<g class="st3">
				<path class="st4" d="M1645.6,1691.5c-9.3,51.3-24.6,170.9,25.3,210.4c41.4,32.8,108.7,28.9,148.1-4.4
					c27.1-23,39.2-76.2,44.3-127.2c-7.2,25.5-18.4,46.2-32.4,59.8c-80.2,77.9-140-13.9-140-13.9s-10.4,22.3-18.7,23.6
					c-34.6,5.3-27.4-103.1-22.4-159C1647.8,1683.9,1646.3,1687.5,1645.6,1691.5z"/>
			</g>
			<g>
				<path class="st4" d="M1741,1941.3c-29.2,0-58.2-8.7-80.4-26.3c-55.1-43.6-43.3-160.6-31.4-226.4c3.9-21.4,21.8-37.6,43.6-39.2
					l159-11.9c13.1-1,26.3,3.6,36,12.5c9.7,8.9,15.4,21.6,15.5,34.7c1,81.4-7.5,186.6-53.6,225.6
					C1805.4,1930.8,1773,1941.3,1741,1941.3z M1835.4,1670.6c-0.4,0-0.8,0-1.1,0l-159,11.9c-6.7,0.5-12.1,5.4-13.3,11.9
					c-17.8,98.1-10.5,170.8,19.3,194.4c34.2,27.1,92.4,25.2,127-4.1c27.4-23.2,43-97.9,41.8-199.8c-0.1-4.1-1.7-7.8-4.7-10.6
					C1842.5,1671.9,1839.1,1670.6,1835.4,1670.6z M1833,1654L1833,1654L1833,1654z"/>
			</g>
			<g>
				<path class="st4" d="M1705.6,1722.1c1.8,20,1.8,39,3.1,57.9c1.3,18.8,3.4,37.3,8.1,54.7c4.6,17.3,11.8,33.4,22.6,45.5
					c10.7,12.2,24.9,19.8,40.9,23.5l0.1,0c9,2.1,14.5,11.1,12.4,20c-2.1,9-11.1,14.5-20,12.4c-0.4-0.1-0.8-0.2-1.2-0.3
					c-10.5-3.3-20.8-7.9-30.3-14.1c-9.4-6.2-17.8-14.1-24.6-22.9c-13.7-17.8-20.8-38.4-24.7-58.4c-3.9-20.1-4.8-40.1-4.8-59.7
					c-0.1-19.5,1.3-39,0.8-57.3v-0.2c-0.1-4.9,3.7-8.9,8.6-9C1701.3,1714,1705.2,1717.6,1705.6,1722.1z"/>
			</g>
			<g>
				<path class="st4" d="M1739.1,1246.5c-14.6,1.2-29.5,3-44.2,5c-14.7,2.1-29.4,4.5-43.9,7.3c-14.6,2.7-29,5.9-43.3,9.4
					c-14.3,3.4-28.5,7.5-42.5,11.8l-0.3,0.1c-8.8,2.7-18.1-2.3-20.8-11.1c-2.7-8.8,2.3-18.1,11.1-20.8c0.6-0.2,1.1-0.3,1.7-0.4
					c15.1-2.9,30.2-5.6,45.4-7.6c15.2-2.1,30.3-3.7,45.5-4.9c15.2-1.3,30.3-2.2,45.5-2.7c15.2-0.5,30.2-0.7,45.6-0.3
					c4,0.1,7.1,3.4,7,7.3c-0.1,3.7-3,6.7-6.6,7L1739.1,1246.5z"/>
			</g>
			<g class="st3">
				<path class="st4" d="M1704.4,1161c-69.7,53-149.3,91.7-233.8,114.1l-0.4-159.4C1470.2,1115.6,1603.3,1119.2,1704.4,1161z"/>
			</g>
			<g>
				<path class="st2" d="M1160.1,2576.9c-68,157.6-359.2,131.6-432.7,66.4c-75.3-66.9,60.8-150.3,60.8-150.3
					c-60.7-103.1-62.5-300-56.2-426.4c3.5-69.3,9.4-117.5,9.4-117.5l429.2-232.3c-0.3,87.4-14.9,162.1-28,221.9
					c-27.8,127.2-26.1,225.1-14.8,305.1C1148.8,2392.1,1202.3,2478.9,1160.1,2576.9z"/>
			</g>
			<g class="st3">
				<path class="st4" d="M1160.1,2576.9c-68,157.6-359.2,131.6-432.7,66.4c-23.7-21.1-26.5-43.8-19.1-65
					c99.3,58.5,352.2,102.8,401.3-46.2c24-72.9-22.9-123.3-48.5-221.8c-10.8-41.5-43.6-73.8-85.2-84.5
					c-88.1-22.8-196.4-70.3-241.2-154c-0.9-1.7-1.8-3.5-2.7-5.4c3.5-69.3,9.4-117.5,9.4-117.5l384.2-207.9l45-24.3
					c-0.3,87.4-14.9,162.1-28,221.9c-2,9.3-3.9,18.5-5.7,27.5c-1.8,9-3.3,17.9-4.7,26.6c-0.7,4.4-1.4,8.7-2,12.9
					c-2,12.9-3.6,25.4-4.9,37.6c-0.5,4.1-0.9,8.1-1.3,12.1c-0.8,7.7-1.4,15.2-1.9,22.7c-1.6,23-2.2,44.8-2,65.5
					c0,2.3,0.1,4.5,0.1,6.7c0.1,4.5,0.2,9,0.4,13.5c0.3,6.1,0.5,12,0.9,17.9c0.3,4.3,0.6,8.5,0.9,12.7c0.3,2.8,0.5,5.5,0.7,8.2
					c0.2,2.4,0.4,4.8,0.7,7.1c0.2,2.2,0.4,4.4,0.7,6.6c1,9.4,2.1,18.4,3.4,27.3C1148.8,2392.1,1202.3,2478.9,1160.1,2576.9z"/>
			</g>
			<g class="st3">
				<path class="st4" d="M1137,1966.2c-1.7,9-3.3,17.9-4.7,26.6C1133.7,1984.1,1135.2,1975.3,1137,1966.2z"/>
			</g>
			<g>
				<path class="st4" d="M920.9,2711c-87.3,0-169.5-24-204.6-55.2c-25.8-22.9-29.5-47.2-28-63.5c4.1-46.8,53.3-87.2,78-104.7
					c-85.8-169.2-43.3-525.1-41.3-540.6c1.1-9.1,9.4-15.6,18.6-14.5c9.1,1.1,15.6,9.4,14.5,18.6c-0.5,3.8-45.5,380.4,44.6,533.4
					l8.3,14.1l-13.9,8.6c-19.9,12.3-72.3,51.9-75.4,88.1c-1.1,12.8,4.4,24.5,17,35.6c41.4,36.8,164.5,60.8,267.4,38
					c48.6-10.8,112.2-36.7,138.9-98.5c26.3-60.9,12.5-116.9-6.6-194.4c-25.5-103.7-57.3-232.7-11.8-440.7
					c14.2-64.8,27.3-136.1,27.6-218.4c0-9.2,7.5-16.6,16.7-16.6c0,0,0,0,0.1,0c9.2,0,16.6,7.5,16.6,16.7
					c-0.3,85.5-13.8,158.9-28.4,225.5c-43.9,200.5-13.1,325.3,11.6,425.7c19.9,80.7,35.6,144.4,4.8,215.5
					c-25.6,59.2-81.7,99.9-162.3,117.9C983,2708,951.6,2711,920.9,2711z"/>
			</g>
			<g>
				<path class="st4" d="M1041.7,2371.3c-94.7,0-224-10.6-311.6-59.8c-6-3.4-8.1-11-4.8-17s11-8.1,17-4.8
					c143,80.4,416.2,51.2,418.9,50.8c6.8-0.7,13,4.2,13.8,11c0.8,6.9-4.2,13-11,13.8C1159.2,2365.9,1109.2,2371.3,1041.7,2371.3z"/>
			</g>
			<g>
				<path class="st5" d="M1089.9,2051.2"/>
			</g>
			<g>
				<path class="st6" d="M992.7,1342"/>
			</g>
			<g>
				<path class="st2" d="M1628.3,1721.8c-1.7,64.1-9.7,118.4-24,160.4c-0.5,1.4-0.9,2.7-1.4,4c-9.2,25.9-20.6,50.4-34.1,73.2
					c-43.4,73.8-108.2,130.5-186.9,165.5c-35.5,15.8-131,54.9-259.1,56.4c-16.9,0.2-34.5-0.3-52.5-1.5
					c-79.8-5.6-272-51.4-335.6-170.5c-42.6-79.8-32.4-309.3,19.7-657.8c20.7-138.1,48-295.1,81.1-468.7l621.7,33.6
					c44.9,117.6,80.7,231.3,107.7,337.9C1611.1,1436.5,1631.6,1597.7,1628.3,1721.8z"/>
			</g>
			<g class="st3">
				<path class="st4" d="M1602.9,1886.3C1564.2,1996,1485,2079.2,1382,2125c-40.1,17.9-157.4,65.7-311.6,54.9
					c-79.8-5.6-272-51.4-335.6-170.5c-19.8-37-28.2-106.2-26.3-204.5c1.6,58.4,10.2,100.6,26.3,125.4
					c63.6,97.7,255.8,135.3,335.6,139.8c154.3,8.9,271.5-30.3,311.6-45c103-37.6,182.2-105.8,220.9-195.8
					c16.2-37.5,24.8-87.2,25.6-146.7C1629.5,1766.2,1620.8,1835.4,1602.9,1886.3z"/>
			</g>
			<g class="st3">
				<path class="st4" d="M725.6,1569.3c-10.1,90.9-16,169.8-17.2,235.5C706.8,1743.6,712.7,1664.6,725.6,1569.3z"/>
			</g>
			<g class="st3">
				<path class="st4" d="M1628.5,1682.6c-0.4-35.3-2.6-73.3-6.5-113.4C1626.9,1610,1629,1647.9,1628.5,1682.6z"/>
			</g>
			<g>
				<path class="st4" d="M1116,2198.1c-15.2,0-30.8-0.5-46.8-1.6l-1.4-0.2l-76-12c-9.1-1.4-15.3-10-13.8-19
					c1.4-9.1,9.9-15.3,19-13.9l75.3,11.9c130.7,9,236.9-24.1,303-53.5c100.3-44.6,175.6-126,212-229.1
					c52.7-149.3,28.1-503.5-145.5-958.3c-3.3-8.6,1-18.2,9.6-21.5c8.6-3.3,18.2,1,21.5,9.6c152.9,400.6,211.5,794.9,145.8,981.2
					c-39.4,111.8-121.1,200-229.9,248.4C1327.1,2167.7,1232.4,2198.1,1116,2198.1z"/>
			</g>
			<g>
				<path class="st4" d="M988,2183.1c-1.3,0-2.6-0.1-3.9-0.4c-56.1-13.4-160.1-46.1-226.7-114.7c-15.3-15.8-27.9-32.9-37.4-50.7
					c-58.5-109.5-26-481.5,99.1-1137.4c1.7-9,10.5-15,19.5-13.2c9,1.7,15,10.4,13.2,19.5c-122,639.1-156.5,1014.4-102.5,1115.5
					c8,15.1,18.8,29.6,32,43.2c60.7,62.6,157.9,93,210.5,105.5c8.9,2.1,14.5,11.1,12.3,20.1C1002.4,2177.9,995.5,2183.1,988,2183.1z
					"/>
			</g>
			<g>
				<path class="st2" d="M1136.5,2068.5c0,0-65.1,325.3,70,483.3c0,0-136.1,83.4-60.8,150.3c73.4,65.2,364.6,91.2,432.7-66.4
					c65.1-150.8-96.9-275-17.4-638.2c13.1-59.9,27.7-134.6,28-222L1136.5,2068.5z"/>
			</g>
			<g class="st3">
				<path class="st4" d="M1560.9,1998.4c-79.5,363.2,82.5,487.3,17.4,638.2c-68,157.6-359.2,131.6-432.7,66.4
					c-19.7-17.5-24.9-36.2-21.8-54.2c98.8,52.1,346.5,61.1,408.5-82.6c22.4-51.9-112.9-152.8-113.8-265.6
					c-0.8-94.5,25.7-191.1,53.4-265.8c22.3-60.2-20.3-124.3-84.3-127.7c-0.6,0-1.2-0.1-1.7-0.1c-36.3-2-75.8-6.9-118.3-15.9
					c0,0-68.6-86.8,7.8-135.7c0,0,232.5,31.9,352.9-33.7c-1.7,64.1-9.7,118.4-24,160.4c-6.9,2.2-14.8,4.5-23.4,6.7
					C1575.4,1929.5,1567.9,1966.1,1560.9,1998.4z"/>
			</g>
			<g>
				<path class="st4" d="M1141.9,2070.4c0.8,42.1-1.2,83.4-2.5,124.5c-0.9,41.1-1.3,82.2,1.8,123c1.4,20.4,4.1,40.7,7.7,60.6
					c3.6,20,8.4,39.7,14.7,58.8c6.3,19.1,13.5,37.9,22.9,55.3c9.3,17.5,20.1,34,32.7,49l12.3,14.7l-16.3,10.3
					c-5.9,3.7-12.4,8.4-18.4,12.9c-6.1,4.6-11.9,9.5-17.5,14.6c-11.1,10.1-21.4,21.1-28.8,32.9c-7.4,11.7-11.9,24.1-10.6,34.8
					c1.3,10.6,7.9,21,18.4,29.6c10.2,8.4,23.5,15.4,37.4,21c14,5.6,28.7,10,43.7,13.6c30.1,6.9,61.3,10.5,92.3,11
					c15.6,0.2,31.1-0.4,46.5-1.8c15.4-1.6,30.7-3.7,45.7-7.1c29.9-6.7,58.8-17.4,83.5-33.8c12.2-8.3,23.5-17.8,33-28.7
					c9.3-11.1,16.9-23.4,22.8-36.6c11.6-27.3,16-56.7,13.6-87c-2.1-30.3-9.3-61.1-16.9-92.3c-7.6-31.2-15.6-62.8-21.9-95
					c-12.9-64.3-18.6-130.6-15.4-196.4c1.5-32.9,4.9-65.6,9.7-98c5-32.3,12.1-64.8,18.6-95.8c6.5-31.3,9.9-62.9,14.4-94.2
					c4.5-31.4,8.6-62.5,17.9-94.5l0,0c0.9-3.1,4.1-4.8,7.2-3.9c2,0.6,3.4,2.1,3.9,4c9.1,32.6,9.1,65.9,6,98.6
					c-2.9,32.8-10.5,64.8-16.9,96.7c-6.8,32.2-13.4,62.7-18.3,94.1c-4.7,31.4-7.9,62.9-9.3,94.4c-3,63.2,2.4,126.3,14.8,188.5
					c6.1,31.1,13.9,62.1,21.6,93.5c7.6,31.5,15.3,63.7,17.7,97.9c2.7,34-2.4,70.2-16.3,102.3c-7.2,16.3-16.7,31.6-28.2,45.2
					c-11.7,13.5-25.3,24.9-39.7,34.7c-29.2,19.3-61.8,31.2-94.8,38.6c-16.5,3.8-33.2,6-49.8,7.7c-16.7,1.5-33.4,2.1-50.1,1.9
					c-33.4-0.6-66.7-4.4-99.4-11.9c-16.4-3.9-32.6-8.7-48.6-15.1c-15.9-6.5-31.7-14.3-46.5-26.4c-1.9-1.4-3.6-3.1-5.3-4.8
					c-1.7-1.7-3.4-3.3-5.1-5.1c-3.2-3.8-6.4-7.5-9-11.9c-5.4-8.6-9.4-18.8-10.6-29.5c-1.3-10.7,0.3-21.3,3.3-30.7
					c3-9.5,7.3-17.9,12.2-25.7c9.8-15.5,22-28.1,34.6-39.8c6.3-5.8,12.9-11.2,19.7-16.3c6.9-5.2,13.4-9.9,21.2-14.8l-3.9,25
					c-14.4-17.1-26.6-35.8-36.9-55.2c-10.4-19.4-18.3-39.9-25.1-60.6c-6.8-20.7-11.7-41.8-15.9-62.9c-2.2-10.6-3.7-21.2-5.4-31.8
					c-1.3-10.6-2.8-21.3-3.8-31.9c-4.6-42.6-5.1-85.5-1.7-127.9c1.6-21.2,4.1-42.4,8.3-63.2c4.3-20.9,9.4-41.5,17.7-61.6
					c1.2-2.9,4.5-4.3,7.4-3.1c2.1,0.9,3.4,2.9,3.5,5.1L1141.9,2070.4z"/>
			</g>
			<g>
				<path class="st4" d="M1337.5,2396.7c-69.5,0-146.3-10.4-216.5-43.2c-6.3-2.9-8.9-10.4-6-16.6s10.3-9,16.6-6
					c179.9,84,416.1,10.9,418.5,10.1c6.6-2.1,13.6,1.6,15.7,8.1c2.1,6.6-1.6,13.6-8.1,15.7C1551.3,2366.9,1455,2396.7,1337.5,2396.7
					z"/>
			</g>
			<g>
				<ellipse class="st2" cx="676.1" cy="1702.9" rx="77.4" ry="77.4"/>
			</g>
			<g class="st3">
				<path class="st4" d="M598.7,1704.9c1.1,42.7,36.6,76.5,79.4,75.4c42.7-1.1,76.5-36.7,75.4-79.4c-0.3-11.8-3.2-23-8.3-32.9
					c-11.7,26.4-38,45.3-68.8,46.1c-30.9,0.8-58-16.6-71.1-42.4C600.8,1681.8,598.4,1693.1,598.7,1704.9z"/>
			</g>
			<g>
				<path class="st4" d="M676,1796.9c-24.2,0-47.1-9.1-64.7-25.8c-18.2-17.3-28.6-40.7-29.3-65.8c-1.3-51.8,39.7-95.1,91.6-96.5
					c0.8,0,1.7,0,2.5,0c50.7,0,92.7,40.6,94,91.6c0.7,25.1-8.5,49-25.8,67.2c-17.3,18.2-40.7,28.6-65.8,29.3
					C677.7,1796.9,676.9,1796.9,676,1796.9z M676.1,1642.1c-0.5,0-1.1,0-1.6,0c-33.5,0.9-60,28.8-59.2,62.3l0,0
					c0.4,16.2,7.1,31.3,18.9,42.5c11.8,11.2,27.3,16.9,43.4,16.7c16.2-0.4,31.3-7.1,42.5-18.9s17.1-27.2,16.7-43.4
					C736,1668.4,708.9,1642.1,676.1,1642.1z"/>
			</g>
			<g>
				<g class="st3">
					<path class="st4" d="M713.6,1778.3c13.2-86.9,15.7-167.5,12.1-239.2c-1.8,41.4-5.7,84.9-12.6,130.1
						c-8,53.1-10.5,108.5-5.6,162.9C708.8,1814.1,710.9,1796.1,713.6,1778.3z"/>
				</g>
				<g>
					<path class="st2" d="M788.1,1928.2l404.2,20.8c47.8,2.5,89-34.7,91.5-82.6l11-215.1c2.2-41.9-26.1-78.7-65.3-88.8
						c-5.6-1.5-11.3-2.3-17.3-2.7L808.1,1539c-47.9-2.5-89.1,34.7-91.5,82.6l-8.8,170.3l-2.3,44.7
						C703.1,1884.6,740.3,1925.7,788.1,1928.2z"/>
				</g>
				<g class="st3">
					<path class="st4" d="M788.1,1928.2l404.2,20.8c47.8,2.5,89-34.7,91.5-82.6l11-215.1c2.2-41.9-26.1-78.7-65.3-88.8
						c-23.7,14.1-38.8,23.1-38.8,23.1c-28.6,171.6-82.1,255.2-296.7,247.7c-92.6-3.3-150.3-20.4-186.2-41.3l-2.3,44.7
						C703.1,1884.6,740.3,1925.7,788.1,1928.2z"/>
				</g>
				<g>
					<path class="st4" d="M1196.8,1965.8c-1.8,0-3.6-0.1-5.4-0.1l-404.2-20.8c-27.6-1.4-53-13.6-71.7-34.2
						c-18.6-20.6-28.1-47.2-26.7-74.8l11.1-215.1c2.9-57.2,51.9-101.2,109-98.3l404.2,20.8c27.6,1.4,53,13.6,71.7,34.2
						c18.6,20.6,28.1,47.2,26.7,74.8l-11.1,215.1c-1.4,27.6-13.6,53-34.2,71.7C1246.9,1956.3,1222.4,1965.8,1196.8,1965.8z
						 M803.6,1555.6c-37.2,0-68.4,29.3-70.4,66.9l-11.1,215.1c-1,18.7,5.5,36.7,18.1,50.8c12.7,14,29.9,22.3,48.6,23.3l404.2,20.8
						c18.7,1,36.7-5.5,50.8-18.1s22.3-29.9,23.3-48.6l11.1-215.1c2-38.8-28-72-66.8-74l-404.2-20.8
						C806,1555.6,804.8,1555.6,803.6,1555.6z"/>
				</g>
				<g>
					<path class="st2" d="M772,1925.8c5.2,1.4,10.5,2.2,16.1,2.4l404.2,20.8c35.1,1.8,66.5-17.6,81.8-47.1c5.6-10.7,9-22.7,9.6-35.5
						l4.9-95.6l1.6-31.5l4.5-88c2.5-47.9-34.7-89-82.6-91.5l-87.3-4.5c39.9,9.7,68.7,46.7,66.5,89.1l-5.9,116.2l-5.1,99
						c-2.5,47.8-43.7,85-91.5,82.6L772,1925.8z"/>
				</g>
				<g class="st3">
					<path class="st4" d="M772,1925.8c5.2,1.4,10.5,2.2,16.1,2.4l404.2,20.8c47.8,2.5,89-34.7,91.4-82.6l6.6-127.1
						c-11.3,21.9-31,48.6-60.4,49.9c-16.1,0.8-31.3-11.6-44.4-28.7l-5.1,99c-2.5,47.8-43.7,85-91.5,82.6L772,1925.8z"/>
				</g>
				<g>
					<path class="st4" d="M1196.9,1965.7c-1.8,0-3.6-0.1-5.4-0.1l-404.2-20.8c-6.5-0.3-13-1.3-19.4-2.9l5-32.8l317,16.3
						c18.7,1,36.7-5.5,50.7-18.1c14-12.7,22.3-29.9,23.2-48.6l11.1-215.1c1.7-33.8-20.9-64.1-53.8-72.1l4.8-32.8l87.3,4.5
						c27.6,1.4,53.1,13.6,71.7,34.2c18.6,20.6,28.1,47.2,26.7,74.8l-11.1,215.1c-1.4,27.6-13.5,53.1-34.2,71.7
						C1246.9,1956.3,1222.5,1965.7,1196.9,1965.7z M1164.2,1930.9l29,1.5c18.8,1,36.7-5.5,50.7-18.1c14-12.7,22.3-29.9,23.2-48.7v0
						l11.1-215.1c2-38.8-27.9-72-66.8-74l-26-1.3c15.5,19.3,24.1,44.1,22.7,70.2l-11.1,215.1
						C1195.7,1887.4,1184,1912.3,1164.2,1930.9z"/>
				</g>
				<g>
					<path class="st7" d="M1026.5,1745.6c-0.4,8,7.9,72.7,7.9,72.7s20.3,0.9,45.3,2.1c31.2,1.4,58-29.7,59.8-69.6
						c1.8-39.9-22-73.3-53.2-74.8c-21.1-1-45.3-2.1-45.3-2.1S1027.1,1732.6,1026.5,1745.6z"/>
				</g>
				<g class="st3">
					<path class="st4" d="M1026.5,1745.6c-0.4,8,7.9,72.7,7.9,72.7s20.3,0.9,45.3,2.1c31.2,1.4,58-29.7,59.8-69.6
						c1.8-39.9-22-73.3-53.2-74.8c-21.1-1-45.3-2.1-45.3-2.1S1027.1,1732.6,1026.5,1745.6z"/>
				</g>
				<g>
					<path class="st4" d="M1081.8,1832.9c-0.9,0-1.8,0-2.7-0.1l-31.5-1.4c-14.1-0.6-25.7-11.3-27.4-25.3c-6.6-53.6-6.3-59-6.3-61
						l0,0c0.3-7.6,4.3-28,11.7-60.5c3.1-13.7,15.4-23.1,29.5-22.5l31.7,1.4c19,0.9,36.3,10.9,48.6,28.2
						c11.7,16.4,17.5,37.6,16.5,59.6c-1,22.1-8.8,42.6-21.9,57.9C1116.9,1824.5,1099.8,1832.9,1081.8,1832.9z M1039,1746.1
						c0,1.1,0.2,9,6.1,56.9c0.2,1.9,1.8,3.3,3.7,3.4l31.5,1.4c11.2,0.6,22.2-4.8,30.9-15c9.5-11,15.1-26.2,15.9-42.7
						c0.8-16.5-3.5-32.1-11.9-44c-7.8-10.9-18.2-17.2-29.4-17.7l-31.7-1.4c-1.9-0.2-3.6,1.2-4,3.1
						C1040.2,1733.3,1039.1,1743.8,1039,1746.1z M1039,1746.1L1039,1746.1L1039,1746.1z"/>
				</g>
				<g>
					
						<ellipse transform="matrix(4.559817e-02 -0.999 0.999 4.559817e-02 -753.7644 2703.0549)" class="st7" cx="1037.7" cy="1746" rx="72.3" ry="56.6"/>
					<path class="st4" d="M1036.5,1830.8c-0.9,0-1.8,0-2.7-0.1c-38-1.7-67.2-41.1-65.1-87.8l0,0c2.1-46.7,34.9-83.2,72.8-81.5
						c19,0.9,36.3,10.9,48.6,28.2c11.7,16.4,17.5,37.6,16.5,59.6c-1,22.1-8.8,42.6-21.9,57.9
						C1071.6,1822.4,1054.5,1830.8,1036.5,1830.8z M993.6,1744.1c-1.5,32.9,17,60.6,41.3,61.7c11.2,0.5,22.2-4.8,30.9-15
						c9.5-11,15.1-26.2,15.9-42.7c0.8-16.5-3.5-32.1-11.9-44c-7.8-10.9-18.2-17.2-29.4-17.7
						C1016.1,1685.1,995.1,1711.1,993.6,1744.1L993.6,1744.1z"/>
				</g>
				<g>
					<path class="st4" d="M913.8,1945.6c-0.1,0-0.2,0-0.3,0c-6.9-0.2-12.3-5.9-12.1-12.8l4-142.7l-67.1-47.2l9.7-201.7
						c0.3-6.9,6.2-12.3,13.1-11.9c6.9,0.3,12.2,6.2,11.9,13.1l-9,187.9l66.8,47l-4.3,156.1C926.1,1940.2,920.6,1945.6,913.8,1945.6z
						"/>
				</g>
			</g>
			<g>
				<path class="st2" d="M1645.7,1647.7c0,0,37.4,29.8,39.1,75.7c1.9,53.1-31.3,74.6-31.3,74.6s-145.4,74.4-378.6,25
					c0,0-68.7-86.8,7.8-135.7C1282.7,1687.2,1528.8,1721,1645.7,1647.7z"/>
			</g>
			<g class="st3">
				<path class="st4" d="M1684.8,1723.4c1.9,53-31.3,74.6-31.3,74.6s-145.3,74.4-378.6,25c0,0-22.6-28.6-27.4-62.2
					c1.1,1.7,1.8,2.5,1.8,2.5c170.5,36.2,294,6.1,348.1-12.7c37.6-13.1,62.7-47.2,61.8-85.3c0-0.5,0-1.1-0.1-1.6
					c0-0.9,0-1.8-0.2-2.6C1669.9,1674.2,1683.8,1695.9,1684.8,1723.4z"/>
			</g>
			<g>
				<path class="st4" d="M1432.9,1856.7c-47.6,0-101.6-4.8-161.4-17.4l-5.9-1.3l-3.7-4.7c-1.6-2-39-50-30.7-99.5
					c4.1-24.7,18.5-45.1,42.6-60.5l5.2-3.3l6.1,0.8c2.4,0.3,241.6,32.1,351.9-37.2l10-6.3l9.2,7.3c1.8,1.4,43.4,35.2,45.3,88.1
					c2.2,61.8-37.2,88.1-38.9,89.2l-1.5,0.8C1656.5,1815.2,1573.2,1856.7,1432.9,1856.7z M1284.6,1808
					c210.9,42.9,347.7-18.4,360.3-24.4c3.8-2.9,24.6-20.5,23.2-59.7c-0.9-25.3-15.5-45.3-24.9-55.6c-114,61.8-316.9,40.9-356.4,36.2
					c-13.1,9.6-20.6,21-22.9,34.7C1259.4,1766.8,1277.1,1796.7,1284.6,1808z"/>
			</g>
			<g>
				<path class="st2" d="M1520.9,1145.1c0,0,209.9,306.9,129.1,522.9c-51.3,137.1-278.3,128.6-347.1,27l-134.4-236.8L1520.9,1145.1z
					"/>
			</g>
			<g class="st3">
				<path class="st4" d="M1649.9,1668c-51.3,137.1-278.2,128.6-347.1,27l-134.4-236.8l49.9-44.3l115.3,125.1
					c46.7,101,267.4,167.7,318.7,30.6c6.6-17.7,11.2-36.2,13.9-55.2C1671.5,1567.2,1668,1619.8,1649.9,1668z"/>
			</g>
			<g>
				<path class="st4" d="M1474.2,1787.8c-77.2,0-150.3-32.1-185.1-83.5c-5.2-7.6-3.2-18,4.4-23.1s18-3.2,23.1,4.4
					c32.5,47.9,110.8,76.2,186.2,67.2c64.9-7.7,112.8-40.8,131.5-90.7c76.8-205.3-125.2-504.7-127.3-507.7
					c-5.2-7.6-3.2-17.9,4.3-23.1c7.6-5.2,17.9-3.2,23.1,4.3c8.8,12.8,213.8,316.6,130.9,538.1c-23.2,61.9-81,102.8-158.8,112.1
					C1495.9,1787.2,1485,1787.8,1474.2,1787.8z"/>
			</g>
			<g>
				<g class="st3">
					<path class="st4" d="M1564.9,1254.5c-104.4,102.5-240.4,167.8-385.1,186.2c-12.5,1.5-25.1,2.8-37.8,3.7
						c-34.8,2.4-69.9,2.1-105.1-1c-29.1-2.6-58.3-7.2-87.4-13.7c-33.7-7.6-67.2-17.9-100.3-31.1c-11-4.4-21.7-9-32.3-13.9
						c-21.6-9.9-42.5-21-62.5-32.9h0c20.7-138.1,48-295.1,81.1-468.7l621.7,33.6C1502.2,1034.2,1537.9,1147.9,1564.9,1254.5z"/>
				</g>
				<g>
					<path class="st2" d="M523.7,991.6c54,94.8,132.4,176.4,230.7,235.2c20.1,12,40.9,23,62.5,32.9c10.5,4.9,21.3,9.5,32.2,13.9
						c33.1,13.2,66.5,23.5,100.3,31.1c29,6.6,58.3,11.1,87.4,13.7c35.2,3.2,70.3,3.4,105.1,1.1c12.7-0.9,25.3-2.2,37.8-3.7
						c229.6-29.2,437.6-176.5,531.5-403.2c138.4-334-23.2-713.9-360.8-848.5c-65.1-25.9-131.9-40.9-198.5-45.6
						c-7.8-0.6-15.6-1-23.4-1.3c-20.9-0.8-41.7-0.6-62.4,0.6c-47.9,2.7-95.1,10.6-140.8,23.3C879.7,53.6,835.5,71,793.6,92.9
						c-13.3,6.9-26.4,14.3-39.3,22.2c-19.3,11.8-38,24.5-56,38.3c-90.1,68.4-163.7,160.5-209.8,271.8
						C408.8,617.3,428.5,824.5,523.7,991.6z"/>
					<path class="st4" d="M1096,1322.7c-19.9,0-39.7-0.9-59.2-2.7c-29.6-2.7-59.1-7.3-87.6-13.8c-34-7.7-67.9-18.1-100.5-31.2
						c-12-4.8-22.5-9.4-32.3-13.9c-21.2-9.8-42.3-20.9-62.7-33c-96.1-57.4-176.1-138.9-231.3-235.8
						c-99.7-174.8-112.6-381.8-35.4-568C531.5,316.8,604.2,222.6,697.2,152c17.6-13.4,36.5-26.3,56.2-38.4
						c12.6-7.7,25.9-15.2,39.4-22.2c42-21.9,86.5-39.4,132.2-52c46.1-12.8,93.6-20.6,141.1-23.3c20.7-1.2,41.8-1.4,62.6-0.6
						c8.4,0.3,16.1,0.7,23.5,1.3C1220,21.6,1287,37,1351.1,62.5c164.4,65.5,292.4,190.6,360.6,352.1c67.6,160.2,68,337.3,1.2,498.6
						c-90.7,219.1-294.9,374-532.8,404.2c-12.5,1.6-25.2,2.8-37.9,3.7C1126.8,1322.2,1111.4,1322.7,1096,1322.7z M525.2,990.8
						c55,96.4,134.5,177.5,230.1,234.6c20.2,12.1,41.2,23.1,62.4,32.9c9.8,4.5,20.3,9.1,32.2,13.9c32.5,12.9,66.1,23.4,100,31
						c28.4,6.4,57.7,11.1,87.2,13.7c34.5,3.1,69.8,3.5,104.8,1.1c12.6-0.9,25.3-2.2,37.7-3.7c236.7-30.1,439.9-184.2,530.1-402.2
						c66.5-160.5,66.1-336.6-1.2-496c-67.8-160.7-195.2-285.1-358.7-350.3c-63.8-25.4-130.4-40.7-198-45.5c-7.4-0.6-15-1-23.3-1.3
						c-20.7-0.8-41.7-0.6-62.3,0.6c-47.3,2.7-94.5,10.5-140.4,23.2c-45.5,12.5-89.7,30-131.5,51.8c-13.4,7-26.6,14.4-39.2,22.1
						c-19.6,12-38.4,24.8-55.9,38.2C606.7,224.9,534.3,318.6,490,425.8C413.2,611,426,816.9,525.2,990.8L525.2,990.8z"/>
				</g>
				<g class="st3">
					<path class="st4" d="M1711.3,912.5c-93.9,226.8-301.9,374.1-531.5,403.2c-12.5,1.6-25.1,2.8-37.8,3.7
						c-34.8,2.4-69.9,2.1-105.1-1c-29.1-2.6-58.4-7.1-87.4-13.7c-33.7-7.6-67.2-17.9-100.3-31.1c-10.9-4.5-21.7-9-32.2-13.9
						c-21.6-10-42.4-21-62.5-33c-98.4-58.7-176.7-140.4-230.8-235.2c-29.7-52-52.1-108-66.4-166.2
						c53.7,89.3,129.3,166.1,223.1,222.2c20,12,40.9,23,62.5,33c10.5,4.9,21.3,9.4,32.2,13.9c33.1,13.2,66.6,23.5,100.3,31.1
						c29.1,6.6,58.3,11.1,87.4,13.7c35.2,3.2,70.3,3.4,105.1,1c12.7-0.9,25.3-2.2,37.8-3.8c229.6-29.2,437.5-176.4,531.5-403.2
						c54.8-132.3,62.5-271.8,30.9-400.3C1770.2,502.2,1793,715.4,1711.3,912.5z"/>
				</g>
				<g>
					<path class="st4" d="M1096,1334c-20.2,0-40.3-0.9-60.2-2.7c-30.1-2.7-60.1-7.4-89.1-14c-34.6-7.8-69-18.4-102.2-31.7
						c-12.2-4.9-22.9-9.6-32.9-14.2c-21.6-9.9-43-21.2-63.7-33.6c-97.8-58.3-179.1-141.3-235.4-239.9l0,0
						c-101.4-177.8-114.5-388.4-36-577.8c45.4-109.5,119.3-205.4,213.9-277.1c17.9-13.6,37.1-26.8,57.1-39
						c12.8-7.8,26.3-15.5,40.1-22.6c42.7-22.3,87.9-40.1,134.4-52.9c46.9-13,95.2-21,143.5-23.7c21-1.2,42.4-1.4,63.7-0.6
						c8.5,0.3,16.3,0.7,24,1.3c68.9,4.9,137,20.6,202.2,46.5c167.2,66.7,297.5,193.9,366.8,358.1c68.8,163,69.2,343.2,1.2,507.3
						c-92.3,222.8-299.9,380.3-541.8,411.1c-12.7,1.6-25.7,2.9-38.5,3.8C1127.3,1333.4,1111.6,1334,1096,1334z M535,985.2
						c54,94.7,132.2,174.4,226.1,230.5c19.9,11.9,40.5,22.7,61.3,32.3c9.6,4.5,20,8.9,31.7,13.7c31.9,12.7,65,23,98.3,30.4
						c27.9,6.3,56.7,10.9,85.7,13.5c33.9,3.1,68.6,3.4,103,1c12.4-0.9,24.9-2.1,37.1-3.7c232.7-29.6,432.4-181.1,521.2-395.4
						c65.3-157.7,64.9-330.8-1.1-487.4c-66.6-157.9-191.8-280.1-352.5-344.2c-62.7-25-128.2-40-194.6-44.8c-7.3-0.6-14.8-1-22.9-1.3
						c-20.5-0.8-41.1-0.6-61.3,0.5c-46.5,2.6-92.9,10.3-138,22.8c-44.7,12.3-88.2,29.5-129.3,50.9c-13.2,6.9-26.2,14.2-38.5,21.8
						c-19.3,11.8-37.8,24.4-54.9,37.5c-91,69-162.1,161.1-205.7,266.5C424.9,612.1,437.5,814.4,535,985.2L535,985.2z"/>
				</g>
				<g>
					<path class="st4" d="M1096,1337.7c-20.3,0-40.6-0.9-60.6-2.7c-30.3-2.7-60.4-7.5-89.6-14.1c-34.8-7.8-69.4-18.5-102.8-31.8
						c-12.3-5-23-9.6-33.1-14.3c-21.7-10-43.3-21.3-64-33.7c-98.3-58.7-180.2-142.1-236.7-241.2l0,0
						C407.3,821,394.1,609.2,473,418.8c45.6-110.1,120-206.5,215.1-278.7c18-13.7,37.3-26.9,57.4-39.2c12.9-7.9,26.5-15.6,40.3-22.8
						c42.9-22.4,88.4-40.3,135.1-53.2c47.1-13.1,95.7-21.1,144.3-23.9c21.2-1.2,42.7-1.4,64-0.6c8.5,0.3,16.4,0.7,24.1,1.3
						c69.3,4.9,137.7,20.7,203.3,46.8c168.1,67,299.1,194.9,368.8,360.2c69.2,163.9,69.6,345.1,1.2,510.2
						c-92.8,224-301.5,382.4-544.8,413.4c-12.8,1.6-25.8,2.9-38.7,3.8C1127.5,1337.2,1111.7,1337.7,1096,1337.7z M538.2,983.4
						c53.7,94.1,131.4,173.4,224.8,229.1c19.8,11.8,40.3,22.6,61,32.1c9.6,4.4,19.9,8.9,31.5,13.6c31.7,12.6,64.6,22.8,97.7,30.3
						c27.8,6.3,56.4,10.8,85.2,13.4c33.7,3,68.2,3.4,102.4,1c12.3-0.9,24.7-2.1,36.9-3.6c231.4-29.4,429.9-180.1,518.2-393.1
						c65-156.8,64.6-328.8-1.1-484.5c-66.2-156.9-190.7-278.5-350.5-342.2c-62.4-24.8-127.5-39.8-193.5-44.5
						c-7.3-0.6-14.7-1-22.7-1.3c-20.4-0.8-40.9-0.6-61,0.5c-46.2,2.6-92.4,10.3-137.3,22.7c-44.5,12.3-87.7,29.3-128.6,50.6
						c-13.2,6.8-26,14.1-38.3,21.6c-19.2,11.7-37.5,24.3-54.6,37.3c-90.5,68.6-161.2,160.2-204.5,264.9
						C428.8,612.4,441.4,813.6,538.2,983.4L538.2,983.4z"/>
				</g>
				<g>
					<path class="st4" d="M617.4,1125.1c391.1,259,914.8,58,935.7-403.2c14.2-313.8-286.1-568-592.3-560.4
						C737.9,167,522.2,268.6,434.3,612.2c0,0-15.1,157.9,29.7,261.9s106.3,197.6,106.3,197.6L617.4,1125.1z"/>
				</g>
				<g>
					<path class="st8" d="M1560.5,721.9c-20.9,461.2-544.6,662.2-935.7,403.2l-9.5-10.8c427,66.3,847.7-193.9,877.6-659.9
						C1539.4,533.9,1564.9,625,1560.5,721.9z"/>
				</g>
				<g>
					<path class="st4" d="M996.1,1322.8c-15.8,0-31.7-0.5-47.7-1.6l-2.6-0.4c-34.8-7.8-69.4-18.6-102.8-31.9
						c-12.3-5-23-9.6-33.1-14.3c-21.7-10-43.3-21.3-64-33.7c-98.3-58.7-180.2-142.1-236.7-241.2l0,0
						C407.3,821,394.1,609.2,473,418.8c45.6-110.1,120-206.5,215.1-278.7l1.4-1l1.5-0.7c78.7-37.5,170.5-57.8,272.8-60.3
						c184-4.6,373.7,74.2,507.3,210.6c120.3,122.9,182.7,277.9,175.5,436.7c-7.8,172.8-76.7,322.1-199.2,431.8
						C1328.4,1263.7,1166,1322.8,996.1,1322.8z M951.9,1288.2c177.6,11.2,350.1-45.6,473.3-155.9
						c115.7-103.6,180.7-244.8,188.2-408.5c6.8-149.4-52.2-295.7-166-411.9c-127.3-130-307.8-205-482.7-200.6
						c-96.9,2.4-183.6,21.4-257.7,56.3c-89.8,68.5-160,159.7-203.1,263.8c-75,180.9-62.4,382,34.4,551.9l0,0
						c53.7,94.1,131.4,173.4,224.8,229.1c19.8,11.8,40.3,22.6,61,32.1c9.6,4.4,19.9,8.9,31.5,13.6
						C886.8,1270.6,919.2,1280.7,951.9,1288.2z"/>
				</g>
				<g>
					<path class="st4" d="M997.8,1256.2c-131.3,0-264.9-39.6-382.2-117.2l-1.8-1.2l-50-56.9c-2.5-3.9-62.8-96-107.7-200.1
						c-46-106.7-31.6-263.5-31-270.1l0.4-2.5c76.8-300.4,259.3-456.2,542.2-463.2c164.2-4.1,333.4,66.2,452.7,187.9
						c107.4,109.7,163.1,248.1,156.7,389.9c-9.3,205.5-117.8,375.7-297.7,467.2C1192.1,1234.2,1095.6,1256.2,997.8,1256.2z
						 M635.9,1112.4c194.3,127.8,435,146.1,628.6,47.7c168.9-85.8,270.8-245.9,279.5-439c6-132.4-46.3-262.1-147.2-365
						c-112.9-115.3-272.9-181.8-428.1-177.9C702.8,184.7,531.1,331.7,458.2,615c-1.3,14.8-12,158.4,28.5,252.5
						c41.3,95.8,97.8,184,104.3,194.1L635.9,1112.4z"/>
				</g>
				<g>
					<path class="st2" d="M1853.1,687.2c9.9,128.2-58.6,241.9-152.9,253.9s-178.8-82.2-188.7-210.4c-0.1-0.8-0.1-1.7-0.2-2.5
						c-8.9-127.2,59.4-239.5,153.1-251.4c72.9-9.3,139.9,44.8,171.2,129C1844.8,630.6,1850.9,658.1,1853.1,687.2z"/>
				</g>
				<g class="st3">
					<path class="st4" d="M1853.1,687.2c9.9,128.2-58.6,241.9-152.9,253.9s-178.8-82.2-188.7-210.4c-0.1-0.8-0.1-1.7-0.2-2.5
						c11.4,11.8,28.5,22.7,50.1,15.6c37.7-12.5,100.1-103.7,100.1-103.7s75.4-15.3,174.1-34.3
						C1844.8,630.6,1850.9,658.1,1853.1,687.2z"/>
				</g>
				<g>
					<path class="st4" d="M1683.8,958.8c-35,0-68.9-12.7-99.1-37.3c-51-41.5-83.7-110.6-89.8-189.5
						c-10.6-136.7,64.6-258.6,167.4-271.7c41.5-5.3,82.2,7.2,117.6,36.1c51,41.6,83.7,110.6,89.8,189.5
						c10.5,136.7-64.6,258.6-167.4,271.7C1696.1,958.4,1689.9,958.8,1683.8,958.8z M1680.7,492.5c-4.7,0-9.4,0.3-14.1,0.9
						c-85.5,10.9-147.6,116.8-138.4,236.1c5.3,68.8,34.3,131,77.7,166.3c28.2,23,60.2,33,92.4,28.8
						c85.5-10.9,147.6-116.8,138.4-236.1c-5.3-68.8-34.3-131-77.7-166.3C1734.8,502.6,1708,492.5,1680.7,492.5z"/>
				</g>
				<g>
					
						<ellipse transform="matrix(1.900037e-02 -0.9998 0.9998 1.900037e-02 982.1859 2448.8352)" class="st2" cx="1739" cy="723.9" rx="185.1" ry="139.9"/>
					<path class="st4" d="M1737.6,910.8c-14.4,0-28.8-3-42.9-8.9c-74.1-31.1-114.6-136.2-90.3-234.3c13.5-54.7,44.7-97.8,85.5-118.3
						c30.3-15.2,62.7-16.4,93.4-3.5c74.1,31.1,114.6,136.2,90.3,234.3c-13.5,54.7-44.7,97.8-85.5,118.3
						C1771.7,906.7,1754.7,910.8,1737.6,910.8z M1740.4,540.4c-16.5,0-33,4-48.9,12c-39.9,20-70.4,62.3-83.7,116
						c-23.9,96.5,15.7,199.8,88.3,230.3c29.8,12.5,61.1,11.3,90.5-3.4c39.9-20,70.4-62.3,83.7-116c23.9-96.5-15.7-199.8-88.3-230.3
						C1768.3,543.3,1754.4,540.4,1740.4,540.4z"/>
				</g>
				<g class="st3">
					<path class="st4" d="M1613.2,812.7c-11.3-33.2-13.3-69.6-7.6-104.4c32.1,73.5,104.3,98.7,167.1,55.7
						c40.6-27.8,67.9-77.7,76.7-131.5c2.1,4.6,3.9,9.5,5.6,14.5c28.6,84.5-2.3,190.2-69.1,235.9
						C1719.2,928.6,1641.8,897.1,1613.2,812.7z"/>
				</g>
				<g>
					<path class="st4" d="M1741.1,925.8c-25.8,0-51-9.5-73.5-27.7c-41.2-33.5-68.8-93.4-73.7-160.4c-8.3-113,49.8-213.7,129.4-224.5
						c30.8-4.2,61.2,5.1,87.9,26.8c41.2,33.5,68.8,93.4,73.7,160.4l0,0c8.3,113-49.8,213.7-129.4,224.5
						C1750.6,925.5,1745.8,925.8,1741.1,925.8z M1737.4,545.6c-3.2,0-6.5,0.2-9.7,0.7c-62.5,8.5-107.7,93.3-100.7,189
						c4.2,58,27.2,109.2,61.4,137c19.4,15.7,41,22.5,62.4,19.6c62.5-8.5,107.7-93.3,100.7-189l0,0c-4.2-58-27.2-109.2-61.4-137
						C1773.7,552.5,1755.7,545.6,1737.4,545.6z"/>
				</g>
				<g class="st9">
					<path class="st2" d="M1127.8,272.3c0,0-299.2,26.3-460.6,200.5c-0.2,0.2-0.3,0.4-0.5,0.5c-34,36.7-57.3,81.7-67.9,130.2
						c-14,64.1-14.2,110.3-12.7,150.9c4.5,123.6,30,180.5,30,180.5c-73.6-62.3-116.5-134.8-121.3-237.7c-0.4-10.1-0.5-20.6-0.3-31.4
						c0-2.5,0.2-4.9,0.3-7.4c-0.1,0,0-0.1,0-0.2c2.1-21.8,5.9-50.3,13-82.1c21.2-96,71.3-222,189.9-284.5
						C919.7,175,1137.6,258.9,1127.8,272.3z"/>
				</g>
				<g class="st9">
					
						<ellipse transform="matrix(0.9523 -0.3052 0.3052 0.9523 -108.1568 442.6468)" class="st2" cx="1361.7" cy="567.3" rx="88.4" ry="101.5"/>
				</g>
				<g class="st9">
					
						<ellipse transform="matrix(0.9198 -0.3923 0.3923 0.9198 -178.1119 615.2686)" class="st2" cx="1416.4" cy="743.4" rx="36.5" ry="41.9"/>
				</g>
			</g>
			<g>
				<g class="st3">
					<path d="M273.6,1823.8l0,0.8C273.7,1824.5,273.6,1824.3,273.6,1823.8z"/>
				</g>
				<g class="st3">
					<path d="M1159.9,1788.6c0,0,0,1.3-1.3,3.6C1159,1790.8,1159.4,1789.6,1159.9,1788.6z"/>
				</g>
				<g>
					<line class="st10" x1="1158.1" y1="1735.7" x2="1158.1" y2="1654.2"/>
				</g>
				<g>
					<path class="st11" d="M948.9,1594c0,0,29.8,144.2,22.6,166.8c-7.3,22.6-69.8,143.9-89.8,105.6c-20-38.3-82.9-107.5-60.5-177.3
						s27.8-100,46.5-95.1C886.3,1598.9,948.9,1594,948.9,1594z"/>
				</g>
				<g>
					<path class="st12" d="M981.3,1758.9c-6.4,0-12.1-4.5-13.4-11l-32.5-158.3c-1.5-7.4,3.3-14.7,10.7-16.2
						c7.4-1.5,14.7,3.3,16.2,10.7l32.5,158.3c1.5,7.4-3.3,14.7-10.7,16.2C983.2,1758.8,982.3,1758.9,981.3,1758.9z"/>
				</g>
				<g>
					<path class="st12" d="M809.7,1738.5c-1.4,0-2.8-0.2-4.2-0.7c-7.2-2.3-11.2-10-8.9-17.3l46.6-145.2c2.3-7.2,10-11.2,17.3-8.9
						c7.2,2.3,11.2,10,8.9,17.3L822.7,1729C820.9,1734.8,815.5,1738.5,809.7,1738.5z"/>
				</g>
				<g>
					<path class="st13" d="M1034.5,1781H192l-4-13l-2.6-8.6l-10.8-35l-56.3-181.8l-22.8-73.5l-70.8-228.7
						c-9.7-31.4,13.8-63.3,46.7-63.3h737.4c22.7,0,42.7,14.8,49.5,36.4l136.2,438.4l11.2,35.9L1034.5,1781z"/>
				</g>
				<g class="st3">
					<path class="st2" d="M994.3,1651.9c-36.4-7.8-66.7-34.5-78.3-71.1l-84-264.7c-13.3-41.9-52.3-70.5-96.3-70.5H226.5
						c-47.5,0-90.3-26.9-111.2-68.6h731.5L994.3,1651.9z"/>
				</g>
				<g>
					<path class="st13" d="M1046.1,1781v81.5H239.6c-21.8,0-40.1-14.6-45.8-34.5c-1.2-4.2-1.9-8.6-1.9-13.2V1781H1046.1z"/>
				</g>
				<g>
					<path class="st14" d="M1053.5,1781l400.4-195.8c14.5-6.9,31.3,3.3,31.7,19.3l0,0c0.2,8.3-4.2,16-11.4,20l-428.2,237.9"/>
				</g>
				<g>
					<line class="st10" x1="1458.4" y1="1583" x2="974.2" y2="1583"/>
				</g>
				<g class="st3">
					<path class="st15" d="M1046.1,1819.9v34.5H239.6c-21.8,0-40.1-14.6-45.8-34.5H1046.1z"/>
				</g>
				<g>
					<line class="st10" x1="1041.2" y1="1862.5" x2="1041.2" y2="1781"/>
				</g>
				<g>
					<polygon class="st13" points="1445.9,1589.2 1310,1693.9 1029.7,1775.5 974.2,1583 1004.1,1583.4 1331,1587.7 					"/>
				</g>
				<g class="st16">
					<polygon class="st2" points="1015.3,1741.1 1232,1628.1 998.1,1628.1 					"/>
				</g>
				<g>
					<path class="st15" d="M1057.1,1797.7H179.7L7.5,1241.6c-5.9-19.2-2.5-39.5,9.4-55.7s30.3-25.5,50.5-25.5h745.5
						c27.6,0,51.7,17.7,59.8,44.1L1057.1,1797.7z M204.3,1764.4h807.6l-170.9-550c-3.8-12.4-15.1-20.7-28-20.7H67.4
						c-9.4,0-18,4.3-23.6,11.9s-7.2,17.1-4.4,26.1L204.3,1764.4z"/>
				</g>
				<g>
					<path class="st15" d="M1046.1,1879.1H239.6c-35.5,0-64.3-28.9-64.3-64.3v-50.4h870.8c9.2,0,16.7,7.5,16.7,16.7
						c0,9.2-7.4,16.7-16.7,16.7H208.6v17.2c0,17.1,13.9,31,31,31h806.5c9.2,0,16.7,7.5,16.7,16.7
						C1062.8,1871.7,1055.3,1879.1,1046.1,1879.1z"/>
				</g>
				<g>
					<path class="st13" d="M1053.5,1781l400.4-195.8c14.5-6.9,31.3,3.3,31.7,19.3l0,0c0.2,8.3-4.2,16-11.4,20l-428.2,237.9"/>
				</g>
				<g class="st3">
					<path class="st15" d="M1485.7,1604.6v0.7c0,8-4.4,15.4-11.4,19.3l-428.2,237.9l3.7-40.9l417.3-215.3c3.7-1.9,6.6-4.7,8.8-8.1
						c1.6-2.7,2.7-5.7,3.1-8.9C1482.9,1593.1,1485.5,1598.4,1485.7,1604.6z"/>
				</g>
				<g>
					<path class="st15" d="M1046.1,1879.1c-5.8,0-11.5-3.1-14.6-8.6c-4.5-8-1.6-18.2,6.5-22.6l428.2-237.9c1.8-1,2.9-2.9,2.8-5
						c-0.1-2.6-1.7-4-2.6-4.6c-0.9-0.6-2.9-1.4-5.2-0.3L1060.9,1796c-8.3,4-18.2,0.6-22.3-7.6c-4-8.3-0.6-18.2,7.6-22.3l400.4-195.8
						c12-5.8,25.8-5.1,37.1,1.8c11.3,6.9,18.2,18.8,18.6,32.1c0.4,14.5-7.2,27.9-19.9,35l-428.2,237.9
						C1051.6,1878.5,1048.9,1879.1,1046.1,1879.1z"/>
				</g>
				<g>
					<path class="st15" d="M1458.4,1599.7H974.2c-9.2,0-16.7-7.5-16.7-16.7s7.5-16.7,16.7-16.7h484.2c9.2,0,16.7,7.5,16.7,16.7
						S1467.6,1599.7,1458.4,1599.7z"/>
				</g>
				<g>
					<path class="st15" d="M1041.2,1879.1c-9.2,0-16.7-7.5-16.7-16.7V1781c0-9.2,7.4-16.7,16.7-16.7s16.7,7.5,16.7,16.7v81.5
						C1057.9,1871.7,1050.4,1879.1,1041.2,1879.1z"/>
				</g>
			</g>
			<g>
				<path class="st2" d="M631.9,1869c0,0-82.5,96.3-214.5,90c-227.1-10.8-176.7-183.2-129.2-215c124.4-83.3,254.9,6.4,269.4,43.3
					C584.6,1855.9,631.9,1869,631.9,1869z"/>
			</g>
			<g class="st3">
				<path class="st4" d="M631.9,1869c0,0-82.5,96.2-214.5,89.9c-136.5-6.5-172.8-71.3-169.6-128.9c22.3,32.8,68.3,58.6,152,62.6
					c83.6,4,147.4-33.2,182.9-61C606.7,1862,631.9,1869,631.9,1869z"/>
			</g>
			<g>
				<path class="st4" d="M429.9,1975.9c-4.4,0-8.8-0.1-13.3-0.3c-127.3-6.1-168.8-60.2-181.1-104.6
					c-15.4-55.6,10.5-118.8,43.5-140.9c71.5-47.8,140.8-40.9,186.3-26.7c55.1,17.2,98.1,53.1,107.9,77.8
					c23.3,59.1,61.8,71.3,63.4,71.7l24.5,7.3l-16.5,19.5C641.1,1883.9,560.6,1975.9,429.9,1975.9z M398.2,1726.3
					c-30.5,0-65.3,7.8-100.7,31.5c-19.8,13.2-41.8,61.6-29.9,104.3c13.5,48.4,65.5,76.2,150.6,80.2c90.4,4.4,156.8-43.5,185.5-68.9
					c-18.6-12.1-44.1-35.8-61.5-79.9c-5-12.7-38.3-43-86.8-58.2C439.3,1730.2,419.8,1726.3,398.2,1726.3z"/>
			</g>
			<g class="st3">
				<path class="st4" d="M1331,1587.7c-42.3,129.7-304.5,123.8-326.1,1c-0.3-1.8-0.6-3.5-0.8-5.3L1331,1587.7z"/>
			</g>
			<g>
				<path class="st2" d="M1516.2,1452.8c0,0-115.9-110.8-246.9-110.7c-134.9,0-287.9,72.5-264.3,207.1
					c22.9,130.4,317.1,128.9,331.3-26.6"/>
			</g>
			<g class="st3">
				<path class="st4" d="M1336.2,1522.5c-14.2,155.5-308.4,157-331.3,26.6c-3.9-22.3-3-42.9,2-61.7
					c29.3,104.8,242.4,115.7,309.6,19.4c6.1-8.7,19.7-4.7,19.7,6V1522.5z"/>
			</g>
			<g>
				<path class="st4" d="M1162.7,1660c-76.7,0-160.9-32.8-174.1-107.9c-8.5-48.4,3.6-93.8,34.9-131.1c48.8-58,145.2-95.6,245.8-95.6
					c136.2,0,253.5,110.7,258.4,115.4c6.7,6.3,6.9,16.9,0.5,23.5c-6.3,6.7-16.9,6.9-23.5,0.5c-1.6-1.5-113-106.1-235.4-106.1
					c-91.1,0-177.6,32.8-220.3,83.7c-25.2,30-34.5,64.9-27.6,103.9c9.9,56.4,83.4,83.1,150.9,80.2c68.8-2.9,141.1-36.6,147.3-105.4
					c0.8-9.2,8.9-15.8,18.1-15.1c9.2,0.8,15.9,8.9,15.1,18.1c-8.1,88.9-95.8,132.2-179.1,135.7C1170,1659.9,1166.4,1660,1162.7,1660
					z"/>
			</g>
			<g>
				<path class="st4" d="M1439.8,2568.9c-18.5-7.6-37.9-13-57.2-16.5c-19.3-3.5-38.7-5.3-57.9-4.8c-19.2,0.5-38.2,2.4-56.7,6.4
					c-9.4,1.4-18.5,4.3-27.8,6.3c-4.7,0.9-9.1,2.7-13.7,3.9c-4.6,1.4-9.2,2.6-13.9,3.8l-1.6,0.4c-8.9,2.2-17.9-3.3-20.1-12.2
					c-1.9-7.9,2.2-15.9,9.3-19.1c4.9-2.2,9.8-4.3,14.8-6.3c5-1.9,9.9-4.2,15.2-5.4c10.4-2.8,20.8-5.9,31.6-7
					c21.3-3.7,43.2-3.1,64.5-0.7c21.3,2.4,42.2,8,61.8,15.7c19.6,7.9,38.2,17.9,54.3,31.5c1,0.9,1.1,2.4,0.3,3.4
					c-0.7,0.8-1.8,1.1-2.7,0.7L1439.8,2568.9z"/>
			</g>
			<g>
				<path class="st4" d="M1010.2,2509.9c-18.1-6.5-36.6-11.5-55.1-15c-18.5-3.6-37-5.5-55.2-5.7c-4.6,0.1-9.1-0.2-13.6,0.1
					s-9,0.7-13.5,0.9c-4.5,0.2-8.9,1.2-13.3,1.7c-2.2,0.3-4.4,0.5-6.6,0.8c-2.2,0.4-4.3,0.9-6.5,1.3c-17.6,2.6-34,8.9-51.1,14.1
					l-1.7,0.5c-8.8,2.7-18.1-2.3-20.7-11.1c-2.4-7.8,1.3-16,8.3-19.6c4.6-2.4,9.4-4.7,14.1-6.9l7.2-3.2c2.4-1,5-1.6,7.5-2.4
					c5-1.6,10.1-3.1,15.1-4.4c5.1-1,10.3-1.9,15.5-2.7c20.7-3,41.8-2.5,62,0.9c20.3,3.2,39.9,8.9,58.4,16.7
					c18.5,7.9,36,17.5,51.7,29.9c1,0.8,1.2,2.3,0.4,3.4c-0.7,0.8-1.7,1.1-2.7,0.8L1010.2,2509.9z"/>
			</g>
			<g>
				<path class="st4" d="M1386.4,1768.3c-6.6,0-12.1-5.2-12.5-11.8c-0.4-6.9,4.9-12.8,11.8-13.1c37.4-2,74.2-30.2,96-73.6
					c36.6-73.1,24-168.3-33.8-254.9c-3.8-5.7-2.3-13.5,3.4-17.3c5.7-3.8,13.5-2.3,17.3,3.4c62.8,94.1,76,198.7,35.3,279.9
					c-25.8,51.4-70.6,84.9-117,87.4C1386.9,1768.3,1386.7,1768.3,1386.4,1768.3z"/>
			</g>
			<g>
				<path class="st17" d="M581.1,1516.5c41.5-24.7,66.6-48.7,61.2-61.3c-0.2-0.4-0.3-0.7-0.5-1c-0.1-0.1-0.1-0.2-0.2-0.3
					c-0.2-0.2-0.3-0.5-0.5-0.7c-0.1-0.1-0.2-0.2-0.3-0.3c-0.2-0.2-0.4-0.4-0.6-0.7c-0.1-0.1-0.2-0.2-0.2-0.2c-0.3-0.3-0.6-0.6-1-0.8
					c0,0-0.1,0-0.1-0.1c-0.3-0.2-0.7-0.5-1-0.7c-0.1-0.1-0.3-0.1-0.4-0.2c-0.3-0.2-0.6-0.3-0.9-0.4c-0.2-0.1-0.3-0.2-0.5-0.2
					c-0.1,0-0.2-0.1-0.2-0.1c0,0,0,0,0,0c-13-5.6-42.6-2.1-79.7,8.8c-0.2-0.2-0.4-0.4-0.6-0.6c-0.1-0.1-0.2-0.2-0.2-0.2
					c-1.8-1.6-3.6-3.2-5.5-4.6c-0.2-0.1-0.4-0.3-0.6-0.4c-0.8-0.6-1.6-1.2-2.4-1.7c-0.2-0.1-0.4-0.3-0.6-0.4c-1.9-1.3-3.9-2.5-6-3.7
					c-0.3-0.2-0.6-0.3-0.8-0.5c-0.7-0.4-1.5-0.8-2.2-1.2c-0.4-0.2-0.7-0.3-1.1-0.5c-0.8-0.4-1.5-0.7-2.3-1c-0.3-0.1-0.6-0.3-0.9-0.4
					c-1-0.4-2-0.8-3-1.2c-0.5-0.2-1.1-0.4-1.7-0.6c-0.5-0.2-1-0.3-1.4-0.5c-0.7-0.2-1.3-0.4-2-0.6c-0.1,0-0.2-0.1-0.3-0.1
					c-0.3-0.1-0.6-0.2-0.9-0.2c-0.8-0.2-1.6-0.5-2.5-0.7c-0.8-0.2-1.5-0.4-2.3-0.5c-0.5-0.1-0.9-0.2-1.4-0.3
					c-0.7-0.1-1.5-0.3-2.2-0.4c-0.4-0.1-0.8-0.1-1.2-0.2c-1.1-0.2-2.2-0.3-3.3-0.4c-0.3,0-0.6,0-0.8-0.1c-0.9-0.1-1.9-0.2-2.8-0.2
					c-0.3,0-0.7,0-1-0.1c-1.2-0.1-2.4-0.1-3.6-0.1c-1.2,0-2.5,0-3.7,0.1c-0.4,0-0.8,0-1.2,0.1c-0.9,0.1-1.7,0.1-2.6,0.2
					c-0.4,0-0.9,0.1-1.3,0.1c-0.8,0.1-1.7,0.2-2.5,0.3c-0.4,0.1-0.8,0.1-1.1,0.2c-1.1,0.2-2.3,0.4-3.4,0.6c-0.1,0-0.1,0-0.2,0
					c-1.2,0.2-2.4,0.5-3.5,0.8c-0.3,0.1-0.6,0.2-0.9,0.3c-0.9,0.2-1.7,0.5-2.6,0.7c-0.4,0.1-0.7,0.2-1.1,0.3
					c-0.9,0.3-1.7,0.6-2.5,0.9c-0.3,0.1-0.6,0.2-0.9,0.3c-2.3,0.9-4.5,1.8-6.7,2.9c-0.1,0.1-0.2,0.1-0.3,0.2c-1,0.5-2,1-2.9,1.5
					c-0.2,0.1-0.3,0.2-0.5,0.3c-1,0.6-2,1.1-3,1.7c0,0-0.1,0.1-0.1,0.1c-2,1.2-3.9,2.5-5.8,3.9c-1.1,0.8-2.1,1.7-3.2,2.5
					c-0.1,0.1-0.2,0.1-0.2,0.2c-0.5,0.4-0.9,0.8-1.4,1.2c-0.6,0.6-1.3,1.1-1.9,1.7c-0.4,0.4-0.8,0.8-1.2,1.2c-0.7,0.6-1.3,1.3-2,2
					c-0.4,0.4-0.7,0.7-1,1.1c-0.7,0.8-1.5,1.6-2.2,2.5c-0.2,0.3-0.4,0.5-0.7,0.8c-1.9,2.3-3.7,4.7-5.3,7.2c-0.2,0.2-0.3,0.5-0.4,0.7
					c-0.7,1.1-1.3,2.1-1.9,3.2c-0.1,0.2-0.3,0.5-0.4,0.7c-0.7,1.2-1.3,2.5-2,3.7c0,0,0,0.1-0.1,0.1c0,0,0,0,0,0.1
					c-0.3,0.7-0.7,1.4-1,2.1c-0.2,0.3-0.3,0.7-0.5,1c-0.3,0.7-0.6,1.3-0.8,2c-0.2,0.4-0.3,0.9-0.5,1.3c-0.2,0.6-0.5,1.2-0.7,1.9
					c-0.3,0.7-0.5,1.5-0.7,2.2c-0.2,0.5-0.3,1.1-0.5,1.6c-0.3,0.9-0.5,1.8-0.8,2.7c-0.1,0.3-0.2,0.6-0.2,0.9
					c-0.2,0.9-0.5,1.9-0.7,2.8c0,0.2-0.1,0.5-0.1,0.7c-0.5,2.4-0.9,4.8-1.1,7.3c0,0.3-0.1,0.6-0.1,0.9c-0.1,1-0.2,1.9-0.2,2.9
					c0,0.3,0,0.7-0.1,1c-0.1,1.2-0.1,2.5-0.1,3.7c0,1.4,0,2.8,0.1,4.2c0,0.1,0,0.1,0,0.2c0,0.6,0.1,1.1,0.1,1.7c0,0.3,0,0.5,0.1,0.8
					c-0.2-2.3-0.3-4.5-0.3-6.8v-0.2c-27.2,16.2-47.3,32.1-56.5,44.7c0,0,0,0,0,0c0,0,0,0,0,0c-0.5,0.7-1,1.5-1.5,2.2
					c-0.1,0.2-0.2,0.4-0.3,0.6c-0.3,0.6-0.7,1.1-1,1.7c-0.1,0.2-0.2,0.3-0.3,0.5c-0.4,0.7-0.7,1.3-0.9,2c-0.1,0.1-0.1,0.3-0.1,0.4
					c-0.2,0.5-0.4,1-0.5,1.5c-0.1,0.2-0.1,0.4-0.2,0.6c-0.1,0.5-0.2,0.9-0.3,1.4c0,0.2-0.1,0.3-0.1,0.5c-0.1,0.6-0.1,1.1-0.1,1.7
					c0,0.2,0,0.3,0,0.5c0,0.4,0.1,0.8,0.1,1.2c0,0.2,0.1,0.3,0.1,0.5c0.1,0.5,0.3,1,0.5,1.5c5.4,12.6,39.9,10.6,86.2-3
					c0.1,0.1,0.1,0.1,0.2,0.2c0.4,0.4,0.8,0.7,1.2,1.1c0.5,0.4,1,0.9,1.5,1.3c0.5,0.4,0.9,0.8,1.4,1.1c0.4,0.4,0.9,0.7,1.4,1.1
					c0.5,0.4,1.1,0.8,1.6,1.2c0.1,0.1,0.2,0.2,0.4,0.3c0.3,0.2,0.7,0.5,1,0.7c0.4,0.3,0.9,0.6,1.3,0.9c0.9,0.6,1.8,1.2,2.7,1.7
					c0.4,0.2,0.7,0.4,1.1,0.7c0.6,0.4,1.3,0.7,1.9,1.1c0.4,0.2,0.8,0.5,1.3,0.7c0.6,0.3,1.3,0.7,1.9,1c0.4,0.2,0.8,0.4,1.2,0.6
					c0.8,0.4,1.5,0.7,2.3,1c0.3,0.1,0.6,0.3,0.9,0.4c1,0.4,2.1,0.9,3.2,1.3c0.3,0.1,0.7,0.2,1,0.4c0.8,0.3,1.6,0.6,2.4,0.8
					c0.4,0.1,0.8,0.3,1.2,0.4c0.8,0.2,1.5,0.4,2.3,0.7c0.4,0.1,0.8,0.2,1.2,0.3c1,0.2,1.9,0.5,2.9,0.7c0.2,0,0.4,0.1,0.5,0.1
					c1.2,0.2,2.3,0.4,3.5,0.6c0.4,0.1,0.7,0.1,1.1,0.2c0.8,0.1,1.7,0.2,2.6,0.3c0.4,0,0.8,0.1,1.3,0.1c0.8,0.1,1.7,0.1,2.6,0.2
					c0.3,0,0.5,0,0.8,0.1c0.1,0,0.2,0,0.4,0c1.2,0.1,2.5,0.1,3.7,0.1c1.4,0,2.8,0,4.2-0.1c0.5,0,0.9-0.1,1.4-0.1
					c0.9-0.1,1.8-0.1,2.7-0.2c0.5-0.1,1.1-0.1,1.6-0.2c0.8-0.1,1.6-0.2,2.4-0.3c0.6-0.1,1.2-0.2,1.7-0.3c0.8-0.1,1.5-0.3,2.3-0.4
					c0.6-0.1,1.2-0.3,1.8-0.4c0.7-0.2,1.4-0.3,2.1-0.5c0.6-0.2,1.2-0.3,1.8-0.5c0.7-0.2,1.3-0.4,2-0.6c0.6-0.2,1.2-0.4,1.8-0.6
					c0.6-0.2,1.3-0.4,1.9-0.7c0.6-0.2,1.2-0.5,1.9-0.7c0.6-0.2,1.2-0.5,1.8-0.7c0.6-0.3,1.3-0.6,1.9-0.9c0.5-0.3,1.1-0.5,1.6-0.8
					c0.7-0.3,1.3-0.7,2-1c0.5-0.3,1-0.5,1.4-0.8c0.7-0.4,1.4-0.8,2-1.2c0.4-0.2,0.8-0.5,1.2-0.8c0.7-0.4,1.4-0.9,2.1-1.4
					c0.3-0.2,0.7-0.5,1-0.7c0.8-0.5,1.5-1.1,2.3-1.6c0.2-0.2,0.4-0.3,0.7-0.5c0.8-0.6,1.6-1.3,2.4-1.9c0.1-0.1,0.2-0.1,0.3-0.2
					c2.8-2.3,5.4-4.8,7.8-7.5c1.7-1.9,3.3-3.9,4.9-6c0.1-0.1,0.2-0.2,0.2-0.3c0.6-0.9,1.2-1.7,1.8-2.6c0.1-0.2,0.2-0.3,0.3-0.5
					c0.6-0.9,1.2-1.9,1.8-2.8c0.1-0.1,0.1-0.2,0.2-0.3c1.3-2.1,2.4-4.3,3.5-6.5c0.1-0.3,0.3-0.6,0.4-0.9c0.3-0.5,0.5-1.1,0.8-1.6
					c0.1-0.2,0.2-0.4,0.3-0.6c0.2-0.5,0.4-1,0.6-1.5c0.3-0.7,0.5-1.3,0.8-2c0.2-0.5,0.4-1,0.5-1.5c0.2-0.7,0.5-1.4,0.7-2.1
					c0.2-0.5,0.3-1,0.4-1.4c0.2-0.7,0.4-1.5,0.6-2.3c0.1-0.5,0.2-0.9,0.4-1.4c0.2-0.8,0.4-1.7,0.6-2.5c0.1-0.4,0.2-0.8,0.3-1.2
					c0.2-0.9,0.3-1.9,0.5-2.8c0.1-0.3,0.1-0.6,0.2-0.9c0.2-1.2,0.3-2.3,0.4-3.5c0-0.1,0-0.2,0-0.3c0.1-1.2,0.2-2.5,0.3-3.8v0
					c0,0,0,0,0,0C581.1,1519.1,581.1,1517.8,581.1,1516.5C581.1,1516.5,581.1,1516.5,581.1,1516.5z M608.8,1466.6
					c3.3,7.7-8.2,20.8-29,35.4c0,0,0,0,0,0c0-0.1,0-0.2-0.1-0.3c-0.1-0.6-0.2-1.3-0.4-1.9c-0.1-0.6-0.3-1.2-0.4-1.7
					c-0.2-0.7-0.3-1.3-0.5-2c-0.1-0.6-0.3-1.1-0.5-1.7c-0.2-0.6-0.4-1.3-0.6-1.9c-0.4-1.2-0.7-2.3-1.2-3.4c-0.2-0.5-0.4-1-0.6-1.4
					c-0.3-0.7-0.5-1.4-0.8-2.1c-0.2-0.5-0.5-1-0.7-1.5c-0.3-0.6-0.5-1.2-0.8-1.8c-0.3-0.6-0.5-1.1-0.8-1.6c-0.3-0.5-0.5-1.1-0.8-1.6
					c-0.3-0.6-0.7-1.2-1-1.8c-0.2-0.3-0.3-0.6-0.5-1c-0.1-0.2-0.2-0.3-0.3-0.4c-0.3-0.5-0.6-0.9-0.8-1.4c-0.4-0.7-0.8-1.3-1.2-2
					c-0.2-0.3-0.4-0.6-0.6-0.8c-0.6-0.9-1.2-1.7-1.8-2.5c-0.1-0.1-0.1-0.2-0.2-0.3c-0.8-1.1-1.7-2.2-2.5-3.2c-0.4-0.5-0.8-1-1.3-1.5
					c0,0.1,0.1,0.1,0.2,0.2C587.4,1458.4,605.5,1458.8,608.8,1466.6z M424.1,1524.5C424.1,1524.5,424.1,1524.5,424.1,1524.5
					c0.1,0.6,0.2,1.2,0.2,1.8c0.1,0.8,0.2,1.6,0.3,2.3c0.1,0.5,0.2,1,0.3,1.6c0.1,0.8,0.3,1.6,0.5,2.5c0.1,0.4,0.2,0.8,0.3,1.1
					c0.2,1,0.4,2,0.7,2.9c0,0,0,0.1,0,0.1v0c0.2,0.7,0.4,1.4,0.6,2.1c0.1,0.3,0.2,0.6,0.3,1c0.4,1.2,0.7,2.3,1.2,3.5
					c0.1,0.2,0.2,0.5,0.3,0.7c0.3,0.9,0.7,1.8,1,2.7c0.1,0.4,0.3,0.7,0.4,1c0.3,0.8,0.7,1.5,1,2.3c0.2,0.4,0.4,0.8,0.6,1.2
					c0.3,0.7,0.7,1.4,1,2c0.2,0.4,0.4,0.8,0.7,1.2c0.3,0.6,0.7,1.3,1.1,1.9c0.2,0.4,0.5,0.8,0.7,1.3c0.4,0.7,0.8,1.3,1.2,1.9
					c0.6,1,1.3,2,2,3c0.1,0.1,0.2,0.3,0.3,0.4c0,0,0,0,0,0c-23.4,4.7-39.6,4-42.8-3.4c-3.2-7.6,7.9-20.5,28.2-34.8
					C424.2,1524.7,424.1,1524.6,424.1,1524.5z"/>
				<g>
					<g>
						<ellipse class="st18" cx="502.4" cy="1505.2" rx="78.7" ry="79.4"/>
						<ellipse class="st18" cx="502.4" cy="1505.2" rx="78.7" ry="79.4"/>
						<path class="st18" d="M581.1,1505.2c0,1.4,0,2.9-0.1,4.3v0c-0.5,9.8-2.8,19.2-6.6,27.8c-3.5,8-8.2,15.2-13.9,21.5
							c-14.4,15.8-35.1,25.8-58.1,25.8c-17.2,0-33.1-5.6-46.1-15c-7.5-5.5-14-12.3-19.2-20.1c-4.8-7.2-8.4-15.1-10.7-23.7v0
							c-1.4-5.2-2.3-10.6-2.6-16.2c-0.1-1.5-0.1-2.9-0.1-4.4c0-8.3,1.2-16.2,3.6-23.7c1.2-4,2.8-7.8,4.6-11.5
							c5.6-11.4,13.8-21.2,23.9-28.7c13.1-9.7,29.2-15.4,46.7-15.4c7.6,0,15.1,1.1,22.1,3.2c15.2,4.4,28.5,13.4,38.4,25.4
							c2.8,3.3,5.3,6.9,7.5,10.7c4.8,8.2,8.1,17.3,9.7,27C580.7,1496.3,581.1,1500.7,581.1,1505.2z"/>
						<ellipse class="st19" cx="502.4" cy="1493.8" rx="67.1" ry="63.6"/>
						<ellipse class="st19" cx="502.4" cy="1488.6" rx="55.7" ry="52.8"/>
						<path class="st20" d="M581,1505.3c0,43.8-35.2,79.2-78.6,79.2c-43.4,0-78.6-35.5-78.6-79.2c0-5.8,0.6-11.6,1.8-17
							c-0.2,2-0.2,4-0.2,6.1c0,42.9,34.5,77.6,77,77.6s77-34.8,77-77.6c0-2.1-0.1-4.1-0.2-6.1C580.3,1493.8,581,1499.5,581,1505.3z"
							/>
						<g>
							<path class="st21" d="M567.2,1525.5c0,1.9-1.6,3.5-3.5,3.5c-1.9,0-3.5-1.6-3.5-3.5s1.6-3.5,3.5-3.5
								C565.7,1522,567.2,1523.6,567.2,1525.5z"/>
							<path class="st21" d="M477.3,1528.8c0,1.9-1.6,3.5-3.5,3.5c-1.9,0-3.5-1.6-3.5-3.5c0-1.9,1.6-3.5,3.5-3.5
								C475.7,1525.3,477.3,1526.9,477.3,1528.8z"/>
							<ellipse class="st21" cx="528.3" cy="1564.6" rx="3.5" ry="3.5"/>
							<path class="st21" d="M442.2,1490.2c0,1.9-1.6,3.5-3.5,3.5c-1.9,0-3.5-1.6-3.5-3.5s1.6-3.5,3.5-3.5
								C440.7,1486.7,442.2,1488.2,442.2,1490.2z"/>
							<path class="st21" d="M474.4,1448.4c0,1.9-1.6,3.5-3.5,3.5c-1.9,0-3.5-1.6-3.5-3.5s1.6-3.5,3.5-3.5
								C472.9,1444.9,474.4,1446.4,474.4,1448.4z"/>
							<path class="st21" d="M443.9,1498.3c0,1.4-1.1,2.6-2.6,2.6c-1.4,0-2.6-1.2-2.6-2.6s1.1-2.6,2.6-2.6
								C442.7,1495.7,443.9,1496.9,443.9,1498.3z"/>
							<path class="st21" d="M507.1,1495.4c0,1.4-1.1,2.6-2.6,2.6c-1.4,0-2.6-1.2-2.6-2.6c0-1.4,1.1-2.6,2.6-2.6
								C506,1492.8,507.1,1493.9,507.1,1495.4z"/>
							<ellipse class="st21" cx="492.7" cy="1574.6" rx="2.6" ry="2.6"/>
							<path class="st21" d="M533.4,1445.8c0,1.4-1.1,2.6-2.6,2.6c-1.4,0-2.6-1.2-2.6-2.6c0-1.4,1.1-2.6,2.6-2.6
								C532.2,1443.2,533.4,1444.3,533.4,1445.8z"/>
							<path class="st21" d="M474.4,1440.9c0,1.4-1.1,2.6-2.6,2.6c-1.4,0-2.6-1.2-2.6-2.6c0-1.4,1.1-2.6,2.6-2.6
								C473.3,1438.4,474.4,1439.5,474.4,1440.9z"/>
							<path class="st21" d="M572.6,1521.9c0,1.2-0.9,2.1-2.1,2.1c-1.2,0-2.1-1-2.1-2.1c0-1.2,1-2.1,2.1-2.1
								C571.6,1519.8,572.6,1520.8,572.6,1521.9z"/>
							<path class="st21" d="M535.5,1537.4c0,1.2-0.9,2.1-2.1,2.1c-1.2,0-2.1-1-2.1-2.1c0-1.2,0.9-2.1,2.1-2.1
								C534.6,1535.3,535.5,1536.2,535.5,1537.4z"/>
							<path class="st21" d="M488.2,1573.4c0,1.2-0.9,2.1-2.1,2.1c-1.2,0-2.1-1-2.1-2.1s0.9-2.1,2.1-2.1
								C487.3,1571.2,488.2,1572.2,488.2,1573.4z"/>
							<path class="st21" d="M436.7,1497.8c0,1.2-0.9,2.1-2.1,2.1c-1.2,0-2.1-1-2.1-2.1c0-1.2,0.9-2.1,2.1-2.1
								C435.8,1495.7,436.7,1496.7,436.7,1497.8z"/>
							<path class="st21" d="M503.6,1500.8c0,1.2-0.9,2.1-2.1,2.1c-1.2,0-2.1-1-2.1-2.1c0-1.2,0.9-2.1,2.1-2.1
								C502.6,1498.6,503.6,1499.6,503.6,1500.8z"/>
							<path class="st21" d="M465.2,1448.4c0,1.2-0.9,2.1-2.1,2.1c-1.2,0-2.1-1-2.1-2.1s0.9-2.1,2.1-2.1
								C464.2,1446.2,465.2,1447.2,465.2,1448.4z"/>
							<path class="st21" d="M539.8,1446.8c0,1.2-0.9,2.1-2.1,2.1c-1.2,0-2.1-1-2.1-2.1s0.9-2.1,2.1-2.1
								C538.8,1444.7,539.8,1445.6,539.8,1446.8z"/>
							<path class="st21" d="M481.6,1478c0,1.2-0.9,2.1-2.1,2.1c-1.2,0-2.1-1-2.1-2.1c0-1.2,1-2.1,2.1-2.1
								C480.6,1475.9,481.6,1476.8,481.6,1478z"/>
							<path class="st21" d="M544.6,1488.4c0,1.2-0.9,2.1-2.1,2.1c-1.2,0-2.1-1-2.1-2.1c0-1.2,0.9-2.1,2.1-2.1
								C543.7,1486.2,544.6,1487.2,544.6,1488.4z"/>
							<path class="st21" d="M440.9,1528.8c0,1.2-0.9,2.1-2.1,2.1c-1.2,0-2.1-1-2.1-2.1c0-1.2,0.9-2.1,2.1-2.1
								C439.9,1526.7,440.9,1527.6,440.9,1528.8z"/>
							<path class="st21" d="M525.7,1571.2c0,1.2-0.9,2.1-2.1,2.1s-2.1-1-2.1-2.1c0-1.2,0.9-2.1,2.1-2.1S525.7,1570,525.7,1571.2z"
								/>
							<path class="st21" d="M483.7,1531.7c0,1.2-0.9,2.1-2.1,2.1c-1.2,0-2.1-1-2.1-2.1c0-1.2,0.9-2.1,2.1-2.1
								C482.7,1529.6,483.7,1530.5,483.7,1531.7z"/>
						</g>
						<g class="st22">
							<path class="st18" d="M460.2,1447.9c1.6,1.9,0.6,5.5-2.3,8c-2.9,2.5-6.6,3-8.2,1c-1.6-1.9-0.6-5.5,2.3-8
								C454.9,1446.4,458.5,1446,460.2,1447.9z"/>
							<path class="st18" d="M448.5,1459.2c1,1.2,0.4,3.4-1.4,4.9c-1.8,1.5-4,1.8-5,0.6c-1-1.2-0.4-3.4,1.4-4.9
								C445.3,1458.3,447.5,1458.1,448.5,1459.2z"/>
						</g>
					</g>
					<g>
						<path class="st18" d="M642.3,1444.1c-5.4-12.6-39.9-10.6-86.2,3c2,1.8,3.9,3.8,5.7,5.9c25.7-5.7,43.7-5.3,47.1,2.5
							c3.3,7.7-8.2,20.8-29,35.4c-17,11.9-40.2,24.7-66.6,36.3c-27.6,12-53.8,20.5-74.4,24.7c-23.4,4.7-39.6,4-42.8-3.4
							c-3.2-7.6,7.9-20.5,28.2-34.8c-0.3-2.8-0.5-5.6-0.5-8.5v-0.2c-41.5,24.7-66.6,48.7-61.2,61.3c5.4,12.6,39.9,10.6,86.2-3
							c20.8-6.1,43.9-14.5,67.9-24.9c23.9-10.5,45.9-21.7,64.5-32.8C622.5,1480.7,647.7,1456.7,642.3,1444.1z"/>
						<path class="st18" d="M581.1,1505.4c-18.6,11.1-40.5,22.4-64.5,32.8c-23.9,10.4-47.1,18.9-67.9,24.9
							c-46.3,13.6-80.8,15.6-86.2,3c-1.9-4.3-0.1-10,4.7-16.6c-1.4,3.5-1.7,6.6-0.6,9.2c5.2,12.2,38.6,10.2,83.4-2.9
							c20.1-5.9,42.5-14,65.6-24.1c23.2-10.1,44.4-21,62.4-31.8c40.1-23.9,64.4-47.1,59.2-59.3c-0.4-0.9-0.9-1.7-1.5-2.4
							c3.2,1.4,5.4,3.3,6.5,5.8C647.7,1456.7,622.5,1480.7,581.1,1505.4z"/>
						<path class="st19" d="M564.8,1448.4c0,0,25.9-6.2,42.3-0.2c6,2.2,8.7,9.1,6,14.9c-2.3,4.8-5.8,10.6-10.8,15
							c0,0,25.2-17.7,29.4-31c1-3.2-1.1-6.6-4.4-7.1C618.6,1438.5,597.7,1437.2,564.8,1448.4z"/>
						<path class="st19" d="M420,1510.5c0,0-21.9,15.3-28.5,31.5c-2.4,5.9,0.8,12.6,7,14.4c5,1.5,11.7,2.8,18.3,2
							c0,0-29.9,7.1-42.5,1.3c-3.1-1.4-4.1-5.2-2.3-8.1C376.8,1544.2,389.8,1527.7,420,1510.5z"/>
					</g>
				</g>
			</g>
		</g>
	</g>
</g>
</svg>
