<?xml version="1.0" encoding="utf-8"?>
<!-- Generator: Adobe Illustrator 25.0.0, SVG Export Plug-In . SVG Version: 6.00 Build 0)  -->
<svg version="1.1" id="Layer_1" xmlns="http://www.w3.org/2000/svg" xmlns:xlink="http://www.w3.org/1999/xlink" x="0px" y="0px"
	 viewBox="0 0 2714.27 3055.12" style="enable-background:new 0 0 2714.27 3055.12;" xml:space="preserve">
<style type="text/css">
	.st0{opacity:0.85;}
	.st1{fill:#F7931D;}
	.st2{opacity:0.5;}
	.st3{fill:#FFFFFF;}
	.st4{opacity:0.3;}
	.st5{fill:#6B184E;}
	.st6{fill:#FFD553;}
	.st7{clip-path:url(#SVGID_2_);}
	.st8{fill:#EC1C24;}
	.st9{fill:#EC1D24;}
	.st10{fill:#EC1E24;}
	.st11{fill:#EC1F24;}
	.st12{fill:#EC2024;}
	.st13{fill:#ED2124;}
	.st14{fill:#ED2224;}
	.st15{fill:#ED2324;}
	.st16{fill:#ED2424;}
	.st17{fill:#ED2524;}
	.st18{fill:#ED2624;}
	.st19{fill:#ED2724;}
	.st20{fill:#ED2824;}
	.st21{fill:#ED2924;}
	.st22{fill:#ED2A24;}
	.st23{fill:#EE2A24;}
	.st24{fill:#EE2B24;}
	.st25{fill:#EE2C24;}
	.st26{fill:#EE2D24;}
	.st27{fill:#EE2E24;}
	.st28{fill:#EE2F24;}
	.st29{fill:#EE3024;}
	.st30{fill:#EE3124;}
	.st31{fill:#EE3224;}
	.st32{fill:#EE3225;}
	.st33{fill:#EF3325;}
	.st34{fill:#EF3425;}
	.st35{fill:#FA9F27;}
	.st36{fill:#FAA027;}
	.st37{fill:#FBA227;}
	.st38{fill:#FBA327;}
	.st39{fill:#FBA527;}
	.st40{fill:#FBA627;}
	.st41{fill:#FBA827;}
	.st42{fill:#FBAA27;}
	.st43{fill:#FCAB27;}
	.st44{fill:#FCAD27;}
	.st45{fill:#FCAE27;}
	.st46{fill:#FCB027;}
	.st47{fill:#FCB127;}
	.st48{fill:#FCB327;}
	.st49{fill:#FDB528;}
	.st50{fill:#FDB628;}
	.st51{fill:#FDB828;}
	.st52{fill:#FDB928;}
	.st53{fill:#FDBB28;}
	.st54{fill:#FEBD28;}
	.st55{fill:#FEBE28;}
	.st56{fill:#FEC028;}
	.st57{fill:#FEC228;}
	.st58{fill:#FEC328;}
	.st59{fill:#FEC528;}
	.st60{fill:#FFC728;}
	.st61{fill:#FFC828;}
	.st62{fill:#FFCA28;}
	.st63{fill:#102770;}
	.st64{fill:#20A7D1;}
	.st65{opacity:0.35;}
	.st66{fill:#6BD6F0;}
	.st67{opacity:0.4;}
	.st68{fill:#293856;}
	.st69{fill:none;stroke:#102770;stroke-width:31.3704;stroke-linecap:round;stroke-linejoin:round;stroke-miterlimit:10;}
</style>
<g>
	<g class="st0">
		<g>
			<g>
				<ellipse class="st1" cx="1398.3" cy="2986.91" rx="1125.86" ry="68.21"/>
			</g>
		</g>
	</g>
	<g>
		<g>
			<g class="st2">
				<g>
					<g>
						<g>
							<path class="st3" d="M2093.31,1981.45c-19.74-171.73-140-230.29-110.42-383.62c37.01-191.89,249.84-192.03,249.84-192.03
								s18.01,7.24,42.12,22.61c-39.09-32.6-76.31-47.55-76.31-47.55s-212.83,0.15-249.84,192.03
								c-37.01,191.89,160.65,235.33,102.28,537.93C2061.06,2058.58,2075.74,2016.44,2093.31,1981.45z"/>
						</g>
					</g>
				</g>
			</g>
			<g class="st4">
				<g>
					<g>
						<path class="st5" d="M2305.82,1458.26c15.6,35.99,22.65,79.48,12.69,131.14c-30.61,158.71-181.38,161.74-265.64,329.24
							c11.1,51.11,13.45,112.69-1.88,192.17c58.37-302.6,271.04-266.89,308.05-458.78
							C2375.71,1565.62,2344.81,1502.05,2305.82,1458.26z"/>
					</g>
				</g>
			</g>
			<g>
				<g>
					<g>
						<path class="st6" d="M2054.77,2097.35c49.9-258.72,263.6-302.49,295.24-466.55s-159.98-236.25-159.98-236.25
							s-204.73-4.26-236.37,159.8C1922.01,1718.41,2104.67,1838.63,2054.77,2097.35z"/>
					</g>
				</g>
			</g>
			<g>
				<g>
					<defs>
						<path id="SVGID_1_" d="M2050.99,2110.81c58.37-302.59,271.04-266.89,308.05-458.78c37.01-191.89-160.49-271.18-160.49-271.18
							s-212.83,0.15-249.84,192.04S2109.36,1808.22,2050.99,2110.81z"/>
					</defs>
					<clipPath id="SVGID_2_">
						<use xlink:href="#SVGID_1_"  style="overflow:visible;"/>
					</clipPath>
					<g class="st7">
						<g>
							<polygon class="st8" points="1911.7,2095.25 2050.99,2110.81 1911.7,2110.81 							"/>
						</g>
					</g>
					<g class="st7">
						<g>
							<polygon class="st8" points="1911.7,2090.96 2089.38,2110.81 2050.99,2110.81 1911.7,2095.25 							"/>
						</g>
					</g>
					<g class="st7">
						<g>
							<polygon class="st8" points="1911.7,2086.67 2127.77,2110.81 2089.38,2110.81 1911.7,2090.96 							"/>
						</g>
					</g>
					<g class="st7">
						<g>
							<polygon class="st8" points="1911.7,2082.38 2166.17,2110.81 2127.77,2110.81 1911.7,2086.67 							"/>
						</g>
					</g>
					<g class="st7">
						<g>
							<polygon class="st8" points="1911.7,2078.09 2204.56,2110.81 2166.17,2110.81 1911.7,2082.38 							"/>
						</g>
					</g>
					<g class="st7">
						<g>
							<polygon class="st8" points="1911.7,2073.8 2242.95,2110.81 2204.56,2110.81 1911.7,2078.09 							"/>
						</g>
					</g>
					<g class="st7">
						<g>
							<polygon class="st8" points="1911.7,2069.51 2281.34,2110.81 2242.95,2110.81 1911.7,2073.8 							"/>
						</g>
					</g>
					<g class="st7">
						<g>
							<polygon class="st9" points="1911.7,2065.22 2319.73,2110.81 2281.34,2110.81 1911.7,2069.51 							"/>
						</g>
					</g>
					<g class="st7">
						<g>
							<polygon class="st9" points="1911.7,2060.93 2333.72,2108.08 2333.41,2110.81 2319.73,2110.81 1911.7,2065.22 							"/>
						</g>
					</g>
					<g class="st7">
						<g>
							<polygon class="st9" points="1911.7,2056.64 2334.19,2103.85 2333.72,2108.08 1911.7,2060.93 							"/>
						</g>
					</g>
					<g class="st7">
						<g>
							<polygon class="st9" points="1911.7,2052.35 2334.66,2099.61 2334.19,2103.85 1911.7,2056.64 							"/>
						</g>
					</g>
					<g class="st7">
						<g>
							<polygon class="st9" points="1911.7,2048.06 2335.14,2095.37 2334.66,2099.61 1911.7,2052.35 							"/>
						</g>
					</g>
					<g class="st7">
						<g>
							<polygon class="st10" points="1911.7,2043.77 2335.61,2091.14 2335.14,2095.37 1911.7,2048.06 							"/>
						</g>
					</g>
					<g class="st7">
						<g>
							<polygon class="st10" points="1911.7,2039.48 2336.08,2086.9 2335.61,2091.14 1911.7,2043.77 							"/>
						</g>
					</g>
					<g class="st7">
						<g>
							<polygon class="st10" points="1911.7,2035.19 2336.56,2082.66 2336.08,2086.9 1911.7,2039.48 							"/>
						</g>
					</g>
					<g class="st7">
						<g>
							<polygon class="st11" points="1911.7,2030.9 2337.03,2078.43 2336.56,2082.66 1911.7,2035.19 							"/>
						</g>
					</g>
					<g class="st7">
						<g>
							<polygon class="st11" points="1911.7,2026.61 2337.5,2074.19 2337.03,2078.43 1911.7,2030.9 							"/>
						</g>
					</g>
					<g class="st7">
						<g>
							<polygon class="st11" points="1911.7,2022.32 2337.98,2069.95 2337.5,2074.19 1911.7,2026.61 							"/>
						</g>
					</g>
					<g class="st7">
						<g>
							<polygon class="st12" points="1911.7,2018.03 2338.45,2065.71 2337.98,2069.95 1911.7,2022.32 							"/>
						</g>
					</g>
					<g class="st7">
						<g>
							<polygon class="st12" points="1911.7,2013.74 2338.93,2061.48 2338.45,2065.71 1911.7,2018.03 							"/>
						</g>
					</g>
					<g class="st7">
						<g>
							<polygon class="st12" points="1911.7,2009.45 2339.4,2057.24 2338.93,2061.48 1911.7,2013.74 							"/>
						</g>
					</g>
					<g class="st7">
						<g>
							<polygon class="st13" points="1911.7,2005.16 2339.87,2053 2339.4,2057.24 1911.7,2009.45 							"/>
						</g>
					</g>
					<g class="st7">
						<g>
							<polygon class="st13" points="1911.7,2000.87 2340.35,2048.77 2339.87,2053 1911.7,2005.16 							"/>
						</g>
					</g>
					<g class="st7">
						<g>
							<polygon class="st13" points="1911.7,1996.58 2340.82,2044.53 2340.35,2048.77 1911.7,2000.87 							"/>
						</g>
					</g>
					<g class="st7">
						<g>
							<polygon class="st14" points="1911.7,1992.29 2341.29,2040.29 2340.82,2044.53 1911.7,1996.58 							"/>
						</g>
					</g>
					<g class="st7">
						<g>
							<polygon class="st14" points="1911.7,1988 2341.77,2036.05 2341.29,2040.29 1911.7,1992.29 							"/>
						</g>
					</g>
					<g class="st7">
						<g>
							<polygon class="st15" points="1911.7,1983.71 2342.24,2031.82 2341.77,2036.05 1911.7,1988 							"/>
						</g>
					</g>
					<g class="st7">
						<g>
							<polygon class="st15" points="1911.7,1979.42 2342.71,2027.58 2342.24,2031.82 1911.7,1983.71 							"/>
						</g>
					</g>
					<g class="st7">
						<g>
							<polygon class="st16" points="1911.7,1975.13 2343.19,2023.34 2342.71,2027.58 1911.7,1979.42 							"/>
						</g>
					</g>
					<g class="st7">
						<g>
							<polygon class="st16" points="1911.7,1970.84 2343.66,2019.11 2343.19,2023.34 1911.7,1975.13 							"/>
						</g>
					</g>
					<g class="st7">
						<g>
							<polygon class="st17" points="1911.7,1966.55 2344.13,2014.87 2343.66,2019.11 1911.7,1970.84 							"/>
						</g>
					</g>
					<g class="st7">
						<g>
							<polygon class="st17" points="1911.7,1962.26 2344.61,2010.63 2344.13,2014.87 1911.7,1966.55 							"/>
						</g>
					</g>
					<g class="st7">
						<g>
							<polygon class="st18" points="1911.7,1957.97 2345.08,2006.4 2344.61,2010.63 1911.7,1962.26 							"/>
						</g>
					</g>
					<g class="st7">
						<g>
							<polygon class="st18" points="1911.7,1953.68 2345.55,2002.16 2345.08,2006.4 1911.7,1957.97 							"/>
						</g>
					</g>
					<g class="st7">
						<g>
							<polygon class="st19" points="1911.7,1949.39 2346.03,1997.92 2345.55,2002.16 1911.7,1953.68 							"/>
						</g>
					</g>
					<g class="st7">
						<g>
							<polygon class="st19" points="1911.7,1945.1 2346.5,1993.68 2346.03,1997.92 1911.7,1949.39 							"/>
						</g>
					</g>
					<g class="st7">
						<g>
							<polygon class="st20" points="1911.7,1940.81 2346.97,1989.45 2346.5,1993.68 1911.7,1945.1 							"/>
						</g>
					</g>
					<g class="st7">
						<g>
							<polygon class="st20" points="1911.7,1936.52 2347.45,1985.21 2346.97,1989.45 1911.7,1940.81 							"/>
						</g>
					</g>
					<g class="st7">
						<g>
							<polygon class="st21" points="1911.7,1932.23 2347.92,1980.97 2347.45,1985.21 1911.7,1936.52 							"/>
						</g>
					</g>
					<g class="st7">
						<g>
							<polygon class="st22" points="1911.7,1927.94 2348.39,1976.74 2347.92,1980.97 1911.7,1932.23 							"/>
						</g>
					</g>
					<g class="st7">
						<g>
							<polygon class="st23" points="1911.7,1923.65 2348.87,1972.5 2348.39,1976.74 1911.7,1927.94 							"/>
						</g>
					</g>
					<g class="st7">
						<g>
							<polygon class="st24" points="1911.7,1919.36 2349.34,1968.26 2348.87,1972.5 1911.7,1923.65 							"/>
						</g>
					</g>
					<g class="st7">
						<g>
							<polygon class="st24" points="1911.7,1915.07 2349.81,1964.02 2349.34,1968.26 1911.7,1919.36 							"/>
						</g>
					</g>
					<g class="st7">
						<g>
							<polygon class="st25" points="1911.7,1910.78 2350.29,1959.79 2349.81,1964.02 1911.7,1915.07 							"/>
						</g>
					</g>
					<g class="st7">
						<g>
							<polygon class="st26" points="1911.7,1906.49 2350.76,1955.55 2350.29,1959.79 1911.7,1910.78 							"/>
						</g>
					</g>
					<g class="st7">
						<g>
							<polygon class="st26" points="1911.7,1902.2 2351.23,1951.31 2350.76,1955.55 1911.7,1906.49 							"/>
						</g>
					</g>
					<g class="st7">
						<g>
							<polygon class="st27" points="1911.7,1897.91 2351.71,1947.08 2351.23,1951.31 1911.7,1902.2 							"/>
						</g>
					</g>
					<g class="st7">
						<g>
							<polygon class="st28" points="1911.7,1893.62 2352.18,1942.84 2351.71,1947.08 1911.7,1897.91 							"/>
						</g>
					</g>
					<g class="st7">
						<g>
							<polygon class="st28" points="1911.7,1889.33 2352.66,1938.6 2352.18,1942.84 1911.7,1893.62 							"/>
						</g>
					</g>
					<g class="st7">
						<g>
							<polygon class="st29" points="1911.7,1885.04 2353.13,1934.37 2352.66,1938.6 1911.7,1889.33 							"/>
						</g>
					</g>
					<g class="st7">
						<g>
							<polygon class="st30" points="1911.7,1880.75 2353.6,1930.13 2353.13,1934.37 1911.7,1885.04 							"/>
						</g>
					</g>
					<g class="st7">
						<g>
							<polygon class="st31" points="1911.7,1876.46 2354.08,1925.89 2353.6,1930.13 1911.7,1880.75 							"/>
						</g>
					</g>
					<g class="st7">
						<g>
							<polygon class="st32" points="1911.7,1872.17 2354.55,1921.65 2354.08,1925.89 1911.7,1876.46 							"/>
						</g>
					</g>
					<g class="st7">
						<g>
							<polygon class="st33" points="1911.7,1867.88 2355.02,1917.42 2354.55,1921.65 1911.7,1872.17 							"/>
						</g>
					</g>
					<g class="st7">
						<g>
							<polygon class="st34" points="1911.7,1863.59 2355.5,1913.18 2355.02,1917.42 1911.7,1867.88 							"/>
						</g>
					</g>
					<g class="st7">
						<g>
							<polygon class="st35" points="1934.41,1471.45 1934.88,1467.21 2396.06,1518.75 2396.06,1523.04 							"/>
						</g>
					</g>
					<g class="st7">
						<g>
							<polygon class="st36" points="1934.88,1467.21 1935.36,1462.98 2396.06,1514.46 2396.06,1518.75 							"/>
						</g>
					</g>
					<g class="st7">
						<g>
							<polygon class="st37" points="1935.36,1462.98 1935.83,1458.74 2396.06,1510.17 2396.06,1514.46 							"/>
						</g>
					</g>
					<g class="st7">
						<g>
							<polygon class="st38" points="1935.83,1458.74 1936.3,1454.5 2396.06,1505.88 2396.06,1510.17 							"/>
						</g>
					</g>
					<g class="st7">
						<g>
							<polygon class="st39" points="1936.3,1454.5 1936.78,1450.27 2396.06,1501.59 2396.06,1505.88 							"/>
						</g>
					</g>
					<g class="st7">
						<g>
							<polygon class="st40" points="1936.78,1450.27 1937.25,1446.03 2396.06,1497.3 2396.06,1501.59 							"/>
						</g>
					</g>
					<g class="st7">
						<g>
							<polygon class="st41" points="1937.25,1446.03 1937.72,1441.79 2396.06,1493.01 2396.06,1497.3 							"/>
						</g>
					</g>
					<g class="st7">
						<g>
							<polygon class="st42" points="1937.72,1441.79 1938.2,1437.56 2396.06,1488.72 2396.06,1493.01 							"/>
						</g>
					</g>
					<g class="st7">
						<g>
							<polygon class="st43" points="1938.2,1437.56 1938.67,1433.32 2396.06,1484.43 2396.06,1488.72 							"/>
						</g>
					</g>
					<g class="st7">
						<g>
							<polygon class="st44" points="1938.67,1433.32 1939.14,1429.08 2396.06,1480.14 2396.06,1484.43 							"/>
						</g>
					</g>
					<g class="st7">
						<g>
							<polygon class="st45" points="1939.14,1429.08 1939.62,1424.84 2396.06,1475.85 2396.06,1480.14 							"/>
						</g>
					</g>
					<g class="st7">
						<g>
							<polygon class="st46" points="1939.62,1424.84 1940.09,1420.61 2396.06,1471.56 2396.06,1475.85 							"/>
						</g>
					</g>
					<g class="st7">
						<g>
							<polygon class="st47" points="1940.09,1420.61 1940.57,1416.37 2396.06,1467.27 2396.06,1471.56 							"/>
						</g>
					</g>
					<g class="st7">
						<g>
							<polygon class="st48" points="1940.57,1416.37 1941.04,1412.13 2396.06,1462.98 2396.06,1467.27 							"/>
						</g>
					</g>
					<g class="st7">
						<g>
							<polygon class="st49" points="1941.04,1412.13 1941.51,1407.9 2396.06,1458.69 2396.06,1462.98 							"/>
						</g>
					</g>
					<g class="st7">
						<g>
							<polygon class="st50" points="1941.51,1407.9 1941.99,1403.66 2396.06,1454.4 2396.06,1458.69 							"/>
						</g>
					</g>
					<g class="st7">
						<g>
							<polygon class="st51" points="1941.99,1403.66 1942.46,1399.42 2396.06,1450.11 2396.06,1454.4 							"/>
						</g>
					</g>
					<g class="st7">
						<g>
							<polygon class="st52" points="1942.46,1399.42 1942.93,1395.18 2396.06,1445.82 2396.06,1450.11 							"/>
						</g>
					</g>
					<g class="st7">
						<g>
							<polygon class="st53" points="1942.93,1395.18 1943.41,1390.95 2396.06,1441.53 2396.06,1445.82 							"/>
						</g>
					</g>
					<g class="st7">
						<g>
							<polygon class="st54" points="1943.41,1390.95 1943.88,1386.71 2396.06,1437.24 2396.06,1441.53 							"/>
						</g>
					</g>
					<g class="st7">
						<g>
							<polygon class="st55" points="1943.88,1386.71 1944.35,1382.47 2396.06,1432.95 2396.06,1437.24 							"/>
						</g>
					</g>
					<g class="st7">
						<g>
							<polygon class="st56" points="1944.35,1382.47 1944.53,1380.85 1968.2,1380.85 2396.06,1428.66 2396.06,1432.95 							"/>
						</g>
					</g>
					<g class="st7">
						<g>
							<polygon class="st57" points="2006.59,1380.85 2396.06,1424.37 2396.06,1428.66 1968.2,1380.85 							"/>
						</g>
					</g>
					<g class="st7">
						<g>
							<polygon class="st58" points="2044.98,1380.85 2396.06,1420.08 2396.06,1424.37 2006.59,1380.85 							"/>
						</g>
					</g>
					<g class="st7">
						<g>
							<polygon class="st59" points="2083.37,1380.85 2396.06,1415.79 2396.06,1420.08 2044.98,1380.85 							"/>
						</g>
					</g>
					<g class="st7">
						<g>
							<polygon class="st60" points="2121.77,1380.85 2396.06,1411.5 2396.06,1415.79 2083.37,1380.85 							"/>
						</g>
					</g>
					<g class="st7">
						<g>
							<polygon class="st61" points="2160.16,1380.85 2396.06,1407.21 2396.06,1411.5 2121.77,1380.85 							"/>
						</g>
					</g>
					<g class="st7">
						<g>
							<polygon class="st62" points="2198.55,1380.85 2396.06,1402.92 2396.06,1407.21 2160.16,1380.85 							"/>
						</g>
					</g>
					<g class="st7">
						<g>
							<polygon class="st62" points="2396.06,1402.92 2198.55,1380.85 2396.06,1380.85 							"/>
						</g>
					</g>
				</g>
			</g>
			<g>
				<g>
					<g>
						<path class="st63" d="M2049.97,2135.32c-0.96,0-1.93-0.09-2.91-0.28c-7.29-1.41-12.36-7.8-12.36-14.96
							c0-0.96,0.09-1.93,0.28-2.91c31.5-163.3-13.87-252.03-53.9-330.31c-33.3-65.13-64.75-126.64-47.35-216.87
							c38.95-201.91,262.55-204.4,264.81-204.4c0.01,0,0.01,0,0.01,0c1.95,0,3.88,0.37,5.68,1.1
							c2.09,0.84,208.73,86.32,169.78,288.23c-17.45,90.45-71.99,135.43-129.74,183.04c-69.32,57.15-147.89,121.93-179.35,284.99
							C2063.52,2130.25,2057.14,2135.32,2049.97,2135.32z M2195.54,1396.16c-26.11,0.8-199.61,12.47-231.86,179.61
							c-15.41,79.91,12.38,134.26,44.56,197.2c29.9,58.47,62.61,122.46,67.36,216.34c40.64-85.32,97.4-132.12,149.27-174.88
							c55.71-45.93,103.83-85.6,119.2-165.28C2376.02,1483.48,2218.21,1406.31,2195.54,1396.16z"/>
					</g>
				</g>
			</g>
		</g>
		<g>
			<g>
				<g>
					<path class="st3" d="M597.9,1673.34c0,0-334.71-58.07-354.28-327.08c-9.3-127.85,116.58-127.85,156.14-98.85
						c68.61,50.31,125.88,251.53,261.15,212.35l248.19,15.39l-190.33,299.99L597.9,1673.34z"/>
				</g>
			</g>
			<g>
				<g>
					<path class="st63" d="M718.76,1777.65c-0.59,0-1.16-0.21-1.61-0.59L596.8,1675.68c-8.17-1.52-88.47-17.29-169.92-62.82
						c-79.12-44.22-175.56-126.35-185.75-266.42c-4.53-62.31,22.7-90.98,46.34-104.06c37.38-20.68,89.01-15.14,113.77,3.02
						c22.26,16.32,43.39,48.33,65.75,82.21c48.23,73.08,102.91,155.93,193.23,129.75c0.28-0.08,0.56-0.11,0.85-0.09l248.19,15.39
						c0.88,0.05,1.67,0.57,2.07,1.36c0.4,0.79,0.36,1.73-0.11,2.48l-190.33,299.99c-0.39,0.61-1.02,1.02-1.73,1.13
						C719.02,1777.64,718.89,1777.65,718.76,1777.65z M342.23,1234.31c-17.94,0-36.63,3.76-52.34,12.45
						c-22.37,12.38-48.12,39.66-43.78,99.33c10.03,137.8,105.1,218.72,183.09,262.35c84.77,47.42,168.3,62.3,169.13,62.45
						c0.44,0.08,0.84,0.27,1.18,0.55l118.67,99.96l186.53-294l-243.53-15.1c-12.15,3.48-23.66,5.09-34.6,5.09
						c-73.35,0.01-121.03-72.26-163.77-137.01c-22.11-33.5-42.99-65.14-64.53-80.93C385.53,1240.09,364.46,1234.31,342.23,1234.31z"
						/>
				</g>
			</g>
		</g>
		<g class="st4">
			<g>
				<g>
					<path class="st63" d="M909.09,1475.15l-190.34,299.98l-120.85-101.8c0,0-334.72-58.07-354.29-327.08
						c-1.22-16.78-0.12-31.33,2.86-43.92c77.92,270.53,396.95,255.32,396.95,255.32l66,115.68l128.54-202.57L909.09,1475.15z"/>
				</g>
			</g>
		</g>
		<g>
			<g>
				<g>
					<path class="st63" d="M597.92,1689.03c-0.89,0-1.79-0.08-2.7-0.23c-3.53-0.61-87.32-15.54-174.78-64.42
						c-117.51-65.69-184.07-161.46-192.47-276.97c-5.3-72.91,31-104.32,53.11-116.56c43.16-23.88,100.02-16.56,127.95,3.92
						c24.17,17.72,45.92,50.68,68.96,85.58c47.96,72.67,97.57,147.81,178.55,124.35c8.3-2.41,17.02,2.38,19.43,10.7
						c2.41,8.32-2.38,17.02-10.7,19.43c-13.61,3.94-26.5,5.75-38.72,5.75c-80.4,0.01-132.09-78.33-174.75-142.96
						c-21.44-32.49-41.69-63.17-61.32-77.56c-17.5-12.83-61.8-19.71-94.21-1.77c-27.64,15.29-40.09,44.51-37.01,86.83
						c18.47,253.85,338.1,312.2,341.32,312.76c8.54,1.48,14.26,9.6,12.77,18.13C612.03,1683.65,605.41,1689.03,597.92,1689.03z"/>
				</g>
			</g>
		</g>
		<g>
			<g>
				<g>
					<path class="st64" d="M2381.14,1342.1l-24.86,55.44c-11.25,25.08-35.36,41.96-62.77,43.95h0
						c-81.64,5.92-163.34-10.61-236.26-47.8l0,0c-24.49-12.49-40.14-37.41-40.75-64.9l-1.35-60.74"/>
				</g>
			</g>
		</g>
		<g class="st2">
			<g>
				<g>
					<g>
						<path class="st3" d="M2097.26,1393.68L2097.26,1393.68c-24.49-12.49-40.14-37.41-40.75-64.9l-1.22-54.65l-30.14-6.1
							l1.35,60.74c0.61,27.48,16.26,52.41,40.75,64.9l0,0c67.69,34.53,142.95,51.21,218.7,48.7
							C2220.44,1440.17,2156,1423.65,2097.26,1393.68z"/>
					</g>
				</g>
			</g>
		</g>
		<g class="st65">
			<g>
				<g>
					<path class="st63" d="M2015.16,1268.05l0.43,19.31l270.56,54.74l-24.86,55.44c-9.63,21.48-28.7,36.9-51.19,42.15
						c27.58,3.16,55.5,3.82,83.42,1.79l0,0c27.41-1.99,51.52-18.87,62.77-43.95l24.86-55.44L2015.16,1268.05z"/>
				</g>
			</g>
		</g>
		<g>
			<g>
				<g>
					<path class="st8" d="M1950.37,1006.97c-95.94-10.01-273.1,54.11-276.76,404.14c-0.05,4.59,5.61,6.87,8.74,3.52
						c34.14-36.48,193.2-209.07,317.18-179.07"/>
				</g>
			</g>
		</g>
		<g class="st2">
			<g>
				<g>
					<g>
						<path class="st3" d="M1706.22,1374.43c-15.36,15.32-27.09,27.96-33.86,35.19c-3.15,3.37-8.78,1.09-8.74-3.51
							c3.65-350.04,180.82-414.15,276.76-404.14l5.32,24.76C1853.44,1034.41,1724.87,1109.82,1706.22,1374.43z"/>
					</g>
				</g>
			</g>
		</g>
		<g>
			<g>
				<g>
					<path class="st63" d="M1678.74,1431.92c-2.61,0-5.24-0.49-7.78-1.51c-8-3.21-13.12-10.85-13.03-19.47
						c1.76-168.98,42.77-290.43,121.88-360.98c69.38-61.86,143.54-61.59,172.18-58.6c8.62,0.9,14.87,8.61,13.97,17.23
						s-8.67,14.89-17.23,13.97c-24.52-2.56-88.01-2.73-148.05,50.81c-67.04,59.77-105.1,166.78-110.72,310.48
						c155.09-159.57,255.63-177.5,313.26-163.56c8.42,2.04,13.59,10.52,11.56,18.94c-2.04,8.43-10.56,13.6-18.93,11.56
						c-42.29-10.24-137.55-1.39-300.42,172.8l-1.63,1.74C1689.8,1429.63,1684.34,1431.92,1678.74,1431.92z"/>
				</g>
			</g>
		</g>
		<g>
			<g>
				<g>
					<path class="st63" d="M2639.88,1613.19c-0.04,0-0.09,0-0.14,0c-3.14-0.06-5.86-1.99-6.94-4.92
						c-29.57-80.26-110.81-268.96-226.28-287.82c-1.36-0.22-2.29-1.51-2.06-2.87c0.22-1.37,1.53-2.29,2.87-2.07
						c118.07,19.28,200.29,209.95,230.16,291.03c0.56,1.5,1.94,1.65,2.35,1.65c0.29,0.01,1.81-0.08,2.42-1.58
						c60.38-147.37,69.69-272.85,26.94-362.88c-37.92-79.85-102.5-106.87-128.51-114.78c-1.32-0.4-2.07-1.8-1.67-3.12
						c0.4-1.32,1.78-2.06,3.12-1.67c26.65,8.11,92.8,35.77,131.57,117.42c43.37,91.34,34.1,218.22-26.83,366.92
						C2645.71,1611.37,2642.97,1613.19,2639.88,1613.19z"/>
				</g>
			</g>
		</g>
		<g>
			<g>
				<g>
					<path class="st8" d="M2644.58,1607.56c-1.77,4.24-7.84,4.13-9.44-0.18c-8.86-24-35.49-93.95-76.3-159.24
						c-38.53-61.71-89.78-119.25-150.59-129.91c-0.43-0.09-0.91-0.15-1.34-0.24l0.81-1.16l133.67-190.27
						c25.9,7.88,55.85,23.71,82.58,49.61C2692.53,1242.41,2740.02,1374.53,2644.58,1607.56z"/>
				</g>
			</g>
		</g>
		<g>
			<g class="st4">
				<g>
					<g>
						<path class="st63" d="M2607.23,1196.52c-22.07-17.39-45.23-28.69-65.84-34.96l-113.7,161.84
							c52.32,18.12,96.8,69.72,131.15,124.74c44.47-81.48,63.97-152.59,67.18-213.41c-0.04-0.68-0.07-1.35-0.11-2.02
							C2625.11,1218.56,2618.36,1205.3,2607.23,1196.52z"/>
					</g>
				</g>
			</g>
		</g>
		<g>
			<g>
				<g>
					<path class="st63" d="M2639.89,1626.38c-0.13,0-0.26,0-0.39,0c-8.62-0.16-16.1-5.48-19.08-13.55
						c-22.45-60.92-104.36-261.12-216.04-279.36c-8.55-1.4-14.35-9.46-12.95-18.01c1.39-8.55,9.41-14.36,18.01-12.95
						c113.4,18.52,193.75,181.6,230.55,273.79c49.92-132.82,55.96-245.45,17.28-326.91c-36.66-77.21-101.45-102.05-120.43-107.83
						c-8.29-2.52-12.96-11.28-10.44-19.57c2.52-8.28,11.25-12.96,19.57-10.44c28.32,8.62,98.61,37.98,139.64,124.38
						c45.65,96.14,36.72,223.17-26.54,377.58C2655.86,1621.36,2648.35,1626.38,2639.89,1626.38z"/>
				</g>
			</g>
		</g>
		<g>
			<g>
				<g>
					<path class="st3" d="M2381.14,1342.1c0,0,221.45-174.49,277.28-598.58C2723.98,245.64,2460.4,8.95,2460.4,8.95
						s-334.86,115.61-468.02,599.8c-113.42,412.44,22.78,659.29,22.78,659.29l0,0C2124.38,1335.68,2254.22,1361.95,2381.14,1342.1
						L2381.14,1342.1z"/>
				</g>
			</g>
			<g>
				<g>
					<path class="st63" d="M2298.17,1351.05c-99.89,0-198.51-27.73-284.33-80.87c-0.36-0.23-0.66-0.54-0.87-0.92
						c-1.37-2.48-135.4-252.47-23-661.17c68.95-250.71,192.87-400.86,284.69-482.68c99.58-88.73,184.08-118.54,184.92-118.83
						c0.85-0.3,1.81-0.11,2.49,0.5c0.66,0.6,66.93,60.9,124.18,181.37c52.79,111.07,108.6,297.59,74.66,555.38
						c-55.33,420.24-275.99,598.47-278.21,600.22c-0.34,0.27-0.74,0.44-1.16,0.51C2353.81,1348.9,2325.94,1351.05,2298.17,1351.05z
						 M2017.05,1266.27c108.34,66.9,237.24,92.98,363.05,73.45c11.76-9.66,222.08-188.13,275.85-596.54
						c33.76-256.44-21.66-441.9-74.09-552.33c-52.8-111.19-113.23-170.69-122.04-179.03c-11.36,4.26-90.17,35.59-182.04,117.51
						c-91.24,81.36-214.4,230.69-282.98,480.09C1885.56,1006.61,2009.97,1252.8,2017.05,1266.27z M2381.15,1342.09h0.05H2381.15z"/>
				</g>
			</g>
		</g>
		<g class="st4">
			<g>
				<g>
					<path class="st63" d="M2623.71,289.52c4.7,26.2,8.46,53.78,11.12,82.63l-59.03-64.59l-30-60l-2.5,7.5
						c0,0,13.62,43.91,26.47,114.71l-61.47-9.71l-285-60l-95,25c0,0,244.38,16.49,383.13,82.01
						c44.49,21.01,73.94,64.85,77.42,113.93c11.53,162.73-3.23,373.12-112.54,550.93c-2.3,3.68-4.59,7.3-6.87,10.84
						c-0.14,0.22-0.28,0.44-0.42,0.66c-2.81,4.34-5.59,8.54-8.36,12.67c-2.18,3.22-4.33,6.45-6.57,9.65
						c-3.77,5.45-7.5,10.73-11.17,15.78c-54.53,74.98-145.41,115.46-237.48,104.58c-0.49-0.06-0.97-0.12-1.46-0.17
						c-76.92-9.3-151.54-35.21-218.43-76.61c0,0-11.5-20.87-25.06-60.57c19.76,116.01,54.66,179.29,54.66,179.29
						c66.88,41.4,141.5,67.31,218.43,76.61c48.74,5.89,98.39,5.15,147.58-2.55c0,0,221.46-174.5,277.28-598.61
						C2683.2,555.27,2660.98,404.38,2623.71,289.52z M2634.97,373.67c1.13,12.4,2.04,25.05,2.73,37.94L2634.97,373.67z"/>
				</g>
			</g>
		</g>
		<g>
			<g>
				<g>
					<path class="st8" d="M2654.53,415.37c-167.43-72.8-348.41-109.42-531.01-107.44C2273.54,73.46,2460.4,8.96,2460.4,8.96
						S2607.46,141.02,2654.53,415.37z"/>
				</g>
			</g>
		</g>
		<g class="st2">
			<g>
				<g>
					<g>
						<path class="st3" d="M2484.47,34.29c-14.72-16.93-24.07-25.34-24.07-25.34s-186.87,64.5-336.88,298.97
							c13.82-0.15,27.62,0,41.42,0.29C2305.89,102.59,2471.33,39.09,2484.47,34.29z"/>
					</g>
				</g>
			</g>
		</g>
		<g class="st4">
			<g>
				<g>
					<path class="st63" d="M2654.54,415.38c-167.44-72.82-348.41-109.45-531.02-107.44c2.73-4.29,5.5-8.54,8.29-12.7
						c131.08-14.38,228.15-21.19,339.62,0.22c46.01,8.84,84.92-34.81,70.12-79.25c-27.88-83.72-63.44-153.44-95.54-201.44
						c9.25-4.02,14.41-5.8,14.41-5.8S2607.46,141.02,2654.54,415.38z"/>
				</g>
			</g>
		</g>
		<g>
			<g>
				<g>
					<path class="st63" d="M2654.53,431.05c-2.12,0-4.25-0.43-6.25-1.3c-166.49-72.4-342.91-108.13-524.58-106.14
						c-0.06,0-0.12,0-0.17,0c-5.7,0-10.95-3.09-13.72-8.08c-2.8-5.04-2.6-11.2,0.5-16.06c119.72-187.11,263.18-268.3,319.3-294.52
						c20.87-9.75,45.27-4.82,60.71,12.29c41.51,45.98,142.1,176.55,179.66,395.47c0.98,5.68-1.25,11.44-5.78,14.99
						C2661.4,429.91,2657.98,431.05,2654.53,431.05z M2152.72,292.25c165.92,1.83,327.46,34.52,481.01,97.32
						C2594.2,195.9,2504.9,80.2,2467.04,38.26c-6.14-6.8-15.85-8.76-24.15-4.89C2391.71,57.29,2264.43,129.17,2152.72,292.25z"/>
				</g>
			</g>
		</g>
		<g>
			<g>
				<g>
					<path class="st63" d="M2297.98,1364.28c-36.7,0-73.34-3.67-109.61-11.01c-64.5-13.05-125.56-37.23-181.48-71.87
						c-2.29-1.42-4.17-3.4-5.47-5.76c-5.68-10.31-137.96-257.21-24.15-671.02c31.12-113.18,75.89-215.84,133.04-305.14
						c2.85-4.45,7.75-7.17,13.04-7.23c185.92-2.07,366.73,34.54,537.26,108.66c4.88,2.05,8.5,6.47,9.41,11.81
						c17.94,104.49,19.28,216.49,3.96,332.86c-56.01,425.51-273.9,601.56-283.15,608.85c-2.11,1.67-4.62,2.76-7.28,3.17
						C2355.1,1362.05,2326.52,1364.28,2297.98,1364.28z M2381.13,1342.11h0.05H2381.13z M2381.13,1342.11h0.05H2381.13z
						 M2027.11,1256.99c51.74,31.46,108.06,53.5,167.49,65.52c59.41,12.02,119.88,13.62,179.82,4.75
						c26.39-22.84,217.76-200.55,268.47-585.78c14.5-110.14,13.7-216.09-2.38-315.09c-161.6-69.04-332.58-103.67-508.31-102.85
						c-53.29,84.96-95.22,182.27-124.68,289.38C1904.48,987.57,2011.68,1225.69,2027.11,1256.99z M2371.42,1329.79L2371.42,1329.79
						L2371.42,1329.79z"/>
				</g>
			</g>
		</g>
		<g>
			<g>
				<g>
					<path class="st63" d="M2261.05,1458.34c-73.17,0-145.46-17.3-210.92-50.69c-29.67-15.13-48.56-45.22-49.3-78.52l-1.35-60.74
						c-0.19-8.66,6.67-15.84,15.33-16.03c0.12,0,0.24,0,0.36,0c8.5,0,15.49,6.79,15.68,15.34l1.35,60.74
						c0.48,21.74,12.82,41.39,32.19,51.27c70.37,35.89,149.23,51.84,227.99,46.13c21.69-1.57,40.69-14.88,49.59-34.72l24.86-55.44
						c3.54-7.9,12.82-11.44,20.73-7.89c7.9,3.54,11.44,12.82,7.89,20.73l-24.86,55.44c-13.62,30.39-42.72,50.77-75.95,53.18
						C2283.45,1457.94,2272.23,1458.34,2261.05,1458.34z"/>
				</g>
			</g>
		</g>
		<g>
			<g>
				<g>
					<path class="st8" d="M2297.36,1294.18c-23.84,117.68-140.45,214.71-140.45,214.71s-0.27-0.52-0.71-1.46
						c-7.4-14.84-67.56-140.42-45.25-250.94c21.43-106.06,115.37-175.75,132.66-187.79c1.78-1.23,2.75-1.86,2.75-1.86
						S2321.06,1177.3,2297.36,1294.18z"/>
				</g>
			</g>
		</g>
		<g class="st2">
			<g>
				<g>
					<g>
						<path class="st3" d="M2135.95,1266.49c18.59-91.97,91.67-156.57,122.04-179.97c-6.8-12.54-11.62-19.69-11.62-19.69
							s-0.96,0.63-2.75,1.86c-17.3,12.04-111.23,81.73-132.67,187.8c-22.31,110.52,37.85,236.09,45.25,250.94
							c0.44,0.94,0.72,1.46,0.72,1.46s5.54-4.61,14.44-13.03C2152.84,1452.41,2118.15,1354.69,2135.95,1266.49z"/>
					</g>
				</g>
			</g>
		</g>
		<g>
			<g class="st4">
				<g>
					<g>
						<path class="st63" d="M2238.07,1096.53l-79.09,396.96l6.33-31.77c36.24-38.8,87.18-104.15,102.05-177.54
							C2282.35,1210.28,2258,1139,2238.07,1096.53z"/>
					</g>
				</g>
			</g>
		</g>
		<g>
			<g>
				<g>
					<path class="st63" d="M2156.91,1524.58c-1.03,0-2.07-0.1-3.11-0.31c-4.66-0.94-8.64-3.95-10.82-8.16
						c-2.95-5.7-71.98-141.04-47.39-262.73c24.64-121.97,137.42-196.55,142.21-199.67c7.18-4.67,16.76-2.72,21.55,4.36
						c3.2,4.73,78.11,117.29,53.39,239.24c-24.65,121.68-140.86,219.54-145.79,223.65
						C2164.1,1523.32,2160.54,1524.58,2156.91,1524.58z M2241.74,1089.66c-29.19,22.76-98.11,84.35-115.4,169.92
						c-17.33,85.79,18.49,183.17,35.83,223.31c31.58-30.24,102.44-106.04,119.82-191.82
						C2299.33,1205.52,2259.79,1121.99,2241.74,1089.66z"/>
				</g>
			</g>
		</g>
		<g>
			<g>
				<g>
					<path class="st3" d="M2062.93,1203.82c-1.31-16.99-19.7-27.03-34.66-18.86c-52.7,28.8-141.31,116.35-225.71,355.35
						c-151.79,429.83-535.96,342.9-535.96,342.9l-42.07,132.23c0,0,498.53,60.3,649.57-466.47
						c64.45-224.76,147.13-302.88,178.43-323.78C2059.61,1220.46,2063.59,1212.31,2062.93,1203.82L2062.93,1203.82z"/>
				</g>
			</g>
			<g>
				<g>
					<path class="st63" d="M1270.3,2019.94c-28.51,0-45.62-1.97-46.07-2.02c-0.74-0.09-1.4-0.51-1.81-1.13
						c-0.4-0.63-0.5-1.4-0.28-2.11l42.08-132.23c0.39-1.24,1.65-1.97,2.93-1.68c0.95,0.21,96.91,21.23,210.04-10.29
						c104.3-29.07,245-110.09,323.01-331c88.62-250.94,180.18-331.2,226.87-356.72c7.74-4.23,17.01-4.25,24.79-0.03
						c7.8,4.23,12.87,12.04,13.55,20.89l0,0c0.72,9.36-3.68,18.41-11.5,23.63c-24.65,16.47-110.32,88.39-177.42,322.4
						c-78.32,273.13-251.5,385.92-383,432.44C1403.22,2014.04,1319.67,2019.94,1270.3,2019.94z M1227.84,2013.26
						c19.88,1.84,135.05,9.79,264.19-35.94c130.32-46.15,301.97-158.05,379.67-429.04c67.56-235.64,154.43-308.47,179.45-325.18
						c6.31-4.22,9.87-11.53,9.29-19.09l0,0c-0.56-7.15-4.65-13.46-10.96-16.88c-6.27-3.4-13.75-3.39-20.01,0.03
						c-46.06,25.17-136.48,104.63-224.55,353.99c-78.77,223.05-221.08,304.86-326.59,334.21
						c-104.65,29.11-194.79,13.72-210.03,10.75L1227.84,2013.26z"/>
				</g>
			</g>
		</g>
		<g class="st65">
			<g>
				<g>
					<path class="st63" d="M2052.53,1225.17c-31.28,20.92-113.99,99.02-178.42,323.82c-151.03,526.74-649.58,466.44-649.58,466.44
						l20.88-65.58c78.88,5.09,476.91,57.05,622.96-470.67c47.82-172.79,136.08-248.36,180.43-282.13
						c14.36-5.53,12.91-9.13,14.14,6.79C2063.58,1212.3,2059.62,1220.46,2052.53,1225.17z"/>
				</g>
			</g>
		</g>
		<g>
			<g>
				<g>
					<path class="st63" d="M1271.57,2033.3c-29.08,0-47-2.06-48.92-2.29c-4.64-0.56-8.78-3.16-11.31-7.09
						c-2.53-3.93-3.17-8.78-1.75-13.23l42.08-132.23c2.47-7.76,10.47-12.34,18.41-10.54c0.92,0.21,94.61,20.54,204.68-10.44
						c146.75-41.3,252.08-149.77,313.03-322.38c90.08-255.08,184.63-337.48,232.98-363.9c11.69-6.39,25.67-6.41,37.4-0.05
						c11.75,6.37,19.39,18.14,20.42,31.47v0c1.08,14.1-5.55,27.75-17.32,35.61c-23.72,15.84-106.21,85.37-172.07,315.07
						c-79.86,278.53-256.86,393.68-391.27,441.24C1405.79,2027.12,1321.94,2033.3,1271.57,2033.3z M1245.52,2001.22
						c39.76,1.82,136.7,1.2,243.12-36.69c184.76-65.79,309.38-207.06,370.4-419.89c68.8-239.95,158.84-315.17,184.8-332.5
						c2.35-1.57,3.69-4.3,3.47-7.11c-0.3-3.85-2.96-5.69-4.09-6.31c-1.38-0.75-4.2-1.75-7.41,0
						c-44.41,24.27-131.84,101.59-218.44,346.81c-80.66,228.4-226.96,312.33-335.49,342.52c-92.79,25.81-172.91,17.94-204.5,13.04
						L1245.52,2001.22z"/>
				</g>
			</g>
		</g>
		<g class="st4">
			<g>
				<g>
					
						<ellipse transform="matrix(0.7071 -0.7071 0.7071 0.7071 252.2146 1848.7815)" class="st63" cx="2357.78" cy="619.94" rx="192.79" ry="192.79"/>
				</g>
			</g>
		</g>
		<g>
			<g>
				<g>
					
						<ellipse transform="matrix(0.7071 -0.7071 0.7071 0.7071 258.7437 1831.4452)" class="st8" cx="2340.12" cy="603.39" rx="173.37" ry="173.37"/>
				</g>
			</g>
		</g>
		<g class="st2">
			<g>
				<g>
					<g>
						<path class="st3" d="M2190.2,584.01c18.99-93.85,110.46-154.53,204.31-135.54c21.75,4.4,41.68,12.73,59.28,24.04
							c-21.88-19.04-48.82-32.88-79.28-39.04c-93.85-18.99-185.32,41.7-204.31,135.54c-14.59,72.1,17.88,142.76,76.26,180.26
							C2200.92,709.66,2177.37,647.39,2190.2,584.01z"/>
					</g>
				</g>
			</g>
		</g>
		<g class="st4">
			<g>
				<g>
					<path class="st63" d="M2510.03,637.78c-18.99,93.82-110.43,154.54-204.28,135.55c-29.51-5.98-55.74-19.13-77.25-37.28
						c11.68,5.27,24.1,9.33,37.2,11.99c93.85,18.99,185.33-41.69,204.32-135.54c13.01-64.34-11.46-127.59-58.36-167.05
						C2483.7,477.98,2526.37,557,2510.03,637.78z"/>
				</g>
			</g>
		</g>
		<g>
			<g>
				<g>
					<path class="st63" d="M2340.51,789.32c-12.37,0-24.84-1.24-37.25-3.75c-48.66-9.84-90.58-38.05-118.02-79.42
						c-27.45-41.37-37.14-90.95-27.29-139.61c20.32-100.45,118.58-165.64,219.04-145.32c48.66,9.84,90.57,38.05,118.02,79.42
						c27.45,41.37,37.14,90.95,27.29,139.61c-9.84,48.66-38.05,90.58-79.42,118.02C2412.05,778.72,2376.67,789.32,2340.51,789.32z
						 M2340.07,442.51c-74.94,0-142.2,52.76-157.62,128.98c-8.52,42.12-0.13,85.03,23.62,120.83
						c23.76,35.81,60.03,60.22,102.15,68.74c86.9,17.58,171.98-38.82,189.58-125.77l0,0c8.52-42.12,0.13-85.03-23.62-120.83
						c-23.76-35.81-60.03-60.22-102.15-68.74C2361.31,443.55,2350.61,442.51,2340.07,442.51z"/>
				</g>
			</g>
		</g>
		<g>
			<g>
				<g>
					
						<ellipse transform="matrix(0.7071 -0.7071 0.7071 0.7071 259.9903 1829.5927)" class="st66" cx="2338.51" cy="600.96" rx="110.29" ry="110.29"/>
				</g>
			</g>
			<g>
				<g>
					<path d="M2338.74,713.79c-7.51,0-15.07-0.75-22.6-2.28c-29.53-5.98-54.97-23.09-71.62-48.2
						c-16.66-25.1-22.54-55.19-16.57-84.72c12.34-60.96,71.92-100.52,132.93-88.19c29.53,5.98,54.96,23.09,71.62,48.2
						c16.66,25.11,22.53,55.2,16.56,84.72l-2.45-0.5l2.45,0.5c-5.98,29.53-23.09,54.97-48.2,71.62
						C2382.16,707.36,2360.69,713.79,2338.74,713.79z M2338.48,493.15c-50.22,0-95.29,35.35-105.63,86.43
						c-5.71,28.22-0.09,56.98,15.83,80.97c15.92,23.99,40.23,40.35,68.45,46.06c28.22,5.71,56.98,0.09,80.97-15.83
						c23.99-15.92,40.35-40.23,46.06-68.45l0,0c5.71-28.22,0.09-56.98-15.83-80.97c-15.92-23.99-40.22-40.35-68.45-46.06
						C2352.7,493.85,2345.54,493.15,2338.48,493.15z"/>
				</g>
			</g>
		</g>
		<g class="st67">
			<g>
				<g>
					<g>
						<path class="st3" d="M2446.62,622.84c-12.08,59.71-70.28,98.3-129.99,86.22c-12.93-2.6-24.89-7.39-35.52-13.9
							c1.19,0.29,2.38,0.55,3.61,0.81c59.71,12.08,117.91-26.51,129.99-86.22c9.48-46.78-12.17-92.62-50.69-116.08
							C2421.65,507.31,2458.45,564.36,2446.62,622.84z"/>
					</g>
				</g>
			</g>
		</g>
		<g class="st4">
			<g>
				<g>
					<path class="st63" d="M2404,510.55c-1.84-0.44-3.68-0.89-5.56-1.27c-59.71-12.08-117.91,26.51-129.99,86.22
						c-9.11,44.93,10.52,89.04,46.25,113.21c-56.53-14.48-92.36-70.9-80.66-128.72c12.08-59.67,70.24-98.3,129.95-86.22
						C2378.77,496.78,2392.28,502.57,2404,510.55z"/>
				</g>
			</g>
		</g>
		<g>
			<g>
				<g>
					<path class="st63" d="M2338.76,723.79c-8.17,0-16.41-0.82-24.6-2.48c-32.15-6.5-59.84-25.14-77.97-52.47
						c-18.13-27.33-24.54-60.09-18.03-92.24c13.43-66.36,78.31-109.45,144.71-96c32.14,6.5,59.83,25.14,77.97,52.47
						c18.13,27.33,24.54,60.09,18.03,92.23c-6.5,32.15-25.14,59.84-52.47,77.97C2386.03,716.79,2362.65,723.79,2338.76,723.79z
						 M2338.48,503.15c-45.56,0-86.45,32.08-95.83,78.41c-5.18,25.6-0.08,51.69,14.36,73.46c14.44,21.77,36.5,36.61,62.1,41.79
						c25.59,5.19,51.69,0.08,73.46-14.36c21.77-14.44,36.61-36.49,41.79-62.1l0,0c10.69-52.85-23.6-104.55-76.46-115.25
						C2351.39,503.79,2344.89,503.15,2338.48,503.15z"/>
				</g>
			</g>
		</g>
		<g>
			<g>
				<g>
					<path class="st3" d="M1143.02,2337.34c74.2,28.43,215.28,18.02,215.28,18.02c53.26-7.27,96.62-46.43,109.25-98.67l99.83-412.87
						c12.35-51.06-7.12-104.55-49.39-135.74l-159.8-93.57"/>
				</g>
			</g>
		</g>
		<g class="st4">
			<g>
				<g>
					<path class="st63" d="M1569.95,1796.67l-86.75,358.78c-12.6,52.26-55.96,91.43-109.24,98.69c0,0-52.68,9.16-90.14-68.37
						l-140.8,151.56l22.59-24.31c76.81,21.22,197.67,12.33,197.67,12.33c53.27-7.26,96.63-46.43,109.27-98.66l98.29-406.59
						c-0.42,7.9-1.57,15.83-3.48,23.71l-99.81,412.89c-12.64,52.23-56,91.4-109.27,98.66c0,0-27,1.99-63.59,1.85
						c36.59,0.14,63.59-1.85,63.59-1.85c53.27-7.26,96.63-46.43,109.27-98.66l99.81-412.89
						C1571.18,1828.09,1571.98,1812.14,1569.95,1796.67z"/>
				</g>
			</g>
		</g>
		<g>
			<g>
				<g>
					<path class="st3" d="M968.22,2275.77l174.8,61.57c51.55,18.16,107.49-12.3,120.2-65.46l132.27-552.85
						c11.45-47.84-17.99-95.91-65.8-107.47l-189.79-45.89L968.22,2275.77z"/>
				</g>
			</g>
			<g>
				<g>
					<path class="st63" d="M1173.6,2345.06c-10.6,0-21.22-1.77-31.41-5.36l-174.8-61.56c-1.21-0.43-1.9-1.7-1.6-2.95l171.68-710.1
						c0.16-0.64,0.56-1.2,1.13-1.55c0.57-0.35,1.25-0.46,1.89-0.3l189.79,45.89c49.04,11.86,79.38,61.42,67.64,110.48
						l-132.27,552.85c-6.23,26.03-23.28,48.29-46.78,61.09C1204.87,2341.18,1189.26,2345.06,1173.6,2345.06z M971.18,2274.17
						l172.67,60.82c23.92,8.42,50.38,6.29,72.64-5.82c22.26-12.12,38.41-33.21,44.31-57.86l132.27-552.85
						c11.1-46.39-17.59-93.25-63.95-104.46l-187.36-45.3L971.18,2274.17z"/>
				</g>
			</g>
		</g>
		<g>
			<g>
				<g>
					<polygon class="st3" points="968.23,2234.04 975.95,2236.76 995.6,2120.86 					"/>
				</g>
			</g>
			<g>
				<g>
					<path class="st63" d="M975.95,2239.26c-0.28,0-0.56-0.05-0.83-0.14l-7.71-2.72c-1.21-0.43-1.9-1.7-1.6-2.95l27.37-113.18
						c0.32-1.31,1.59-2.14,2.93-1.86c1.32,0.27,2.19,1.54,1.96,2.87l-19.66,115.9c-0.12,0.73-0.56,1.36-1.2,1.74
						C976.83,2239.14,976.39,2239.26,975.95,2239.26z M971.19,2232.43l2.79,0.98l7.1-41.86L971.19,2232.43z"/>
				</g>
			</g>
		</g>
		<g>
			<g class="st67">
				<g>
					<g>
						<path class="st63" d="M1326.63,1749.96c9.88-41.26-15.54-82.77-56.8-92.76l-153.15-37.04l27.35,6.62l-108.78,449.8
							l-4.64,19.27l-19.66,115.9l-7.71,45.63c0,0,172.46,66.19,214.88,59.7c8.12-1.24,16.91-3.77,25.78-7.77
							c22.77-23.99,39.52-62.27,36.31-119.62c0,0-13.28,10.13-44.37,5.62c-0.02,0-0.05-0.01-0.07-0.01
							c-8.17-1.23-13.44-9.37-11.51-17.41L1326.63,1749.96z"/>
					</g>
				</g>
			</g>
		</g>
		<g class="st67">
			<g>
				<g>
					<path class="st68" d="M995.6,2120.86l4.64-19.27c-0.84-0.35-1.29-0.52-1.29-0.52L995.6,2120.86z"/>
				</g>
			</g>
			<g>
				<g>
					<path class="st63" d="M995.6,2123.35c-0.17,0-0.33-0.02-0.5-0.05c-1.32-0.27-2.19-1.54-1.96-2.87l3.35-19.79
						c0.13-0.74,0.58-1.38,1.23-1.76c0.65-0.38,1.44-0.43,2.14-0.16l1.35,0.55c1.13,0.47,1.76,1.7,1.47,2.9l-4.64,19.27
						C997.76,2122.58,996.74,2123.35,995.6,2123.35z"/>
				</g>
			</g>
		</g>
		<g>
			<g>
				<g>
					<path class="st63" d="M1298.25,2372.95c-48.64,0-115.68-3.66-160.84-20.96c-8.09-3.1-12.13-12.17-9.04-20.26
						c3.1-8.09,12.17-12.13,20.26-9.03c67.96,26.04,199.08,17.66,208.04,17.05c46.96-6.61,84.47-40.61,95.63-86.75l99.83-412.87
						c10.83-44.78-5.98-91.38-42.82-118.95l-159.05-93.14c-7.48-4.38-9.99-13.99-5.61-21.46c4.38-7.47,13.98-9.99,21.46-5.61
						l159.79,93.57c0.48,0.28,0.94,0.58,1.39,0.91c47.48,35.02,69.19,94.7,55.33,152.05l-99.83,412.87
						c-14.25,58.95-62.29,102.33-122.37,110.53c-0.32,0.04-0.64,0.08-0.96,0.1C1357.03,2371.17,1332.09,2372.95,1298.25,2372.95z"/>
				</g>
			</g>
		</g>
		<g>
			<g>
				<g>
					<path class="st63" d="M1173.59,2358.24c-12.08,0-24.18-2.02-35.78-6.11l-174.8-61.56c-7.59-2.67-11.93-10.66-10.04-18.48
						l171.69-710.1c0.98-4.04,3.52-7.53,7.07-9.7c3.54-2.17,7.82-2.83,11.86-1.86l189.79,45.89
						c56.08,13.56,90.79,70.25,77.36,126.37l-132.27,552.85c-7.09,29.65-26.52,55.02-53.3,69.6
						C1209.22,2353.82,1191.44,2358.24,1173.59,2358.24z M986.8,2265.69l161.43,56.86c20.39,7.19,42.97,5.37,61.95-4.97
						c18.98-10.34,32.76-28.33,37.79-49.35l132.27-552.85c9.41-39.33-14.92-79.07-54.23-88.57l-174.55-42.2L986.8,2265.69z"/>
				</g>
			</g>
		</g>
		<g>
			<g>
				<g>
					<path class="st3" d="M15.7,2194.13c0.42,44.96,51.11,129.34,51.11,129.34s42.14,73.35,80.96,91.12
						c43.78,20.04,87.28,4.68,134.75-20.46l0.21-0.1l436.03-200.63v-225.21l-191.03-25.62l-37.74-8.38c0,0-46.85-6.42-153.61,60.74
						c-37.56,23.63-129.1,102.92-180.1,186.74C106.71,2108.67,14.93,2116.14,15.7,2194.13z"/>
				</g>
			</g>
		</g>
		<g class="st4">
			<g>
				<g>
					<path class="st63" d="M15.7,2194.13c0.42,44.96,51.11,129.34,51.11,129.34s42.14,73.35,80.96,91.12
						c43.78,20.04,87.28,4.68,134.75-20.46l0.21-0.1l436.03-200.63v-101.97l-436.03,200.63l-0.21,0.1
						c-47.48,25.14-90.98,40.5-134.75,20.46c-38.82-17.77-80.96-91.12-80.96-91.12s-21.26-35.36-36.38-72.51
						C21.11,2159.5,15.49,2174.62,15.7,2194.13z"/>
				</g>
			</g>
		</g>
		<g>
			<g>
				<g>
					<path class="st63" d="M189.65,2439.49c-16.08,0-32.18-3.18-48.42-10.62c-42.17-19.31-83.45-89.62-88.02-97.58
						c-5.26-8.75-52.75-89.15-53.21-137c-0.4-40.87,21.64-70.57,57.51-77.5c43.65-8.43,102.36,20.17,130.06,91.16
						c3.15,8.07-0.84,17.17-8.91,20.31c-8.09,3.15-17.17-0.84-20.31-8.91c-21.24-54.42-64.75-77.59-94.89-71.77
						c-20.64,3.99-32.35,20.9-32.1,46.4c0.32,33.38,35.4,98.96,48.89,121.41c11.2,19.47,46.01,72.11,74.03,84.95
						c48.13,22.04,97.29-6.05,159.5-41.63c39.36-22.5,83.97-48.02,133.85-62.03c8.34-2.34,17,2.52,19.34,10.86
						c2.34,8.34-2.52,17-10.86,19.34c-46.15,12.97-87.13,36.4-126.76,59.06C281.58,2413.28,235.75,2439.49,189.65,2439.49z"/>
				</g>
			</g>
		</g>
		<g>
			<g>
				<g>
					<path class="st63" d="M158.64,2200.47c-2.43,0-4.9-0.57-7.21-1.77c-7.69-3.99-10.69-13.45-6.7-21.15
						c49.07-94.62,141.35-169.52,183.29-195.9c108.47-68.23,158.71-63.76,164.1-63.02c8.58,1.17,14.59,9.08,13.41,17.67
						c-1.16,8.48-8.93,14.48-17.39,13.45c-1.45-0.1-46.08-2.78-143.42,58.45c-39.44,24.81-126.18,95.16-172.15,183.79
						C169.79,2197.38,164.31,2200.47,158.64,2200.47z"/>
				</g>
			</g>
		</g>
		<g>
			<g>
				<g>
					<path class="st3" d="M384.35,2481.17c0,0,62,48.18,152.52-21.92c25.21-19.52,53.62-66.33,72.72-113.95
						c467.8,178.44,658.76-251.32,637.71-605.21c-1.85-31.49-5.86-62.53-12.04-92.69c-10.68-52.23-27.96-101.8-52.16-146.48
						l-222.83-158.82c0,0-211,47.36-384.74,315.21c-73.06,112.64-78.46,248.79-84.92,360.92c-39.52,10.37-75.97,31.8-100.58,71.32
						c-36.76,59.03-10.09,226.36-10.09,226.36s-82.25-27.02-101.1,38.93C260,2420.77,384.35,2481.17,384.35,2481.17z"/>
				</g>
			</g>
		</g>
		<g class="st67">
			<g>
				<g>
					<path class="st68" d="M837.88,1638.25c153.15,89.06,336.78,100.89,409.43,101.83c-1.85-31.49-5.86-62.53-12.04-92.69
						L837.88,1638.25z"/>
				</g>
			</g>
			<g>
				<g>
					<path class="st63" d="M1247.31,1742.59c-0.01,0-0.02,0-0.03,0c-72.26-0.94-256.91-12.78-410.65-102.18
						c-0.99-0.57-1.46-1.74-1.15-2.84c0.31-1.1,1.39-1.77,2.47-1.82l397.39,9.15c1.16,0.03,2.16,0.86,2.39,2
						c6.16,30.08,10.22,61.38,12.08,93.04c0.04,0.69-0.21,1.37-0.69,1.87C1248.65,1742.31,1247.99,1742.59,1247.31,1742.59z
						 M847.71,1640.98c149.06,83.29,324.67,95.4,396.94,96.57c-1.87-29.82-5.71-59.3-11.43-87.7L847.71,1640.98z"/>
				</g>
			</g>
		</g>
		<g>
			<g>
				<g>
					<path class="st3" d="M373.39,2259.21c2.9,0.7,4.54,1.26,4.54,1.26s-4.54-28.56-7.3-66.23
						C370.49,2217,371.75,2239.69,373.39,2259.21z"/>
				</g>
			</g>
			<g>
				<g>
					<path class="st63" d="M377.93,2262.96c-0.27,0-0.54-0.04-0.8-0.13c-0.06-0.02-1.61-0.54-4.32-1.2
						c-1.05-0.25-1.81-1.15-1.9-2.22c-1.96-23.27-2.89-45.2-2.77-65.2c0.01-1.34,1.07-2.44,2.42-2.48c1.2-0.16,2.48,0.98,2.58,2.31
						c2.72,37.12,7.23,65.73,7.27,66.02c0.14,0.87-0.19,1.74-0.86,2.3C379.08,2262.76,378.51,2262.96,377.93,2262.96z"/>
				</g>
			</g>
		</g>
		<g class="st4">
			<g>
				<g>
					<path class="st63" d="M384.35,2481.17c0,0,62,48.18,152.52-21.92c25.21-19.52,53.62-66.33,72.72-113.95
						c406.64,156.16,655.31-157.41,628.22-536.09c0.06,112.7-197.77,18.21-151.18,96.52c146.33,245.97-182.61,415.87-452.98,322.8
						c-20.32-7-42.43,4.16-49.07,24.6c-13.95,42.99-37.19,99.54-69.67,133.65c-78.95,82.92-132.59,38.94-132.59,38.94
						s-73.84-35.85-99.08-82.49c-1.71,3.49-3.18,7.37-4.4,11.59C260,2420.77,384.35,2481.17,384.35,2481.17z"/>
				</g>
			</g>
		</g>
		<g>
			<g>
				<g>
					<path class="st63" d="M821.04,2402.54c-67.18,0-139.62-14.84-215.96-44.62c-8.07-3.15-12.06-12.24-8.91-20.31
						c3.15-8.07,12.24-12.07,20.31-8.91c164.77,64.28,309.2,55.27,417.68-26.06c149.81-112.33,220.09-354.23,192.81-663.67
						c-0.76-8.63,5.62-16.24,14.25-17c8.57-0.79,16.25,5.62,17,14.25c28.25,320.49-46.55,572.54-205.23,691.52
						C986.56,2377.54,908.23,2402.54,821.04,2402.54z"/>
				</g>
			</g>
		</g>
		<g>
			<g>
				<g>
					<path class="st63" d="M494.03,2028.21c-7.6,0-14.28-5.53-15.48-13.28c-23.31-150,25.16-274.86,69.92-353.2
						c48.38-84.66,101.7-133.53,103.95-135.57c6.41-5.83,16.34-5.34,22.16,1.07c5.82,6.41,5.34,16.33-1.07,22.16
						c-2.53,2.31-205.82,191.33-163.95,460.73c1.33,8.56-4.53,16.58-13.09,17.91C495.64,2028.15,494.83,2028.21,494.03,2028.21z"/>
				</g>
			</g>
		</g>
		<g>
			<g>
				<g>
					<path class="st69" d="M614.06,1366.36"/>
				</g>
			</g>
		</g>
		<g>
			<g>
				<g>
					<path class="st3" d="M1333.43,1530.28c27.21,10.71,61.66,98.9-36.54,147.54c-73.83,36.57-258.45,26.21-459.02-39.57"/>
				</g>
			</g>
			<g>
				<g>
					<path class="st63" d="M1171.61,1701.55c-92.41,0-213.06-21.09-334.52-60.92c-1.31-0.43-2.03-1.84-1.6-3.15
						c0.43-1.31,1.85-2.03,3.15-1.6c187.31,61.43,379.55,78.13,457.13,39.7c57.66-28.56,64.75-68.61,63.84-89.94
						c-1.13-26.62-14.95-48.26-27.11-53.04c-1.28-0.51-1.91-1.96-1.41-3.24c0.51-1.29,1.96-1.91,3.24-1.41
						c13.61,5.36,29.05,28.86,30.27,57.48c0.96,22.54-6.43,64.82-66.62,94.63C1268.79,1694.53,1224.89,1701.54,1171.61,1701.55z"/>
				</g>
			</g>
		</g>
		<g>
			<g>
				<g>
					<path class="st3" d="M1333.43,1530.28c27.21,10.71,61.66,98.9-36.54,147.54c-73.83,36.57-258.45,26.21-459.02-39.57
						L1333.43,1530.28z"/>
				</g>
			</g>
		</g>
		<g class="st4">
			<g>
				<g>
					<path class="st63" d="M1343.8,1537.78c3.74,31.52-9.6,71.32-64.72,98.62c-62.7,31.07-205.45,28.28-369.98-13.65L1343.8,1537.78
						z"/>
				</g>
			</g>
		</g>
		<g>
			<g>
				<g>
					<path class="st63" d="M1339.18,1515.68c11.38,4.8,17.22,11.82,22.48,18.72c4.98,7.02,8.64,14.45,11.38,22.14
						c5.44,15.38,6.82,32.01,4.32,48.16c-2.49,16.16-9.3,31.6-18.93,44.25c-9.47,12.87-21.49,22.96-34.02,31.28
						c-6.3,4.15-12.82,7.74-19.42,11.05c-3.36,1.62-7,2.91-10.49,4.35c-3.53,1.31-7.05,3.04-10.6,3.85
						c-14.16,4.31-28.32,7.15-42.42,9.02c-7.04,0.74-14.09,1.82-21.11,2.24l-21.03,1.19c-13.96,0.12-27.92,0.43-41.77-0.33
						c-55.52-1.86-110.03-10.79-163.68-22.33c-53.67-11.61-106.26-27.37-157.77-45.7c-2.92-1.04-4.44-4.25-3.4-7.17
						c1.01-2.82,4.06-4.33,6.9-3.49c51.99,15.54,104.87,27.7,158.07,37.04l19.97,3.37c6.66,1.07,13.36,1.88,20.03,2.84
						c13.34,2.02,26.74,3.36,40.12,4.76c6.68,0.81,13.39,1.23,20.09,1.71c6.7,0.47,13.39,1.11,20.09,1.47
						c13.39,0.49,26.78,1.35,40.12,1.13c13.37,0.27,26.63-0.52,39.88-1.08l19.7-1.82c6.56-0.62,12.94-1.87,19.41-2.76
						c12.82-2.16,25.31-5.18,37.08-9.21c3.1-0.79,5.64-2.3,8.45-3.43c2.75-1.26,5.52-2.31,8.26-3.7c5.51-2.91,10.87-6,15.87-9.44
						c9.95-6.91,18.92-14.86,25.4-24.12c3.39-4.54,5.97-9.48,8.16-14.5c2.18-5.03,3.79-10.27,4.6-15.66
						c1.75-10.74,0.7-22.01-2.7-32.38c-1.68-5.17-4.02-10.1-6.8-14.27c-2.67-4.03-6.45-7.42-7.72-8l-1.07-0.49
						c-7.88-3.58-11.37-12.86-7.79-20.74C1322.34,1515.9,1331.39,1512.41,1339.18,1515.68z"/>
				</g>
			</g>
		</g>
		<g>
			<g>
				<g>
					
						<ellipse transform="matrix(0.1678 -0.9858 0.9858 0.1678 -239.1997 1902.3521)" class="st3" cx="1007.2" cy="1092.86" rx="524.77" ry="582.38"/>
				</g>
			</g>
		</g>
		<g class="st4">
			<g>
				<g>
					<path class="st63" d="M919.11,1610.18c255.51,43.5,497.62-70.03,607.48-265.25c-126.2,131.51-324.91,199.79-532.42,164.46
						c-317.09-54.01-534.69-329.38-486.06-615.09c9.43-55.47,28.24-107.25,54.71-154.27c-66.57,69.4-112.94,156.4-129.73,255.09
						C384.42,1280.83,602.06,1556.21,919.11,1610.18z"/>
				</g>
			</g>
		</g>
		<g>
			<g>
				<g>
					<path class="st63" d="M1028.46,1635.18c-37.07,0-74.52-3.15-111.98-9.53c-325.1-55.35-548.89-339.38-498.88-633.17c0,0,0,0,0,0
						C467.62,698.7,772.8,504.72,1097.9,560.06c157.18,26.76,295.63,107.16,389.84,226.37c94.59,119.7,133.32,264.17,109.04,406.79
						c-24.28,142.62-108.62,266.14-237.5,347.8C1261.51,1602.98,1146.97,1635.18,1028.46,1635.18z M433.07,995.12l15.46,2.63
						c-47.11,276.73,165.17,544.53,473.22,596.98c149.52,25.46,298.95-3.02,420.73-80.2c121.27-76.84,200.6-192.81,223.36-326.56
						c22.77-133.75-13.71-269.44-102.72-382.08c-89.39-113.12-220.98-189.44-370.5-214.9c-308.06-52.46-596.99,130.03-644.1,406.76
						L433.07,995.12z"/>
				</g>
			</g>
		</g>
		<g>
			<g>
				<g>
					<path class="st63" d="M453.28,1238.81c177.94,287.45,578.76,309.73,729.22,10.61c102.36-203.51-17.86-460.85-219.61-546.65
						C816.06,640.32,645.39,643.59,486.17,845c0,0-56.71,100.04-58.35,182.2c-1.64,82.16,10.63,162.34,10.63,162.34L453.28,1238.81z
						"/>
				</g>
			</g>
		</g>
		<g>
			<g>
				<g>
					<path class="st63" d="M842.42,1528.82c-80.84,0-163.27-20.65-238.33-60.98c-0.73-0.39-1.42-0.84-2.08-1.34
						c-20.52-15.63-40.02-33.12-57.97-51.98c-6.62-7.03-12.31-13.36-17.46-19.41c-11.24-13.13-22-27.15-31.95-41.64
						c-46.98-68.52-75.77-148.6-83.24-231.58c-13.47-149.68,41.15-294.84,149.88-398.26c62.87-59.83,140.52-101.88,224.56-121.59
						c1.05-0.25,2.13-0.39,3.22-0.41c63.01-1.48,129.32,12.42,197.21,41.29c120.97,51.45,221.5,159.39,268.92,288.76
						c43.61,118.98,38.56,242.28-14.2,347.17c-57.31,113.91-148.16,193.24-262.71,229.4
						C934.64,1522.02,888.79,1528.82,842.42,1528.82z M620.04,1440.79c110.44,58.99,237.5,72.68,348.78,37.54
						c106.29-33.55,190.71-107.41,244.13-213.58c48.83-97.07,53.37-211.52,12.78-322.28c-44.49-121.38-138.59-222.57-251.74-270.69
						c-63.16-26.86-124.58-39.96-182.58-38.83c-78.01,18.59-150.07,57.78-208.51,113.4c-101.75,96.79-152.87,232.64-140.26,372.72
						l0,0c6.99,77.64,33.91,152.56,77.86,216.65c9.31,13.56,19.38,26.7,29.94,39.02c4.84,5.68,10.19,11.63,16.39,18.22
						C583.29,1410.25,601.2,1426.36,620.04,1440.79z"/>
				</g>
			</g>
		</g>
		<g>
			<g>
				<g>
					<path class="st63" d="M839.72,1476.76c-157.13,0-307.93-87.37-397.07-231.37c-0.58-0.93-1.03-1.93-1.34-2.98l-14.84-49.28
						c-0.17-0.56-0.3-1.13-0.39-1.71c-0.51-3.32-12.41-82.19-10.77-164.48c1.68-84.35,57.6-183.92,59.98-188.12
						c0.32-0.56,0.67-1.09,1.07-1.59c139.36-176.28,304.7-225.39,491.43-145.98c107.26,45.62,196.4,141.34,238.45,256.06
						c38.66,105.47,34.19,214.75-12.56,307.71c-67.51,134.22-189.72,214.89-335.29,221.31
						C852.16,1476.62,845.94,1476.76,839.72,1476.76z M464.78,1233.62c88.02,141.15,238.31,224.56,392.5,217.75
						c136.26-6.02,250.73-81.67,314.06-207.57c43.62-86.72,47.68-188.96,11.43-287.87C1143.05,847.57,1059.03,757.23,958,714.27
						c-174.79-74.34-330.04-28.01-461.4,137.69c-5.26,9.54-54.81,101.28-56.29,175.48c-1.51,75.62,9.08,150.6,10.36,159.35
						L464.78,1233.62z"/>
				</g>
			</g>
		</g>
		<g class="st67">
			<g>
				<g>
					<path class="st3" d="M1033.97,833.42c0,0-202.7-71.34-359.57-3.89c-0.16,0.07-0.33,0.14-0.49,0.21
						c-33,14.22-61.56,37.13-82.85,66.09c-28.15,38.29-41.94,68.8-53.04,96.13c-33.73,83.13-33.98,128.39-33.98,128.39
						c-29.46-63.11-35.87-123.78-8.47-193.3c2.72-6.85,33.7-68.03,47.73-87c42.28-57.23,109.02-115.08,204.82-121.23
						C927.25,707.32,1044.34,827.52,1033.97,833.42z"/>
				</g>
			</g>
			<g>
				<g>
					<path class="st63" d="M508.87,1142.5l-9.35-20.02c-31.94-68.42-34.67-131.1-8.59-197.25c2.7-6.78,33.73-68.35,48.36-88.13
						c38.86-52.61,106.58-116.7,208.52-123.25c167.31-10.78,284.72,93.36,291.39,115.63c1.27,4.25-0.58,7.08-2.74,8.31l-1.98,1.13
						l-2.15-0.76c-2.01-0.71-202.73-69.89-355.93-4.01l-2.47-4.38l1.98,4.59c-32,13.79-59.94,36.08-80.8,64.45
						c-28.51,38.78-42.01,69.4-52.44,95.06c-32.87,81.02-33.61,126.1-33.61,126.55L508.87,1142.5z M772.04,723.06
						c-7.73,0-15.6,0.24-23.6,0.76c-98.1,6.3-163.52,68.31-201.12,119.21c-13.84,18.72-44.54,79.42-47.1,85.87
						c-23.09,58.58-23.01,112.27,0.74,171.77c3.1-20.94,11.21-58.27,32.43-110.59c10.65-26.21,24.45-57.5,53.65-97.22
						c21.91-29.8,51.26-53.22,84.89-67.71l0.5-0.21c136.54-58.7,309.04-12.9,352.77,0.43
						C1003.96,799.52,908.61,723.06,772.04,723.06z"/>
				</g>
			</g>
		</g>
		<g class="st67">
			<g>
				<g>
					
						<ellipse transform="matrix(0.1237 -0.9923 0.9923 0.1237 -116.8883 2043.8394)" class="st3" cx="1098.8" cy="1088.1" rx="73.68" ry="63.23"/>
				</g>
			</g>
			<g>
				<g>
					<path class="st63" d="M1096.44,1166.63c-2.45,0-4.9-0.15-7.38-0.46c-37.33-4.66-63.33-43.46-57.96-86.51
						c2.58-20.72,11.96-39.36,26.42-52.49c14.67-13.33,32.76-19.43,51.02-17.14c18.23,2.27,34.29,12.62,45.24,29.14
						c10.79,16.28,15.31,36.66,12.72,57.37C1161.49,1136.74,1130.87,1166.63,1096.44,1166.63z M1101.09,1019.57
						c-13.17,0-26.06,5.21-36.85,15.01c-12.69,11.53-20.93,27.98-23.22,46.32c-4.68,37.58,17.42,71.38,49.28,75.35
						c31.87,3.97,61.59-23.37,66.27-60.94c2.29-18.34-1.67-36.32-11.14-50.61c-9.31-14.05-22.86-22.84-38.14-24.74
						C1105.22,1019.7,1103.15,1019.57,1101.09,1019.57z"/>
				</g>
			</g>
		</g>
		<g class="st67">
			<g>
				<g>
					
						<ellipse transform="matrix(0.0395 -0.9992 0.9992 0.0395 -180.519 2254.0713)" class="st3" cx="1082.24" cy="1220.94" rx="30.42" ry="26.11"/>
				</g>
			</g>
			<g>
				<g>
					<path class="st63" d="M1081.93,1256.35c-0.36,0-0.72-0.01-1.09-0.02c-17.14-0.68-30.45-17.11-29.68-36.62l5,0.2l-5-0.2
						c0.37-9.31,3.86-17.98,9.82-24.4c6.16-6.63,14.15-10.09,22.66-9.77c8.44,0.33,16.19,4.43,21.81,11.52
						c5.44,6.87,8.24,15.79,7.87,25.1C1112.56,1241.26,1098.59,1256.35,1081.93,1256.35z M1082.54,1195.52
						c-5.24,0-10.27,2.32-14.24,6.59c-4.34,4.67-6.88,11.06-7.16,17.99c-0.55,14.01,8.46,25.78,20.09,26.24
						c11.52,0.28,21.54-10.56,22.09-24.57c0.27-6.93-1.76-13.5-5.72-18.5c-3.78-4.78-8.88-7.52-14.37-7.74
						C1083.01,1195.53,1082.78,1195.52,1082.54,1195.52z"/>
				</g>
			</g>
		</g>
		<g class="st4">
			<g>
				<g>
					<path class="st63" d="M1252.13,1463.32c79.1,17.1,161.02-51.15,182.91-152.47c1.46-6.73,2.61-13.46,3.44-20.15
						c-35.99,61.01-96.8,96.13-156.11,83.34c-73.88-15.95-119.25-100.72-107.09-194.31c-12.08,20.43-21.34,43.79-26.84,69.21
						C1126.54,1350.25,1172.98,1446.26,1252.13,1463.32z"/>
				</g>
			</g>
		</g>
		<g>
			<g>
				<g>
					<path class="st63" d="M450.61,2513.72c-39.81,0-75.35-18.12-106.57-36.12c-28.08-16.19-62.96-41.49-76.66-63.94
						c-18.39-30.15-14.85-64.93,9.03-88.61c28.96-28.72,87.15-39.71,151.84,0.49c7.36,4.57,9.62,14.24,5.04,21.6
						c-4.58,7.36-14.24,9.61-21.6,5.04c-49.88-31-93.64-24.25-113.19-4.86c-13.79,13.68-15.37,31.91-4.33,50
						c8.61,14.12,34.95,35.46,65.54,53.1c44.58,25.71,80.04,39.34,118.97,27.83c85.86-25.36,138.77-195.94,139.29-197.66
						c2.52-8.29,11.3-12.96,19.57-10.43c8.29,2.52,12.96,11.28,10.44,19.57c-2.34,7.68-58.38,188.48-160.42,218.61
						C474.87,2512.09,462.54,2513.72,450.61,2513.72z"/>
				</g>
			</g>
		</g>
		<g>
			<g>
				<g>
					<path class="st63" d="M391.21,2340.01c-5.85,0-11.47-3.29-14.17-8.93c-64.77-135.65-21.83-229.03-7.13-254.41
						c67.87-117.18,259.76-87.29,267.89-85.97c8.55,1.4,14.35,9.46,12.95,18.01c-1.39,8.55-9.42,14.35-18,12.95l0,0
						c-1.78-0.29-178.68-27.7-235.69,70.73c-12.76,22.03-49.86,103.37,8.29,225.17c3.73,7.82,0.42,17.18-7.4,20.91
						C395.78,2339.52,393.48,2340.01,391.21,2340.01z"/>
				</g>
			</g>
		</g>
		<g>
			<g>
				<g>
					<path class="st63" d="M1420.48,751.73c-2.74,0-5.52-0.72-8.05-2.24c-205.7-123.31-353.55-47.12-359.74-43.81
						c-7.64,4.07-17.13,1.21-21.22-6.41c-4.09-7.62-1.26-17.1,6.34-21.21c6.79-3.67,168.98-88.42,390.75,44.53
						c7.43,4.45,9.84,14.09,5.39,21.52C1431,749.01,1425.81,751.73,1420.48,751.73z"/>
				</g>
			</g>
		</g>
		<g class="st67">
			<g>
				<g>
					<path class="st63" d="M1374.94,2217.56c4.12,1.05,8.27,1.54,12.32,1.54c22.24,0,42.52-14.73,48.7-37.08l24.65-88.95l-21.4-5.97
						l-13.89,50.2c-6.18,22.34-26.5,37.07-48.7,37.07c-4.08,0-8.2-0.49-12.32-1.54c-10.61-2.65-19.58-8.48-26.15-16.23
						C1331.58,2183.55,1347.99,2210.78,1374.94,2217.56z"/>
				</g>
			</g>
		</g>
		<g>
			<g>
				<g>
					<path class="st63" d="M1387.58,2231.61c-5.16,0-10.41-0.63-15.66-1.95c-16.39-4.11-30.17-14.37-38.82-28.88
						c-8.64-14.51-11.1-31.52-6.91-47.89l23.17-90.63c0.83-3.26,2.94-6.04,5.85-7.73c2.92-1.68,6.39-2.12,9.62-1.22l99.14,27.71
						c6.64,1.86,10.52,8.73,8.68,15.37l-24.62,88.94C1440.26,2213.37,1415.28,2231.61,1387.58,2231.61z M1370.41,2080.84
						l-20.01,78.25c-2.52,9.88-1.04,20.14,4.17,28.9c5.21,8.76,13.54,14.95,23.42,17.43c20.21,5.07,40.38-6.68,45.93-26.75
						l21.29-76.92L1370.41,2080.84z"/>
				</g>
			</g>
		</g>
		<g>
			<g>
				<g>
					<path class="st63" d="M620.29,2332.32c-4.17,0-8.21-2.22-10.34-6.14c-0.8-1.46-80.54-146.08-172.31-171.07
						c-48.49-13.2-67.94,3.89-68.74,4.62c-4.72,4.32-12.13,4.15-16.55-0.49c-4.41-4.64-4.4-11.87,0.14-16.38
						c1.14-1.13,28.66-27.53,91.33-10.46c101.46,27.63,183.35,176.21,186.79,182.52c3.11,5.71,1,12.85-4.7,15.95
						C624.12,2331.86,622.2,2332.32,620.29,2332.32z"/>
				</g>
			</g>
		</g>
		<g>
			<g>
				<g>
					<path class="st63" d="M362.74,2152.31c-3.99,0-7.88-2.03-10.09-5.69c-0.45-0.74-32.82-52.9-99.58-77.17
						c-6.11-2.22-9.26-8.97-7.04-15.08c2.22-6.11,8.98-9.25,15.08-7.04c75.04,27.28,110.24,84.71,111.7,87.14
						c3.35,5.57,1.55,12.8-4.02,16.15C366.89,2151.77,364.81,2152.31,362.74,2152.31z"/>
				</g>
			</g>
		</g>
		<g>
			<g>
				<g>
					<path class="st3" d="M1398.95,1096.72c0,0,10.46,2.26-53.5-11.56c-81.57-17.62-163.35,40.52-182.65,129.86
						c-19.3,89.34,31.18,176.05,112.76,193.67c65.92,14.24,53.5,11.56,53.5,11.56"/>
				</g>
			</g>
			<g>
				<g>
					<path class="st63" d="M1329.45,1422.89l-0.92-0.2c-0.2-0.04-0.39-0.11-0.56-0.19c-1.74-0.3-4.21-0.84-7.77-1.61l-45.17-9.76
						c-40.15-8.67-74.18-33.93-95.84-71.13c-21.61-37.12-28.3-81.7-18.83-125.52c19.56-90.55,102.82-149.67,185.62-131.77
						l53.5,11.56c0,0,0.01,0,0.02,0l0.62,0.13l0,0.03c2.06,0.68,2.1,2.1,1.92,2.94c-0.32,1.46-0.47,2.04-2.94,1.76l-0.03,0.16
						l-0.63-0.14l0.02-0.11c-1.71-0.26-4.33-0.82-8.38-1.7l-45.14-9.75c-80.09-17.31-160.7,40.1-179.68,127.94
						c-9.2,42.6-2.71,85.9,18.27,121.94c20.94,35.97,53.82,60.39,92.57,68.76c38.74,8.37,50.42,10.89,53.47,11.55
						c0.01,0,0.02,0,0.03,0.01c0.04,0.01,0.08,0.02,0.13,0.03c0.57,0.12,0.78,0.17,0.8,0.17l-0.01,0.04
						c1.05,0.35,2.32,1.11,1.93,2.93c-0.32,1.45-0.48,2.03-2.94,1.75L1329.45,1422.89z"/>
				</g>
			</g>
		</g>
		<g class="st4">
			<g>
				<g>
					<path class="st63" d="M1275.55,1408.68c38.89,8.38,50.52,10.93,53.52,11.56l69.89-323.52c-1.82-0.38-8.27-1.78-28.21-6.11
						l-43.32,200.49c-3.04-0.66-77.21-99.16-77.21-99.16l-10.46,11.33c-20.82,22.54-57.93,15.68-69.51-12.74
						c-0.06-0.14-0.12-0.28-0.17-0.42c-3,7.99-5.45,16.3-7.3,24.93C1143.48,1304.36,1193.97,1391.05,1275.55,1408.68z"/>
				</g>
			</g>
		</g>
		<g>
			<g>
				<g>
					
						<ellipse transform="matrix(0.2112 -0.9775 0.9775 0.2112 -154.1298 2325.9783)" class="st3" cx="1364" cy="1258.48" rx="165.5" ry="129.27"/>
				</g>
			</g>
			<g>
				<g>
					<path class="st63" d="M1350.61,1425.04c-7.35,0-14.73-0.77-22.08-2.36c-34.52-7.46-63.23-31.62-80.83-68.04
						c-17.5-36.21-21.94-80.24-12.49-123.99l0,0c9.45-43.75,31.67-82.03,62.56-107.78c31.07-25.9,67.19-36.05,101.71-28.6
						c34.52,7.46,63.23,31.62,80.83,68.04c17.51,36.21,21.94,80.24,12.49,123.99C1475.26,1367.47,1414.23,1425.04,1350.61,1425.04z
						 M1377.18,1096.89c-26.27,0-52.71,10.23-76.21,29.82c-30.04,25.04-51.66,62.33-60.87,105l0,0
						c-9.21,42.67-4.92,85.55,12.1,120.76c16.92,35,44.4,58.2,77.39,65.32c68.34,14.77,139.35-44.7,158.33-132.55
						c9.21-42.67,4.92-85.55-12.1-120.76c-16.92-35-44.41-58.2-77.39-65.32C1391.39,1097.64,1384.29,1096.89,1377.18,1096.89z
						 M1237.65,1231.18h0.05H1237.65z"/>
				</g>
			</g>
		</g>
		<g class="st4">
			<g>
				<g>
					<path class="st63" d="M1329.07,1420.23c69.75,15.08,141.98-45.1,161.29-134.44c1.29-5.94,2.3-11.87,3.04-17.77
						c-31.73,53.8-85.36,84.76-137.65,73.49c-65.14-14.07-105.15-88.81-94.43-171.34c-10.65,18.01-18.82,38.61-23.67,61.02
						C1218.33,1320.53,1259.28,1405.19,1329.07,1420.23z"/>
				</g>
			</g>
		</g>
		<g>
			<g>
				<g>
					<path class="st63" d="M1326.66,1435.77l-0.91-0.2l0.05-0.25c-2.89-0.36-5.76-0.98-8.38-1.55l-45.17-9.76
						c-43.81-9.47-80.91-36.95-104.45-77.38c-23.27-39.97-30.49-87.89-20.33-134.93c21.1-97.65,111.41-161.28,201.29-141.88
						l53.5,11.56c0.01,0,0.03,0.01,0.04,0.01l0.59,0.13l0,0.01c9.9,2.47,13.6,11.35,12.03,18.64c-2.4,11.1-10.43,12.56-18.58,11.7
						l-0.07,0.32l-0.63-0.14l0.05-0.26c-2.89-0.35-5.78-0.98-8.41-1.55l-45.14-9.75c-72.97-15.75-146.56,37.09-164.01,117.84
						c-8.51,39.37-2.55,79.34,16.77,112.52c19.05,32.72,48.87,54.92,83.96,62.5l53.5,11.56c0.02,0,0.05,0.01,0.07,0.01l0.84,0.2
						c11.14,2.88,13.33,12.62,12.04,18.63c-2.38,11.03-10.42,12.53-18.58,11.68L1326.66,1435.77z"/>
				</g>
			</g>
		</g>
		<g>
			<g>
				<g>
					<path class="st63" d="M1350.51,1438.22c-8.24,0-16.51-0.86-24.76-2.64c-38.57-8.33-70.51-35.03-89.92-75.19
						c-18.78-38.85-23.57-85.91-13.51-132.52c10.07-46.61,33.86-87.5,67.01-115.12c34.25-28.56,74.38-39.69,112.93-31.36
						c38.57,8.33,70.51,35.03,89.92,75.19c18.78,38.85,23.57,85.91,13.51,132.52C1486.82,1376.42,1420.25,1438.21,1350.51,1438.22z
						 M1377.24,1110.09c-23.22,0-46.76,9.18-67.84,26.75c-27.79,23.17-47.83,57.85-56.43,97.65c0,0,0,0,0,0
						c-8.6,39.8-4.66,79.67,11.08,112.24c15.12,31.27,39.38,51.93,68.3,58.18c61.19,13.2,125.21-41.7,142.66-122.45
						c8.6-39.8,4.66-79.66-11.09-112.24c-15.12-31.27-39.37-51.93-68.3-58.18C1389.56,1110.74,1383.42,1110.09,1377.24,1110.09z
						 M1237.65,1231.18h0.05H1237.65z"/>
				</g>
			</g>
		</g>
		<g>
			<g>
				<g>
					<path class="st3" d="M492.98,1930.85l226.44,100.45c4.73,2.1,10.07,0.39,11.45-3.67l92.21-270.24
						c1.39-4.06-1.79-8.67-6.82-9.91l-240.61-58.91c-31.58-7.73-62.12,5.73-70.82,31.23l-48.81,143.05
						C447.32,1888.34,463.25,1917.67,492.98,1930.85z"/>
				</g>
			</g>
		</g>
		<g class="st4">
			<g>
				<g>
					<path class="st63" d="M503.19,1724.53l-48.81,143.05c-8.7,25.5,7.25,54.81,37,67.99l226.4,100.46
						c4.73,2.09,10.1,0.37,11.48-3.66l35.87-105.12l-230.76-74.76c-30.96-10.04-49.84-37.56-43.83-63.78l16.57-72.59
						C505.5,1718.74,504.21,1721.56,503.19,1724.53z"/>
				</g>
			</g>
		</g>
		<g>
			<g>
				<g>
					<path class="st63" d="M723.6,2047.89c-3.57,0-7.17-0.75-10.54-2.25l-226.45-100.45l0,0c-37.27-16.53-56.8-54.11-45.44-87.41
						l48.81-143.04c11.36-33.29,49.79-51.1,89.39-41.4l240.61,58.91c7,1.71,12.94,6.2,16.28,12.3c3.08,5.63,3.67,11.99,1.66,17.9
						l-92.21,270.24c-2.02,5.91-6.37,10.58-12.25,13.15C730.36,2047.21,727,2047.89,723.6,2047.89z M499.33,1916.51l219.63,97.43
						l86.32-252.99l-233.38-57.14c-23.7-5.8-46.16,3.25-52.24,21.06l-48.81,143.04C464.79,1885.73,477.02,1906.62,499.33,1916.51
						L499.33,1916.51z"/>
				</g>
			</g>
		</g>
		<g>
			<g>
				<g>
					<path class="st3" d="M782.68,2053.79l-49.35-16.84c-2.79-0.95-4.28-3.98-3.33-6.77l93.95-275.34c0.95-2.79,3.98-4.28,6.77-3.33
						l49.35,16.84c12.75,4.35,19.56,18.22,15.21,30.97l-81.64,239.26C809.29,2051.33,795.43,2058.14,782.68,2053.79z"/>
				</g>
			</g>
		</g>
		<g class="st4">
			<g>
				<g>
					<path class="st63" d="M766.42,1923.46l-36.32,106.44c-1.01,2.97,0.55,6.16,3.52,7.17l47.73,16.28
						c13.49,4.6,28.13-2.62,32.72-16.07l36.33-106.48c-4.6,13.49-19.24,20.72-32.73,16.11l-47.73-16.28
						C766.98,1929.61,765.43,1926.38,766.42,1923.46z"/>
				</g>
			</g>
		</g>
		<g>
			<g>
				<g>
					<path class="st63" d="M790.52,2070.79c-4.28,0-8.64-0.69-12.91-2.15l0,0l-49.35-16.84c-5.31-1.81-9.6-5.59-12.08-10.62
						c-2.48-5.04-2.84-10.74-1.03-16.06l93.95-275.34c1.81-5.31,5.58-9.6,10.63-12.08c5.04-2.48,10.74-2.85,16.06-1.03l49.35,16.84
						c10.13,3.46,18.31,10.65,23.03,20.26c4.72,9.61,5.41,20.48,1.96,30.62l-81.64,239.26
						C822.81,2060.29,807.2,2070.79,790.52,2070.79z M787.74,2038.95c2.19,0.74,4.56,0.6,6.65-0.43c2.09-1.03,3.65-2.81,4.4-5.01
						l81.64-239.26c0.75-2.2,0.6-4.57-0.43-6.65s-2.8-3.65-5-4.4l-39.56-13.49l-87.26,255.74L787.74,2038.95z"/>
				</g>
			</g>
		</g>
		<g>
			<g>
				<g>
					<path class="st3" d="M1196.42,1998.09c-66.75-12.04-216.94-43.86-333.77-103.42c-19.25-9.81-42.68-0.09-49.25,20.49l-0.76,2.39
						c-5.12,16.06,1.92,33.51,16.78,41.46c120.19,64.29,279.99,107.81,348.5,124.72c18.34,4.53,36.8-6.91,40.93-25.35l4.43-19.81
						C1227.45,2019.89,1215.26,2001.49,1196.42,1998.09z"/>
				</g>
			</g>
		</g>
		<g class="st65">
			<g>
				<g>
					<path class="st63" d="M813.4,1915.14l-0.77,2.39c-5.1,16.07,1.92,33.52,16.77,41.48c120.2,64.27,280.02,107.81,348.5,124.74
						c18.35,4.51,36.79-6.91,40.9-25.35l4.45-19.84c0.13-0.52,0.22-1.06,0.29-1.56c-8.03,8.96-20.65,13.32-33.2,10.27
						c-68.49-16.93-228.32-60.42-348.5-124.74c-9.34-4.98-15.58-13.75-17.64-23.54C819.33,1903.05,815.5,1908.57,813.4,1915.14z"/>
				</g>
			</g>
		</g>
		<g>
			<g>
				<g>
					<path class="st63" d="M1186.1,2100.42c-3.97,0-7.98-0.48-11.94-1.46c-64.98-16.04-229.35-60.44-352.14-126.12
						c-21.53-11.52-31.76-36.78-24.33-60.06l0.76-2.39c4.52-14.18,15-25.6,28.73-31.33c13.76-5.74,29.28-5.15,42.59,1.64
						c116.55,59.41,269.2,91.09,329.43,101.96l0,0c13.35,2.41,24.84,9.96,32.34,21.26c7.51,11.31,10.01,24.83,7.05,38.09
						l-4.43,19.81c-2.92,13.07-10.8,24.15-22.18,31.2C1204.06,2097.91,1195.15,2100.42,1186.1,2100.42z M846.7,1906.52
						c-2.52,0-5.05,0.5-7.44,1.49c-5.3,2.21-9.17,6.44-10.92,11.92l-0.76,2.39c-2.83,8.87,1.06,18.49,9.24,22.86
						c119.66,64.01,281.03,107.57,344.86,123.33c4.74,1.17,9.63,0.4,13.78-2.17c4.15-2.57,7.02-6.61,8.08-11.37l4.43-19.82
						c1.08-4.84,0.17-9.77-2.56-13.89c-2.73-4.11-6.91-6.86-11.77-7.73c-61.59-11.11-217.84-43.57-338.11-104.88
						C852.75,1907.23,849.72,1906.52,846.7,1906.52z"/>
				</g>
			</g>
		</g>
		<g>
			<g>
				<g>
					<path class="st3" d="M1207.68,1730.83c0,0,282.09,189.29,190.46,442.97c-43.55,120.57-158.53,69.32-182.86,26.73
						c-42.2-73.88-12.59-280.99-152.09-300.26"/>
				</g>
			</g>
			<g>
				<g>
					<path class="st63" d="M1307.64,2251.18c-40.01,0-80.27-24.45-94.53-49.42c-13.69-23.97-19.95-61.8-26.59-101.85
						c-14.31-86.39-30.52-184.3-123.67-197.18c-1.37-0.19-2.32-1.45-2.13-2.82c0.19-1.37,1.49-2.33,2.82-2.13
						c96.8,13.38,113.33,113.22,127.92,201.31c6.56,39.6,12.75,77,26,100.19c14.17,24.8,57.84,50.01,97.92,46.57
						c25.47-2.2,60.09-16.64,80.42-72.91c46.94-129.94-6.96-242.56-60.44-314.15c-58.13-77.82-128.36-125.42-129.06-125.89
						c-1.15-0.77-1.46-2.32-0.68-3.47c0.78-1.15,2.34-1.45,3.47-0.68c0.71,0.48,71.56,48.47,130.2,126.93
						c54.26,72.6,108.93,186.87,61.23,318.96c-21.22,58.75-57.77,73.86-84.69,76.19
						C1313.09,2251.07,1310.36,2251.18,1307.64,2251.18z"/>
				</g>
			</g>
		</g>
		<g class="st67">
			<g>
				<g>
					<path class="st63" d="M1403.73,2156.87c-1.65,5.61-3.53,11.25-5.57,16.94c-43.57,120.54-158.54,69.33-182.89,26.7
						c-42.19-73.88-12.59-280.96-152.07-300.25v0c26.37-26.25,68.42-28.98,97.47-5.72c78.6,62.95,60.07,177.2,93.62,235.94
						C1273.74,2164.56,1351.22,2204.16,1403.73,2156.87z"/>
				</g>
			</g>
		</g>
		<g>
			<g>
				<g>
					<path class="st63" d="M1307.47,2264.38c-45.83,0-89.73-27.93-105.8-56.07c-14.86-26.02-21.32-64.99-28.15-106.23
						c-14.22-85.9-28.94-174.73-112.47-186.27c-8.58-1.19-14.58-9.1-13.39-17.68s9.09-14.58,17.69-13.39
						c106.41,14.7,124.55,124.22,139.13,212.22c6.36,38.4,12.36,74.66,24.43,95.8c10.77,18.84,48.51,43.19,85.34,39.97
						c31.47-2.72,54.73-24.33,69.15-64.25c86.46-239.38-181.73-422.79-184.45-424.61c-7.19-4.83-9.11-14.57-4.28-21.77
						c4.82-7.19,14.56-9.11,21.76-4.28c2.97,1.99,73.43,49.74,133.41,129.99c80.6,107.84,102.41,222.41,63.06,331.33
						c-24.83,68.75-70.78,82.67-95.95,84.84C1313.78,2264.24,1310.62,2264.38,1307.47,2264.38z"/>
				</g>
			</g>
		</g>
	</g>
</g>
</svg>
