<?xml version="1.0" encoding="utf-8"?>
<!-- Generator: Adobe Illustrator 25.0.0, SVG Export Plug-In . SVG Version: 6.00 Build 0)  -->
<svg version="1.1" id="Capa_1" xmlns="http://www.w3.org/2000/svg" xmlns:xlink="http://www.w3.org/1999/xlink" x="0px" y="0px"
	 viewBox="0 0 509.1 129.1" style="enable-background:new 0 0 509.1 129.1;" xml:space="preserve">
<style type="text/css">
	.st0{fill:#F29100;}
	.st1{fill:none;}
	.st2{fill:#FFFFFF;}
</style>
<g>
	<path class="st0" d="M452.2,9.7l1.7-9.7l2.1,0.4l-1.3,7.7l4.8,0.8l-0.3,1.9L452.2,9.7z"/>
	<path class="st0" d="M476.7,18.5l0.3-2.4l-3.6-2.1l-1.9,1.4l-1.9-1.1l8.6-6.4l1.7,1l-1.3,10.6L476.7,18.5z M477.8,10.8l-2.7,2.1
		l2.3,1.3L477.8,10.8z"/>
	<path class="st0" d="M490.4,31.2l-2.9-3.6l7.6-6.1L498,25c1.3,1.6,1.2,3.1,0,4.1l0,0c-0.9,0.7-1.7,0.6-2.5,0.3
		c0.4,1.2,0.3,2.1-0.7,2.9l0,0C493.4,33.5,491.8,33,490.4,31.2z M493.7,30.6c0.5-0.4,0.5-1-0.2-1.9l-1.6-1.9l-1.7,1.3l1.6,2
		C492.5,30.8,493.1,31,493.7,30.6L493.7,30.6z M496.4,27.7c0.5-0.4,0.5-1-0.1-1.7l-1.3-1.7l-1.6,1.3l1.2,1.6
		C495.2,27.9,495.8,28.2,496.4,27.7L496.4,27.7z"/>
	<path class="st0" d="M499.3,48.2c-0.5-1.4-0.5-3,0.2-4.4l1.9,0.7c-0.4,1.1-0.6,2.1-0.2,3.2c0.3,0.8,0.8,1.2,1.3,1l0,0
		c0.5-0.2,0.7-0.6,0.6-2.3c-0.2-2,0-3.4,1.8-4l0,0c1.7-0.6,3.3,0.4,3.9,2.3c0.5,1.4,0.4,2.7,0,3.8l-1.9-0.5c0.3-1,0.4-1.9,0.1-2.7
		c-0.3-0.8-0.8-1.1-1.2-0.9l0,0c-0.6,0.2-0.7,0.7-0.5,2.4c0.1,2.1-0.2,3.3-1.8,3.9l0,0C501.5,51.3,500,50.2,499.3,48.2z"/>
</g>
<path class="st1" d="M445.7,84.8c10.6,0,17.9-8.3,17.9-18.6V66c0-10.2-7.5-18.7-18.1-18.7c-10.6,0-17.9,8.3-17.9,18.6V66
	C427.6,76.3,435.1,84.8,445.7,84.8z"/>
<polygon class="st1" points="84.3,70.9 100.1,70.9 92.2,51.6 "/>
<path class="st1" d="M296.8,48.1h-13v17.1h13.3c6.4,0,10.1-3.4,10.1-8.4v-0.2C307.1,51,303.2,48.1,296.8,48.1z"/>
<path class="st0" d="M508.2,58.5l-5.6,0.7c0.3,2.3,0.4,4.6,0.4,6.9c0,31.6-25.7,57.4-57.4,57.4c-22.9,0-42.7-13.5-51.9-32.9v5.4
	h-3.6c10.7,19.8,31.5,33.2,55.5,33.2c34.8,0,63-28.3,63-63C508.7,63.5,508.5,61,508.2,58.5z"/>
<path class="st0" d="M393.7,41.6c9.2-19.4,29-32.9,51.9-32.9V3c-24,0-44.9,13.5-55.5,33.2h3.6V41.6z"/>
<path class="st2" d="M28.3,60.2c-10.3-2.6-12.9-3.9-12.9-7.8v-0.2c0-2.9,2.6-5.2,7.7-5.2c5,0,10.2,2.2,15.5,5.9l6.8-9.9
	c-6-4.9-13.5-7.6-22.1-7.6c-12.2,0-20.9,7.2-20.9,18v0.2c0,11.8,7.8,15.2,19.8,18.2c10,2.6,12,4.3,12,7.6v0.2c0,3.5-3.2,5.6-8.6,5.6
	c-6.8,0-12.4-2.8-17.8-7.2L0,87.2c7.2,6.4,16.3,9.5,25.3,9.5c12.9,0,21.9-6.6,21.9-18.5V78C47.2,67.7,40.4,63.3,28.3,60.2z"/>
<path class="st2" d="M86.3,35.8L60.7,95.9h13.4l5.5-13.4h25.2l5.5,13.4H124L98.4,35.8H86.3z M84.3,70.9l7.9-19.3l7.9,19.3H84.3z"/>
<polygon class="st2" points="129.7,48.3 147.9,48.3 147.9,95.9 161,95.9 161,48.3 179.2,48.3 179.2,36.2 129.7,36.2 "/>
<path class="st2" d="M235.6,70.4c0,9.5-4.9,14.3-12.9,14.3c-8,0-12.9-5-12.9-14.7V36.2h-13.1v34.1c0,17.5,9.8,26.5,25.8,26.5
	c16,0,26.2-8.9,26.2-26.9V36.2h-13.1V70.4z"/>
<path class="st2" d="M320.4,56.1v-0.2c0-12.3-8.4-19.7-22.5-19.7h-27.3v59.6h13.1V76.8h10.3l12.8,19.1h15.3l-14.6-21.3
	C315.2,71.7,320.4,65.7,320.4,56.1z M307.1,56.8c0,5-3.7,8.4-10.1,8.4h-13.3V48.1h13c6.4,0,10.3,2.9,10.3,8.5V56.8z"/>
<polygon class="st2" points="390.1,36.2 380.8,36.2 380.8,72.9 352.8,36.2 340.8,36.2 340.8,95.9 353.7,95.9 353.7,57.9 382.6,95.9 
	390.1,95.9 393.7,95.9 393.7,90.5 393.7,41.6 393.7,36.2 "/>
<path class="st2" d="M413.9,66v0.2c0,17,13.2,30.7,31.6,30.7c18.4,0,31.8-13.9,31.8-30.8v-0.2c0-17-13.2-30.7-31.6-30.7
	C427.3,35.2,413.9,49.1,413.9,66z M427.6,65.9c0-10.2,7.3-18.6,17.9-18.6c10.6,0,18.1,8.5,18.1,18.7v0.2c0,10.2-7.3,18.6-17.9,18.6
	c-10.6,0-18.1-8.5-18.1-18.7V65.9z"/>
</svg>
