<?xml version="1.0" encoding="utf-8"?>
<!-- Generator: Adobe Illustrator 25.0.0, SVG Export Plug-In . SVG Version: 6.00 Build 0)  -->
<svg version="1.1" id="Layer_1" xmlns="http://www.w3.org/2000/svg" xmlns:xlink="http://www.w3.org/1999/xlink" x="0px" y="0px"
	 viewBox="0 0 1978.9 3213" style="enable-background:new 0 0 1978.9 3213;" xml:space="preserve">
<style type="text/css">
	.st0{fill:#B8C5D3;}
	.st1{fill:#102770;}
	.st2{opacity:0.3;}
	.st3{fill:#293856;}
	.st4{opacity:0.6;}
	.st5{fill:#FFFFFF;}
	.st6{fill:#FFB200;}
	.st7{fill:#D66B09;}
	.st8{fill:#FFD766;}
	.st9{fill:#FFEC90;}
	.st10{opacity:0.41;}
	.st11{fill:none;}
	.st12{opacity:0.4;}
	.st13{opacity:0.25;fill:#F7AD56;stroke:#102770;stroke-width:3;stroke-miterlimit:10;}
	.st14{fill:#F7AD56;stroke:#102770;stroke-width:3;stroke-miterlimit:10;}
	.st15{opacity:0.2;fill:#F7AD56;stroke:#102770;stroke-width:3;stroke-miterlimit:10;}
	.st16{opacity:0.1;fill:#F7AD56;stroke:#102770;stroke-width:3;stroke-miterlimit:10;}
	.st17{opacity:0.15;fill:#F7AD56;stroke:#102770;stroke-width:3;stroke-miterlimit:10;}
	.st18{opacity:0.5;}
	.st19{opacity:0.85;}
	.st20{fill:#F7931D;}
</style>
<g>
	<g>
		<g>
			<g>
				<g>
					<g>
						<path class="st0" d="M916.5,29.8C621,30,379.2,276.5,379.2,572v180.8c0,14.8,12,26.8,26.8,26.8l0,0c14.8,0,26.8-12,26.8-26.8
							V571.7c0-268.2,219.5-490.4,487.7-488.4c132.2,1,251.8,55,338.6,141.8c87.6,87.6,141.8,208.6,141.8,342.3v185.4
							c0,14.8,12,26.8,26.8,26.8l0,0c14.8,0,26.8-12,26.8-26.8V567.4C1454.3,270.9,1213,29.7,916.5,29.8z"/>
					</g>
				</g>
			</g>
			<g>
				<g>
					<g>
						<path class="st1" d="M1427.6,782.1c-16.1,0-29.3-13.1-29.3-29.3V567.4c0-128.6-50.1-249.6-141-340.5
							c-90-90-209.7-140.1-336.9-141c-1.2,0-2.4,0-3.6,0c-126.4,0-245.9,49.7-337,140c-93.3,92.6-144.6,215.4-144.6,345.9v181.1
							c0,16.1-13.1,29.3-29.3,29.3s-29.3-13.1-29.3-29.3V572c0-143.9,56.3-280.1,158.5-383.6C637.8,84.6,773.2,27.4,916.5,27.3
							c0.1,0,0.2,0,0.3,0c144,0,279.5,56.2,381.6,158.3c102.2,102.1,158.4,237.7,158.4,381.8v185.4
							C1456.8,768.9,1443.7,782.1,1427.6,782.1z M916.9,80.8c1.2,0,2.4,0,3.6,0c128.5,0.9,249.4,51.6,340.4,142.5
							c91.9,91.9,142.5,214.1,142.5,344.1v185.4c0,13.4,10.9,24.3,24.3,24.3s24.3-10.9,24.3-24.3V567.4
							c0-142.7-55.8-277.1-157-378.3C1193.7,88,1059.4,32.3,916.8,32.3c-0.1,0-0.2,0-0.3,0v-2.5v2.5
							C621.6,32.5,381.7,274.6,381.7,572v180.8c0,13.4,10.9,24.3,24.3,24.3s24.3-10.9,24.3-24.3V571.7
							c0-131.8,51.9-255.9,146.1-349.4C668.3,131,789.2,80.8,916.9,80.8z"/>
					</g>
				</g>
			</g>
		</g>
		<g class="st2">
			<g>
				<g>
					<g>
						<g>
							<path class="st3" d="M427,512.5c-14.2,0-25.6-11.5-25.6-25.6v-67.6c-14.4,48.6-22.2,100-22.2,152.8v180.8
								c0,14.8,12,26.8,26.8,26.8c7.4,0,14.1-3,18.9-7.8c4.8-4.8,7.8-11.5,7.8-18.9V571.7c0-20.7,1.3-41.1,3.8-61.1
								C433.6,511.9,430.4,512.5,427,512.5z M1432.2,414.4v72.5c0,7.1-2.9,13.5-7.5,18.1s-11,7.5-18.1,7.5c-3.2,0-6.2-0.6-8.9-1.6
								c2.2,18.5,3.3,37.4,3.3,56.6v185.4c0,14.8,12,26.8,26.8,26.8c7.4,0,14.1-3,18.9-7.8c4.8-4.8,7.8-11.5,7.8-18.9V567.4
								C1454.3,514.3,1446.6,462.9,1432.2,414.4z"/>
						</g>
					</g>
				</g>
			</g>
			<g>
				<g>
					<g>
						<g>
							<path class="st1" d="M1427.6,782c-16.1,0-29.2-13.1-29.2-29.3V567.4c0-18.8-1.1-37.7-3.3-56.3l-0.5-4.1l3.9,1.5
								c8.2,3.2,18.1,1,24.4-5.3c4.4-4.4,6.8-10.2,6.8-16.4v-89.6l4.9,16.5c14.8,49.7,22.3,101.4,22.3,153.7v185.4
								c0,7.8-3.1,15.2-8.6,20.7C1442.7,779,1435.4,782,1427.6,782z M1400.5,514.3c1.9,17.5,2.9,35.4,2.9,53.1v185.4
								c0,13.4,10.9,24.3,24.2,24.3c6.5,0,12.6-2.5,17.1-7.1c4.6-4.6,7.1-10.7,7.1-17.1V567.4c0-45.7-5.8-90.9-17.2-134.7v54.2
								c0,7.5-2.9,14.6-8.2,19.9C1419.7,513.5,1409.7,516.4,1400.5,514.3z M406,782c-16.1,0-29.3-13.1-29.3-29.3V572
								c0-52.1,7.5-103.8,22.3-153.5l4.9-16.5v84.9c0,12.8,10.4,23.1,23.1,23.1c3,0,5.9-0.6,8.6-1.7l4-1.6L439,511
								c-2.5,20.1-3.8,40.5-3.8,60.8v181.1c0,7.8-3,15.1-8.6,20.7C421.1,779,413.8,782,406,782z M398.9,437.5
								c-11.4,43.9-17.2,89-17.2,134.5v180.8c0,13.4,10.9,24.3,24.3,24.3c6.5,0,12.5-2.5,17.1-7.1c4.6-4.6,7.1-10.7,7.1-17.1V571.7
								c0-19.2,1.1-38.5,3.4-57.5c-2.1,0.5-4.3,0.8-6.6,0.8c-15.5,0-28.1-12.6-28.1-28.1L398.9,437.5L398.9,437.5z"/>
						</g>
					</g>
				</g>
			</g>
		</g>
		<g>
			<g>
				<g>
					<g>
						<path class="st1" d="M1427.6,793c-22.2,0-40.2-18-40.2-40.2V567.4c0-125.7-48.9-243.9-137.8-332.8
							c-88-88-204.9-136.9-329.2-137.8c-1.2,0-2.3,0-3.5,0c-123.5,0-240.3,48.5-329.3,136.9c-91.2,90.5-141.4,210.6-141.4,338.1
							v181.1c0,22.2-18,40.2-40.2,40.2c-22.2,0-40.2-18-40.2-40.2V572c0-146.8,57.4-285.8,161.7-391.3
							C632.1,74.8,770.2,16.5,916.5,16.4c0.1,0,0.2,0,0.3,0c146.9,0,285.2,57.3,389.4,161.5c104.2,104.2,161.7,242.5,161.7,389.5
							v185.4C1467.8,775,1449.8,793,1427.6,793z M916.8,69.9c1.2,0,2.5,0,3.7,0c131.4,1,255,52.7,348,145.7
							c94,94,145.7,218.9,145.7,351.8v185.4c0,7.3,6,13.3,13.3,13.3s13.3-6,13.3-13.3V567.4c0-139.8-54.6-271.4-153.8-370.5
							C1188,97.8,1056.5,43.3,916.8,43.3c-0.1,0-0.2,0-0.3,0V29.8v13.5C627.7,43.4,392.7,280.6,392.7,572v180.8
							c0,7.3,6,13.3,13.3,13.3s13.3-6,13.3-13.3V571.7c0-134.7,53-261.6,149.3-357.2C662.7,121.2,786.2,69.9,916.8,69.9z"/>
					</g>
				</g>
			</g>
		</g>
		<g>
			<g>
				<g>
					<g>
						<path class="st0" d="M515.1,846.7h-70c-17.1,0-30.9-13.8-30.9-30.9V469.2c0-17.1,13.8-30.9,30.9-30.9h70
							c17.1,0,30.9,13.8,30.9,30.9v346.6C546,832.9,532.2,846.7,515.1,846.7z"/>
					</g>
				</g>
			</g>
			<g>
				<g>
					<g>
						<path class="st1" d="M515.1,849.2h-70c-18.4,0-33.4-15-33.4-33.4V469.2c0-18.4,15-33.4,33.4-33.4h70c18.4,0,33.4,15,33.4,33.4
							v346.6C548.5,834.2,533.5,849.2,515.1,849.2z M445.2,440.8c-15.7,0-28.4,12.7-28.4,28.4v346.6c0,15.7,12.7,28.4,28.4,28.4h70
							c15.7,0,28.4-12.7,28.4-28.4V469.2c0-15.7-12.7-28.4-28.4-28.4H445.2z"/>
					</g>
				</g>
			</g>
		</g>
		<g class="st4">
			<g>
				<g>
					<g>
						<path class="st5" d="M515.1,438.3h-70c-17.1,0-30.9,13.8-30.9,30.9v35c0-17.1,13.8-30.9,30.9-30.9h70
							c17.1,0,30.9,13.8,30.9,30.9v-35C546,452.1,532.2,438.3,515.1,438.3z"/>
					</g>
				</g>
			</g>
		</g>
		<g>
			<g>
				<g>
					<g>
						<path class="st6" d="M414.3,794h-33.1c-26.4,0-47.8-21.4-47.8-47.8V538.8c0-26.4,21.4-47.8,47.8-47.8h33.1L414.3,794
							L414.3,794z"/>
					</g>
				</g>
			</g>
		</g>
		<g class="st4">
			<g>
				<g>
					<g>
						<path class="st5" d="M343.4,568.8c0-26.4,21.4-47.8,47.8-47.8h23.1v-30h-33.1c-26.4,0-47.8,21.4-47.8,47.8v207.4
							c0,11,3.8,21.1,10,29.2L343.4,568.8L343.4,568.8z"/>
					</g>
				</g>
			</g>
		</g>
		<g>
			<g>
				<g>
					<g>
						<path class="st1" d="M502.3,861.2H458c-32.1,0-58.2-26.1-58.2-58.2V482c0-32.1,26.1-58.2,58.2-58.2h44.4
							c32.1,0,58.2,26.1,58.2,58.2V803C560.6,835.1,534.4,861.2,502.3,861.2z M458,452.8c-16.1,0-29.2,13.1-29.2,29.2V803
							c0,16.1,13.1,29.2,29.2,29.2h44.4c16.1,0,29.2-13.1,29.2-29.2V482c0-16.1-13.1-29.2-29.2-29.2H458z"/>
					</g>
				</g>
			</g>
		</g>
		<g>
			<g>
				<g>
					<g>
						<path class="st1" d="M428.8,808.5h-47.6c-34.4,0-62.3-28-62.3-62.3V538.8c0-34.4,28-62.3,62.3-62.3h47.6V808.5z M381.2,505.5
							c-18.4,0-33.3,14.9-33.3,33.3v207.4c0,18.3,14.9,33.3,33.3,33.3h18.5v-274H381.2z"/>
					</g>
				</g>
			</g>
		</g>
		<g>
			<g>
				<g>
					<g>
						<path class="st0" d="M1318.4,438.3h70c17.1,0,30.9,13.8,30.9,30.9v346.6c0,17.1-13.8,30.9-30.9,30.9h-70
							c-17.1,0-30.9-13.8-30.9-30.9V469.2C1287.5,452.1,1301.4,438.3,1318.4,438.3z"/>
					</g>
				</g>
			</g>
			<g>
				<g>
					<g>
						<path class="st1" d="M1388.4,849.2h-70c-18.4,0-33.4-15-33.4-33.4V469.2c0-18.4,15-33.4,33.4-33.4h70
							c18.4,0,33.4,15,33.4,33.4v346.6C1421.8,834.2,1406.8,849.2,1388.4,849.2z M1318.4,440.8c-15.7,0-28.4,12.7-28.4,28.4v346.6
							c0,15.7,12.7,28.4,28.4,28.4h70c15.7,0,28.4-12.7,28.4-28.4V469.2c0-15.7-12.7-28.4-28.4-28.4H1318.4z"/>
					</g>
				</g>
			</g>
		</g>
		<g class="st4">
			<g>
				<g>
					<g>
						<path class="st5" d="M1319.3,438.3h70c17.1,0,30.9,13.8,30.9,30.9v35c0-17.1-13.8-30.9-30.9-30.9h-70
							c-17.1,0-30.9,13.8-30.9,30.9v-35C1288.4,452.1,1302.2,438.3,1319.3,438.3z"/>
					</g>
				</g>
			</g>
		</g>
		<g>
			<g>
				<g>
					<g>
						<path class="st6" d="M1419.3,491h33.1c26.4,0,47.8,21.4,47.8,47.8v207.4c0,26.4-21.4,47.8-47.8,47.8h-33.1V491z"/>
					</g>
				</g>
			</g>
		</g>
		<g class="st4">
			<g>
				<g>
					<g>
						<path class="st5" d="M1491,568.8c0-26.4-21.4-47.8-47.8-47.8h-23.1v-30h33.1c26.4,0,47.8,21.4,47.8,47.8v207.4
							c0,11-3.8,21.1-10,29.2V568.8z"/>
					</g>
				</g>
			</g>
		</g>
		<g class="st2">
			<g>
				<g>
					<g>
						<path class="st1" d="M546,658.8v157.1c0,17-13.8,30.9-30.9,30.9h-69.9c-17.1,0-30.9-13.9-30.9-30.9V645.2
							c0,17,5.4,44.4,23.5,44.4c28.4,0,39.7-50.6,39.7-50.6s7.9,47,30.3,50.6C538,694.5,546,675.8,546,658.8z"/>
					</g>
				</g>
			</g>
		</g>
		<g class="st2">
			<g>
				<g>
					<g>
						<path class="st1" d="M1287.5,658.8v157.1c0,17,13.8,30.9,30.9,30.9h69.9c17.1,0,30.9-13.9,30.9-30.9V645.2
							c0,17-5.4,44.4-23.5,44.4c-28.4,0-39.7-50.6-39.7-50.6s-7.9,47-30.3,50.6C1295.6,694.5,1287.5,675.8,1287.5,658.8z"/>
					</g>
				</g>
			</g>
		</g>
		<g class="st2">
			<g>
				<g>
					<g>
						<path class="st1" d="M414.3,661.7V794h-33.1c-26.4,0-47.8-21.4-47.8-47.8v-99.8c0,1.1,0,2.2,0.1,3.3c2.3,33.6,44,48.1,68,24.6
							L414.3,661.7z"/>
					</g>
				</g>
			</g>
		</g>
		<g class="st2">
			<g>
				<g>
					<g>
						<path class="st1" d="M1500.2,646.4v99.8c0,26.4-21.4,47.8-47.8,47.8h-33.1V646.4l14.1,20.4c20.1,29,66.2,15.7,66.8-19.6
							C1500.2,646.9,1500.2,646.6,1500.2,646.4z"/>
					</g>
				</g>
			</g>
		</g>
		<g>
			<g>
				<g>
					<g>
						<path class="st1" d="M1375.6,861.2h-44.4c-32.1,0-58.2-26.1-58.2-58.2V482c0-32.1,26.1-58.2,58.2-58.2h44.4
							c32.1,0,58.2,26.1,58.2,58.2V803C1433.8,835.1,1407.7,861.2,1375.6,861.2z M1331.2,452.8c-16.1,0-29.2,13.1-29.2,29.2V803
							c0,16.1,13.1,29.2,29.2,29.2h44.4c16.1,0,29.2-13.1,29.2-29.2V482c0-16.1-13.1-29.2-29.2-29.2H1331.2z"/>
					</g>
				</g>
			</g>
		</g>
		<g>
			<g>
				<g>
					<g>
						<path class="st1" d="M1452.4,808.5h-47.6V476.5h47.6c34.4,0,62.3,28,62.3,62.3v207.4C1514.7,780.6,1486.7,808.5,1452.4,808.5z
							 M1433.8,779.5h18.6c18.3,0,33.3-14.9,33.3-33.3V538.8c0-18.3-14.9-33.3-33.3-33.3h-18.6V779.5z"/>
					</g>
				</g>
			</g>
		</g>
		<g>
			<g>
				<g>
					<g>
						<g>
							<path class="st6" d="M1624.5,2092.5c-2.5,27.6-6.8,55-12.6,81.9c-8.2,37.9-19.7,75-34.2,110.9
								c-63,155.6-183.6,288.2-348.6,362.8c-165.4,74.8-345,77.7-503.7,21.9c-34.8-12.3-68.7-27.4-101.1-45.1
								c-25.5-13.9-50-29.5-73.6-46.7c166.1-41.8,358.1-109.2,556.8-199C1306.1,2289.3,1483.5,2189.6,1624.5,2092.5z"/>
						</g>
					</g>
				</g>
			</g>
			<g>
				<g>
					<g>
						<g>
							<path class="st7" d="M1107.4,2379.1c198.7-89.9,376.1-189.5,517.1-286.7c-2.5,27.6-6.8,55-12.6,81.9
								c-108.6,78.9-282,176.2-484,267.6c-193.5,87.5-373.8,151.7-503.7,182.8c-25.5-13.9-50-29.5-73.6-46.7
								C716.7,2536.4,908.7,2469,1107.4,2379.1z"/>
						</g>
					</g>
				</g>
			</g>
			<g>
				<g>
					<g>
						<g>
							<path class="st6" d="M1597.1,1830.9c-110.2,89.1-327.8,213.8-587.7,331.4c-259.9,117.6-497.3,198.6-637,222.5
								c-14.5-23.8-27.7-48.7-39.5-74.7c-0.5-1.2-1.1-2.4-1.6-3.7c-5.1-11.5-9.9-23-14.3-34.6c-10.4-27.2-18.9-54.7-25.6-82.3
								c-0.3-1.1-0.5-2.2-0.8-3.4c-9.7-41.1-15.4-82.5-17.3-123.7c-3.6-78.5,6.6-156.3,29.3-230.2c16.9-55,40.7-107.8,71-156.9
								c68.4-111,169.5-203.6,297.3-261.4c12.7-5.7,25.5-11.1,38.3-15.9c172.2-65.7,356.5-56.3,514.9,13.7c1,0.4,2,0.9,3,1.3
								c68.7,30.7,132.4,73,188,125.4c27.2,25.7,52.5,53.8,75.4,84.3c2.5,3.3,5,6.6,7.4,10c2,2.7,4,5.5,6,8.3
								c16.3,23.3,31.4,47.8,44.9,73.6c5.1,9.5,9.9,19.3,14.5,29.1c1.3,2.7,2.5,5.4,3.7,8.2
								C1578.8,1777.9,1588.8,1804.3,1597.1,1830.9z"/>
						</g>
					</g>
				</g>
			</g>
			<g>
				<g>
					<g>
						<g>
							<path class="st7" d="M1563.3,1743.8c1.3,2.7,2.5,5.4,3.8,8.1c11.8,26,21.8,52.4,30,79c-110.2,89.1-327.8,213.8-587.7,331.4
								c-259.9,117.6-497.3,198.6-637,222.5c-14.5-23.8-27.7-48.7-39.5-74.7c-0.5-1.2-1.1-2.4-1.6-3.7
								c132.4-14.6,374.1-93.1,639-212.9C1245.8,1969,1471,1833.8,1563.3,1743.8z"/>
						</g>
					</g>
				</g>
			</g>
			<g>
				<g>
					<g>
						<g>
							<path class="st7" d="M282.4,2077.6c-3.5,0-6.7-0.1-9.9-0.2l1.5-29.9c93.4,4.8,336.3-72.1,590.8-187.2
								c268.1-121.2,494.2-259.9,537.6-329.7l25.5,15.8c-47,75.4-273.4,215.7-550.7,341.1C623.1,2002.5,387.2,2077.6,282.4,2077.6z"
								/>
						</g>
					</g>
				</g>
			</g>
			<g>
				<g>
					<g>
						<g>
							<path class="st7" d="M304.7,1847.1l-4.4-29.7c104.5-15.5,285.3-77.6,471.9-161.9c195.5-88.4,364.8-186.1,441.9-254.9l20,22.4
								c-79.2,70.7-251.4,170.3-449.5,259.9C595.6,1768.2,411.8,1831.2,304.7,1847.1z"/>
						</g>
					</g>
				</g>
			</g>
			<g>
				<g>
					<g>
						<g>
							<path class="st7" d="M291.6,2201.1c-0.4,0-0.7,0-1.1,0l0.1-30c0.3,0,0.7,0,1,0c107.5,0,357.5-80.4,623-200.5
								c279.5-126.4,514.3-269,571.1-346.7l24.2,17.7c-60.5,82.8-294.8,226-583,356.3C658.1,2119.6,403,2201.1,291.6,2201.1z"/>
						</g>
					</g>
				</g>
			</g>
			<g>
				<g>
					<g>
						<g>
							<path class="st7" d="M725.8,2677.4l-0.5-7.4l-3.9-6.4l1.5-0.9l1.8-0.1c92-6.6,267.2-63.2,446.2-144.2
								c180-81.4,333.9-172.8,401.4-238.4l10.4,10.8c-68.7,66.7-224.2,159.2-405.7,241.3C993.9,2614.8,820.9,2670.6,725.8,2677.4z"
								/>
						</g>
					</g>
				</g>
			</g>
			<g>
				<g>
					<g>
						<g>
							<path class="st3" d="M950.3,2723.1c-144.5,0-288.1-45-408.6-132.8l-25.9-18.9l31-7.8c171.2-43.1,362.9-111.6,554.3-198.1
								c191.4-86.6,369.4-185.3,514.8-285.4l26.4-18.2l-2.9,31.9c-22.8,247.8-177.7,465.5-404.2,567.9
								C1144.3,2702.9,1047.1,2723.1,950.3,2723.1z M586.1,2584.5c188.9,123.9,429.9,143.5,636.8,50
								c206.9-93.6,351.3-287.5,383-511.2c-141.6,94.8-311,187.6-492.3,269.5C932.3,2474.8,750.7,2540.7,586.1,2584.5z"/>
						</g>
					</g>
				</g>
			</g>
			<g>
				<g>
					<g>
						<g>
							<path class="st7" d="M1606.3,1663.6c0.6,1.4,1.1,2.8,1.5,4.4L1606.3,1663.6z"/>
						</g>
					</g>
				</g>
			</g>
			<g>
				<g>
					<g>
						<g>
							<path class="st8" d="M1956.7,1681c40.9,90.4-93.9,247.3-332.2,411.4c-141.1,97.1-318.5,196.8-517.1,286.7
								c-198.7,89.9-390.7,157.2-556.8,199c-280.6,70.6-487.4,68.1-528.3-22.3c-37.1-82.1,70.6-219,269.1-366.4
								c6.7,27.6,15.2,55.1,25.6,82.3c-54.9,44.9-81.9,80.5-72.5,101.2c9.6,21.1,55.7,24.1,127.9,11.8
								c139.7-23.9,377-104.9,637-222.5c260-117.6,477.6-242.3,587.7-331.4c57-46.1,85.2-82.7,75.6-103.8
								c-9.4-20.7-54-24-123.9-12.4c-13.6-25.8-28.6-50.3-44.9-73.6C1745.6,1589.4,1919.6,1598.9,1956.7,1681z"/>
						</g>
					</g>
				</g>
			</g>
			<g>
				<g>
					<g>
						<g>
							<path class="st9" d="M276.1,2455.5c-51.2,0-90.2-10.6-103-38.9c-18.3-40.5,24.2-102.1,126.4-183.2l14,17.6
								c-87.8,69.6-132.6,128.1-119.8,156.3c15.2,33.7,126.8,44.7,391-35.2c135.5-41,288.7-99.6,443.1-169.4
								c154.3-69.8,299.5-146.2,419.8-220.8c234.5-145.7,299.9-236.7,284.7-270.4c-12.8-28.2-86.2-33.2-196.5-13.2l-4-22.1
								c128.3-23.2,202.7-14.4,221,26.1c35.8,79.2-168.4,221.2-293.3,298.8c-121.1,75.2-267.1,152-422.4,222.2
								c-155.2,70.2-309.4,129.1-445.8,170.4C500.6,2421.1,368.4,2455.5,276.1,2455.5z"/>
						</g>
					</g>
				</g>
			</g>
			<g>
				<g>
					<g>
						<g>
							<path class="st9" d="M240.7,2546.8c-83.5,0-136.8-19.2-154.1-57.5c-36-79.5,91.3-198.5,204.5-284.3l13.6,17.9
								C158.3,2334,84.4,2430.1,107,2480.1c28.5,62.9,203.1,58.9,455.6-10.5c154.3-42.4,327.9-106.4,501.9-185.1
								c174-78.7,336.7-166.7,470.4-254.6c218.9-143.8,337.2-272.3,308.8-335.2c-22.6-50-143.6-58-323.5-21.4l-4.5-22
								c139.1-28.3,312.5-45.3,348.5,34.2c34.4,76-81.1,208.4-316.9,363.3c-134.7,88.5-298.5,177.2-473.5,256.3
								c-175.1,79.2-349.8,143.6-505.2,186.3C433.8,2528.3,322.7,2546.8,240.7,2546.8z"/>
						</g>
					</g>
				</g>
			</g>
			<g>
				<g>
					<g>
						<g>
							<path class="st1" d="M219.2,2642.9c-113.1,0-186.3-27.1-210.6-80.8c-39.6-87.5,57.6-224.1,273.8-384.6l18.2-13.5l5.3,22
								c6.6,27.2,15,54.3,25,80.5l3.9,10.1l-8.4,6.9c-76.6,62.6-68.7,82.6-68.3,83.4c0.4,0.9,10.5,20.4,111.8,3.2
								c142.6-24.4,385.3-109.2,633.3-221.4c248-112.2,472-238.4,584.5-329.4c79.8-64.6,71.8-85.1,71.4-86
								c-0.4-0.8-10.2-19.9-107.8-3.8l-10.7,1.8l-5-9.6c-13.1-24.8-27.8-49-43.9-71.9l-13-18.5l22.2-4.7
								c263.2-56.3,430-39.2,469.6,48.4c43.3,95.8-79.6,252.5-337.3,429.9c-146.8,101.1-326.5,200.7-519.5,288
								c-193,87.3-386.5,156.4-559.3,199.9C421,2626.2,307.8,2642.9,219.2,2642.9z M282.5,2215C96.7,2356.3,4.8,2480.7,36,2549.7
								c35.7,78.9,231.4,84.2,511,13.9c171.2-43.1,362.9-111.6,554.3-198.1c191.4-86.6,369.4-185.3,514.8-285.4
								c237.4-163.5,362.7-314,327-392.9c-31.2-69-185.4-82.2-414.2-36c10,15.3,19.4,31,28.1,47c76-11.4,117.2-4.1,129.3,22.7
								c12.9,28.5-12.5,67.1-79.9,121.7c-116.1,93.9-337,218.5-591,333.4s-493.4,198.4-640.6,223.6c-85.5,14.6-131.3,8.1-144.1-20.4
								c-12.1-26.8,9.6-62.6,68.4-112.1C292.9,2250,287.4,2232.5,282.5,2215z"/>
						</g>
					</g>
				</g>
			</g>
			<g class="st2">
				<g>
					<g>
						<g>
							<path class="st1" d="M1624.5,2092.5c-2.5,27.6-6.8,55-12.6,81.9c-8.2,37.9-19.7,75-34.2,110.9
								c-63,155.6-183.6,288.2-348.6,362.8c-165.4,74.8-345,77.7-503.7,21.9c-34.8-12.3-68.7-27.4-101.1-45.1
								c-25.5-13.9-50-29.5-73.6-46.7c166.1-41.8,358.1-109.2,556.8-199C1306.1,2289.3,1483.5,2189.6,1624.5,2092.5z"/>
						</g>
					</g>
				</g>
			</g>
			<g class="st2">
				<g>
					<g>
						<g>
							<path class="st1" d="M1597.1,1830.9c-110.1,89.1-327.8,213.8-587.7,331.4c-259.9,117.6-497.3,198.6-637,222.5
								c-14.5-23.8-27.7-48.7-39.5-74.7c-0.5-1.2-1.1-2.4-1.6-3.6c-5.1-11.5-9.9-23.1-14.3-34.6c-10.4-27.2-18.9-54.7-25.6-82.3
								c-0.3-1.1-0.5-2.2-0.7-3.4c-9.7-41.1-15.4-82.5-17.4-123.7c-3.6-78.5,6.6-156.3,29.3-230.2c16.9-55,40.8-107.8,71-156.9
								c4.8-7.9,9.8-15.6,15-23.3c2.4-3.6,4.8-7,7.3-10.5c0.3-0.4,0.6-0.9,1-1.4c2.3-3.2,4.5-6.4,6.9-9.6c0.3-0.5,0.7-1,1.1-1.6
								c2.5-3.5,5.2-7,7.8-10.4c0.2-0.3,0.4-0.6,0.6-0.9c2.8-3.7,5.7-7.3,8.5-10.9c6-7.5,12.1-14.8,18.5-22.1
								c3.2-3.6,6.4-7.2,9.6-10.7c2.8-3.1,5.6-6.1,8.4-9.1c0.8-0.8,1.6-1.7,2.4-2.6c6.3-6.6,12.8-13.1,19.4-19.5
								c3.5-3.3,7-6.6,10.5-9.9c0,0,0,0,0.1,0c7.1-6.5,14.4-13,21.8-19.3c7.5-6.3,15-12.4,22.8-18.4c5.6-4.3,11.3-8.6,17.1-12.8
								c1-0.8,2.1-1.5,3.1-2.2c4.8-3.4,9.6-6.8,14.5-10.1c0.4-0.3,0.8-0.5,1.2-0.8c0,0,0,0.1,0,0.1c31.1-20.9,64.3-39.6,99.6-55.5
								c12.7-5.7,25.5-11.1,38.3-15.9l517.9,15.1c68.7,30.7,132.4,73,188,125.4c27.2,25.7,52.5,53.8,75.4,84.3
								c-19.5,59.7-58.2,86-125.6,77.3c-54-7-84.1-34.9-113.3-48.5c-26.8-12.4-47.6-14.3-61.2-13.4c-30,2-60.1,3.6-90.2,3.6H733.7
								c-30.1,0-60.2-1.7-90.2-3.6c-13.6-0.9-34.4,1.1-61.1,13.4c-27.9,12.9-56.5,38.9-105.9,47.3c-11.8,55.7-16.6,113.1-14,170.9
								c1.9,41.3,7.6,82.6,17.3,123.7c0.3,1.2,0.5,2.3,0.8,3.4c0.4,1.5,0.9,3.3,1.5,5.5c34,116.5,159.1,165.7,280.1,155.3
								c230.5-19.9,730.6-287.4,837-349.2C1606.5,1826.5,1591.4,1812.8,1597.1,1830.9z"/>
						</g>
					</g>
				</g>
			</g>
			<g class="st10">
				<g>
					<g>
						<g>
							<g>
								<path class="st5" d="M1597,1830.9c-12.8,10.4-27.1,21.2-42.7,32.5c-6.3-17.8-13.4-35.5-21.3-53c-1.3-2.7-2.5-5.4-3.8-8.1
									c-4.6-9.9-9.4-19.6-14.5-29.2c-13.6-25.8-28.6-50.3-44.9-73.6c-2-2.8-4-5.6-6-8.3c-24.9-34.3-52.7-65.9-82.9-94.3
									c-56.4-53.2-121.2-95.9-191-126.8c-170.1-75.3-370.4-80.5-553.2,2.2c-122,55.2-219.8,142.1-287.9,246.6
									c67.6-130.4,177.8-239.8,322-305c182.8-82.7,383.1-77.5,553.2-2.2c69.8,30.9,134.6,73.6,191,126.8
									c30.2,28.4,57.9,59.9,82.8,94.3c2.1,2.8,4,5.6,6,8.4c16.3,23.3,31.4,47.8,44.9,73.5c5.1,9.6,9.9,19.3,14.5,29.2
									c1.3,2.7,2.6,5.4,3.8,8.1C1578.8,1778,1588.8,1804.3,1597,1830.9z"/>
							</g>
						</g>
					</g>
				</g>
			</g>
			<g>
				<g>
					<g>
						<g>
							<path class="st1" d="M364.9,2401.3l-5.3-8.7c-14.9-24.3-28.5-50-40.4-76.3c-5.8-12.9-11.3-26.1-16.3-39.2
								c-10.5-27.4-19.3-55.7-26.1-84.1c-78-322.4,85.2-655.8,387.9-792.8c302.7-136.9,660.8-39.3,851.5,232.2
								c16.8,23.9,32.3,49.2,45.9,75.2c6.5,12.3,12.8,25.1,18.6,38.1l0,0c11.9,26.3,22.2,53.5,30.7,80.7l3,9.7l-7.9,6.4
								c-116.1,93.9-337,218.5-591,333.4c-254,114.9-493.4,198.4-640.6,223.6L364.9,2401.3z M949.7,1368.7
								c-91.8,0-184.6,19.1-272.6,58.9c-289.6,131-445.7,449.9-371.1,758.4c6.6,27.2,15,54.3,25,80.5c4.8,12.5,10,25.1,15.6,37.5
								c10,22,21.2,43.6,33.4,64.3c143.8-26.5,381-110,623.2-219.6c242.3-109.6,461.6-232.5,576.5-323
								c-7.5-22.8-16.3-45.5-26.2-67.5l0,0c-5.6-12.4-11.6-24.6-17.8-36.4c-13.1-24.8-27.8-49-43.9-71.9
								C1364.7,1469,1160,1368.7,949.7,1368.7z"/>
						</g>
					</g>
				</g>
			</g>
			<g class="st2">
				<g>
					<g>
						<g>
							<path class="st1" d="M1095.2,2384.6c-194.4,87.1-381.9,152.6-544.6,193.5c-280.6,70.6-487.4,68.1-528.3-22.3
								c-37.1-82.1,70.6-219,269.1-366.4c6.7,27.6,15.2,55.1,25.6,82.3c-54.9,44.9-81.9,80.4-72.5,101.2
								c9.6,21.2,55.7,24.1,127.9,11.8c92.6-15.9,228.3-56.9,385.1-117c-3.8,20.4-2.1,39,5.3,55.4
								C793.3,2391,917.1,2409.3,1095.2,2384.6z"/>
						</g>
					</g>
				</g>
			</g>
		</g>
		<g>
			<g>
				<g>
					<g>
						<g>
							<g>
								<path class="st1" d="M444.9,1645.4c-31.6,0-57-8.7-77.1-26.4c-38.3-33.7-55.4-98.5-55.4-210.2c0-35.4,10.7-65.1,30.8-86
									c18.2-18.9,43-29.3,69.9-29.3c53.2,0,107,40.8,107,118.8c0,8-6.5,14.5-14.5,14.5s-14.5-6.5-14.5-14.5
									c0-59-39.2-89.8-78-89.8c-18.9,0-36.3,7.3-49,20.4c-14.8,15.4-22.7,38.1-22.7,65.8c0,101.2,14.5,161.1,45.5,188.4
									c18.7,16.4,44.9,22.2,80.1,17.6c35.7-4.6,60.4-19.4,82.1-32.4c9.2-5.5,18-10.7,26.9-14.9c54.4-25.2,87.7-11.5,91.4-9.8
									c7.3,3.3,10.5,11.9,7.2,19.2c-3.3,7.2-11.8,10.5-19,7.3c-1.4-0.6-25.4-9.8-67.3,9.7c-7.6,3.5-15.7,8.3-24.2,13.5
									c-23,13.8-51.7,30.9-93.3,36.3C461.8,1644.8,453.1,1645.4,444.9,1645.4z"/>
							</g>
						</g>
					</g>
				</g>
				<g>
					<g>
						<g>
							<g>
								<path class="st1" d="M499.6,1387c-3.1,0-6.2-1-8.8-3c-6.3-4.9-7.5-14-2.7-20.3c0.9-1.2,23.4-30.2,58.2-42.6
									c7.5-2.7,15.9,1.3,18.5,8.8c2.7,7.6-1.3,15.9-8.8,18.6c-26.5,9.4-44.7,32.6-44.9,32.9C508.2,1385,503.9,1387,499.6,1387z"/>
							</g>
						</g>
					</g>
				</g>
			</g>
			<g>
				<g>
					<g>
						<g>
							<g>
								<path class="st1" d="M1389.1,1645.4c-8.2,0-16.9-0.6-26-1.8c-41.7-5.4-70.3-22.5-93.3-36.3c-8.6-5.1-16.6-9.9-24.2-13.5
									c-42.3-19.6-66.4-10.1-67.4-9.7l-2.9,1.3l-2.9-0.1H661.6c-8,0-14.5-6.5-14.5-14.5s6.5-14.5,14.5-14.5h508.1
									c10.3-3.5,41.4-10.4,88,11.1c9,4.2,17.7,9.4,26.9,14.9c21.8,13,46.5,27.8,82.2,32.4c35.3,4.6,61.5-1.2,80.2-17.6
									c31.1-27.3,45.6-87.2,45.6-188.4c0-27.7-7.8-50.5-22.7-65.8c-12.7-13.2-30.1-20.4-49-20.4c-38.8,0-78,30.8-78,89.8
									c0,8-6.5,14.5-14.5,14.5s-14.5-6.5-14.5-14.5c0-78,53.8-118.8,107-118.8c26.8,0,51.7,10.4,69.9,29.3
									c20.2,20.9,30.8,50.6,30.8,86c0,111.7-17.1,176.6-55.4,210.2C1446.1,1636.7,1420.7,1645.4,1389.1,1645.4z"/>
							</g>
						</g>
					</g>
				</g>
				<g>
					<g>
						<g>
							<g>
								<path class="st1" d="M1334.4,1387c-3.9,0-7.9-1.6-10.7-4.8c-0.4-0.4-18.9-21.2-47-32.4c-7.4-3-11.1-11.4-8.1-18.9
									c3-7.4,11.4-11.1,18.9-8.1c35,14,57,39,57.9,40.1c5.2,6,4.6,15.1-1.3,20.4C1341.3,1385.8,1337.8,1387,1334.4,1387z"/>
							</g>
						</g>
					</g>
				</g>
			</g>
		</g>
		<g class="st2">
			<g>
				<g>
					<g>
						<g>
							<path class="st3" d="M404.8,1629c2.5-3.5,5.1-7,7.8-10.4C410,1622.1,407.3,1625.5,404.8,1629z"/>
						</g>
					</g>
				</g>
			</g>
			<g>
				<g>
					<g>
						<g>
							<path class="st1" d="M406.8,1630.5l-4-2.9c1.2-1.7,2.4-3.3,3.6-4.9c1.4-1.9,2.8-3.7,4.3-5.6l3.9,3.1
								c-1.4,1.8-2.8,3.7-4.2,5.5C409.2,1627.3,408,1628.9,406.8,1630.5z"/>
						</g>
					</g>
				</g>
			</g>
		</g>
		<g class="st2">
			<g>
				<g>
					<g>
						<g>
							<path class="st3" d="M421.8,1606.9c6-7.5,12.1-14.8,18.5-22.1C434,1592,427.8,1599.4,421.8,1606.9z"/>
						</g>
					</g>
				</g>
			</g>
			<g>
				<g>
					<g>
						<g>
							<path class="st1" d="M423.8,1608.4l-3.9-3.1c6-7.5,12.2-14.9,18.5-22.1l0,0l0,0l3.8,3.3l0,0l0,0v0
								C435.9,1593.6,429.7,1601,423.8,1608.4z"/>
						</g>
					</g>
				</g>
			</g>
		</g>
		<g class="st2">
			<g>
				<g>
					<g>
						<g>
							<path class="st3" d="M480.1,1543c-6.6,6.4-13.1,12.9-19.4,19.5C467.1,1555.8,473.5,1549.3,480.1,1543z"/>
						</g>
					</g>
				</g>
			</g>
			<g>
				<g>
					<g>
						<g>
							<path class="st1" d="M462.5,1564.2l-3.6-3.4c6.1-6.4,12.6-13,19.5-19.5l0,0l0,0l3.5,3.6l0,0l0,0l0,0
								C475.1,1551.4,468.6,1557.9,462.5,1564.2L462.5,1564.2L462.5,1564.2z"/>
						</g>
					</g>
				</g>
			</g>
		</g>
		<g class="st2">
			<g>
				<g>
					<g>
						<g>
							<path class="st3" d="M490.7,1533c7.1-6.6,14.4-13,21.9-19.3C505.1,1520,497.9,1526.5,490.7,1533z"/>
						</g>
					</g>
				</g>
			</g>
			<g>
				<g>
					<g>
						<g>
							<path class="st1" d="M492.4,1534.9l-3.4-3.7c7.4-6.8,14.8-13.3,21.9-19.3c0,0,0,0,0,0l3.2,3.8
								C507.1,1521.7,499.8,1528.1,492.4,1534.9z"/>
						</g>
					</g>
				</g>
			</g>
		</g>
		<g class="st2">
			<g>
				<g>
					<g>
						<g>
							<path class="st3" d="M535.4,1495.3c-7.8,6-15.4,12.1-22.8,18.4C520,1507.4,527.6,1501.3,535.4,1495.3z"/>
						</g>
					</g>
				</g>
			</g>
			<g>
				<g>
					<g>
						<g>
							<path class="st1" d="M514.2,1515.7l-3.2-3.8l0,0l0,0v0c7.7-6.5,15.4-12.8,22.9-18.5l3,4
								C529.1,1503.4,521.4,1509.5,514.2,1515.7L514.2,1515.7L514.2,1515.7z"/>
						</g>
					</g>
				</g>
			</g>
		</g>
		<g>
			<g>
				<g>
					<g>
						<path class="st5" d="M636.8,1325c-80-21.8-134.8,47.4-134.8,47.4c-22.5-81.2-175-103.2-175,36.3
							c0,158.8,34.2,234.4,142.1,220.4c54-7,84.1-34.9,113.3-48.5c49.9-23.1,79.3-9.8,79.3-9.8h510.8c0,0,29.3-13.3,79.3,9.8
							c29.3,13.5,59.4,41.5,113.3,48.5c107.8,13.9,142.1-61.7,142.1-220.4c0-139.5-158.4-133.6-174.3-24.3c0,0-6.2-23.4-19.8-30.8
							c-19.7-10.7-21.3-20.3-34.8-9.9"/>
					</g>
				</g>
			</g>
		</g>
		<g class="st2">
			<g>
				<g>
					<g>
						<path class="st1" d="M1438.7,1620.2c-19.4,9.8-43.7,12.9-73.8,9c-54-7-84.1-34.9-113.3-48.5c-50-23.1-79.3-9.8-79.3-9.8H661.6
							c0,0-29.3-13.3-79.2,9.8c-29.3,13.5-59.4,41.5-113.3,48.5c-30,3.9-54.3,0.8-73.8-9c52.2,0.3,80.5-9.4,86.4-45.2
							c1.5-8.7-1.8-99.9-1.6-111.6c39.4,84.4,75.8,46.5,102.3,34.3c49.9-23.1,79.2-9.8,79.2-9.8h510.8c0,0,29.3-13.3,79.3,9.8
							c26.8,12.4,72.1,43.6,104-33.1c0.2,11.6-2.9,101.8-1.5,110.4C1360,1610.3,1387.7,1620.3,1438.7,1620.2z"/>
					</g>
				</g>
			</g>
		</g>
		<g>
			<g>
				<g>
					<g>
						<path class="st1" d="M1319.8,1412.3c-3.2-18-1.3-37.4,5.8-55.5c7-18.2,20.1-34.2,36.3-45.8c8.2-5.7,17.3-10.1,26.7-13.3
							c9.5-3.1,19.5-4.7,29.5-5.1c10-0.3,20.1,1.1,29.8,3.8c9.8,2.6,19,7.2,27.4,12.8c8.5,5.6,15.7,12.9,22,20.6
							c2.9,4.1,5.9,8.1,8.2,12.5c2.6,4.3,4.5,8.8,6.4,13.3c7.6,18.1,9.6,37.6,9.5,55.7c-0.1,34.6-1.6,69.4-7.4,104.4
							c-3.1,17.5-7.2,35-13.9,52.2c-6.8,17.1-16.3,34.2-30.7,48c-7.1,6.9-15.4,12.8-24.3,17.3c-8.9,4.6-18.4,7.5-27.8,9.5
							c-9.5,2-19,2.7-28.3,2.7c-9.4,0.1-18.4-0.8-27.5-1.9c-18.2-2.5-36.2-7.7-52.9-15.1c-16.7-7.3-32.1-16.8-46.3-25.3
							c-7.3-4.2-13.9-7.9-21.1-10.9c-7.2-3.2-14.5-5.6-21.9-7.4c-7.4-1.8-14.8-2.9-22.1-3c-3.6,0-7.2,0.1-10.6,0.6
							c-1.7,0.3-3.4,0.5-4.9,0.9c-0.8,0.2-1.5,0.4-2.2,0.6c-0.5,0.2-1.6,0.6-1.2,0.4l-6,1.3H661.6h0l-6-1.3c0.4,0.2-0.7-0.2-1.3-0.3
							c-0.8-0.2-1.4-0.4-2.2-0.5c-1.5-0.3-3.2-0.6-4.9-0.8c-3.4-0.4-7-0.5-10.5-0.4c-7.2,0.2-14.6,1.4-21.9,3.3
							c-7.3,1.9-14.6,4.4-21.7,7.6c-7.2,3-13.7,6.8-20.9,11.1c-14.2,8.6-29.5,18.3-46.3,25.8c-16.8,7.6-34.9,13-53.3,15.6
							c-9.1,1.2-18.3,2.1-27.8,2c-9.4,0.1-19-0.7-28.7-2.7c-9.6-1.9-19.3-4.9-28.4-9.6c-9.1-4.6-17.5-10.6-24.8-17.6
							c-14.8-14-24.4-31.4-31.4-48.7c-6.9-17.4-11.1-35.1-14.2-52.7c-5.8-35.2-7.1-70.2-7.2-104.8c0-18.3,2.2-38.1,10-56.4
							c2-4.6,4-9.1,6.7-13.4c2.4-4.4,5.5-8.5,8.5-12.6c6.5-7.8,13.9-15.1,22.6-20.6c8.6-5.5,18-10,27.8-12.6c9.8-2.6,20-3.9,30-3.6
							c10.1,0.4,20,2.1,29.6,5.3c9.5,3.3,18.6,7.7,26.8,13.4c16.4,11.4,29.5,27.8,36.1,46.1c6.8,18.2,8.4,37.6,5,55.5
							c-0.8,4.3-4.9,7.1-9.2,6.2c-3.2-0.6-5.6-3.1-6.2-6.1l0-0.2c-3.4-16.2-8-31.1-15.1-44c-6.9-13-16.6-23.8-28.2-31.8
							c-5.9-3.9-12.3-6.9-18.9-9.1c-6.7-2.1-13.7-3.1-20.7-3.4c-7-0.1-13.9,0.9-20.5,2.7c-6.6,1.8-12.8,5-18.5,8.7
							c-5.7,3.7-10.5,8.7-14.8,13.9c-2,2.8-4.1,5.5-5.7,8.7c-1.9,2.9-3.2,6.2-4.6,9.5c-5.5,13.2-7.3,28.1-7.2,43.8
							c0.2,33.5,1.8,67,7.2,99.1c2.8,16,6.5,31.7,12.1,46c5.6,14.3,13.1,27.4,23.1,36.9c9.9,9.7,22.3,16,36.6,18.8
							c7,1.5,14.5,2.2,22.1,2.1c7.6,0.1,15.5-0.6,23.2-1.6c15.4-2.2,30.3-6.2,44.7-12.4c14.5-6.2,28.3-14.5,43.4-23.3
							c7.5-4.3,15.9-8.9,24.6-12.4c8.5-3.7,17.5-6.6,26.7-8.8c9.2-2.2,18.8-3.5,28.7-3.5c4.9,0,9.9,0.3,15,1.1
							c2.5,0.4,5.1,0.9,7.7,1.5c1.3,0.3,2.6,0.7,4,1.1c1.5,0.5,2.4,0.8,4.8,1.8l-6-1.3h0h510.7l-6,1.3c2.3-1,3.3-1.2,4.8-1.7
							c1.3-0.4,2.7-0.8,4-1.1c2.6-0.6,5.1-1.1,7.7-1.4c5.1-0.7,10-0.9,14.9-0.9c9.8,0.1,19.4,1.6,28.5,3.8c9.2,2.3,18.1,5.2,26.5,9
							c8.6,3.5,16.9,8.2,24.3,12.5c15,8.9,28.8,17.4,43.4,23.8c14.5,6.4,29.6,10.7,45.1,12.9c7.8,1,15.8,1.8,23.5,1.6
							c7.7,0.1,15.3-0.6,22.6-2.1c14.6-2.8,27.4-9.3,37.7-19.2c10.4-9.8,18.1-23.2,23.8-37.7c5.8-14.6,9.5-30.4,12.3-46.5
							c5.4-32.3,6.9-65.9,7-99.5c-0.1-15.9-2-31-7.8-44.5c-1.5-3.3-2.9-6.7-4.8-9.7c-1.6-3.2-3.9-5.9-6-8.8
							c-4.6-5.3-9.5-10.3-15.4-13.9c-5.9-3.7-12.1-6.7-18.9-8.5c-6.7-1.7-13.7-2.7-20.8-2.5c-7,0.3-14,1.5-20.8,3.6
							c-6.7,2.3-13.2,5.2-19.1,9.2c-11.8,7.9-21.4,19-28,32.1c-6.8,13.1-11.2,27.9-14.4,44l0,0.2c-0.9,4.7-5.4,7.7-10.1,6.8
							C1323.1,1418.6,1320.4,1415.7,1319.8,1412.3z"/>
					</g>
				</g>
			</g>
		</g>
		<g>
			<g>
				<g>
					<g>
						<g>
							<path class="st5" d="M1162.3,1416.2H671.6c-66.8,0-120.9-54.1-120.9-120.9V953.9c0-66.8,54.1-120.9,120.9-120.9h490.7
								c66.8,0,120.9,54.1,120.9,120.9v341.4C1283.2,1362.1,1229.1,1416.2,1162.3,1416.2z"/>
						</g>
					</g>
				</g>
			</g>
			<g>
				<g>
					<g>
						<g>
							<path class="st1" d="M1162.3,1418.7H671.6c-68,0-123.3-55.3-123.3-123.3V953.9c0-68,55.3-123.3,123.3-123.3h490.7
								c68,0,123.3,55.3,123.3,123.3v341.5C1285.7,1363.4,1230.4,1418.7,1162.3,1418.7z M671.6,835.6
								c-65.3,0-118.3,53.1-118.3,118.3v341.5c0,65.3,53.1,118.3,118.3,118.3h490.7c65.3,0,118.3-53.1,118.3-118.3V953.9
								c0-65.3-53.1-118.3-118.3-118.3H671.6z"/>
						</g>
					</g>
				</g>
			</g>
		</g>
		<g>
			<g>
				<g>
					<g>
						<path class="st1" d="M1162.3,1430.7H671.6c-74.7,0-135.4-60.7-135.4-135.4V953.9c0-74.7,60.7-135.4,135.4-135.4h490.7
							c74.7,0,135.4,60.7,135.4,135.4v341.5C1297.7,1370,1237,1430.7,1162.3,1430.7z M671.6,847.6c-58.6,0-106.3,47.7-106.3,106.3
							v341.5c0,58.6,47.7,106.3,106.3,106.3h490.7c58.6,0,106.3-47.7,106.3-106.3V953.9c0-58.6-47.7-106.3-106.3-106.3L671.6,847.6
							L671.6,847.6z"/>
					</g>
				</g>
			</g>
		</g>
		<g>
			<g>
				<g>
					<g>
						<g>
							<g>
								<path class="st5" d="M1140.1,929.4H693.9c0,0-103.3,19-152.2,161.4"/>
							</g>
						</g>
					</g>
				</g>
				<g>
					<g>
						<g>
							<g>
								<path class="st1" d="M544,1091.6l-4.7-1.6c48.8-142.1,153.1-162.9,154.1-163.1l446.7,0v5H693.9
									C693.3,932,591.8,952.4,544,1091.6z"/>
							</g>
						</g>
					</g>
				</g>
			</g>
			<g>
				<g>
					<g>
						<g>
							<g>
								<path class="st5" d="M1201.8,1427.8H632.2c-51.2-31.2-155.4-147.9-90.5-336.9c15.1-44.1,35.5-76.4,56.4-99.9
									c46.6-52.5,95.8-61.6,95.8-61.6h446.2c0,0,49.2,9.1,95.8,61.5c20.9,23.5,41.3,55.8,56.4,99.9
									C1357.2,1279.8,1252.9,1396.6,1201.8,1427.8z"/>
							</g>
						</g>
					</g>
				</g>
				<g>
					<g>
						<g>
							<g>
								<path class="st1" d="M1202.5,1430.3h-571l-0.6-0.4c-47.9-29.2-157.7-147.2-91.6-339.9c13.6-39.6,32.7-73.5,56.9-100.7
									c46.6-52.5,95.2-62,97.2-62.4l446.7,0c2.5,0.4,51.1,9.9,97.7,62.4c24.1,27.1,43.3,61,56.9,100.8
									c66.1,192.7-43.7,310.7-91.6,339.9L1202.5,1430.3z M632.9,1425.3h568.2c47.2-29.2,153.6-144.9,88.8-333.6
									c-13.4-39.1-32.2-72.4-55.9-99.1c-45.4-51.1-93.9-60.6-94.4-60.7l-445.8,0c0,0-48.5,9.6-94,60.7c-23.7,26.7-42.5,60-55.9,99
									C479.3,1280.4,585.7,1396,632.9,1425.3z"/>
							</g>
						</g>
					</g>
				</g>
			</g>
		</g>
		<g class="st2">
			<g>
				<g>
					<g>
						<g>
							<path class="st1" d="M1201.8,1427.8H632.2c-44.3-27-128.4-118.3-108-265c0.4,2.4,0.7,4.8,1.2,7.1
								c17.3,98.9,104.7,170.2,205.1,170.2h373c100.4,0,187.8-71.3,205.1-170.2c0.4-2.3,0.8-4.7,1.2-7.1
								C1330.2,1309.5,1246.1,1400.7,1201.8,1427.8z"/>
						</g>
					</g>
				</g>
			</g>
		</g>
		<g>
			<g>
				<g>
					<g>
						<g>
							<path class="st1" d="M541.7,1105.3c-1.6,0-3.2-0.3-4.7-0.8c-7.6-2.6-11.6-10.9-9-18.4c51-148.7,158.7-170.2,163.3-171
								l2.6-0.2h446.2c8,0,14.5,6.5,14.5,14.5s-6.5,14.5-14.5,14.5H695.4c-11.3,2.6-96.9,26-140,151.6
								C553.3,1101.6,547.7,1105.3,541.7,1105.3z"/>
						</g>
					</g>
				</g>
			</g>
			<g>
				<g>
					<g>
						<g>
							<path class="st1" d="M1201.8,1442.3c-4.9,0-9.7-2.5-12.4-7c-4.2-6.8-2-15.8,4.8-20c44.6-27.2,146.8-137.7,84.3-319.8
								c-43-125.4-128.4-149-140-151.6H695.4c-11.3,2.6-96.9,26-140,151.6c-62.5,182.1,39.7,292.6,84.3,319.8c6.8,4.2,9,13.1,4.8,20
								c-4.2,6.8-13.1,9-20,4.8c-50.2-30.6-165.4-153.8-96.7-354c51-148.7,158.7-170.2,163.3-171l2.6-0.2h447.6l1.3,0.2
								c4.6,0.8,112.3,22.3,163.3,171c68.7,200.2-46.5,323.4-96.7,354C1207,1441.6,1204.4,1442.3,1201.8,1442.3z"/>
						</g>
					</g>
				</g>
			</g>
		</g>
		<g>
			<g>
				<g>
					<g>
						<path class="st1" d="M501.5,1385.5c-3,0-6-0.9-8.6-2.8c-6.5-4.7-7.9-13.8-3.1-20.3c0.9-1.2,21.5-28.9,56.4-41.4
							c7.5-2.7,15.9,1.3,18.5,8.8c2.7,7.6-1.3,15.9-8.8,18.6c-26.2,9.3-42.5,30.9-42.7,31.1C510.4,1383.5,506,1385.5,501.5,1385.5z"
							/>
					</g>
				</g>
			</g>
		</g>
		<g>
			<g>
				<g>
					<g>
						<path class="st1" d="M1322.5,1381.2l-2.6-2.6c-0.6-0.7-15.5-17.6-43.3-28.7c-7.4-3-11.1-11.4-8.1-18.9
							c3-7.4,11.4-11.1,18.9-8.1c32.3,12.9,50.9,32.6,54.1,36.3c0.7,0.6,1.5,1.4,1.5,1.4L1322.5,1381.2z"/>
					</g>
				</g>
			</g>
		</g>
		<g>
			<g>
				<g>
					<g>
						<path class="st1" d="M917,1038.5c-0.1,0-0.1,0-0.2,0c0,0,0,0,0,0c-93.2,0-178.8-25.2-254.6-74.8
							c-81.1-53-133.7-140.7-144.3-240.5c-10.2-95.4-2.8-233.9,89.9-351.7C722.2,226.3,903.6,228.8,917,229.2
							c13.4-0.4,194.8-2.9,309.2,142.4c92.7,117.8,100.1,256.2,89.9,351.6c-10.6,99.8-63.3,187.5-144.4,240.6
							C1095.9,1013.3,1010.2,1038.5,917,1038.5C917,1038.5,917,1038.5,917,1038.5z M913.8,258.2c-22.6,0-183.4,4.6-283.1,131.3
							c-86.7,110.1-93.4,240.6-83.8,330.6c9.7,91.1,57.6,171,131.3,219.3c71,46.5,151.3,70,238.8,70c87.5,0,167.8-23.6,238.9-70.1
							c73.8-48.3,121.7-128.2,131.4-219.4c9.6-90,2.8-220.5-83.8-330.6c-106.9-135.8-284.1-131.3-285.8-131.3l-0.5,0l-0.5,0
							C916.3,258.2,915.4,258.2,913.8,258.2z"/>
					</g>
				</g>
			</g>
		</g>
		<g class="st2">
			<g>
				<g>
					<g>
						<path class="st1" d="M1235.9,990.9c-20.1,18.2-44.4,34-72.2,46.7c-58.5,26.9-140.4,50.8-246.7,50.9h-0.2
							c-106.3,0-188.2-24-246.6-50.9c-27.8-12.7-52-28.6-72.1-46.7c46.6-52.5,95.8-61.6,95.8-61.6h446.2
							C1140.1,929.4,1189.3,938.5,1235.9,990.9z"/>
					</g>
				</g>
			</g>
		</g>
		<g>
			<g>
				<g>
					<g>
						<g>
							<path class="st5" d="M916.8,1024c106.4,0,188.4-34.2,246.9-72.4c77.6-50.8,127.8-135.7,137.9-230
								c10.1-95.1,2.1-228.1-86.9-341.1C1101.7,237,917,243.7,917,243.7S732.3,237,619.3,380.5c-89,113-97,246-86.9,341.2
								c10,94.2,60.2,179.1,137.8,229.9c58.5,38.3,140.4,72.4,246.8,72.4"/>
						</g>
					</g>
				</g>
			</g>
			<g>
				<g>
					<g>
						<g>
							<path class="st11" d="M916.8,1024c106.4,0,188.4-34.2,246.9-72.4c77.6-50.8,127.8-135.7,137.9-230
								c10.1-95.1,2.1-228.1-86.9-341.1C1101.7,237,917,243.7,917,243.7S732.3,237,619.3,380.5c-89,113-97,246-86.9,341.2
								c10,94.2,60.2,179.1,137.8,229.9c58.5,38.3,140.4,72.4,246.8,72.4"/>
						</g>
					</g>
				</g>
			</g>
		</g>
		<g class="st2">
			<g>
				<g>
					<g>
						<g>
							<path class="st3" d="M1301.6,721.6c-10.1,94.2-60.2,179.2-137.9,230c-58.5,38.2-140.4,72.4-246.7,72.4h-0.2
								c-106.3,0-188.2-34.2-246.6-72.4c-77.6-50.8-127.8-135.7-137.8-229.9c-3.8-35.8-5.1-76.9-0.3-120.3c0.1,1.2,0.2,2.4,0.3,3.5
								c10.1,94.2,60.2,179.2,137.8,229.9c58.4,38.2,140.3,72.4,246.6,72.4h0.2c106.3,0,188.3-34.2,246.7-72.4
								c77.7-50.8,127.8-135.8,137.9-230c0.1-1.2,0.3-2.4,0.3-3.6C1306.7,644.6,1305.4,685.8,1301.6,721.6z"/>
						</g>
					</g>
				</g>
			</g>
			<g>
				<g>
					<g>
						<g>
							<path class="st1" d="M917,1026.5c-90.9,0-174.3-24.5-248.2-72.8c-78-51-128.7-135.5-138.9-231.7
								c-4.4-41.6-4.5-82.2-0.4-120.9l5,0.1c0.1,1.1,0.2,2.3,0.3,3.4c10.1,94.9,60,178,136.7,228.2c73,47.8,155.5,72,245.3,72
								c89.9,0,172.5-24.3,245.5-72c76.8-50.3,126.7-133.4,136.8-228.1c0.1-1.3,0.3-2.4,0.3-3.6l5-0.1c4.2,38.7,4.1,79.3-0.3,121
								l0,0c-10.3,96.2-60.9,180.7-139,231.8C1091.2,1002,1007.8,1026.5,917,1026.5z M532.5,624.6c-2,31.3-1.2,63.8,2.3,96.8
								c10.1,94.7,60,177.9,136.7,228.1c73,47.8,155.5,72,245.3,72c89.9,0,172.5-24.3,245.5-72c76.8-50.3,126.7-133.4,136.8-228.2
								c3.5-33,4.3-65.5,2.3-96.8c-14.7,88.2-63.6,164.8-136.4,212.4c-73.9,48.3-157.3,72.8-248.1,72.8
								c-90.9,0-174.3-24.5-248.2-72.8C596.1,789.3,547.2,712.7,532.5,624.6z"/>
						</g>
					</g>
				</g>
			</g>
		</g>
		<g>
			<g>
				<g>
					<g>
						<path class="st1" d="M917,1038.5c-0.1,0-0.1,0-0.2,0c0,0,0,0,0,0c-93.2,0-178.8-25.2-254.6-74.8
							c-81.1-53-133.7-140.7-144.3-240.5c-10.2-95.4-2.8-233.9,89.9-351.7C722.2,226.3,903.6,228.8,917,229.2
							c13.4-0.4,194.8-2.9,309.2,142.4c92.7,117.8,100.1,256.2,89.9,351.6c-10.6,99.8-63.3,187.5-144.4,240.6
							C1095.9,1013.3,1010.2,1038.5,917,1038.5C917,1038.5,917,1038.5,917,1038.5z M913.8,258.2c-22.6,0-183.4,4.6-283.1,131.3
							c-86.7,110.1-93.4,240.6-83.8,330.6c9.7,91.1,57.6,171,131.3,219.3c71,46.5,151.3,70,238.8,70c87.5,0,167.8-23.6,238.9-70.1
							c73.8-48.3,121.7-128.2,131.4-219.4c9.6-90,2.8-220.5-83.8-330.6c-106.9-135.8-284.1-131.3-285.8-131.3l-0.5,0l-0.5,0
							C916.3,258.2,915.4,258.2,913.8,258.2z"/>
					</g>
				</g>
			</g>
		</g>
		<g>
			<g>
				<g>
					<g>
						<path class="st1" d="M916.8,964.7c98.1,0,173.8-26.4,227.7-56c71.6-39.3,117.9-105,127.2-177.9c9.3-73.6,1.9-176.5-80.1-263.9
							C1087.4,355.8,917,361,917,361s-170.4-5.2-274.6,105.9c-82.1,87.4-89.5,190.4-80.1,264c9.3,72.9,55.5,138.6,127.1,177.9
							c53.9,29.6,129.5,56,227.7,56"/>
					</g>
				</g>
			</g>
		</g>
		<g>
			<g>
				<g>
					<g>
						<path class="st1" d="M917,979.3c0,0-0.1,0-0.1,0c0,0,0,0,0,0c-85.8,0-164.6-19.5-234.5-57.8
							C606.8,880,557.8,811.2,547.8,732.7c-9.5-74.8-2.7-183.4,83.9-275.7C737.6,344.1,905,346.2,917,346.5
							c12-0.3,179.3-2.4,285.2,110.4c86.6,92.3,93.5,200.8,83.9,275.7c-10,78.5-59,147.4-134.6,188.8
							C1081.7,959.8,1002.8,979.2,917,979.3C917,979.3,917,979.3,917,979.3z M914,375.5c-21.1,0-169.4,3.6-261.1,101.3
							c-78.9,84-85,183.5-76.3,252.2c8.8,69.2,52.4,130.1,119.7,167c65.5,36,139.8,54.2,220.6,54.2c80.8,0,155.1-18.3,220.7-54.3
							c67.3-36.9,111-97.8,119.8-167c8.7-68.7,2.6-168.1-76.3-252.1c-98.6-105.1-262-101.3-263.6-101.3l-0.4,0l-0.4,0
							C916.4,375.5,915.6,375.5,914,375.5z"/>
					</g>
				</g>
			</g>
		</g>
		<g>
			<g>
				<g>
					<g>
						<g>
							<path class="st1" d="M1190.2,1098.5c5.7,8.5,9.2,18.5,10.9,28.8c1.7,10.4,1.7,21.2-0.1,31.8c-1.8,10.6-5,21.2-10.7,30.9
								c-5.8,9.6-13.6,18.9-25.4,24.6c-7.2,3.4-15.9,0.4-19.3-6.8c-2.7-5.6-1.4-11.9,2.5-16.2l1.8-1.8c4.3-4.6,9.3-10,13.7-16.5
								c4.4-6.4,8.8-13.6,12.2-21.3c6.9-15.5,10.9-32.8,10.4-52.1v-0.1c0-1.2,0.9-2.2,2.1-2.2
								C1189.2,1097.6,1189.8,1097.9,1190.2,1098.5z"/>
						</g>
					</g>
				</g>
			</g>
			<g>
				<g>
					<g>
						<g>
							<path class="st1" d="M647.7,1099.8c-0.5,19.3,3.5,36.6,10.4,52.1c3.4,7.7,7.8,14.8,12.2,21.3c4.4,6.5,9.3,11.9,13.7,16.5
								l1.7,1.8c5.5,5.8,5.3,15-0.5,20.5c-4.5,4.2-11,5-16.2,2.6c-11.8-5.6-19.6-15-25.4-24.6c-5.7-9.7-8.9-20.3-10.7-30.9
								c-1.8-10.6-1.8-21.4-0.1-31.8c1.8-10.4,5.3-20.4,10.9-28.8c0.7-1,2-1.3,3-0.6C647.4,1098.4,647.7,1099.1,647.7,1099.8
								L647.7,1099.8z"/>
						</g>
					</g>
				</g>
			</g>
		</g>
		<g>
			<g>
				<g>
					<g>
						<path class="st0" d="M1161.9,1598.7H672.1c-14.1,0-25.5-11.4-25.5-25.5l0,0c0-14.1,11.4-25.5,25.5-25.5h489.9
							c14.1,0,25.5,11.4,25.5,25.5l0,0C1187.4,1587.3,1176,1598.7,1161.9,1598.7z"/>
					</g>
				</g>
			</g>
			<g>
				<g>
					<g>
						<path class="st1" d="M1161.9,1601.2H672.1c-15.4,0-28-12.5-28-28c0-15.4,12.5-28,28-28h489.9c15.4,0,28,12.5,28,28
							C1189.9,1588.7,1177.3,1601.2,1161.9,1601.2z M672.1,1550.3c-12.7,0-23,10.3-23,23c0,12.7,10.3,23,23,23h489.9
							c12.7,0,23-10.3,23-23c0-12.7-10.3-23-23-23H672.1z"/>
					</g>
				</g>
			</g>
		</g>
		<g class="st2">
			<g>
				<g>
					<g>
						<path class="st1" d="M1161.9,1598.7H672.1c-14.1,0-25.5-11.4-25.5-25.5l0,0c0-14.1,11.4-25.5,25.5-25.5h489.9
							c14.1,0,25.5,11.4,25.5,25.5l0,0C1187.4,1587.3,1176,1598.7,1161.9,1598.7z"/>
					</g>
				</g>
			</g>
		</g>
		<g>
			<g>
				<g>
					<g>
						<path class="st1" d="M1161.9,1613.2H672.1c-22,0-40-17.9-40-40s17.9-40,40-40h489.9c22.1,0,40,17.9,40,40
							S1184,1613.2,1161.9,1613.2z M672.1,1562.3c-6,0-10.9,4.9-10.9,10.9c0,6,4.9,10.9,10.9,10.9h489.9c6,0,10.9-4.9,10.9-10.9
							c0-6-4.9-10.9-10.9-10.9H672.1z"/>
					</g>
				</g>
			</g>
		</g>
		<g>
			<g>
				<g>
					<g>
						<path class="st1" d="M421.3,1638.5c-14.9,0-30.9-4.9-46.8-16.7c-5.5-4.1-6.7-11.9-2.6-17.5c4.1-5.6,12-6.7,17.5-2.6
							c27.9,20.7,52.8,11.2,66.8-4.6c25.9-29.2,12.5-114.3,6.1-155.2c-1-6.7-2-12.6-2.6-17.3c-5.9-44.4-30.8-77.4-58.1-77.4
							c-0.4,0-0.7,0-1.1,0c-36.6,1.2-56.1,20.7-59.2,39.5c-1.1,6.8-7.5,11.4-14.4,10.3s-11.4-7.5-10.3-14.4
							c4.7-28.9,32.3-58.8,83.1-60.4c41.1-1.4,76.9,40.3,84.8,99c0.6,4.6,1.5,10.3,2.5,16.8c10.4,66.6,19,140.6-12.1,175.6
							C461.8,1628.3,442.7,1638.5,421.3,1638.5z"/>
					</g>
				</g>
			</g>
		</g>
		<g>
			<g>
				<g>
					<g>
						<path class="st1" d="M1412.6,1638.5c-21.4,0-40.5-10.2-53.5-24.8c-31.1-35.1-22.6-109.1-12.1-175.6c1-6.5,1.9-12.2,2.5-16.8
							c7.7-57.8,42.4-99,82.9-99c0.6,0,1.2,0,1.9,0c50.8,1.6,78.3,31.5,83.1,60.4c1.1,6.8-3.5,13.2-10.3,14.3
							c-6.8,1.1-13.2-3.5-14.3-10.3c-3.1-18.8-22.6-38.3-59.2-39.5c-27.6-0.8-53.2,32.4-59.2,77.3c-0.6,4.7-1.6,10.6-2.6,17.3
							c-6.4,40.9-19.8,126,6.1,155.2c14,15.8,38.9,25.3,66.8,4.6c5.5-4.1,13.4-2.9,17.5,2.6c4.1,5.5,2.9,13.4-2.6,17.5
							C1443.6,1633.6,1427.5,1638.5,1412.6,1638.5z"/>
					</g>
				</g>
			</g>
		</g>
		<g class="st12">
			<g>
				<g>
					<g>
						<path class="st5" d="M638.8,646.6c-16.2,10.5-37-3.4-33.6-22.4c1.2-6.3,2.6-12.6,4.2-18.8c5.5-20,13.7-39.1,24.2-56.9
							c10.4-17.8,23.3-34.4,37.9-49.4c14.7-15,31.5-28.1,49.4-39.6c31.9-22.3,66.9-36.3,92.5-44.5c20.6-6.6,42.8,3.5,51.5,23.3l0,0
							c9,20.5,0.5,44.6-19.6,54.7c-11.8,5.9-23.6,12.3-30.8,17.2c-13.9,8.4-27.1,17.7-40,27.4c-13,9.7-25.5,20.1-38.1,30.9
							c-12.7,10.7-25.5,21.6-38.9,32.7c-13.3,11.1-27.2,22.4-42,33.9C651.3,638.3,645.2,642.4,638.8,646.6z"/>
					</g>
				</g>
			</g>
			<g>
				<g>
					<g>
						<path class="st1" d="M626.8,655.3c-5.2,0-10.3-1.5-14.9-4.6c-9.1-6.1-13.6-16.6-11.7-27.4c1.1-5.9,2.5-12.2,4.3-19.2
							c5.6-20.2,13.9-39.7,24.8-58.2c10.4-17.8,23.4-34.7,38.6-50.3c13.9-14.2,30.8-27.8,50.2-40.3c32.8-23,69.1-37.2,93.7-45.1
							c23.1-7.4,47.9,3.8,57.7,26c10.1,23,0.5,49.9-21.9,61.1c-14,7.1-24.2,12.8-30.2,16.9c-12.3,7.4-24.5,15.8-39.8,27.3
							c-11.5,8.6-23.5,18.4-37.8,30.7c-4.6,3.9-9.2,7.8-13.8,11.7c-8.2,6.9-16.5,14-25.1,21.1c-15.9,13.2-29.3,24-42.2,34
							c-3.9,3-9.7,7-17.1,11.8l0,0C637,653.8,631.9,655.3,626.8,655.3z M826.2,418c-3.8,0-7.6,0.6-11.4,1.8
							c-24,7.6-59.2,21.5-91.2,43.8c-19,12.2-35.3,25.3-48.7,39c-14.6,15-27.1,31.3-37.1,48.4c-10.4,17.7-18.4,36.5-23.7,55.7
							c-1.7,6.7-3.1,12.7-4.1,18.4c-1.5,8.2,2.8,14.3,7.3,17.3c4.5,3,11.7,4.6,18.6,0.1l0,0c7.2-4.7,12.7-8.5,16.4-11.3
							c12.8-9.9,26.1-20.6,41.9-33.8c8.5-7.1,16.8-14.1,25-21c4.6-3.9,9.2-7.8,13.8-11.7c14.4-12.4,26.6-22.3,38.3-31.1
							c15.7-11.8,28.1-20.3,40.4-27.7c6.1-4.2,16.7-10.1,31.1-17.4c17.6-8.9,25.2-30.1,17.2-48.2C854.2,426.5,840.7,418,826.2,418z"
							/>
					</g>
				</g>
			</g>
		</g>
		<g class="st12">
			<g>
				<g>
					<g>
						<path class="st5" d="M944.5,482.8c0,0-31.3-5.9-35.4-46.7c-4.1-40.8,50.3-43.1,71.2-38.1c20.9,5,59.4,2.7,66.2,35.4
							C1053.3,466.1,1034.2,507.8,944.5,482.8z"/>
					</g>
				</g>
			</g>
			<g>
				<g>
					<g>
						<path class="st1" d="M992.4,495.4c-13.2,0-29.3-2.2-49.2-7.7c-3.5-0.8-34.9-9.3-39.1-51c-1.3-13,2.8-24,11.7-31.8
							c18.6-16.2,52.2-14.9,65.6-11.7c3.9,0.9,8.7,1.6,13.7,2.4c21.1,3.1,50,7.3,56.2,36.8c4,19.2-0.7,36.7-13,48.2
							C1030.3,488.2,1016.3,495.4,992.4,495.4z M961.8,401.2c-13.5,0-29.7,2.7-39.4,11.2c-6.6,5.8-9.3,13.4-8.3,23.3
							c3.6,36.4,30.2,42.1,31.3,42.3l0.4,0.1c51.5,14.3,75,5.3,85.8-4.7c13.7-12.8,11.6-31.4,10-38.9c-4.7-22.7-27.6-26-47.9-29
							c-5.3-0.8-10.2-1.5-14.6-2.5C974.9,401.9,968.7,401.2,961.8,401.2z"/>
					</g>
				</g>
			</g>
		</g>
		<g>
			<g>
				<g>
					<g>
						<path class="st1" d="M892.2,1275.7c-54.6,0-109.7-4.8-163.7-14.3l-10.3-1.8v-23.5c0-62.7,41.7-113.7,92.9-113.7h224.5
							c51.2,0,92.8,51,92.9,113.7v9.8l-9.5,2.3C1044.5,1266.5,968.2,1275.7,892.2,1275.7z M743.1,1238.6
							c49.3,8.1,99.4,12.2,149.1,12.2c70.6,0,141.5-8.2,210.8-24.4c-3.8-44.3-32.6-78.9-67.5-78.9H811c-37.4,0-67.9,39.8-67.9,88.7
							L743.1,1238.6L743.1,1238.6z"/>
					</g>
				</g>
			</g>
		</g>
		<g>
			<g>
				<g>
					<g>
						<path class="st0" d="M1172.5,1547.8h-511c-5.7,0-10.5-4.1-11.4-9.7l-52.2-322.4c-1.1-7,4.3-13.4,11.4-13.4h615.5
							c7.1,0,12.6,6.4,11.4,13.4l-52.2,322.4C1183,1543.7,1178.2,1547.8,1172.5,1547.8z"/>
					</g>
				</g>
			</g>
		</g>
		<g class="st4">
			<g>
				<g>
					<g>
						<path class="st5" d="M632.8,1245.6c-1.1-7,4.3-13.4,11.4-13.4h589.2l2.7-16.6c1.1-7-4.3-13.4-11.4-13.4H609.3
							c-7.1,0-12.6,6.4-11.4,13.4l52.2,322.4c0.9,5.6,5.8,9.7,11.4,9.7h20.3L632.8,1245.6z"/>
					</g>
				</g>
			</g>
		</g>
		<g class="st2">
			<g>
				<g>
					<g>
						<path class="st1" d="M1236.2,1215.6l-52.2,322.4c-0.9,5.6-5.8,9.7-11.4,9.7h-511c-5.7,0-10.5-4.1-11.4-9.7l-9.3-57.3h378.7
							c70.9,0,133.8-45.7,155.7-113.2l53.5-165.3h-3.9C1231.9,1202.2,1237.3,1208.6,1236.2,1215.6z"/>
					</g>
				</g>
			</g>
		</g>
		<g>
			<g>
				<g>
					<g>
						<path class="st1" d="M1172.5,1562.3h-511c-12.9,0-23.7-9.2-25.8-21.9l-52.2-322.4c-1.2-7.6,0.9-15.3,5.9-21.1
							c5-5.8,12.2-9.2,19.9-9.2h615.5c7.7,0,14.9,3.3,19.9,9.2c5,5.8,7.1,13.5,5.9,21.1l-52.2,322.4
							C1196.2,1553.1,1185.4,1562.3,1172.5,1562.3z M664,1533.3h506l51.3-316.6H612.7L664,1533.3z"/>
					</g>
				</g>
			</g>
		</g>
		<g class="st2">
			<g>
				<g>
					<g>
						<path class="st1" d="M1507,1408.8c0,30.7-1.3,58.2-4.1,82.6c0,0,0,0.1,0,0.1c-7.8,66.8-27.2,109.9-64.2,128.6
							c-51,0.1-78.7-9.9-84.5-45.2c-1.4-8.6-2.1-19.4-2.2-31c-0.5-36.7,3.8-80.6,3.8-80.6s15.3,69.7,64.3,80.6c0,0,0,0,0.1,0
							c54.2-14.1,78.5-68.1,85-160.2C1506.4,1391.6,1507,1399.9,1507,1408.8z"/>
					</g>
				</g>
			</g>
		</g>
		<g class="st2">
			<g>
				<g>
					<g>
						<g>
							<path class="st3" d="M1502.9,1491.4c0,0-10,128.4-62.3,128.8h-2c37-18.7,56.4-61.9,64.2-128.6
								C1502.9,1491.5,1502.9,1491.4,1502.9,1491.4C1502.9,1491.4,1502.9,1491.4,1502.9,1491.4z"/>
						</g>
					</g>
				</g>
			</g>
			<g>
				<g>
					<g>
						<g>
							<path class="st1" d="M1438.7,1622.7h-10.5l9.4-4.7c34.8-17.6,54.8-57.9,62.8-126.7l0-0.8l5.6-6l-0.5,7.2c0,0.1,0,0.2,0,0.3
								l0,0.2c-0.8,10.2-11.9,130.2-64.7,130.6H1438.7z M1475.8,1589.5c-7,10.7-15.3,19.4-24.7,26.1
								C1461.2,1611.5,1469.3,1601.8,1475.8,1589.5z"/>
						</g>
					</g>
				</g>
			</g>
		</g>
		<g class="st2">
			<g>
				<g>
					<g>
						<path class="st1" d="M483.9,1543.6c-0.2,11.7-0.8,22.8-2.2,31.4c-5.9,35.7-34.2,45.5-86.4,45.2c-24.3-12.3-41-35.2-51.9-68.3
							c0,0,0-0.1,0-0.1c-8.2-30.8-10.5-60.4-10.5-60.4s18,56.4,72.2,54c3.3-0.1,6.5-0.6,9.5-1.2c49.9-10.2,65.4-80.8,65.4-80.8
							S484.4,1506.9,483.9,1543.6z"/>
					</g>
				</g>
			</g>
		</g>
		<g class="st2">
			<g>
				<g>
					<g>
						<g>
							<path class="st3" d="M395.3,1620.2h-0.1c-27.2-0.2-42.9-35-51.8-68.3C354.3,1585,371,1607.9,395.3,1620.2z"/>
						</g>
					</g>
				</g>
			</g>
			<g>
				<g>
					<g>
						<g>
							<path class="st1" d="M405.8,1622.7h-10.6c-23.6-0.2-41.9-23.8-54.2-70.2l4.8-1.4c10.9,33.3,27.4,55.2,50.6,66.9L405.8,1622.7
								z M371.2,1605.7c1.9,2,3.8,3.8,5.9,5.4C375,1609.4,373.1,1607.6,371.2,1605.7z"/>
						</g>
					</g>
				</g>
			</g>
		</g>
		<g>
			<path class="st13" d="M972.7,1384.9c29.4-17.4,47.1-34.2,43.3-43c-0.1-0.3-0.2-0.5-0.4-0.7c0-0.1-0.1-0.1-0.1-0.2
				c-0.1-0.2-0.2-0.3-0.3-0.5c-0.1-0.1-0.1-0.1-0.2-0.2c-0.1-0.2-0.3-0.3-0.4-0.5c-0.1-0.1-0.1-0.1-0.2-0.2
				c-0.2-0.2-0.5-0.4-0.7-0.6c0,0,0,0-0.1,0c-0.2-0.2-0.5-0.3-0.7-0.5c-0.1-0.1-0.2-0.1-0.3-0.2c-0.2-0.1-0.4-0.2-0.6-0.3
				c-0.1-0.1-0.2-0.1-0.4-0.2c-0.1,0-0.1-0.1-0.2-0.1c0,0,0,0,0,0c-9.2-3.9-30.1-1.5-56.4,6.2c-0.1-0.1-0.3-0.3-0.4-0.4
				c-0.1-0.1-0.1-0.1-0.2-0.2c-1.3-1.1-2.6-2.2-3.9-3.2c-0.1-0.1-0.3-0.2-0.4-0.3c-0.6-0.4-1.1-0.8-1.7-1.2
				c-0.1-0.1-0.3-0.2-0.4-0.3c-1.4-0.9-2.8-1.8-4.2-2.6c-0.2-0.1-0.4-0.2-0.6-0.3c-0.5-0.3-1-0.5-1.6-0.8c-0.2-0.1-0.5-0.2-0.7-0.4
				c-0.5-0.3-1.1-0.5-1.6-0.7c-0.2-0.1-0.4-0.2-0.7-0.3c-0.7-0.3-1.4-0.6-2.1-0.8c-0.4-0.1-0.8-0.3-1.2-0.4c-0.3-0.1-0.7-0.2-1-0.3
				c-0.5-0.2-0.9-0.3-1.4-0.4c-0.1,0-0.2,0-0.2-0.1c-0.2-0.1-0.4-0.1-0.6-0.2c-0.6-0.2-1.2-0.3-1.8-0.5c-0.5-0.1-1.1-0.3-1.6-0.4
				c-0.3-0.1-0.6-0.1-1-0.2c-0.5-0.1-1.1-0.2-1.6-0.3c-0.3,0-0.5-0.1-0.8-0.1c-0.8-0.1-1.6-0.2-2.4-0.3c-0.2,0-0.4,0-0.6-0.1
				c-0.7-0.1-1.3-0.1-2-0.2c-0.2,0-0.5,0-0.7,0c-0.8,0-1.7-0.1-2.5-0.1c-0.9,0-1.8,0-2.6,0.1c-0.3,0-0.5,0-0.8,0
				c-0.6,0-1.2,0.1-1.8,0.1c-0.3,0-0.6,0.1-0.9,0.1c-0.6,0.1-1.2,0.1-1.8,0.2c-0.3,0-0.5,0.1-0.8,0.1c-0.8,0.1-1.6,0.3-2.4,0.4
				c0,0-0.1,0-0.1,0c-0.8,0.2-1.7,0.4-2.5,0.6c-0.2,0.1-0.4,0.1-0.7,0.2c-0.6,0.2-1.2,0.3-1.8,0.5c-0.2,0.1-0.5,0.2-0.7,0.2
				c-0.6,0.2-1.2,0.4-1.8,0.6c-0.2,0.1-0.4,0.1-0.6,0.2c-1.6,0.6-3.2,1.3-4.7,2c-0.1,0-0.2,0.1-0.2,0.1c-0.7,0.3-1.4,0.7-2.1,1.1
				c-0.1,0.1-0.2,0.1-0.3,0.2c-0.7,0.4-1.4,0.8-2.1,1.2c0,0-0.1,0-0.1,0.1c-1.4,0.9-2.8,1.8-4.1,2.7c-0.8,0.6-1.5,1.2-2.2,1.8
				c-0.1,0-0.1,0.1-0.2,0.1c-0.3,0.3-0.7,0.6-1,0.8c-0.5,0.4-0.9,0.8-1.4,1.2c-0.3,0.3-0.6,0.6-0.9,0.8c-0.5,0.5-0.9,0.9-1.4,1.4
				c-0.2,0.3-0.5,0.5-0.7,0.8c-0.5,0.6-1,1.1-1.5,1.7c-0.2,0.2-0.3,0.4-0.5,0.5c-1.3,1.6-2.6,3.3-3.7,5c-0.1,0.2-0.2,0.3-0.3,0.5
				c-0.5,0.7-0.9,1.5-1.4,2.2c-0.1,0.2-0.2,0.3-0.3,0.5c-0.5,0.9-1,1.7-1.4,2.6c0,0,0,0.1-0.1,0.1c0,0,0,0,0,0.1
				c-0.2,0.5-0.5,1-0.7,1.5c-0.1,0.2-0.2,0.5-0.3,0.7c-0.2,0.5-0.4,0.9-0.6,1.4c-0.1,0.3-0.2,0.6-0.4,0.9c-0.2,0.4-0.3,0.9-0.5,1.3
				c-0.2,0.5-0.4,1-0.5,1.6c-0.1,0.4-0.2,0.8-0.4,1.1c-0.2,0.6-0.4,1.3-0.5,1.9c-0.1,0.2-0.1,0.4-0.2,0.6c-0.2,0.7-0.3,1.3-0.5,2
				c0,0.2-0.1,0.3-0.1,0.5c-0.3,1.7-0.6,3.4-0.8,5.1c0,0.2,0,0.4-0.1,0.6c-0.1,0.7-0.1,1.3-0.2,2c0,0.2,0,0.5,0,0.7
				c0,0.9-0.1,1.7-0.1,2.6c0,1,0,2,0.1,3c0,0,0,0.1,0,0.1c0,0.4,0.1,0.8,0.1,1.2c0,0.2,0,0.4,0,0.5c-0.1-1.6-0.2-3.2-0.2-4.8v-0.2
				c-19.3,11.4-33.5,22.5-40,31.4c0,0,0,0,0,0c0,0,0,0,0,0c-0.4,0.5-0.7,1-1.1,1.5c-0.1,0.1-0.2,0.3-0.2,0.4
				c-0.2,0.4-0.5,0.8-0.7,1.2c-0.1,0.1-0.1,0.2-0.2,0.4c-0.3,0.5-0.5,0.9-0.7,1.4c0,0.1-0.1,0.2-0.1,0.3c-0.1,0.4-0.3,0.7-0.4,1.1
				c0,0.1-0.1,0.3-0.1,0.4c-0.1,0.3-0.2,0.7-0.2,1c0,0.1,0,0.2-0.1,0.3c-0.1,0.4-0.1,0.8-0.1,1.2c0,0.1,0,0.2,0,0.4
				c0,0.3,0,0.6,0.1,0.8c0,0.1,0,0.2,0.1,0.4c0.1,0.4,0.2,0.7,0.3,1c3.8,8.9,28.3,7.4,61-2.1c0,0,0.1,0.1,0.1,0.1
				c0.3,0.3,0.6,0.5,0.9,0.8c0.3,0.3,0.7,0.6,1,0.9c0.3,0.3,0.6,0.5,1,0.8c0.3,0.3,0.6,0.5,1,0.8c0.4,0.3,0.8,0.6,1.1,0.9
				c0.1,0.1,0.2,0.1,0.3,0.2c0.2,0.2,0.5,0.3,0.7,0.5c0.3,0.2,0.6,0.4,0.9,0.7c0.6,0.4,1.3,0.8,1.9,1.2c0.3,0.2,0.5,0.3,0.8,0.5
				c0.4,0.3,0.9,0.5,1.4,0.8c0.3,0.2,0.6,0.3,0.9,0.5c0.4,0.2,0.9,0.5,1.3,0.7c0.3,0.1,0.6,0.3,0.9,0.4c0.5,0.3,1.1,0.5,1.6,0.7
				c0.2,0.1,0.4,0.2,0.6,0.3c0.7,0.3,1.5,0.6,2.3,0.9c0.2,0.1,0.5,0.2,0.7,0.2c0.6,0.2,1.1,0.4,1.7,0.6c0.3,0.1,0.6,0.2,0.9,0.3
				c0.5,0.2,1.1,0.3,1.6,0.5c0.3,0.1,0.6,0.2,0.8,0.2c0.7,0.2,1.4,0.3,2.1,0.5c0.1,0,0.3,0.1,0.4,0.1c0.8,0.2,1.6,0.3,2.5,0.4
				c0.3,0,0.5,0.1,0.8,0.1c0.6,0.1,1.2,0.2,1.8,0.2c0.3,0,0.6,0.1,0.9,0.1c0.6,0.1,1.2,0.1,1.8,0.1c0.2,0,0.4,0,0.6,0
				c0.1,0,0.2,0,0.2,0c0.9,0,1.7,0.1,2.6,0.1c1,0,2,0,3-0.1c0.3,0,0.6-0.1,1-0.1c0.6,0,1.3-0.1,1.9-0.2c0.4,0,0.8-0.1,1.2-0.1
				c0.6-0.1,1.1-0.1,1.7-0.2c0.4-0.1,0.8-0.1,1.2-0.2c0.5-0.1,1.1-0.2,1.6-0.3c0.4-0.1,0.8-0.2,1.3-0.3c0.5-0.1,1-0.2,1.5-0.4
				c0.4-0.1,0.9-0.2,1.3-0.4c0.5-0.1,1-0.3,1.4-0.4c0.4-0.1,0.9-0.3,1.3-0.4c0.4-0.2,0.9-0.3,1.3-0.5c0.4-0.2,0.9-0.3,1.3-0.5
				c0.4-0.2,0.8-0.3,1.2-0.5c0.5-0.2,0.9-0.4,1.3-0.6c0.4-0.2,0.8-0.4,1.1-0.5c0.5-0.2,0.9-0.5,1.4-0.7c0.3-0.2,0.7-0.4,1-0.6
				c0.5-0.3,1-0.5,1.4-0.8c0.3-0.2,0.6-0.4,0.9-0.5c0.5-0.3,1-0.6,1.5-1c0.2-0.2,0.5-0.3,0.7-0.5c0.5-0.4,1.1-0.7,1.6-1.1
				c0.2-0.1,0.3-0.2,0.5-0.4c0.6-0.4,1.2-0.9,1.7-1.4c0.1,0,0.1-0.1,0.2-0.2c2-1.6,3.8-3.4,5.5-5.2c1.2-1.3,2.4-2.7,3.5-4.2
				c0.1-0.1,0.1-0.2,0.2-0.2c0.4-0.6,0.9-1.2,1.3-1.8c0.1-0.1,0.2-0.2,0.2-0.4c0.4-0.6,0.9-1.3,1.3-2c0-0.1,0.1-0.1,0.1-0.2
				c0.9-1.5,1.7-3,2.5-4.5c0.1-0.2,0.2-0.4,0.3-0.6c0.2-0.4,0.4-0.8,0.5-1.1c0.1-0.1,0.1-0.3,0.2-0.4c0.1-0.3,0.3-0.7,0.4-1
				c0.2-0.5,0.4-0.9,0.6-1.4c0.1-0.3,0.3-0.7,0.4-1c0.2-0.5,0.3-1,0.5-1.5c0.1-0.3,0.2-0.7,0.3-1c0.2-0.5,0.3-1.1,0.4-1.6
				c0.1-0.3,0.2-0.6,0.3-0.9c0.1-0.6,0.3-1.2,0.4-1.7c0.1-0.3,0.1-0.6,0.2-0.8c0.1-0.7,0.2-1.3,0.4-2c0-0.2,0.1-0.4,0.1-0.7
				c0.1-0.8,0.2-1.6,0.3-2.5c0-0.1,0-0.1,0-0.2c0.1-0.9,0.2-1.8,0.2-2.6v0c0,0,0,0,0,0C972.7,1386.8,972.7,1385.9,972.7,1384.9
				C972.7,1384.9,972.7,1384.9,972.7,1384.9z M992.3,1349.9c2.3,5.4-5.8,14.6-20.6,24.8c0,0,0,0,0,0c0-0.1,0-0.1,0-0.2
				c-0.1-0.4-0.2-0.9-0.3-1.3c-0.1-0.4-0.2-0.8-0.3-1.2c-0.1-0.5-0.2-0.9-0.3-1.4c-0.1-0.4-0.2-0.8-0.3-1.2
				c-0.1-0.5-0.3-0.9-0.4-1.4c-0.3-0.8-0.5-1.6-0.8-2.4c-0.1-0.3-0.3-0.7-0.4-1c-0.2-0.5-0.4-1-0.6-1.4c-0.2-0.4-0.3-0.7-0.5-1.1
				c-0.2-0.4-0.4-0.9-0.6-1.3c-0.2-0.4-0.4-0.8-0.6-1.2c-0.2-0.4-0.4-0.8-0.6-1.1c-0.2-0.4-0.5-0.8-0.7-1.3
				c-0.1-0.2-0.2-0.5-0.4-0.7c-0.1-0.1-0.1-0.2-0.2-0.3c-0.2-0.3-0.4-0.6-0.6-1c-0.3-0.5-0.6-0.9-0.9-1.4c-0.1-0.2-0.3-0.4-0.4-0.6
				c-0.4-0.6-0.8-1.2-1.3-1.8c-0.1-0.1-0.1-0.1-0.2-0.2c-0.6-0.8-1.2-1.5-1.8-2.3c-0.3-0.4-0.6-0.7-0.9-1c0,0,0.1,0.1,0.1,0.1
				C977.2,1344.1,990,1344.4,992.3,1349.9z M861.5,1390.5C861.5,1390.6,861.5,1390.6,861.5,1390.5c0,0.4,0.1,0.8,0.2,1.2
				c0.1,0.5,0.1,1.1,0.2,1.6c0.1,0.4,0.1,0.7,0.2,1.1c0.1,0.6,0.2,1.2,0.3,1.7c0.1,0.3,0.1,0.5,0.2,0.8c0.2,0.7,0.3,1.4,0.5,2
				c0,0,0,0.1,0,0.1v0c0.1,0.5,0.3,1,0.4,1.5c0.1,0.2,0.1,0.5,0.2,0.7c0.3,0.8,0.5,1.6,0.8,2.4c0.1,0.2,0.1,0.3,0.2,0.5
				c0.2,0.6,0.5,1.3,0.7,1.9c0.1,0.2,0.2,0.5,0.3,0.7c0.2,0.5,0.5,1.1,0.7,1.6c0.1,0.3,0.3,0.5,0.4,0.8c0.2,0.5,0.5,1,0.7,1.4
				c0.2,0.3,0.3,0.6,0.5,0.9c0.2,0.4,0.5,0.9,0.8,1.3c0.2,0.3,0.3,0.6,0.5,0.9c0.3,0.5,0.6,0.9,0.9,1.4c0.5,0.7,0.9,1.4,1.4,2.1
				c0.1,0.1,0.1,0.2,0.2,0.3c0,0,0,0,0,0c-16.6,3.3-28.1,2.8-30.3-2.4c-2.3-5.3,5.6-14.4,20-24.4
				C861.5,1390.7,861.5,1390.6,861.5,1390.5z"/>
			<g>
				<g>
					<circle class="st14" cx="917" cy="1377" r="55.7"/>
					<circle class="st14" cx="917" cy="1377" r="55.7"/>
					<path class="st14" d="M972.7,1377c0,1,0,2-0.1,3v0c-0.4,6.9-2,13.5-4.7,19.5c-2.5,5.6-5.8,10.7-9.9,15.1
						c-10.2,11.1-24.9,18.1-41.1,18.1c-12.2,0-23.5-3.9-32.6-10.6c-5.3-3.8-9.9-8.6-13.6-14.1c-3.4-5-6-10.6-7.6-16.6v0
						c-1-3.7-1.6-7.5-1.8-11.4c0-1-0.1-2-0.1-3.1c0-5.8,0.9-11.4,2.5-16.6c0.9-2.8,2-5.5,3.3-8.1c4-8,9.8-14.9,16.9-20.2
						c9.2-6.8,20.7-10.8,33-10.8c5.4,0,10.7,0.8,15.6,2.2c10.8,3.1,20.2,9.4,27.2,17.8c2,2.3,3.7,4.9,5.3,7.5
						c3.4,5.7,5.7,12.1,6.9,18.9C972.4,1370.8,972.7,1373.9,972.7,1377z"/>
					<ellipse class="st15" cx="917" cy="1369" rx="47.5" ry="44.6"/>
					<ellipse class="st15" cx="917" cy="1365.4" rx="39.4" ry="37.1"/>
					<path class="st16" d="M972.6,1377.1c0,30.7-24.9,55.6-55.6,55.6c-30.7,0-55.6-24.9-55.6-55.6c0-4.1,0.4-8.1,1.3-12
						c-0.1,1.4-0.2,2.8-0.2,4.3c0,30.1,24.4,54.5,54.5,54.5s54.5-24.4,54.5-54.5c0-1.4-0.1-2.9-0.2-4.3
						C972.2,1369,972.6,1373,972.6,1377.1z"/>
					<g>
						<path class="st17" d="M962.9,1391.3c0,1.4-1.1,2.5-2.5,2.5c-1.4,0-2.5-1.1-2.5-2.5c0-1.4,1.1-2.5,2.5-2.5
							C961.8,1388.8,962.9,1389.9,962.9,1391.3z"/>
						<path class="st17" d="M899.2,1393.6c0,1.4-1.1,2.5-2.5,2.5c-1.4,0-2.5-1.1-2.5-2.5c0-1.4,1.1-2.5,2.5-2.5
							C898.1,1391.1,899.2,1392.2,899.2,1393.6z"/>
						<circle class="st17" cx="935.3" cy="1418.7" r="2.5"/>
						<path class="st17" d="M874.3,1366.5c0,1.4-1.1,2.5-2.5,2.5c-1.4,0-2.5-1.1-2.5-2.5s1.1-2.5,2.5-2.5
							C873.2,1364,874.3,1365.1,874.3,1366.5z"/>
						<path class="st17" d="M897.1,1337.1c0,1.4-1.1,2.5-2.5,2.5s-2.5-1.1-2.5-2.5c0-1.4,1.1-2.5,2.5-2.5S897.1,1335.7,897.1,1337.1
							z"/>
						<path class="st17" d="M875.5,1372.2c0,1-0.8,1.8-1.8,1.8c-1,0-1.8-0.8-1.8-1.8c0-1,0.8-1.8,1.8-1.8
							C874.7,1370.3,875.5,1371.2,875.5,1372.2z"/>
						<path class="st17" d="M920.3,1370.1c0,1-0.8,1.8-1.8,1.8c-1,0-1.8-0.8-1.8-1.8s0.8-1.8,1.8-1.8
							C919.5,1368.3,920.3,1369.1,920.3,1370.1z"/>
						<circle class="st17" cx="910.1" cy="1425.7" r="1.8"/>
						<path class="st17" d="M938.9,1335.3c0,1-0.8,1.8-1.8,1.8c-1,0-1.8-0.8-1.8-1.8s0.8-1.8,1.8-1.8
							C938.1,1333.5,938.9,1334.3,938.9,1335.3z"/>
						<path class="st17" d="M897.1,1331.9c0,1-0.8,1.8-1.8,1.8s-1.8-0.8-1.8-1.8s0.8-1.8,1.8-1.8S897.1,1330.9,897.1,1331.9z"/>
						<path class="st17" d="M966.6,1388.8c0,0.8-0.7,1.5-1.5,1.5c-0.8,0-1.5-0.7-1.5-1.5s0.7-1.5,1.5-1.5
							C966,1387.3,966.6,1387.9,966.6,1388.8z"/>
						<path class="st17" d="M940.4,1399.6c0,0.8-0.7,1.5-1.5,1.5c-0.8,0-1.5-0.7-1.5-1.5c0-0.8,0.7-1.5,1.5-1.5
							C939.7,1398.1,940.4,1398.8,940.4,1399.6z"/>
						<path class="st17" d="M906.9,1424.9c0,0.8-0.7,1.5-1.5,1.5c-0.8,0-1.5-0.7-1.5-1.5c0-0.8,0.7-1.5,1.5-1.5
							C906.2,1423.4,906.9,1424,906.9,1424.9z"/>
						<path class="st17" d="M870.4,1371.8c0,0.8-0.7,1.5-1.5,1.5c-0.8,0-1.5-0.7-1.5-1.5c0-0.8,0.7-1.5,1.5-1.5
							C869.8,1370.3,870.4,1371,870.4,1371.8z"/>
						<path class="st17" d="M917.8,1373.9c0,0.8-0.7,1.5-1.5,1.5s-1.5-0.7-1.5-1.5c0-0.8,0.7-1.5,1.5-1.5S917.8,1373.1,917.8,1373.9
							z"/>
						<path class="st17" d="M890.6,1337.1c0,0.8-0.7,1.5-1.5,1.5c-0.8,0-1.5-0.7-1.5-1.5c0-0.8,0.7-1.5,1.5-1.5
							C889.9,1335.6,890.6,1336.3,890.6,1337.1z"/>
						<path class="st17" d="M943.4,1336c0,0.8-0.7,1.5-1.5,1.5c-0.8,0-1.5-0.7-1.5-1.5s0.7-1.5,1.5-1.5
							C942.8,1334.5,943.4,1335.2,943.4,1336z"/>
						<path class="st17" d="M902.2,1357.9c0,0.8-0.7,1.5-1.5,1.5c-0.8,0-1.5-0.7-1.5-1.5c0-0.8,0.7-1.5,1.5-1.5
							C901.5,1356.4,902.2,1357.1,902.2,1357.9z"/>
						<path class="st17" d="M946.9,1365.2c0,0.8-0.7,1.5-1.5,1.5c-0.8,0-1.5-0.7-1.5-1.5c0-0.8,0.7-1.5,1.5-1.5
							C946.2,1363.7,946.9,1364.4,946.9,1365.2z"/>
						<path class="st17" d="M873.4,1393.6c0,0.8-0.7,1.5-1.5,1.5c-0.8,0-1.5-0.7-1.5-1.5c0-0.8,0.7-1.5,1.5-1.5
							C872.7,1392.1,873.4,1392.8,873.4,1393.6z"/>
						<path class="st17" d="M933.5,1423.4c0,0.8-0.7,1.5-1.5,1.5s-1.5-0.7-1.5-1.5c0-0.8,0.7-1.5,1.5-1.5S933.5,1422.5,933.5,1423.4
							z"/>
						<path class="st17" d="M903.7,1395.6c0,0.8-0.7,1.5-1.5,1.5s-1.5-0.7-1.5-1.5s0.7-1.5,1.5-1.5S903.7,1394.8,903.7,1395.6z"/>
					</g>
					<g class="st18">
						<path class="st14" d="M887.1,1336.8c1.2,1.4,0.4,3.9-1.6,5.6c-2.1,1.8-4.7,2.1-5.8,0.7c-1.2-1.4-0.4-3.9,1.6-5.6
							C883.3,1335.8,885.9,1335.4,887.1,1336.8z"/>
						<path class="st14" d="M878.8,1344.7c0.7,0.8,0.3,2.4-1,3.4c-1.2,1.1-2.8,1.3-3.5,0.4s-0.3-2.4,1-3.4
							C876.5,1344.1,878.1,1343.9,878.8,1344.7z"/>
					</g>
				</g>
				<g>
					<path class="st14" d="M1016,1334.1c-3.8-8.9-28.3-7.4-61,2.1c1.4,1.3,2.8,2.7,4,4.1c18.2-4,31-3.7,33.4,1.8
						c2.3,5.4-5.8,14.6-20.6,24.8c-12,8.3-28.5,17.4-47.2,25.5c-19.5,8.5-38.1,14.4-52.7,17.3c-16.6,3.3-28.1,2.8-30.3-2.4
						c-2.3-5.3,5.6-14.4,20-24.4c-0.2-2-0.3-4-0.3-6v-0.2c-29.4,17.4-47.1,34.2-43.3,43c3.8,8.9,28.3,7.4,61-2.1
						c14.7-4.3,31.1-10.2,48.1-17.5c17-7.3,32.5-15.3,45.7-23C1002,1359.8,1019.8,1343,1016,1334.1z"/>
					<path class="st14" d="M972.7,1377.2c-13.2,7.8-28.7,15.7-45.7,23c-17,7.3-33.3,13.2-48.1,17.5c-32.8,9.5-57.2,11-61,2.1
						c-1.3-3-0.1-7,3.3-11.7c-1,2.5-1.2,4.6-0.4,6.5c3.7,8.6,27.4,7.2,59.1-2.1c14.2-4.1,30.1-9.8,46.5-16.9
						c16.4-7.1,31.4-14.8,44.2-22.3c28.4-16.8,45.6-33.1,41.9-41.6c-0.3-0.6-0.6-1.2-1.1-1.7c2.3,1,3.8,2.3,4.6,4.1
						C1019.8,1343,1002,1359.8,972.7,1377.2z"/>
					<path class="st15" d="M961.1,1337.1c0,0,18.3-4.4,29.9-0.2c4.2,1.5,6.2,6.4,4.2,10.4c-1.6,3.4-4.1,7.5-7.6,10.5
						c0,0,17.8-12.4,20.8-21.7c0.7-2.3-0.8-4.6-3.1-5C999.2,1330.2,984.4,1329.3,961.1,1337.1z"/>
					<path class="st15" d="M858.6,1380.7c0,0-15.5,10.7-20.2,22.1c-1.7,4.2,0.6,8.9,4.9,10.1c3.6,1.1,8.3,2,12.9,1.4
						c0,0-21.1,5-30.1,0.9c-2.2-1-2.9-3.7-1.6-5.7C828,1404.4,837.2,1392.8,858.6,1380.7z"/>
				</g>
			</g>
		</g>
		<g>
			<g>
				<g>
					<g>
						<path class="st1" d="M1186.9,1590.5c-6.9,0-12.5-5.6-12.5-12.5s5.6-12.5,12.5-12.5c47.3,0,89.5-30,104.9-74.7l59.8-172.7
							c58.5-168.9,88.2-345.2,88.2-524c0-6.9,5.6-12.5,12.5-12.5s12.5,5.6,12.5,12.5c0,181.6-30.1,360.6-89.6,532.2l-59.8,172.7
							C1296.5,1553.7,1244.9,1590.5,1186.9,1590.5z"/>
					</g>
				</g>
			</g>
		</g>
		<g>
			<g>
				<g>
					<g>
						<g>
							<path class="st6" d="M1212.9,143.1L1212.9,143.1c-10.3,17.9-33.4,24.2-51.2,13.6C1088,113.2,1002,88.2,910.2,88.2
								c-91.8,0-177.8,25-251.5,68.6c-17.8,10.5-40.8,4.3-51.2-13.6l0,0c-10.2-17.7-4.4-40.4,13.1-50.8
								c86.8-51.4,186.1-78.8,289.6-78.8c103.5,0,202.8,27.4,289.6,78.8C1217.3,102.7,1223.1,125.4,1212.9,143.1z"/>
						</g>
					</g>
				</g>
			</g>
			<g class="st4">
				<g>
					<g>
						<g>
							<path class="st5" d="M620.6,117.3c86.8-51.4,186.1-78.8,289.6-78.8c103.5,0,202.8,27.4,289.6,78.8c7.8,4.6,13.2,11.6,16,19.5
								c5.8-16.5-0.5-35.3-16-44.5c-86.8-51.4-186.1-78.8-289.6-78.8c-103.5,0-202.8,27.4-289.6,78.8c-15.5,9.2-21.8,28-16,44.5
								C607.4,128.9,612.9,121.9,620.6,117.3z"/>
						</g>
					</g>
				</g>
			</g>
			<g class="st2">
				<g>
					<g>
						<g>
							<path class="st1" d="M1212.9,143.1c-10.4,17.9-33.4,24.2-51.2,13.7C1088,113.1,1002,88.2,910.2,88.2
								c-91.8,0-177.8,25-251.5,68.6c-17.8,10.5-40.8,4.3-51.2-13.7c-3.4-5.9-5-12.4-5-18.7c0-7,2-13.9,5.6-19.8
								c10.6,17.2,33.1,23.1,50.6,12.7c73.7-43.5,159.7-68.5,251.5-68.5c91.8,0,177.8,25,251.5,68.5c17.5,10.3,40,4.5,50.6-12.7
								C1219.4,115.9,1220,130.7,1212.9,143.1z"/>
						</g>
					</g>
				</g>
			</g>
			<g>
				<g>
					<g>
						<g>
							<path class="st1" d="M640,175.3c-4.3,0-8.7-0.6-13-1.7c-13.3-3.5-24.4-11.9-31.2-23.8c-13.9-24-5.8-55,17.9-69.1
								C702.9,27.9,805.4,0,910.2,0s207.3,27.9,296.4,80.7c23.8,14.1,31.8,45.1,17.9,69.1l0,0c-6.9,11.9-18,20.4-31.2,23.8
								c-13.2,3.4-26.8,1.6-38.5-5.3c-73.8-43.6-158.4-66.7-244.7-66.7s-170.8,23.1-244.7,66.7C657.7,172.9,648.9,175.3,640,175.3z
								 M910.2,26.9c-100,0-197.8,26.6-282.7,76.9c-11.1,6.6-14.9,21.2-8.3,32.5c3.2,5.6,8.5,9.6,14.8,11.3c6.1,1.6,12.5,0.7,18-2.5
								c78-46.1,167.3-70.4,258.3-70.4c91,0,180.4,24.3,258.3,70.4c5.4,3.2,11.8,4.1,17.9,2.5c6.3-1.6,11.5-5.6,14.8-11.3
								c6.5-11.3,2.8-25.9-8.3-32.5C1107.9,53.5,1010.2,26.9,910.2,26.9z M1212.9,143.1L1212.9,143.1L1212.9,143.1z"/>
						</g>
					</g>
				</g>
			</g>
			<g>
				<g>
					<g>
						<g>
							<path class="st1" d="M640,175.3c-4.3,0-8.7-0.6-13-1.7c-13.3-3.5-24.4-11.9-31.2-23.8c-13.9-24-5.8-55,17.9-69.1
								C702.9,27.9,805.4,0,910.2,0s207.3,27.9,296.4,80.7c23.8,14.1,31.8,45.1,17.9,69.1l0,0c-6.9,11.9-18,20.4-31.2,23.8
								c-13.2,3.4-26.8,1.6-38.5-5.3c-73.8-43.6-158.4-66.7-244.7-66.7s-170.8,23.1-244.7,66.7C657.7,172.9,648.9,175.3,640,175.3z
								 M910.2,26.9c-100,0-197.8,26.6-282.7,76.9c-11.1,6.6-14.9,21.2-8.3,32.5c3.2,5.6,8.5,9.6,14.8,11.3c6.1,1.6,12.5,0.7,18-2.5
								c78-46.1,167.3-70.4,258.3-70.4c91,0,180.4,24.3,258.3,70.4c5.4,3.2,11.8,4.1,17.9,2.5c6.3-1.6,11.5-5.6,14.8-11.3
								c6.5-11.3,2.8-25.9-8.3-32.5C1107.9,53.5,1010.2,26.9,910.2,26.9z M1212.9,143.1L1212.9,143.1L1212.9,143.1z"/>
						</g>
					</g>
				</g>
			</g>
		</g>
		<g>
			<g>
				<g>
					<g>
						<g>
							<path class="st1" d="M691.1,427.3c-6.6,0-12.4-4.7-13.7-11.4c-6.8-35.8-31-55.6-31.2-55.8c-6-4.8-7-13.6-2.2-19.6
								s13.5-7,19.6-2.3c1.3,1,32.4,26.1,41.3,72.5c1.5,7.6-3.5,14.9-11.1,16.4C692.9,427.3,692,427.3,691.1,427.3z"/>
						</g>
					</g>
				</g>
			</g>
			<g>
				<g>
					<g>
						<g>
							<path class="st1" d="M1142.9,427.3c-0.9,0-1.8-0.1-2.6-0.3c-7.6-1.5-12.6-8.8-11.1-16.4c8.9-46.4,40-71.4,41.3-72.5
								c6.1-4.8,14.9-3.8,19.7,2.3c4.8,6,3.8,14.8-2.3,19.6c-0.6,0.5-24.4,20.2-31.2,55.8C1155.3,422.7,1149.4,427.3,1142.9,427.3z"
								/>
						</g>
					</g>
				</g>
			</g>
		</g>
	</g>
	<g class="st19">
		<g>
			<g>
				<g>
					<ellipse class="st20" cx="974.1" cy="3128.2" rx="817.9" ry="84.8"/>
				</g>
			</g>
		</g>
	</g>
</g>
</svg>
